<svg width="219" height="29" viewBox="0 0 219 29" fill="none" xmlns="http://www.w3.org/2000/svg">
<path d="M17.1699 22.729H7.92383L6.16602 28.0024H0.558594L10.0859 2.40869H14.9727L24.5527 28.0024H18.9453L17.1699 22.729ZM9.34766 18.4575H15.7461L12.5293 8.87744L9.34766 18.4575ZM43.748 18.6685C43.748 21.7153 43.0977 24.0942 41.7969 25.8052C40.4961 27.5044 38.6797 28.354 36.3477 28.354C34.2852 28.354 32.6387 27.563 31.4082 25.981L31.1797 28.0024H26.6094V1.00244H31.6895V10.688C32.8613 9.31689 34.4023 8.63135 36.3125 8.63135C38.6328 8.63135 40.4492 9.48682 41.7617 11.1978C43.0859 12.897 43.748 15.2935 43.748 18.3872V18.6685ZM38.668 18.2993C38.668 16.3774 38.3633 14.9771 37.7539 14.0981C37.1445 13.2075 36.2363 12.7622 35.0293 12.7622C33.4121 12.7622 32.2988 13.4243 31.6895 14.7485V22.2544C32.3105 23.5903 33.4355 24.2583 35.0645 24.2583C36.7051 24.2583 37.7832 23.4497 38.2988 21.8325C38.5449 21.0591 38.668 19.8813 38.668 18.2993ZM58.2852 26.0688C57.0312 27.5923 55.2969 28.354 53.082 28.354C51.043 28.354 49.4844 27.7681 48.4062 26.5962C47.3398 25.4243 46.7949 23.7075 46.7715 21.4458V8.98291H51.8516V21.27C51.8516 23.2505 52.7539 24.2407 54.5586 24.2407C56.2812 24.2407 57.4648 23.6431 58.1094 22.4478V8.98291H63.207V28.0024H58.4258L58.2852 26.0688ZM77.3398 22.7466C77.3398 22.1255 77.0293 21.6392 76.4082 21.2876C75.7988 20.9243 74.8145 20.6021 73.4551 20.3208C68.9316 19.3716 66.6699 17.4497 66.6699 14.5552C66.6699 12.8677 67.3672 11.4614 68.7617 10.3364C70.168 9.19971 72.002 8.63135 74.2637 8.63135C76.6777 8.63135 78.6055 9.19971 80.0469 10.3364C81.5 11.4731 82.2266 12.9497 82.2266 14.7661H77.1465C77.1465 14.0396 76.9121 13.4419 76.4434 12.9731C75.9746 12.4927 75.2422 12.2524 74.2461 12.2524C73.3906 12.2524 72.7285 12.4458 72.2598 12.8325C71.791 13.2192 71.5566 13.7114 71.5566 14.3091C71.5566 14.8716 71.8203 15.3286 72.3477 15.6802C72.8867 16.02 73.7891 16.3188 75.0547 16.5767C76.3203 16.8228 77.3867 17.104 78.2539 17.4204C80.9375 18.4048 82.2793 20.1099 82.2793 22.5356C82.2793 24.27 81.5352 25.6763 80.0469 26.7544C78.5586 27.8208 76.6367 28.354 74.2812 28.354C72.6875 28.354 71.2695 28.0728 70.0273 27.5103C68.7969 26.936 67.8301 26.1567 67.127 25.1724C66.4238 24.1763 66.0723 23.104 66.0723 21.9556H70.8887C70.9355 22.8579 71.2695 23.5493 71.8906 24.0298C72.5117 24.5103 73.3438 24.7505 74.3867 24.7505C75.3594 24.7505 76.0918 24.5688 76.584 24.2056C77.0879 23.8306 77.3398 23.3442 77.3398 22.7466ZM94.3203 28.354C91.5312 28.354 89.2578 27.4985 87.5 25.7876C85.7539 24.0767 84.8809 21.7974 84.8809 18.9497V18.4575C84.8809 16.5474 85.25 14.8423 85.9883 13.3423C86.7266 11.8306 87.7695 10.6704 89.1172 9.86182C90.4766 9.0415 92.0234 8.63135 93.7578 8.63135C96.3594 8.63135 98.4043 9.45166 99.8926 11.0923C101.393 12.7329 102.143 15.0591 102.143 18.0708V20.145H90.0312C90.1953 21.3872 90.6875 22.3833 91.5078 23.1333C92.3398 23.8833 93.3887 24.2583 94.6543 24.2583C96.6113 24.2583 98.1406 23.5493 99.2422 22.1313L101.738 24.9263C100.977 26.0044 99.9453 26.8481 98.6445 27.4575C97.3438 28.0552 95.9023 28.354 94.3203 28.354ZM93.7402 12.7446C92.7324 12.7446 91.9121 13.0845 91.2793 13.7642C90.6582 14.4438 90.2598 15.4165 90.084 16.6821H97.1504V16.2778C97.127 15.1528 96.8223 14.2856 96.2363 13.6763C95.6504 13.0552 94.8184 12.7446 93.7402 12.7446ZM113.217 18.3169C113.217 16.4302 113.58 14.7485 114.307 13.272C115.033 11.7954 116.076 10.6528 117.436 9.84424C118.807 9.03564 120.395 8.63135 122.199 8.63135C124.766 8.63135 126.857 9.4165 128.475 10.9868C130.104 12.5571 131.012 14.6899 131.199 17.3853L131.234 18.686C131.234 21.604 130.42 23.9478 128.791 25.7173C127.162 27.4751 124.977 28.354 122.234 28.354C119.492 28.354 117.301 27.4751 115.66 25.7173C114.031 23.9595 113.217 21.5688 113.217 18.5454V18.3169ZM118.297 18.686C118.297 20.4907 118.637 21.8735 119.316 22.8345C119.996 23.7837 120.969 24.2583 122.234 24.2583C123.465 24.2583 124.426 23.7896 125.117 22.8521C125.809 21.9028 126.154 20.3911 126.154 18.3169C126.154 16.5474 125.809 15.1763 125.117 14.2036C124.426 13.231 123.453 12.7446 122.199 12.7446C120.957 12.7446 119.996 13.231 119.316 14.2036C118.637 15.1646 118.297 16.6587 118.297 18.686ZM135.752 28.0024V12.7095H132.922V8.98291H135.752V7.36572C135.752 5.23291 136.361 3.58057 137.58 2.40869C138.811 1.2251 140.527 0.633301 142.73 0.633301C143.434 0.633301 144.295 0.750488 145.314 0.984863L145.262 4.92236C144.84 4.81689 144.324 4.76416 143.715 4.76416C141.805 4.76416 140.85 5.66064 140.85 7.45361V8.98291H144.629V12.7095H140.85V28.0024H135.752ZM161.838 23.7661H173.035V28.0024H156.564V2.40869H161.838V23.7661ZM186.764 28.0024C186.529 27.5454 186.359 26.9771 186.254 26.2974C185.023 27.6685 183.424 28.354 181.455 28.354C179.592 28.354 178.045 27.8149 176.814 26.7368C175.596 25.6587 174.986 24.2993 174.986 22.6587C174.986 20.6431 175.73 19.0962 177.219 18.0181C178.719 16.9399 180.881 16.395 183.705 16.3833H186.043V15.2935C186.043 14.4146 185.814 13.7114 185.357 13.1841C184.912 12.6567 184.203 12.3931 183.23 12.3931C182.375 12.3931 181.701 12.5981 181.209 13.0083C180.729 13.4185 180.488 13.981 180.488 14.6958H175.408C175.408 13.5942 175.748 12.5747 176.428 11.6372C177.107 10.6997 178.068 9.96729 179.311 9.43994C180.553 8.90088 181.947 8.63135 183.494 8.63135C185.838 8.63135 187.695 9.22314 189.066 10.4067C190.449 11.5786 191.141 13.231 191.141 15.3638V23.6079C191.152 25.4126 191.404 26.7778 191.896 27.7036V28.0024H186.764ZM182.562 24.4692C183.312 24.4692 184.004 24.3052 184.637 23.9771C185.27 23.6372 185.738 23.186 186.043 22.6235V19.354H184.145C181.602 19.354 180.248 20.2329 180.084 21.9907L180.066 22.2896C180.066 22.9224 180.289 23.4438 180.734 23.854C181.18 24.2642 181.789 24.4692 182.562 24.4692ZM211.584 21.0942L214.08 8.98291H218.984L214.133 28.0024H209.879L206.275 16.0317L202.672 28.0024H198.436L193.584 8.98291H198.488L200.967 21.0767L204.447 8.98291H208.121L211.584 21.0942Z" fill="#19578D"/>
</svg>
