<svg width="505" height="254" viewBox="0 0 505 254" fill="none" xmlns="http://www.w3.org/2000/svg">
<path d="M15.0117 145.02C15.0117 146.668 14.75 148.09 14.2266 149.285C13.7031 150.473 12.9688 151.402 12.0234 152.074L15.0703 154.465L13.5352 155.883L9.9375 153.023C9.375 153.164 8.78125 153.234 8.15625 153.234C6.8125 153.234 5.62109 152.906 4.58203 152.25C3.54297 151.586 2.73438 150.645 2.15625 149.426C1.58594 148.199 1.29297 146.781 1.27734 145.172V143.941C1.27734 142.301 1.5625 140.852 2.13281 139.594C2.70312 138.336 3.50781 137.375 4.54688 136.711C5.59375 136.039 6.78906 135.703 8.13281 135.703C9.50781 135.703 10.7148 136.035 11.7539 136.699C12.8008 137.363 13.6055 138.32 14.168 139.57C14.7305 140.812 15.0117 142.266 15.0117 143.93V145.02ZM12.7617 143.918C12.7617 141.91 12.3594 140.363 11.5547 139.277C10.7578 138.184 9.61719 137.637 8.13281 137.637C6.71875 137.637 5.60156 138.18 4.78125 139.266C3.96875 140.344 3.55078 141.844 3.52734 143.766V145.02C3.52734 146.973 3.93359 148.512 4.74609 149.637C5.56641 150.762 6.70312 151.324 8.15625 151.324C9.60938 151.324 10.7344 150.797 11.5312 149.742C12.3281 148.68 12.7383 147.16 12.7617 145.184V143.918ZM25.9688 151.746C25.125 152.738 23.8867 153.234 22.2539 153.234C20.9023 153.234 19.8711 152.844 19.1602 152.062C18.457 151.273 18.1016 150.109 18.0938 148.57V140.32H20.2617V148.512C20.2617 150.434 21.043 151.395 22.6055 151.395C24.2617 151.395 25.3633 150.777 25.9102 149.543V140.32H28.0781V153H26.0156L25.9688 151.746ZM36.6445 153.234C34.9258 153.234 33.5273 152.672 32.4492 151.547C31.3711 150.414 30.832 148.902 30.832 147.012V146.613C30.832 145.355 31.0703 144.234 31.5469 143.25C32.0312 142.258 32.7031 141.484 33.5625 140.93C34.4297 140.367 35.3672 140.086 36.375 140.086C38.0234 140.086 39.3047 140.629 40.2188 141.715C41.1328 142.801 41.5898 144.355 41.5898 146.379V147.281H33C33.0312 148.531 33.3945 149.543 34.0898 150.316C34.793 151.082 35.6836 151.465 36.7617 151.465C37.5273 151.465 38.1758 151.309 38.707 150.996C39.2383 150.684 39.7031 150.27 40.1016 149.754L41.4258 150.785C40.3633 152.418 38.7695 153.234 36.6445 153.234ZM36.375 141.867C35.5 141.867 34.7656 142.188 34.1719 142.828C33.5781 143.461 33.2109 144.352 33.0703 145.5H39.4219V145.336C39.3594 144.234 39.0625 143.383 38.5312 142.781C38 142.172 37.2812 141.867 36.375 141.867ZM51.4922 149.637C51.4922 149.051 51.2695 148.598 50.8242 148.277C50.3867 147.949 49.6172 147.668 48.5156 147.434C47.4219 147.199 46.5508 146.918 45.9023 146.59C45.2617 146.262 44.7852 145.871 44.4727 145.418C44.168 144.965 44.0156 144.426 44.0156 143.801C44.0156 142.762 44.4531 141.883 45.3281 141.164C46.2109 140.445 47.3359 140.086 48.7031 140.086C50.1406 140.086 51.3047 140.457 52.1953 141.199C53.0938 141.941 53.543 142.891 53.543 144.047H51.3633C51.3633 143.453 51.1094 142.941 50.6016 142.512C50.1016 142.082 49.4688 141.867 48.7031 141.867C47.9141 141.867 47.2969 142.039 46.8516 142.383C46.4062 142.727 46.1836 143.176 46.1836 143.73C46.1836 144.254 46.3906 144.648 46.8047 144.914C47.2188 145.18 47.9648 145.434 49.043 145.676C50.1289 145.918 51.0078 146.207 51.6797 146.543C52.3516 146.879 52.8477 147.285 53.168 147.762C53.4961 148.23 53.6602 148.805 53.6602 149.484C53.6602 150.617 53.207 151.527 52.3008 152.215C51.3945 152.895 50.2188 153.234 48.7734 153.234C47.7578 153.234 46.8594 153.055 46.0781 152.695C45.2969 152.336 44.6836 151.836 44.2383 151.195C43.8008 150.547 43.582 149.848 43.582 149.098H45.75C45.7891 149.824 46.0781 150.402 46.6172 150.832C47.1641 151.254 47.8828 151.465 48.7734 151.465C49.5938 151.465 50.25 151.301 50.7422 150.973C51.2422 150.637 51.4922 150.191 51.4922 149.637ZM59.4258 137.25V140.32H61.793V141.996H59.4258V149.859C59.4258 150.367 59.5312 150.75 59.7422 151.008C59.9531 151.258 60.3125 151.383 60.8203 151.383C61.0703 151.383 61.4141 151.336 61.8516 151.242V153C61.2812 153.156 60.7266 153.234 60.1875 153.234C59.2188 153.234 58.4883 152.941 57.9961 152.355C57.5039 151.77 57.2578 150.938 57.2578 149.859V141.996H54.9492V140.32H57.2578V137.25H59.4258ZM66.6914 153H64.5234V140.32H66.6914V153ZM64.3477 136.957C64.3477 136.605 64.4531 136.309 64.6641 136.066C64.8828 135.824 65.2031 135.703 65.625 135.703C66.0469 135.703 66.3672 135.824 66.5859 136.066C66.8047 136.309 66.9141 136.605 66.9141 136.957C66.9141 137.309 66.8047 137.602 66.5859 137.836C66.3672 138.07 66.0469 138.188 65.625 138.188C65.2031 138.188 64.8828 138.07 64.6641 137.836C64.4531 137.602 64.3477 137.309 64.3477 136.957ZM69.5977 146.543C69.5977 145.301 69.8398 144.184 70.3242 143.191C70.8164 142.199 71.4961 141.434 72.3633 140.895C73.2383 140.355 74.2344 140.086 75.3516 140.086C77.0781 140.086 78.4727 140.684 79.5352 141.879C80.6055 143.074 81.1406 144.664 81.1406 146.648V146.801C81.1406 148.035 80.9023 149.145 80.4258 150.129C79.957 151.105 79.2812 151.867 78.3984 152.414C77.5234 152.961 76.5156 153.234 75.375 153.234C73.6562 153.234 72.2617 152.637 71.1914 151.441C70.1289 150.246 69.5977 148.664 69.5977 146.695V146.543ZM71.7773 146.801C71.7773 148.207 72.1016 149.336 72.75 150.188C73.4062 151.039 74.2812 151.465 75.375 151.465C76.4766 151.465 77.3516 151.035 78 150.176C78.6484 149.309 78.9727 148.098 78.9727 146.543C78.9727 145.152 78.6406 144.027 77.9766 143.168C77.3203 142.301 76.4453 141.867 75.3516 141.867C74.2812 141.867 73.418 142.293 72.7617 143.145C72.1055 143.996 71.7773 145.215 71.7773 146.801ZM85.9102 140.32L85.9805 141.914C86.9492 140.695 88.2148 140.086 89.7773 140.086C92.457 140.086 93.8086 141.598 93.832 144.621V153H91.6641V144.609C91.6562 143.695 91.4453 143.02 91.0312 142.582C90.625 142.145 89.9883 141.926 89.1211 141.926C88.418 141.926 87.8008 142.113 87.2695 142.488C86.7383 142.863 86.3242 143.355 86.0273 143.965V153H83.8594V140.32H85.9102ZM104.484 149.637C104.484 149.051 104.262 148.598 103.816 148.277C103.379 147.949 102.609 147.668 101.508 147.434C100.414 147.199 99.543 146.918 98.8945 146.59C98.2539 146.262 97.7773 145.871 97.4648 145.418C97.1602 144.965 97.0078 144.426 97.0078 143.801C97.0078 142.762 97.4453 141.883 98.3203 141.164C99.2031 140.445 100.328 140.086 101.695 140.086C103.133 140.086 104.297 140.457 105.188 141.199C106.086 141.941 106.535 142.891 106.535 144.047H104.355C104.355 143.453 104.102 142.941 103.594 142.512C103.094 142.082 102.461 141.867 101.695 141.867C100.906 141.867 100.289 142.039 99.8438 142.383C99.3984 142.727 99.1758 143.176 99.1758 143.73C99.1758 144.254 99.3828 144.648 99.7969 144.914C100.211 145.18 100.957 145.434 102.035 145.676C103.121 145.918 104 146.207 104.672 146.543C105.344 146.879 105.84 147.285 106.16 147.762C106.488 148.23 106.652 148.805 106.652 149.484C106.652 150.617 106.199 151.527 105.293 152.215C104.387 152.895 103.211 153.234 101.766 153.234C100.75 153.234 99.8516 153.055 99.0703 152.695C98.2891 152.336 97.6758 151.836 97.2305 151.195C96.793 150.547 96.5742 149.848 96.5742 149.098H98.7422C98.7812 149.824 99.0703 150.402 99.6094 150.832C100.156 151.254 100.875 151.465 101.766 151.465C102.586 151.465 103.242 151.301 103.734 150.973C104.234 150.637 104.484 150.191 104.484 149.637ZM114.902 146.555C114.902 144.609 115.363 143.047 116.285 141.867C117.207 140.68 118.414 140.086 119.906 140.086C121.391 140.086 122.566 140.594 123.434 141.609V135H125.602V153H123.609L123.504 151.641C122.637 152.703 121.43 153.234 119.883 153.234C118.414 153.234 117.215 152.633 116.285 151.43C115.363 150.227 114.902 148.656 114.902 146.719V146.555ZM117.07 146.801C117.07 148.238 117.367 149.363 117.961 150.176C118.555 150.988 119.375 151.395 120.422 151.395C121.797 151.395 122.801 150.777 123.434 149.543V143.719C122.785 142.523 121.789 141.926 120.445 141.926C119.383 141.926 118.555 142.336 117.961 143.156C117.367 143.977 117.07 145.191 117.07 146.801ZM134.238 153.234C132.52 153.234 131.121 152.672 130.043 151.547C128.965 150.414 128.426 148.902 128.426 147.012V146.613C128.426 145.355 128.664 144.234 129.141 143.25C129.625 142.258 130.297 141.484 131.156 140.93C132.023 140.367 132.961 140.086 133.969 140.086C135.617 140.086 136.898 140.629 137.812 141.715C138.727 142.801 139.184 144.355 139.184 146.379V147.281H130.594C130.625 148.531 130.988 149.543 131.684 150.316C132.387 151.082 133.277 151.465 134.355 151.465C135.121 151.465 135.77 151.309 136.301 150.996C136.832 150.684 137.297 150.27 137.695 149.754L139.02 150.785C137.957 152.418 136.363 153.234 134.238 153.234ZM133.969 141.867C133.094 141.867 132.359 142.188 131.766 142.828C131.172 143.461 130.805 144.352 130.664 145.5H137.016V145.336C136.953 144.234 136.656 143.383 136.125 142.781C135.594 142.172 134.875 141.867 133.969 141.867ZM149.086 149.637C149.086 149.051 148.863 148.598 148.418 148.277C147.98 147.949 147.211 147.668 146.109 147.434C145.016 147.199 144.145 146.918 143.496 146.59C142.855 146.262 142.379 145.871 142.066 145.418C141.762 144.965 141.609 144.426 141.609 143.801C141.609 142.762 142.047 141.883 142.922 141.164C143.805 140.445 144.93 140.086 146.297 140.086C147.734 140.086 148.898 140.457 149.789 141.199C150.688 141.941 151.137 142.891 151.137 144.047H148.957C148.957 143.453 148.703 142.941 148.195 142.512C147.695 142.082 147.062 141.867 146.297 141.867C145.508 141.867 144.891 142.039 144.445 142.383C144 142.727 143.777 143.176 143.777 143.73C143.777 144.254 143.984 144.648 144.398 144.914C144.812 145.18 145.559 145.434 146.637 145.676C147.723 145.918 148.602 146.207 149.273 146.543C149.945 146.879 150.441 147.285 150.762 147.762C151.09 148.23 151.254 148.805 151.254 149.484C151.254 150.617 150.801 151.527 149.895 152.215C148.988 152.895 147.812 153.234 146.367 153.234C145.352 153.234 144.453 153.055 143.672 152.695C142.891 152.336 142.277 151.836 141.832 151.195C141.395 150.547 141.176 149.848 141.176 149.098H143.344C143.383 149.824 143.672 150.402 144.211 150.832C144.758 151.254 145.477 151.465 146.367 151.465C147.188 151.465 147.844 151.301 148.336 150.973C148.836 150.637 149.086 150.191 149.086 149.637ZM156.434 153H154.266V140.32H156.434V153ZM154.09 136.957C154.09 136.605 154.195 136.309 154.406 136.066C154.625 135.824 154.945 135.703 155.367 135.703C155.789 135.703 156.109 135.824 156.328 136.066C156.547 136.309 156.656 136.605 156.656 136.957C156.656 137.309 156.547 137.602 156.328 137.836C156.109 138.07 155.789 138.188 155.367 138.188C154.945 138.188 154.625 138.07 154.406 137.836C154.195 137.602 154.09 137.309 154.09 136.957ZM159.398 146.555C159.398 144.578 159.855 143.008 160.77 141.844C161.684 140.672 162.895 140.086 164.402 140.086C165.949 140.086 167.156 140.633 168.023 141.727L168.129 140.32H170.109V152.695C170.109 154.336 169.621 155.629 168.645 156.574C167.676 157.52 166.371 157.992 164.73 157.992C163.816 157.992 162.922 157.797 162.047 157.406C161.172 157.016 160.504 156.48 160.043 155.801L161.168 154.5C162.098 155.648 163.234 156.223 164.578 156.223C165.633 156.223 166.453 155.926 167.039 155.332C167.633 154.738 167.93 153.902 167.93 152.824V151.734C167.062 152.734 165.879 153.234 164.379 153.234C162.895 153.234 161.691 152.637 160.77 151.441C159.855 150.246 159.398 148.617 159.398 146.555ZM161.578 146.801C161.578 148.23 161.871 149.355 162.457 150.176C163.043 150.988 163.863 151.395 164.918 151.395C166.285 151.395 167.289 150.773 167.93 149.531V143.742C167.266 142.531 166.27 141.926 164.941 141.926C163.887 141.926 163.062 142.336 162.469 143.156C161.875 143.977 161.578 145.191 161.578 146.801ZM175.441 140.32L175.512 141.914C176.48 140.695 177.746 140.086 179.309 140.086C181.988 140.086 183.34 141.598 183.363 144.621V153H181.195V144.609C181.188 143.695 180.977 143.02 180.562 142.582C180.156 142.145 179.52 141.926 178.652 141.926C177.949 141.926 177.332 142.113 176.801 142.488C176.27 142.863 175.855 143.355 175.559 143.965V153H173.391V140.32H175.441ZM191.895 153.234C190.176 153.234 188.777 152.672 187.699 151.547C186.621 150.414 186.082 148.902 186.082 147.012V146.613C186.082 145.355 186.32 144.234 186.797 143.25C187.281 142.258 187.953 141.484 188.812 140.93C189.68 140.367 190.617 140.086 191.625 140.086C193.273 140.086 194.555 140.629 195.469 141.715C196.383 142.801 196.84 144.355 196.84 146.379V147.281H188.25C188.281 148.531 188.645 149.543 189.34 150.316C190.043 151.082 190.934 151.465 192.012 151.465C192.777 151.465 193.426 151.309 193.957 150.996C194.488 150.684 194.953 150.27 195.352 149.754L196.676 150.785C195.613 152.418 194.02 153.234 191.895 153.234ZM191.625 141.867C190.75 141.867 190.016 142.188 189.422 142.828C188.828 143.461 188.461 144.352 188.32 145.5H194.672V145.336C194.609 144.234 194.312 143.383 193.781 142.781C193.25 142.172 192.531 141.867 191.625 141.867ZM198.832 146.555C198.832 144.609 199.293 143.047 200.215 141.867C201.137 140.68 202.344 140.086 203.836 140.086C205.32 140.086 206.496 140.594 207.363 141.609V135H209.531V153H207.539L207.434 151.641C206.566 152.703 205.359 153.234 203.812 153.234C202.344 153.234 201.145 152.633 200.215 151.43C199.293 150.227 198.832 148.656 198.832 146.719V146.555ZM201 146.801C201 148.238 201.297 149.363 201.891 150.176C202.484 150.988 203.305 151.395 204.352 151.395C205.727 151.395 206.73 150.777 207.363 149.543V143.719C206.715 142.523 205.719 141.926 204.375 141.926C203.312 141.926 202.484 142.336 201.891 143.156C201.297 143.977 201 145.191 201 146.801ZM219.926 153V141.996H217.922V140.32H219.926V139.02C219.926 137.66 220.289 136.609 221.016 135.867C221.742 135.125 222.77 134.754 224.098 134.754C224.598 134.754 225.094 134.82 225.586 134.953L225.469 136.711C225.102 136.641 224.711 136.605 224.297 136.605C223.594 136.605 223.051 136.812 222.668 137.227C222.285 137.633 222.094 138.219 222.094 138.984V140.32H224.801V141.996H222.094V153H219.926ZM226.629 146.543C226.629 145.301 226.871 144.184 227.355 143.191C227.848 142.199 228.527 141.434 229.395 140.895C230.27 140.355 231.266 140.086 232.383 140.086C234.109 140.086 235.504 140.684 236.566 141.879C237.637 143.074 238.172 144.664 238.172 146.648V146.801C238.172 148.035 237.934 149.145 237.457 150.129C236.988 151.105 236.312 151.867 235.43 152.414C234.555 152.961 233.547 153.234 232.406 153.234C230.688 153.234 229.293 152.637 228.223 151.441C227.16 150.246 226.629 148.664 226.629 146.695V146.543ZM228.809 146.801C228.809 148.207 229.133 149.336 229.781 150.188C230.438 151.039 231.312 151.465 232.406 151.465C233.508 151.465 234.383 151.035 235.031 150.176C235.68 149.309 236.004 148.098 236.004 146.543C236.004 145.152 235.672 144.027 235.008 143.168C234.352 142.301 233.477 141.867 232.383 141.867C231.312 141.867 230.449 142.293 229.793 143.145C229.137 143.996 228.809 145.215 228.809 146.801ZM247.02 142.266C246.691 142.211 246.336 142.184 245.953 142.184C244.531 142.184 243.566 142.789 243.059 144V153H240.891V140.32H243L243.035 141.785C243.746 140.652 244.754 140.086 246.059 140.086C246.48 140.086 246.801 140.141 247.02 140.25V142.266ZM257.332 153H255.164V140.32H257.332V153ZM254.988 136.957C254.988 136.605 255.094 136.309 255.305 136.066C255.523 135.824 255.844 135.703 256.266 135.703C256.688 135.703 257.008 135.824 257.227 136.066C257.445 136.309 257.555 136.605 257.555 136.957C257.555 137.309 257.445 137.602 257.227 137.836C257.008 138.07 256.688 138.188 256.266 138.188C255.844 138.188 255.523 138.07 255.305 137.836C255.094 137.602 254.988 137.309 254.988 136.957ZM262.863 140.32L262.934 141.914C263.902 140.695 265.168 140.086 266.73 140.086C269.41 140.086 270.762 141.598 270.785 144.621V153H268.617V144.609C268.609 143.695 268.398 143.02 267.984 142.582C267.578 142.145 266.941 141.926 266.074 141.926C265.371 141.926 264.754 142.113 264.223 142.488C263.691 142.863 263.277 143.355 262.98 143.965V153H260.812V140.32H262.863ZM278.238 150.059L281.379 140.32H283.594L279.047 153H277.395L272.801 140.32H275.016L278.238 150.059ZM290.777 153.234C289.059 153.234 287.66 152.672 286.582 151.547C285.504 150.414 284.965 148.902 284.965 147.012V146.613C284.965 145.355 285.203 144.234 285.68 143.25C286.164 142.258 286.836 141.484 287.695 140.93C288.562 140.367 289.5 140.086 290.508 140.086C292.156 140.086 293.438 140.629 294.352 141.715C295.266 142.801 295.723 144.355 295.723 146.379V147.281H287.133C287.164 148.531 287.527 149.543 288.223 150.316C288.926 151.082 289.816 151.465 290.895 151.465C291.66 151.465 292.309 151.309 292.84 150.996C293.371 150.684 293.836 150.27 294.234 149.754L295.559 150.785C294.496 152.418 292.902 153.234 290.777 153.234ZM290.508 141.867C289.633 141.867 288.898 142.188 288.305 142.828C287.711 143.461 287.344 144.352 287.203 145.5H293.555V145.336C293.492 144.234 293.195 143.383 292.664 142.781C292.133 142.172 291.414 141.867 290.508 141.867ZM305.625 149.637C305.625 149.051 305.402 148.598 304.957 148.277C304.52 147.949 303.75 147.668 302.648 147.434C301.555 147.199 300.684 146.918 300.035 146.59C299.395 146.262 298.918 145.871 298.605 145.418C298.301 144.965 298.148 144.426 298.148 143.801C298.148 142.762 298.586 141.883 299.461 141.164C300.344 140.445 301.469 140.086 302.836 140.086C304.273 140.086 305.438 140.457 306.328 141.199C307.227 141.941 307.676 142.891 307.676 144.047H305.496C305.496 143.453 305.242 142.941 304.734 142.512C304.234 142.082 303.602 141.867 302.836 141.867C302.047 141.867 301.43 142.039 300.984 142.383C300.539 142.727 300.316 143.176 300.316 143.73C300.316 144.254 300.523 144.648 300.938 144.914C301.352 145.18 302.098 145.434 303.176 145.676C304.262 145.918 305.141 146.207 305.812 146.543C306.484 146.879 306.98 147.285 307.301 147.762C307.629 148.23 307.793 148.805 307.793 149.484C307.793 150.617 307.34 151.527 306.434 152.215C305.527 152.895 304.352 153.234 302.906 153.234C301.891 153.234 300.992 153.055 300.211 152.695C299.43 152.336 298.816 151.836 298.371 151.195C297.934 150.547 297.715 149.848 297.715 149.098H299.883C299.922 149.824 300.211 150.402 300.75 150.832C301.297 151.254 302.016 151.465 302.906 151.465C303.727 151.465 304.383 151.301 304.875 150.973C305.375 150.637 305.625 150.191 305.625 149.637ZM313.559 137.25V140.32H315.926V141.996H313.559V149.859C313.559 150.367 313.664 150.75 313.875 151.008C314.086 151.258 314.445 151.383 314.953 151.383C315.203 151.383 315.547 151.336 315.984 151.242V153C315.414 153.156 314.859 153.234 314.32 153.234C313.352 153.234 312.621 152.941 312.129 152.355C311.637 151.77 311.391 150.938 311.391 149.859V141.996H309.082V140.32H311.391V137.25H313.559ZM320.824 153H318.656V140.32H320.824V153ZM318.48 136.957C318.48 136.605 318.586 136.309 318.797 136.066C319.016 135.824 319.336 135.703 319.758 135.703C320.18 135.703 320.5 135.824 320.719 136.066C320.938 136.309 321.047 136.605 321.047 136.957C321.047 137.309 320.938 137.602 320.719 137.836C320.5 138.07 320.18 138.188 319.758 138.188C319.336 138.188 319.016 138.07 318.797 137.836C318.586 137.602 318.48 137.309 318.48 136.957ZM323.789 146.555C323.789 144.578 324.246 143.008 325.16 141.844C326.074 140.672 327.285 140.086 328.793 140.086C330.34 140.086 331.547 140.633 332.414 141.727L332.52 140.32H334.5V152.695C334.5 154.336 334.012 155.629 333.035 156.574C332.066 157.52 330.762 157.992 329.121 157.992C328.207 157.992 327.312 157.797 326.438 157.406C325.562 157.016 324.895 156.48 324.434 155.801L325.559 154.5C326.488 155.648 327.625 156.223 328.969 156.223C330.023 156.223 330.844 155.926 331.43 155.332C332.023 154.738 332.32 153.902 332.32 152.824V151.734C331.453 152.734 330.27 153.234 328.77 153.234C327.285 153.234 326.082 152.637 325.16 151.441C324.246 150.246 323.789 148.617 323.789 146.555ZM325.969 146.801C325.969 148.23 326.262 149.355 326.848 150.176C327.434 150.988 328.254 151.395 329.309 151.395C330.676 151.395 331.68 150.773 332.32 149.531V143.742C331.656 142.531 330.66 141.926 329.332 141.926C328.277 141.926 327.453 142.336 326.859 143.156C326.266 143.977 325.969 145.191 325.969 146.801ZM345.609 153C345.484 152.75 345.383 152.305 345.305 151.664C344.297 152.711 343.094 153.234 341.695 153.234C340.445 153.234 339.418 152.883 338.613 152.18C337.816 151.469 337.418 150.57 337.418 149.484C337.418 148.164 337.918 147.141 338.918 146.414C339.926 145.68 341.34 145.312 343.16 145.312H345.27V144.316C345.27 143.559 345.043 142.957 344.59 142.512C344.137 142.059 343.469 141.832 342.586 141.832C341.812 141.832 341.164 142.027 340.641 142.418C340.117 142.809 339.855 143.281 339.855 143.836H337.676C337.676 143.203 337.898 142.594 338.344 142.008C338.797 141.414 339.406 140.945 340.172 140.602C340.945 140.258 341.793 140.086 342.715 140.086C344.176 140.086 345.32 140.453 346.148 141.188C346.977 141.914 347.406 142.918 347.438 144.199V150.035C347.438 151.199 347.586 152.125 347.883 152.812V153H345.609ZM342.012 151.348C342.691 151.348 343.336 151.172 343.945 150.82C344.555 150.469 344.996 150.012 345.27 149.449V146.848H343.57C340.914 146.848 339.586 147.625 339.586 149.18C339.586 149.859 339.812 150.391 340.266 150.773C340.719 151.156 341.301 151.348 342.012 151.348ZM353.777 137.25V140.32H356.145V141.996H353.777V149.859C353.777 150.367 353.883 150.75 354.094 151.008C354.305 151.258 354.664 151.383 355.172 151.383C355.422 151.383 355.766 151.336 356.203 151.242V153C355.633 153.156 355.078 153.234 354.539 153.234C353.57 153.234 352.84 152.941 352.348 152.355C351.855 151.77 351.609 150.938 351.609 149.859V141.996H349.301V140.32H351.609V137.25H353.777ZM357.879 146.543C357.879 145.301 358.121 144.184 358.605 143.191C359.098 142.199 359.777 141.434 360.645 140.895C361.52 140.355 362.516 140.086 363.633 140.086C365.359 140.086 366.754 140.684 367.816 141.879C368.887 143.074 369.422 144.664 369.422 146.648V146.801C369.422 148.035 369.184 149.145 368.707 150.129C368.238 151.105 367.562 151.867 366.68 152.414C365.805 152.961 364.797 153.234 363.656 153.234C361.938 153.234 360.543 152.637 359.473 151.441C358.41 150.246 357.879 148.664 357.879 146.695V146.543ZM360.059 146.801C360.059 148.207 360.383 149.336 361.031 150.188C361.688 151.039 362.562 151.465 363.656 151.465C364.758 151.465 365.633 151.035 366.281 150.176C366.93 149.309 367.254 148.098 367.254 146.543C367.254 145.152 366.922 144.027 366.258 143.168C365.602 142.301 364.727 141.867 363.633 141.867C362.562 141.867 361.699 142.293 361.043 143.145C360.387 143.996 360.059 145.215 360.059 146.801ZM378.27 142.266C377.941 142.211 377.586 142.184 377.203 142.184C375.781 142.184 374.816 142.789 374.309 144V153H372.141V140.32H374.25L374.285 141.785C374.996 140.652 376.004 140.086 377.309 140.086C377.73 140.086 378.051 140.141 378.27 140.25V142.266ZM387.656 149.637C387.656 149.051 387.434 148.598 386.988 148.277C386.551 147.949 385.781 147.668 384.68 147.434C383.586 147.199 382.715 146.918 382.066 146.59C381.426 146.262 380.949 145.871 380.637 145.418C380.332 144.965 380.18 144.426 380.18 143.801C380.18 142.762 380.617 141.883 381.492 141.164C382.375 140.445 383.5 140.086 384.867 140.086C386.305 140.086 387.469 140.457 388.359 141.199C389.258 141.941 389.707 142.891 389.707 144.047H387.527C387.527 143.453 387.273 142.941 386.766 142.512C386.266 142.082 385.633 141.867 384.867 141.867C384.078 141.867 383.461 142.039 383.016 142.383C382.57 142.727 382.348 143.176 382.348 143.73C382.348 144.254 382.555 144.648 382.969 144.914C383.383 145.18 384.129 145.434 385.207 145.676C386.293 145.918 387.172 146.207 387.844 146.543C388.516 146.879 389.012 147.285 389.332 147.762C389.66 148.23 389.824 148.805 389.824 149.484C389.824 150.617 389.371 151.527 388.465 152.215C387.559 152.895 386.383 153.234 384.938 153.234C383.922 153.234 383.023 153.055 382.242 152.695C381.461 152.336 380.848 151.836 380.402 151.195C379.965 150.547 379.746 149.848 379.746 149.098H381.914C381.953 149.824 382.242 150.402 382.781 150.832C383.328 151.254 384.047 151.465 384.938 151.465C385.758 151.465 386.414 151.301 386.906 150.973C387.406 150.637 387.656 150.191 387.656 149.637ZM401.543 137.25V140.32H403.91V141.996H401.543V149.859C401.543 150.367 401.648 150.75 401.859 151.008C402.07 151.258 402.43 151.383 402.938 151.383C403.188 151.383 403.531 151.336 403.969 151.242V153C403.398 153.156 402.844 153.234 402.305 153.234C401.336 153.234 400.605 152.941 400.113 152.355C399.621 151.77 399.375 150.938 399.375 149.859V141.996H397.066V140.32H399.375V137.25H401.543ZM405.645 146.543C405.645 145.301 405.887 144.184 406.371 143.191C406.863 142.199 407.543 141.434 408.41 140.895C409.285 140.355 410.281 140.086 411.398 140.086C413.125 140.086 414.52 140.684 415.582 141.879C416.652 143.074 417.188 144.664 417.188 146.648V146.801C417.188 148.035 416.949 149.145 416.473 150.129C416.004 151.105 415.328 151.867 414.445 152.414C413.57 152.961 412.562 153.234 411.422 153.234C409.703 153.234 408.309 152.637 407.238 151.441C406.176 150.246 405.645 148.664 405.645 146.695V146.543ZM407.824 146.801C407.824 148.207 408.148 149.336 408.797 150.188C409.453 151.039 410.328 151.465 411.422 151.465C412.523 151.465 413.398 151.035 414.047 150.176C414.695 149.309 415.02 148.098 415.02 146.543C415.02 145.152 414.688 144.027 414.023 143.168C413.367 142.301 412.492 141.867 411.398 141.867C410.328 141.867 409.465 142.293 408.809 143.145C408.152 143.996 407.824 145.215 407.824 146.801ZM428.027 141.855C428.988 140.676 430.238 140.086 431.777 140.086C434.457 140.086 435.809 141.598 435.832 144.621V153H433.664V144.609C433.656 143.695 433.445 143.02 433.031 142.582C432.625 142.145 431.988 141.926 431.121 141.926C430.418 141.926 429.801 142.113 429.27 142.488C428.738 142.863 428.324 143.355 428.027 143.965V153H425.859V135H428.027V141.855ZM444.34 153.234C442.621 153.234 441.223 152.672 440.145 151.547C439.066 150.414 438.527 148.902 438.527 147.012V146.613C438.527 145.355 438.766 144.234 439.242 143.25C439.727 142.258 440.398 141.484 441.258 140.93C442.125 140.367 443.062 140.086 444.07 140.086C445.719 140.086 447 140.629 447.914 141.715C448.828 142.801 449.285 144.355 449.285 146.379V147.281H440.695C440.727 148.531 441.09 149.543 441.785 150.316C442.488 151.082 443.379 151.465 444.457 151.465C445.223 151.465 445.871 151.309 446.402 150.996C446.934 150.684 447.398 150.27 447.797 149.754L449.121 150.785C448.059 152.418 446.465 153.234 444.34 153.234ZM444.07 141.867C443.195 141.867 442.461 142.188 441.867 142.828C441.273 143.461 440.906 144.352 440.766 145.5H447.117V145.336C447.055 144.234 446.758 143.383 446.227 142.781C445.695 142.172 444.977 141.867 444.07 141.867ZM454.16 153H451.992V135H454.16V153ZM468.352 146.801C468.352 148.73 467.91 150.285 467.027 151.465C466.145 152.645 464.949 153.234 463.441 153.234C461.902 153.234 460.691 152.746 459.809 151.77V157.875H457.641V140.32H459.621L459.727 141.727C460.609 140.633 461.836 140.086 463.406 140.086C464.93 140.086 466.133 140.66 467.016 141.809C467.906 142.957 468.352 144.555 468.352 146.602V146.801ZM466.184 146.555C466.184 145.125 465.879 143.996 465.27 143.168C464.66 142.34 463.824 141.926 462.762 141.926C461.449 141.926 460.465 142.508 459.809 143.672V149.73C460.457 150.887 461.449 151.465 462.785 151.465C463.824 151.465 464.648 151.055 465.258 150.234C465.875 149.406 466.184 148.18 466.184 146.555ZM1.11328 181.555C1.11328 179.609 1.57422 178.047 2.49609 176.867C3.41797 175.68 4.625 175.086 6.11719 175.086C7.60156 175.086 8.77734 175.594 9.64453 176.609V170H11.8125V188H9.82031L9.71484 186.641C8.84766 187.703 7.64062 188.234 6.09375 188.234C4.625 188.234 3.42578 187.633 2.49609 186.43C1.57422 185.227 1.11328 183.656 1.11328 181.719V181.555ZM3.28125 181.801C3.28125 183.238 3.57812 184.363 4.17188 185.176C4.76562 185.988 5.58594 186.395 6.63281 186.395C8.00781 186.395 9.01172 185.777 9.64453 184.543V178.719C8.99609 177.523 8 176.926 6.65625 176.926C5.59375 176.926 4.76562 177.336 4.17188 178.156C3.57812 178.977 3.28125 180.191 3.28125 181.801ZM20.4492 188.234C18.7305 188.234 17.332 187.672 16.2539 186.547C15.1758 185.414 14.6367 183.902 14.6367 182.012V181.613C14.6367 180.355 14.875 179.234 15.3516 178.25C15.8359 177.258 16.5078 176.484 17.3672 175.93C18.2344 175.367 19.1719 175.086 20.1797 175.086C21.8281 175.086 23.1094 175.629 24.0234 176.715C24.9375 177.801 25.3945 179.355 25.3945 181.379V182.281H16.8047C16.8359 183.531 17.1992 184.543 17.8945 185.316C18.5977 186.082 19.4883 186.465 20.5664 186.465C21.332 186.465 21.9805 186.309 22.5117 185.996C23.043 185.684 23.5078 185.27 23.9062 184.754L25.2305 185.785C24.168 187.418 22.5742 188.234 20.4492 188.234ZM20.1797 176.867C19.3047 176.867 18.5703 177.188 17.9766 177.828C17.3828 178.461 17.0156 179.352 16.875 180.5H23.2266V180.336C23.1641 179.234 22.8672 178.383 22.3359 177.781C21.8047 177.172 21.0859 176.867 20.1797 176.867ZM30.8555 172.25V175.32H33.2227V176.996H30.8555V184.859C30.8555 185.367 30.9609 185.75 31.1719 186.008C31.3828 186.258 31.7422 186.383 32.25 186.383C32.5 186.383 32.8438 186.336 33.2812 186.242V188C32.7109 188.156 32.1562 188.234 31.6172 188.234C30.6484 188.234 29.918 187.941 29.4258 187.355C28.9336 186.77 28.6875 185.938 28.6875 184.859V176.996H26.3789V175.32H28.6875V172.25H30.8555ZM41.0273 188.234C39.3086 188.234 37.9102 187.672 36.832 186.547C35.7539 185.414 35.2148 183.902 35.2148 182.012V181.613C35.2148 180.355 35.4531 179.234 35.9297 178.25C36.4141 177.258 37.0859 176.484 37.9453 175.93C38.8125 175.367 39.75 175.086 40.7578 175.086C42.4062 175.086 43.6875 175.629 44.6016 176.715C45.5156 177.801 45.9727 179.355 45.9727 181.379V182.281H37.3828C37.4141 183.531 37.7773 184.543 38.4727 185.316C39.1758 186.082 40.0664 186.465 41.1445 186.465C41.9102 186.465 42.5586 186.309 43.0898 185.996C43.6211 185.684 44.0859 185.27 44.4844 184.754L45.8086 185.785C44.7461 187.418 43.1523 188.234 41.0273 188.234ZM40.7578 176.867C39.8828 176.867 39.1484 177.188 38.5547 177.828C37.9609 178.461 37.5938 179.352 37.4531 180.5H43.8047V180.336C43.7422 179.234 43.4453 178.383 42.9141 177.781C42.3828 177.172 41.6641 176.867 40.7578 176.867ZM54.6211 177.266C54.293 177.211 53.9375 177.184 53.5547 177.184C52.1328 177.184 51.168 177.789 50.6602 179V188H48.4922V175.32H50.6016L50.6367 176.785C51.3477 175.652 52.3555 175.086 53.6602 175.086C54.082 175.086 54.4023 175.141 54.6211 175.25V177.266ZM58.6641 175.32L58.7227 176.727C59.6523 175.633 60.9062 175.086 62.4844 175.086C64.2578 175.086 65.4648 175.766 66.1055 177.125C66.5273 176.516 67.0742 176.023 67.7461 175.648C68.4258 175.273 69.2266 175.086 70.1484 175.086C72.9297 175.086 74.3438 176.559 74.3906 179.504V188H72.2227V179.633C72.2227 178.727 72.0156 178.051 71.6016 177.605C71.1875 177.152 70.4922 176.926 69.5156 176.926C68.7109 176.926 68.043 177.168 67.5117 177.652C66.9805 178.129 66.6719 178.773 66.5859 179.586V188H64.4062V179.691C64.4062 177.848 63.5039 176.926 61.6992 176.926C60.2773 176.926 59.3047 177.531 58.7812 178.742V188H56.6133V175.32H58.6641ZM80.0273 188H77.8594V175.32H80.0273V188ZM77.6836 171.957C77.6836 171.605 77.7891 171.309 78 171.066C78.2188 170.824 78.5391 170.703 78.9609 170.703C79.3828 170.703 79.7031 170.824 79.9219 171.066C80.1406 171.309 80.25 171.605 80.25 171.957C80.25 172.309 80.1406 172.602 79.9219 172.836C79.7031 173.07 79.3828 173.188 78.9609 173.188C78.5391 173.188 78.2188 173.07 78 172.836C77.7891 172.602 77.6836 172.309 77.6836 171.957ZM85.5586 175.32L85.6289 176.914C86.5977 175.695 87.8633 175.086 89.4258 175.086C92.1055 175.086 93.457 176.598 93.4805 179.621V188H91.3125V179.609C91.3047 178.695 91.0938 178.02 90.6797 177.582C90.2734 177.145 89.6367 176.926 88.7695 176.926C88.0664 176.926 87.4492 177.113 86.918 177.488C86.3867 177.863 85.9727 178.355 85.6758 178.965V188H83.5078V175.32H85.5586ZM102.012 188.234C100.293 188.234 98.8945 187.672 97.8164 186.547C96.7383 185.414 96.1992 183.902 96.1992 182.012V181.613C96.1992 180.355 96.4375 179.234 96.9141 178.25C97.3984 177.258 98.0703 176.484 98.9297 175.93C99.7969 175.367 100.734 175.086 101.742 175.086C103.391 175.086 104.672 175.629 105.586 176.715C106.5 177.801 106.957 179.355 106.957 181.379V182.281H98.3672C98.3984 183.531 98.7617 184.543 99.457 185.316C100.16 186.082 101.051 186.465 102.129 186.465C102.895 186.465 103.543 186.309 104.074 185.996C104.605 185.684 105.07 185.27 105.469 184.754L106.793 185.785C105.73 187.418 104.137 188.234 102.012 188.234ZM101.742 176.867C100.867 176.867 100.133 177.188 99.5391 177.828C98.9453 178.461 98.5781 179.352 98.4375 180.5H104.789V180.336C104.727 179.234 104.43 178.383 103.898 177.781C103.367 177.172 102.648 176.867 101.742 176.867ZM117.785 188H115.617V175.32H117.785V188ZM115.441 171.957C115.441 171.605 115.547 171.309 115.758 171.066C115.977 170.824 116.297 170.703 116.719 170.703C117.141 170.703 117.461 170.824 117.68 171.066C117.898 171.309 118.008 171.605 118.008 171.957C118.008 172.309 117.898 172.602 117.68 172.836C117.461 173.07 117.141 173.188 116.719 173.188C116.297 173.188 115.977 173.07 115.758 172.836C115.547 172.602 115.441 172.309 115.441 171.957ZM122.332 188V176.996H120.328V175.32H122.332V174.02C122.332 172.66 122.695 171.609 123.422 170.867C124.148 170.125 125.176 169.754 126.504 169.754C127.004 169.754 127.5 169.82 127.992 169.953L127.875 171.711C127.508 171.641 127.117 171.605 126.703 171.605C126 171.605 125.457 171.812 125.074 172.227C124.691 172.633 124.5 173.219 124.5 173.984V175.32H127.207V176.996H124.5V188H122.332ZM140.648 186.465C141.422 186.465 142.098 186.23 142.676 185.762C143.254 185.293 143.574 184.707 143.637 184.004H145.688C145.648 184.73 145.398 185.422 144.938 186.078C144.477 186.734 143.859 187.258 143.086 187.648C142.32 188.039 141.508 188.234 140.648 188.234C138.922 188.234 137.547 187.66 136.523 186.512C135.508 185.355 135 183.777 135 181.777V181.414C135 180.18 135.227 179.082 135.68 178.121C136.133 177.16 136.781 176.414 137.625 175.883C138.477 175.352 139.48 175.086 140.637 175.086C142.059 175.086 143.238 175.512 144.176 176.363C145.121 177.215 145.625 178.32 145.688 179.68H143.637C143.574 178.859 143.262 178.188 142.699 177.664C142.145 177.133 141.457 176.867 140.637 176.867C139.535 176.867 138.68 177.266 138.07 178.062C137.469 178.852 137.168 179.996 137.168 181.496V181.906C137.168 183.367 137.469 184.492 138.07 185.281C138.672 186.07 139.531 186.465 140.648 186.465ZM150.48 188H148.312V175.32H150.48V188ZM148.137 171.957C148.137 171.605 148.242 171.309 148.453 171.066C148.672 170.824 148.992 170.703 149.414 170.703C149.836 170.703 150.156 170.824 150.375 171.066C150.594 171.309 150.703 171.605 150.703 171.957C150.703 172.309 150.594 172.602 150.375 172.836C150.156 173.07 149.836 173.188 149.414 173.188C148.992 173.188 148.672 173.07 148.453 172.836C148.242 172.602 148.137 172.309 148.137 171.957ZM160.09 177.266C159.762 177.211 159.406 177.184 159.023 177.184C157.602 177.184 156.637 177.789 156.129 179V188H153.961V175.32H156.07L156.105 176.785C156.816 175.652 157.824 175.086 159.129 175.086C159.551 175.086 159.871 175.141 160.09 175.25V177.266ZM166.945 186.465C167.719 186.465 168.395 186.23 168.973 185.762C169.551 185.293 169.871 184.707 169.934 184.004H171.984C171.945 184.73 171.695 185.422 171.234 186.078C170.773 186.734 170.156 187.258 169.383 187.648C168.617 188.039 167.805 188.234 166.945 188.234C165.219 188.234 163.844 187.66 162.82 186.512C161.805 185.355 161.297 183.777 161.297 181.777V181.414C161.297 180.18 161.523 179.082 161.977 178.121C162.43 177.16 163.078 176.414 163.922 175.883C164.773 175.352 165.777 175.086 166.934 175.086C168.355 175.086 169.535 175.512 170.473 176.363C171.418 177.215 171.922 178.32 171.984 179.68H169.934C169.871 178.859 169.559 178.188 168.996 177.664C168.441 177.133 167.754 176.867 166.934 176.867C165.832 176.867 164.977 177.266 164.367 178.062C163.766 178.852 163.465 179.996 163.465 181.496V181.906C163.465 183.367 163.766 184.492 164.367 185.281C164.969 186.07 165.828 186.465 166.945 186.465ZM182.25 186.746C181.406 187.738 180.168 188.234 178.535 188.234C177.184 188.234 176.152 187.844 175.441 187.062C174.738 186.273 174.383 185.109 174.375 183.57V175.32H176.543V183.512C176.543 185.434 177.324 186.395 178.887 186.395C180.543 186.395 181.645 185.777 182.191 184.543V175.32H184.359V188H182.297L182.25 186.746ZM189.703 175.32L189.762 176.727C190.691 175.633 191.945 175.086 193.523 175.086C195.297 175.086 196.504 175.766 197.145 177.125C197.566 176.516 198.113 176.023 198.785 175.648C199.465 175.273 200.266 175.086 201.188 175.086C203.969 175.086 205.383 176.559 205.43 179.504V188H203.262V179.633C203.262 178.727 203.055 178.051 202.641 177.605C202.227 177.152 201.531 176.926 200.555 176.926C199.75 176.926 199.082 177.168 198.551 177.652C198.02 178.129 197.711 178.773 197.625 179.586V188H195.445V179.691C195.445 177.848 194.543 176.926 192.738 176.926C191.316 176.926 190.344 177.531 189.82 178.742V188H187.652V175.32H189.703ZM216.094 184.637C216.094 184.051 215.871 183.598 215.426 183.277C214.988 182.949 214.219 182.668 213.117 182.434C212.023 182.199 211.152 181.918 210.504 181.59C209.863 181.262 209.387 180.871 209.074 180.418C208.77 179.965 208.617 179.426 208.617 178.801C208.617 177.762 209.055 176.883 209.93 176.164C210.812 175.445 211.938 175.086 213.305 175.086C214.742 175.086 215.906 175.457 216.797 176.199C217.695 176.941 218.145 177.891 218.145 179.047H215.965C215.965 178.453 215.711 177.941 215.203 177.512C214.703 177.082 214.07 176.867 213.305 176.867C212.516 176.867 211.898 177.039 211.453 177.383C211.008 177.727 210.785 178.176 210.785 178.73C210.785 179.254 210.992 179.648 211.406 179.914C211.82 180.18 212.566 180.434 213.645 180.676C214.73 180.918 215.609 181.207 216.281 181.543C216.953 181.879 217.449 182.285 217.77 182.762C218.098 183.23 218.262 183.805 218.262 184.484C218.262 185.617 217.809 186.527 216.902 187.215C215.996 187.895 214.82 188.234 213.375 188.234C212.359 188.234 211.461 188.055 210.68 187.695C209.898 187.336 209.285 186.836 208.84 186.195C208.402 185.547 208.184 184.848 208.184 184.098H210.352C210.391 184.824 210.68 185.402 211.219 185.832C211.766 186.254 212.484 186.465 213.375 186.465C214.195 186.465 214.852 186.301 215.344 185.973C215.844 185.637 216.094 185.191 216.094 184.637ZM224.027 172.25V175.32H226.395V176.996H224.027V184.859C224.027 185.367 224.133 185.75 224.344 186.008C224.555 186.258 224.914 186.383 225.422 186.383C225.672 186.383 226.016 186.336 226.453 186.242V188C225.883 188.156 225.328 188.234 224.789 188.234C223.82 188.234 223.09 187.941 222.598 187.355C222.105 186.77 221.859 185.938 221.859 184.859V176.996H219.551V175.32H221.859V172.25H224.027ZM236.766 188C236.641 187.75 236.539 187.305 236.461 186.664C235.453 187.711 234.25 188.234 232.852 188.234C231.602 188.234 230.574 187.883 229.77 187.18C228.973 186.469 228.574 185.57 228.574 184.484C228.574 183.164 229.074 182.141 230.074 181.414C231.082 180.68 232.496 180.312 234.316 180.312H236.426V179.316C236.426 178.559 236.199 177.957 235.746 177.512C235.293 177.059 234.625 176.832 233.742 176.832C232.969 176.832 232.32 177.027 231.797 177.418C231.273 177.809 231.012 178.281 231.012 178.836H228.832C228.832 178.203 229.055 177.594 229.5 177.008C229.953 176.414 230.562 175.945 231.328 175.602C232.102 175.258 232.949 175.086 233.871 175.086C235.332 175.086 236.477 175.453 237.305 176.188C238.133 176.914 238.562 177.918 238.594 179.199V185.035C238.594 186.199 238.742 187.125 239.039 187.812V188H236.766ZM233.168 186.348C233.848 186.348 234.492 186.172 235.102 185.82C235.711 185.469 236.152 185.012 236.426 184.449V181.848H234.727C232.07 181.848 230.742 182.625 230.742 184.18C230.742 184.859 230.969 185.391 231.422 185.773C231.875 186.156 232.457 186.348 233.168 186.348ZM244.043 175.32L244.113 176.914C245.082 175.695 246.348 175.086 247.91 175.086C250.59 175.086 251.941 176.598 251.965 179.621V188H249.797V179.609C249.789 178.695 249.578 178.02 249.164 177.582C248.758 177.145 248.121 176.926 247.254 176.926C246.551 176.926 245.934 177.113 245.402 177.488C244.871 177.863 244.457 178.355 244.16 178.965V188H241.992V175.32H244.043ZM260.32 186.465C261.094 186.465 261.77 186.23 262.348 185.762C262.926 185.293 263.246 184.707 263.309 184.004H265.359C265.32 184.73 265.07 185.422 264.609 186.078C264.148 186.734 263.531 187.258 262.758 187.648C261.992 188.039 261.18 188.234 260.32 188.234C258.594 188.234 257.219 187.66 256.195 186.512C255.18 185.355 254.672 183.777 254.672 181.777V181.414C254.672 180.18 254.898 179.082 255.352 178.121C255.805 177.16 256.453 176.414 257.297 175.883C258.148 175.352 259.152 175.086 260.309 175.086C261.73 175.086 262.91 175.512 263.848 176.363C264.793 177.215 265.297 178.32 265.359 179.68H263.309C263.246 178.859 262.934 178.188 262.371 177.664C261.816 177.133 261.129 176.867 260.309 176.867C259.207 176.867 258.352 177.266 257.742 178.062C257.141 178.852 256.84 179.996 256.84 181.496V181.906C256.84 183.367 257.141 184.492 257.742 185.281C258.344 186.07 259.203 186.465 260.32 186.465ZM273.059 188.234C271.34 188.234 269.941 187.672 268.863 186.547C267.785 185.414 267.246 183.902 267.246 182.012V181.613C267.246 180.355 267.484 179.234 267.961 178.25C268.445 177.258 269.117 176.484 269.977 175.93C270.844 175.367 271.781 175.086 272.789 175.086C274.438 175.086 275.719 175.629 276.633 176.715C277.547 177.801 278.004 179.355 278.004 181.379V182.281H269.414C269.445 183.531 269.809 184.543 270.504 185.316C271.207 186.082 272.098 186.465 273.176 186.465C273.941 186.465 274.59 186.309 275.121 185.996C275.652 185.684 276.117 185.27 276.516 184.754L277.84 185.785C276.777 187.418 275.184 188.234 273.059 188.234ZM272.789 176.867C271.914 176.867 271.18 177.188 270.586 177.828C269.992 178.461 269.625 179.352 269.484 180.5H275.836V180.336C275.773 179.234 275.477 178.383 274.945 177.781C274.414 177.172 273.695 176.867 272.789 176.867ZM287.906 184.637C287.906 184.051 287.684 183.598 287.238 183.277C286.801 182.949 286.031 182.668 284.93 182.434C283.836 182.199 282.965 181.918 282.316 181.59C281.676 181.262 281.199 180.871 280.887 180.418C280.582 179.965 280.43 179.426 280.43 178.801C280.43 177.762 280.867 176.883 281.742 176.164C282.625 175.445 283.75 175.086 285.117 175.086C286.555 175.086 287.719 175.457 288.609 176.199C289.508 176.941 289.957 177.891 289.957 179.047H287.777C287.777 178.453 287.523 177.941 287.016 177.512C286.516 177.082 285.883 176.867 285.117 176.867C284.328 176.867 283.711 177.039 283.266 177.383C282.82 177.727 282.598 178.176 282.598 178.73C282.598 179.254 282.805 179.648 283.219 179.914C283.633 180.18 284.379 180.434 285.457 180.676C286.543 180.918 287.422 181.207 288.094 181.543C288.766 181.879 289.262 182.285 289.582 182.762C289.91 183.23 290.074 183.805 290.074 184.484C290.074 185.617 289.621 186.527 288.715 187.215C287.809 187.895 286.633 188.234 285.188 188.234C284.172 188.234 283.273 188.055 282.492 187.695C281.711 187.336 281.098 186.836 280.652 186.195C280.215 185.547 279.996 184.848 279.996 184.098H282.164C282.203 184.824 282.492 185.402 283.031 185.832C283.578 186.254 284.297 186.465 285.188 186.465C286.008 186.465 286.664 186.301 287.156 185.973C287.656 185.637 287.906 185.191 287.906 184.637ZM304.98 177.266C304.652 177.211 304.297 177.184 303.914 177.184C302.492 177.184 301.527 177.789 301.02 179V188H298.852V175.32H300.961L300.996 176.785C301.707 175.652 302.715 175.086 304.02 175.086C304.441 175.086 304.762 175.141 304.98 175.25V177.266ZM309.34 188H307.172V175.32H309.34V188ZM306.996 171.957C306.996 171.605 307.102 171.309 307.312 171.066C307.531 170.824 307.852 170.703 308.273 170.703C308.695 170.703 309.016 170.824 309.234 171.066C309.453 171.309 309.562 171.605 309.562 171.957C309.562 172.309 309.453 172.602 309.234 172.836C309.016 173.07 308.695 173.188 308.273 173.188C307.852 173.188 307.531 173.07 307.312 172.836C307.102 172.602 306.996 172.309 306.996 171.957ZM320.203 184.637C320.203 184.051 319.98 183.598 319.535 183.277C319.098 182.949 318.328 182.668 317.227 182.434C316.133 182.199 315.262 181.918 314.613 181.59C313.973 181.262 313.496 180.871 313.184 180.418C312.879 179.965 312.727 179.426 312.727 178.801C312.727 177.762 313.164 176.883 314.039 176.164C314.922 175.445 316.047 175.086 317.414 175.086C318.852 175.086 320.016 175.457 320.906 176.199C321.805 176.941 322.254 177.891 322.254 179.047H320.074C320.074 178.453 319.82 177.941 319.312 177.512C318.812 177.082 318.18 176.867 317.414 176.867C316.625 176.867 316.008 177.039 315.562 177.383C315.117 177.727 314.895 178.176 314.895 178.73C314.895 179.254 315.102 179.648 315.516 179.914C315.93 180.18 316.676 180.434 317.754 180.676C318.84 180.918 319.719 181.207 320.391 181.543C321.062 181.879 321.559 182.285 321.879 182.762C322.207 183.23 322.371 183.805 322.371 184.484C322.371 185.617 321.918 186.527 321.012 187.215C320.105 187.895 318.93 188.234 317.484 188.234C316.469 188.234 315.57 188.055 314.789 187.695C314.008 187.336 313.395 186.836 312.949 186.195C312.512 185.547 312.293 184.848 312.293 184.098H314.461C314.5 184.824 314.789 185.402 315.328 185.832C315.875 186.254 316.594 186.465 317.484 186.465C318.305 186.465 318.961 186.301 319.453 185.973C319.953 185.637 320.203 185.191 320.203 184.637ZM330.457 188.234C328.738 188.234 327.34 187.672 326.262 186.547C325.184 185.414 324.645 183.902 324.645 182.012V181.613C324.645 180.355 324.883 179.234 325.359 178.25C325.844 177.258 326.516 176.484 327.375 175.93C328.242 175.367 329.18 175.086 330.188 175.086C331.836 175.086 333.117 175.629 334.031 176.715C334.945 177.801 335.402 179.355 335.402 181.379V182.281H326.812C326.844 183.531 327.207 184.543 327.902 185.316C328.605 186.082 329.496 186.465 330.574 186.465C331.34 186.465 331.988 186.309 332.52 185.996C333.051 185.684 333.516 185.27 333.914 184.754L335.238 185.785C334.176 187.418 332.582 188.234 330.457 188.234ZM330.188 176.867C329.312 176.867 328.578 177.188 327.984 177.828C327.391 178.461 327.023 179.352 326.883 180.5H333.234V180.336C333.172 179.234 332.875 178.383 332.344 177.781C331.812 177.172 331.094 176.867 330.188 176.867ZM346.816 172.25V175.32H349.184V176.996H346.816V184.859C346.816 185.367 346.922 185.75 347.133 186.008C347.344 186.258 347.703 186.383 348.211 186.383C348.461 186.383 348.805 186.336 349.242 186.242V188C348.672 188.156 348.117 188.234 347.578 188.234C346.609 188.234 345.879 187.941 345.387 187.355C344.895 186.77 344.648 185.938 344.648 184.859V176.996H342.34V175.32H344.648V172.25H346.816ZM350.918 181.543C350.918 180.301 351.16 179.184 351.645 178.191C352.137 177.199 352.816 176.434 353.684 175.895C354.559 175.355 355.555 175.086 356.672 175.086C358.398 175.086 359.793 175.684 360.855 176.879C361.926 178.074 362.461 179.664 362.461 181.648V181.801C362.461 183.035 362.223 184.145 361.746 185.129C361.277 186.105 360.602 186.867 359.719 187.414C358.844 187.961 357.836 188.234 356.695 188.234C354.977 188.234 353.582 187.637 352.512 186.441C351.449 185.246 350.918 183.664 350.918 181.695V181.543ZM353.098 181.801C353.098 183.207 353.422 184.336 354.07 185.188C354.727 186.039 355.602 186.465 356.695 186.465C357.797 186.465 358.672 186.035 359.32 185.176C359.969 184.309 360.293 183.098 360.293 181.543C360.293 180.152 359.961 179.027 359.297 178.168C358.641 177.301 357.766 176.867 356.672 176.867C355.602 176.867 354.738 177.293 354.082 178.145C353.426 178.996 353.098 180.215 353.098 181.801ZM374.074 172.25V175.32H376.441V176.996H374.074V184.859C374.074 185.367 374.18 185.75 374.391 186.008C374.602 186.258 374.961 186.383 375.469 186.383C375.719 186.383 376.062 186.336 376.5 186.242V188C375.93 188.156 375.375 188.234 374.836 188.234C373.867 188.234 373.137 187.941 372.645 187.355C372.152 186.77 371.906 185.938 371.906 184.859V176.996H369.598V175.32H371.906V172.25H374.074ZM381.152 176.855C382.113 175.676 383.363 175.086 384.902 175.086C387.582 175.086 388.934 176.598 388.957 179.621V188H386.789V179.609C386.781 178.695 386.57 178.02 386.156 177.582C385.75 177.145 385.113 176.926 384.246 176.926C383.543 176.926 382.926 177.113 382.395 177.488C381.863 177.863 381.449 178.355 381.152 178.965V188H378.984V170H381.152V176.855ZM397.465 188.234C395.746 188.234 394.348 187.672 393.27 186.547C392.191 185.414 391.652 183.902 391.652 182.012V181.613C391.652 180.355 391.891 179.234 392.367 178.25C392.852 177.258 393.523 176.484 394.383 175.93C395.25 175.367 396.188 175.086 397.195 175.086C398.844 175.086 400.125 175.629 401.039 176.715C401.953 177.801 402.41 179.355 402.41 181.379V182.281H393.82C393.852 183.531 394.215 184.543 394.91 185.316C395.613 186.082 396.504 186.465 397.582 186.465C398.348 186.465 398.996 186.309 399.527 185.996C400.059 185.684 400.523 185.27 400.922 184.754L402.246 185.785C401.184 187.418 399.59 188.234 397.465 188.234ZM397.195 176.867C396.32 176.867 395.586 177.188 394.992 177.828C394.398 178.461 394.031 179.352 393.891 180.5H400.242V180.336C400.18 179.234 399.883 178.383 399.352 177.781C398.82 177.172 398.102 176.867 397.195 176.867ZM413.238 188H411.07V170H413.238V188ZM421.98 188.234C420.262 188.234 418.863 187.672 417.785 186.547C416.707 185.414 416.168 183.902 416.168 182.012V181.613C416.168 180.355 416.406 179.234 416.883 178.25C417.367 177.258 418.039 176.484 418.898 175.93C419.766 175.367 420.703 175.086 421.711 175.086C423.359 175.086 424.641 175.629 425.555 176.715C426.469 177.801 426.926 179.355 426.926 181.379V182.281H418.336C418.367 183.531 418.73 184.543 419.426 185.316C420.129 186.082 421.02 186.465 422.098 186.465C422.863 186.465 423.512 186.309 424.043 185.996C424.574 185.684 425.039 185.27 425.438 184.754L426.762 185.785C425.699 187.418 424.105 188.234 421.98 188.234ZM421.711 176.867C420.836 176.867 420.102 177.188 419.508 177.828C418.914 178.461 418.547 179.352 418.406 180.5H424.758V180.336C424.695 179.234 424.398 178.383 423.867 177.781C423.336 177.172 422.617 176.867 421.711 176.867ZM433.465 185.059L436.605 175.32H438.82L434.273 188H432.621L428.027 175.32H430.242L433.465 185.059ZM446.004 188.234C444.285 188.234 442.887 187.672 441.809 186.547C440.73 185.414 440.191 183.902 440.191 182.012V181.613C440.191 180.355 440.43 179.234 440.906 178.25C441.391 177.258 442.062 176.484 442.922 175.93C443.789 175.367 444.727 175.086 445.734 175.086C447.383 175.086 448.664 175.629 449.578 176.715C450.492 177.801 450.949 179.355 450.949 181.379V182.281H442.359C442.391 183.531 442.754 184.543 443.449 185.316C444.152 186.082 445.043 186.465 446.121 186.465C446.887 186.465 447.535 186.309 448.066 185.996C448.598 185.684 449.062 185.27 449.461 184.754L450.785 185.785C449.723 187.418 448.129 188.234 446.004 188.234ZM445.734 176.867C444.859 176.867 444.125 177.188 443.531 177.828C442.938 178.461 442.57 179.352 442.43 180.5H448.781V180.336C448.719 179.234 448.422 178.383 447.891 177.781C447.359 177.172 446.641 176.867 445.734 176.867ZM455.824 188H453.656V170H455.824V188ZM464.684 181.543C464.684 180.301 464.926 179.184 465.41 178.191C465.902 177.199 466.582 176.434 467.449 175.895C468.324 175.355 469.32 175.086 470.438 175.086C472.164 175.086 473.559 175.684 474.621 176.879C475.691 178.074 476.227 179.664 476.227 181.648V181.801C476.227 183.035 475.988 184.145 475.512 185.129C475.043 186.105 474.367 186.867 473.484 187.414C472.609 187.961 471.602 188.234 470.461 188.234C468.742 188.234 467.348 187.637 466.277 186.441C465.215 185.246 464.684 183.664 464.684 181.695V181.543ZM466.863 181.801C466.863 183.207 467.188 184.336 467.836 185.188C468.492 186.039 469.367 186.465 470.461 186.465C471.562 186.465 472.438 186.035 473.086 185.176C473.734 184.309 474.059 183.098 474.059 181.543C474.059 180.152 473.727 179.027 473.062 178.168C472.406 177.301 471.531 176.867 470.438 176.867C469.367 176.867 468.504 177.293 467.848 178.145C467.191 178.996 466.863 180.215 466.863 181.801ZM480.012 188V176.996H478.008V175.32H480.012V174.02C480.012 172.66 480.375 171.609 481.102 170.867C481.828 170.125 482.855 169.754 484.184 169.754C484.684 169.754 485.18 169.82 485.672 169.953L485.555 171.711C485.188 171.641 484.797 171.605 484.383 171.605C483.68 171.605 483.137 171.812 482.754 172.227C482.371 172.633 482.18 173.219 482.18 173.984V175.32H484.887V176.996H482.18V188H480.012ZM3.99609 223H1.82812V205H3.99609V223ZM15.3047 223C15.1797 222.75 15.0781 222.305 15 221.664C13.9922 222.711 12.7891 223.234 11.3906 223.234C10.1406 223.234 9.11328 222.883 8.30859 222.18C7.51172 221.469 7.11328 220.57 7.11328 219.484C7.11328 218.164 7.61328 217.141 8.61328 216.414C9.62109 215.68 11.0352 215.312 12.8555 215.312H14.9648V214.316C14.9648 213.559 14.7383 212.957 14.2852 212.512C13.832 212.059 13.1641 211.832 12.2812 211.832C11.5078 211.832 10.8594 212.027 10.3359 212.418C9.8125 212.809 9.55078 213.281 9.55078 213.836H7.37109C7.37109 213.203 7.59375 212.594 8.03906 212.008C8.49219 211.414 9.10156 210.945 9.86719 210.602C10.6406 210.258 11.4883 210.086 12.4102 210.086C13.8711 210.086 15.0156 210.453 15.8438 211.188C16.6719 211.914 17.1016 212.918 17.1328 214.199V220.035C17.1328 221.199 17.2812 222.125 17.5781 222.812V223H15.3047ZM11.707 221.348C12.3867 221.348 13.0312 221.172 13.6406 220.82C14.25 220.469 14.6914 220.012 14.9648 219.449V216.848H13.2656C10.6094 216.848 9.28125 217.625 9.28125 219.18C9.28125 219.859 9.50781 220.391 9.96094 220.773C10.4141 221.156 10.9961 221.348 11.707 221.348ZM31.2656 216.801C31.2656 218.738 30.8203 220.297 29.9297 221.477C29.0391 222.648 27.8438 223.234 26.3438 223.234C24.7422 223.234 23.5039 222.668 22.6289 221.535L22.5234 223H20.5312V205H22.6992V211.715C23.5742 210.629 24.7812 210.086 26.3203 210.086C27.8594 210.086 29.0664 210.668 29.9414 211.832C30.8242 212.996 31.2656 214.59 31.2656 216.613V216.801ZM29.0977 216.555C29.0977 215.078 28.8125 213.938 28.2422 213.133C27.6719 212.328 26.8516 211.926 25.7812 211.926C24.3516 211.926 23.3242 212.59 22.6992 213.918V219.402C23.3633 220.73 24.3984 221.395 25.8047 221.395C26.8438 221.395 27.6523 220.992 28.2305 220.188C28.8086 219.383 29.0977 218.172 29.0977 216.555ZM33.4336 216.543C33.4336 215.301 33.6758 214.184 34.1602 213.191C34.6523 212.199 35.332 211.434 36.1992 210.895C37.0742 210.355 38.0703 210.086 39.1875 210.086C40.9141 210.086 42.3086 210.684 43.3711 211.879C44.4414 213.074 44.9766 214.664 44.9766 216.648V216.801C44.9766 218.035 44.7383 219.145 44.2617 220.129C43.793 221.105 43.1172 221.867 42.2344 222.414C41.3594 222.961 40.3516 223.234 39.2109 223.234C37.4922 223.234 36.0977 222.637 35.0273 221.441C33.9648 220.246 33.4336 218.664 33.4336 216.695V216.543ZM35.6133 216.801C35.6133 218.207 35.9375 219.336 36.5859 220.188C37.2422 221.039 38.1172 221.465 39.2109 221.465C40.3125 221.465 41.1875 221.035 41.8359 220.176C42.4844 219.309 42.8086 218.098 42.8086 216.543C42.8086 215.152 42.4766 214.027 41.8125 213.168C41.1562 212.301 40.2812 211.867 39.1875 211.867C38.1172 211.867 37.2539 212.293 36.5977 213.145C35.9414 213.996 35.6133 215.215 35.6133 216.801ZM53.8242 212.266C53.4961 212.211 53.1406 212.184 52.7578 212.184C51.3359 212.184 50.3711 212.789 49.8633 214V223H47.6953V210.32H49.8047L49.8398 211.785C50.5508 210.652 51.5586 210.086 52.8633 210.086C53.2852 210.086 53.6055 210.141 53.8242 210.25V212.266ZM64.7227 207.25V210.32H67.0898V211.996H64.7227V219.859C64.7227 220.367 64.8281 220.75 65.0391 221.008C65.25 221.258 65.6094 221.383 66.1172 221.383C66.3672 221.383 66.7109 221.336 67.1484 221.242V223C66.5781 223.156 66.0234 223.234 65.4844 223.234C64.5156 223.234 63.7852 222.941 63.293 222.355C62.8008 221.77 62.5547 220.938 62.5547 219.859V211.996H60.2461V210.32H62.5547V207.25H64.7227ZM75.7617 212.266C75.4336 212.211 75.0781 212.184 74.6953 212.184C73.2734 212.184 72.3086 212.789 71.8008 214V223H69.6328V210.32H71.7422L71.7773 211.785C72.4883 210.652 73.4961 210.086 74.8008 210.086C75.2227 210.086 75.543 210.141 75.7617 210.25V212.266ZM85.125 223C85 222.75 84.8984 222.305 84.8203 221.664C83.8125 222.711 82.6094 223.234 81.2109 223.234C79.9609 223.234 78.9336 222.883 78.1289 222.18C77.332 221.469 76.9336 220.57 76.9336 219.484C76.9336 218.164 77.4336 217.141 78.4336 216.414C79.4414 215.68 80.8555 215.312 82.6758 215.312H84.7852V214.316C84.7852 213.559 84.5586 212.957 84.1055 212.512C83.6523 212.059 82.9844 211.832 82.1016 211.832C81.3281 211.832 80.6797 212.027 80.1562 212.418C79.6328 212.809 79.3711 213.281 79.3711 213.836H77.1914C77.1914 213.203 77.4141 212.594 77.8594 212.008C78.3125 211.414 78.9219 210.945 79.6875 210.602C80.4609 210.258 81.3086 210.086 82.2305 210.086C83.6914 210.086 84.8359 210.453 85.6641 211.188C86.4922 211.914 86.9219 212.918 86.9531 214.199V220.035C86.9531 221.199 87.1016 222.125 87.3984 222.812V223H85.125ZM81.5273 221.348C82.207 221.348 82.8516 221.172 83.4609 220.82C84.0703 220.469 84.5117 220.012 84.7852 219.449V216.848H83.0859C80.4297 216.848 79.1016 217.625 79.1016 219.18C79.1016 219.859 79.3281 220.391 79.7812 220.773C80.2344 221.156 80.8164 221.348 81.5273 221.348ZM91.418 223V211.996H89.4141V210.32H91.418V209.02C91.418 207.66 91.7812 206.609 92.5078 205.867C93.2344 205.125 94.2617 204.754 95.5898 204.754C96.0898 204.754 96.5859 204.82 97.0781 204.953L96.9609 206.711C96.5938 206.641 96.2031 206.605 95.7891 206.605C95.0859 206.605 94.543 206.812 94.1602 207.227C93.7773 207.633 93.5859 208.219 93.5859 208.984V210.32H98.2734V209.242C98.2734 207.828 98.6758 206.727 99.4805 205.938C100.293 205.148 101.438 204.754 102.914 204.754C103.789 204.754 104.895 204.992 106.23 205.469L105.867 207.297C104.891 206.906 103.957 206.711 103.066 206.711C102.137 206.711 101.465 206.918 101.051 207.332C100.645 207.746 100.441 208.375 100.441 209.219V210.32H103.043V211.996H100.441V223H98.2734V211.996H93.5859V223H91.418ZM107.297 223H105.129V210.32H107.297V223ZM115.922 221.465C116.695 221.465 117.371 221.23 117.949 220.762C118.527 220.293 118.848 219.707 118.91 219.004H120.961C120.922 219.73 120.672 220.422 120.211 221.078C119.75 221.734 119.133 222.258 118.359 222.648C117.594 223.039 116.781 223.234 115.922 223.234C114.195 223.234 112.82 222.66 111.797 221.512C110.781 220.355 110.273 218.777 110.273 216.777V216.414C110.273 215.18 110.5 214.082 110.953 213.121C111.406 212.16 112.055 211.414 112.898 210.883C113.75 210.352 114.754 210.086 115.91 210.086C117.332 210.086 118.512 210.512 119.449 211.363C120.395 212.215 120.898 213.32 120.961 214.68H118.91C118.848 213.859 118.535 213.188 117.973 212.664C117.418 212.133 116.73 211.867 115.91 211.867C114.809 211.867 113.953 212.266 113.344 213.062C112.742 213.852 112.441 214.996 112.441 216.496V216.906C112.441 218.367 112.742 219.492 113.344 220.281C113.945 221.07 114.805 221.465 115.922 221.465ZM126.938 217.129L125.578 218.547V223H123.41V205H125.578V215.887L126.738 214.492L130.688 210.32H133.324L128.391 215.617L133.898 223H131.355L126.938 217.129ZM137.918 223H135.75V210.32H137.918V223ZM135.574 206.957C135.574 206.605 135.68 206.309 135.891 206.066C136.109 205.824 136.43 205.703 136.852 205.703C137.273 205.703 137.594 205.824 137.812 206.066C138.031 206.309 138.141 206.605 138.141 206.957C138.141 207.309 138.031 207.602 137.812 207.836C137.594 208.07 137.273 208.188 136.852 208.188C136.43 208.188 136.109 208.07 135.891 207.836C135.68 207.602 135.574 207.309 135.574 206.957ZM143.449 210.32L143.52 211.914C144.488 210.695 145.754 210.086 147.316 210.086C149.996 210.086 151.348 211.598 151.371 214.621V223H149.203V214.609C149.195 213.695 148.984 213.02 148.57 212.582C148.164 212.145 147.527 211.926 146.66 211.926C145.957 211.926 145.34 212.113 144.809 212.488C144.277 212.863 143.863 213.355 143.566 213.965V223H141.398V210.32H143.449ZM154.125 216.555C154.125 214.578 154.582 213.008 155.496 211.844C156.41 210.672 157.621 210.086 159.129 210.086C160.676 210.086 161.883 210.633 162.75 211.727L162.855 210.32H164.836V222.695C164.836 224.336 164.348 225.629 163.371 226.574C162.402 227.52 161.098 227.992 159.457 227.992C158.543 227.992 157.648 227.797 156.773 227.406C155.898 227.016 155.23 226.48 154.77 225.801L155.895 224.5C156.824 225.648 157.961 226.223 159.305 226.223C160.359 226.223 161.18 225.926 161.766 225.332C162.359 224.738 162.656 223.902 162.656 222.824V221.734C161.789 222.734 160.605 223.234 159.105 223.234C157.621 223.234 156.418 222.637 155.496 221.441C154.582 220.246 154.125 218.617 154.125 216.555ZM156.305 216.801C156.305 218.23 156.598 219.355 157.184 220.176C157.77 220.988 158.59 221.395 159.645 221.395C161.012 221.395 162.016 220.773 162.656 219.531V213.742C161.992 212.531 160.996 211.926 159.668 211.926C158.613 211.926 157.789 212.336 157.195 213.156C156.602 213.977 156.305 215.191 156.305 216.801ZM181.898 221.746C181.055 222.738 179.816 223.234 178.184 223.234C176.832 223.234 175.801 222.844 175.09 222.062C174.387 221.273 174.031 220.109 174.023 218.57V210.32H176.191V218.512C176.191 220.434 176.973 221.395 178.535 221.395C180.191 221.395 181.293 220.777 181.84 219.543V210.32H184.008V223H181.945L181.898 221.746ZM189.363 210.32L189.434 211.914C190.402 210.695 191.668 210.086 193.23 210.086C195.91 210.086 197.262 211.598 197.285 214.621V223H195.117V214.609C195.109 213.695 194.898 213.02 194.484 212.582C194.078 212.145 193.441 211.926 192.574 211.926C191.871 211.926 191.254 212.113 190.723 212.488C190.191 212.863 189.777 213.355 189.48 213.965V223H187.312V210.32H189.363ZM200.027 216.555C200.027 214.609 200.488 213.047 201.41 211.867C202.332 210.68 203.539 210.086 205.031 210.086C206.516 210.086 207.691 210.594 208.559 211.609V205H210.727V223H208.734L208.629 221.641C207.762 222.703 206.555 223.234 205.008 223.234C203.539 223.234 202.34 222.633 201.41 221.43C200.488 220.227 200.027 218.656 200.027 216.719V216.555ZM202.195 216.801C202.195 218.238 202.492 219.363 203.086 220.176C203.68 220.988 204.5 221.395 205.547 221.395C206.922 221.395 207.926 220.777 208.559 219.543V213.719C207.91 212.523 206.914 211.926 205.57 211.926C204.508 211.926 203.68 212.336 203.086 213.156C202.492 213.977 202.195 215.191 202.195 216.801ZM219.363 223.234C217.645 223.234 216.246 222.672 215.168 221.547C214.09 220.414 213.551 218.902 213.551 217.012V216.613C213.551 215.355 213.789 214.234 214.266 213.25C214.75 212.258 215.422 211.484 216.281 210.93C217.148 210.367 218.086 210.086 219.094 210.086C220.742 210.086 222.023 210.629 222.938 211.715C223.852 212.801 224.309 214.355 224.309 216.379V217.281H215.719C215.75 218.531 216.113 219.543 216.809 220.316C217.512 221.082 218.402 221.465 219.48 221.465C220.246 221.465 220.895 221.309 221.426 220.996C221.957 220.684 222.422 220.27 222.82 219.754L224.145 220.785C223.082 222.418 221.488 223.234 219.363 223.234ZM219.094 211.867C218.219 211.867 217.484 212.188 216.891 212.828C216.297 213.461 215.93 214.352 215.789 215.5H222.141V215.336C222.078 214.234 221.781 213.383 221.25 212.781C220.719 212.172 220 211.867 219.094 211.867ZM232.957 212.266C232.629 212.211 232.273 212.184 231.891 212.184C230.469 212.184 229.504 212.789 228.996 214V223H226.828V210.32H228.938L228.973 211.785C229.684 210.652 230.691 210.086 231.996 210.086C232.418 210.086 232.738 210.141 232.957 210.25V212.266ZM244.16 205.938L249.738 219.859L255.316 205.938H258.234V223H255.984V216.355L256.195 209.184L250.594 223H248.871L243.281 209.219L243.504 216.355V223H241.254V205.938H244.16ZM269.695 223C269.57 222.75 269.469 222.305 269.391 221.664C268.383 222.711 267.18 223.234 265.781 223.234C264.531 223.234 263.504 222.883 262.699 222.18C261.902 221.469 261.504 220.57 261.504 219.484C261.504 218.164 262.004 217.141 263.004 216.414C264.012 215.68 265.426 215.312 267.246 215.312H269.355V214.316C269.355 213.559 269.129 212.957 268.676 212.512C268.223 212.059 267.555 211.832 266.672 211.832C265.898 211.832 265.25 212.027 264.727 212.418C264.203 212.809 263.941 213.281 263.941 213.836H261.762C261.762 213.203 261.984 212.594 262.43 212.008C262.883 211.414 263.492 210.945 264.258 210.602C265.031 210.258 265.879 210.086 266.801 210.086C268.262 210.086 269.406 210.453 270.234 211.188C271.062 211.914 271.492 212.918 271.523 214.199V220.035C271.523 221.199 271.672 222.125 271.969 222.812V223H269.695ZM266.098 221.348C266.777 221.348 267.422 221.172 268.031 220.82C268.641 220.469 269.082 220.012 269.355 219.449V216.848H267.656C265 216.848 263.672 217.625 263.672 219.18C263.672 219.859 263.898 220.391 264.352 220.773C264.805 221.156 265.387 221.348 266.098 221.348ZM282.305 219.637C282.305 219.051 282.082 218.598 281.637 218.277C281.199 217.949 280.43 217.668 279.328 217.434C278.234 217.199 277.363 216.918 276.715 216.59C276.074 216.262 275.598 215.871 275.285 215.418C274.98 214.965 274.828 214.426 274.828 213.801C274.828 212.762 275.266 211.883 276.141 211.164C277.023 210.445 278.148 210.086 279.516 210.086C280.953 210.086 282.117 210.457 283.008 211.199C283.906 211.941 284.355 212.891 284.355 214.047H282.176C282.176 213.453 281.922 212.941 281.414 212.512C280.914 212.082 280.281 211.867 279.516 211.867C278.727 211.867 278.109 212.039 277.664 212.383C277.219 212.727 276.996 213.176 276.996 213.73C276.996 214.254 277.203 214.648 277.617 214.914C278.031 215.18 278.777 215.434 279.855 215.676C280.941 215.918 281.82 216.207 282.492 216.543C283.164 216.879 283.66 217.285 283.98 217.762C284.309 218.23 284.473 218.805 284.473 219.484C284.473 220.617 284.02 221.527 283.113 222.215C282.207 222.895 281.031 223.234 279.586 223.234C278.57 223.234 277.672 223.055 276.891 222.695C276.109 222.336 275.496 221.836 275.051 221.195C274.613 220.547 274.395 219.848 274.395 219.098H276.562C276.602 219.824 276.891 220.402 277.43 220.832C277.977 221.254 278.695 221.465 279.586 221.465C280.406 221.465 281.062 221.301 281.555 220.973C282.055 220.637 282.305 220.191 282.305 219.637ZM294.68 219.637C294.68 219.051 294.457 218.598 294.012 218.277C293.574 217.949 292.805 217.668 291.703 217.434C290.609 217.199 289.738 216.918 289.09 216.59C288.449 216.262 287.973 215.871 287.66 215.418C287.355 214.965 287.203 214.426 287.203 213.801C287.203 212.762 287.641 211.883 288.516 211.164C289.398 210.445 290.523 210.086 291.891 210.086C293.328 210.086 294.492 210.457 295.383 211.199C296.281 211.941 296.73 212.891 296.73 214.047H294.551C294.551 213.453 294.297 212.941 293.789 212.512C293.289 212.082 292.656 211.867 291.891 211.867C291.102 211.867 290.484 212.039 290.039 212.383C289.594 212.727 289.371 213.176 289.371 213.73C289.371 214.254 289.578 214.648 289.992 214.914C290.406 215.18 291.152 215.434 292.23 215.676C293.316 215.918 294.195 216.207 294.867 216.543C295.539 216.879 296.035 217.285 296.355 217.762C296.684 218.23 296.848 218.805 296.848 219.484C296.848 220.617 296.395 221.527 295.488 222.215C294.582 222.895 293.406 223.234 291.961 223.234C290.945 223.234 290.047 223.055 289.266 222.695C288.484 222.336 287.871 221.836 287.426 221.195C286.988 220.547 286.77 219.848 286.77 219.098H288.938C288.977 219.824 289.266 220.402 289.805 220.832C290.352 221.254 291.07 221.465 291.961 221.465C292.781 221.465 293.438 221.301 293.93 220.973C294.43 220.637 294.68 220.191 294.68 219.637ZM307.5 223C307.375 222.75 307.273 222.305 307.195 221.664C306.188 222.711 304.984 223.234 303.586 223.234C302.336 223.234 301.309 222.883 300.504 222.18C299.707 221.469 299.309 220.57 299.309 219.484C299.309 218.164 299.809 217.141 300.809 216.414C301.816 215.68 303.23 215.312 305.051 215.312H307.16V214.316C307.16 213.559 306.934 212.957 306.48 212.512C306.027 212.059 305.359 211.832 304.477 211.832C303.703 211.832 303.055 212.027 302.531 212.418C302.008 212.809 301.746 213.281 301.746 213.836H299.566C299.566 213.203 299.789 212.594 300.234 212.008C300.688 211.414 301.297 210.945 302.062 210.602C302.836 210.258 303.684 210.086 304.605 210.086C306.066 210.086 307.211 210.453 308.039 211.188C308.867 211.914 309.297 212.918 309.328 214.199V220.035C309.328 221.199 309.477 222.125 309.773 222.812V223H307.5ZM303.902 221.348C304.582 221.348 305.227 221.172 305.836 220.82C306.445 220.469 306.887 220.012 307.16 219.449V216.848H305.461C302.805 216.848 301.477 217.625 301.477 219.18C301.477 219.859 301.703 220.391 302.156 220.773C302.609 221.156 303.191 221.348 303.902 221.348ZM317.812 221.465C318.586 221.465 319.262 221.23 319.84 220.762C320.418 220.293 320.738 219.707 320.801 219.004H322.852C322.812 219.73 322.562 220.422 322.102 221.078C321.641 221.734 321.023 222.258 320.25 222.648C319.484 223.039 318.672 223.234 317.812 223.234C316.086 223.234 314.711 222.66 313.688 221.512C312.672 220.355 312.164 218.777 312.164 216.777V216.414C312.164 215.18 312.391 214.082 312.844 213.121C313.297 212.16 313.945 211.414 314.789 210.883C315.641 210.352 316.645 210.086 317.801 210.086C319.223 210.086 320.402 210.512 321.34 211.363C322.285 212.215 322.789 213.32 322.852 214.68H320.801C320.738 213.859 320.426 213.188 319.863 212.664C319.309 212.133 318.621 211.867 317.801 211.867C316.699 211.867 315.844 212.266 315.234 213.062C314.633 213.852 314.332 214.996 314.332 216.496V216.906C314.332 218.367 314.633 219.492 315.234 220.281C315.836 221.07 316.695 221.465 317.812 221.465ZM327.457 211.855C328.418 210.676 329.668 210.086 331.207 210.086C333.887 210.086 335.238 211.598 335.262 214.621V223H333.094V214.609C333.086 213.695 332.875 213.02 332.461 212.582C332.055 212.145 331.418 211.926 330.551 211.926C329.848 211.926 329.23 212.113 328.699 212.488C328.168 212.863 327.754 213.355 327.457 213.965V223H325.289V205H327.457V211.855ZM346.336 221.746C345.492 222.738 344.254 223.234 342.621 223.234C341.27 223.234 340.238 222.844 339.527 222.062C338.824 221.273 338.469 220.109 338.461 218.57V210.32H340.629V218.512C340.629 220.434 341.41 221.395 342.973 221.395C344.629 221.395 345.73 220.777 346.277 219.543V210.32H348.445V223H346.383L346.336 221.746ZM359.133 219.637C359.133 219.051 358.91 218.598 358.465 218.277C358.027 217.949 357.258 217.668 356.156 217.434C355.062 217.199 354.191 216.918 353.543 216.59C352.902 216.262 352.426 215.871 352.113 215.418C351.809 214.965 351.656 214.426 351.656 213.801C351.656 212.762 352.094 211.883 352.969 211.164C353.852 210.445 354.977 210.086 356.344 210.086C357.781 210.086 358.945 210.457 359.836 211.199C360.734 211.941 361.184 212.891 361.184 214.047H359.004C359.004 213.453 358.75 212.941 358.242 212.512C357.742 212.082 357.109 211.867 356.344 211.867C355.555 211.867 354.938 212.039 354.492 212.383C354.047 212.727 353.824 213.176 353.824 213.73C353.824 214.254 354.031 214.648 354.445 214.914C354.859 215.18 355.605 215.434 356.684 215.676C357.77 215.918 358.648 216.207 359.32 216.543C359.992 216.879 360.488 217.285 360.809 217.762C361.137 218.23 361.301 218.805 361.301 219.484C361.301 220.617 360.848 221.527 359.941 222.215C359.035 222.895 357.859 223.234 356.414 223.234C355.398 223.234 354.5 223.055 353.719 222.695C352.938 222.336 352.324 221.836 351.879 221.195C351.441 220.547 351.223 219.848 351.223 219.098H353.391C353.43 219.824 353.719 220.402 354.258 220.832C354.805 221.254 355.523 221.465 356.414 221.465C357.234 221.465 357.891 221.301 358.383 220.973C358.883 220.637 359.133 220.191 359.133 219.637ZM369.387 223.234C367.668 223.234 366.27 222.672 365.191 221.547C364.113 220.414 363.574 218.902 363.574 217.012V216.613C363.574 215.355 363.812 214.234 364.289 213.25C364.773 212.258 365.445 211.484 366.305 210.93C367.172 210.367 368.109 210.086 369.117 210.086C370.766 210.086 372.047 210.629 372.961 211.715C373.875 212.801 374.332 214.355 374.332 216.379V217.281H365.742C365.773 218.531 366.137 219.543 366.832 220.316C367.535 221.082 368.426 221.465 369.504 221.465C370.27 221.465 370.918 221.309 371.449 220.996C371.98 220.684 372.445 220.27 372.844 219.754L374.168 220.785C373.105 222.418 371.512 223.234 369.387 223.234ZM369.117 211.867C368.242 211.867 367.508 212.188 366.914 212.828C366.32 213.461 365.953 214.352 365.812 215.5H372.164V215.336C372.102 214.234 371.805 213.383 371.273 212.781C370.742 212.172 370.023 211.867 369.117 211.867ZM379.793 207.25V210.32H382.16V211.996H379.793V219.859C379.793 220.367 379.898 220.75 380.109 221.008C380.32 221.258 380.68 221.383 381.188 221.383C381.438 221.383 381.781 221.336 382.219 221.242V223C381.648 223.156 381.094 223.234 380.555 223.234C379.586 223.234 378.855 222.941 378.363 222.355C377.871 221.77 377.625 220.938 377.625 219.859V211.996H375.316V210.32H377.625V207.25H379.793ZM387.645 207.25V210.32H390.012V211.996H387.645V219.859C387.645 220.367 387.75 220.75 387.961 221.008C388.172 221.258 388.531 221.383 389.039 221.383C389.289 221.383 389.633 221.336 390.07 221.242V223C389.5 223.156 388.945 223.234 388.406 223.234C387.438 223.234 386.707 222.941 386.215 222.355C385.723 221.77 385.477 220.938 385.477 219.859V211.996H383.168V210.32H385.477V207.25H387.645ZM399.938 219.637C399.938 219.051 399.715 218.598 399.27 218.277C398.832 217.949 398.062 217.668 396.961 217.434C395.867 217.199 394.996 216.918 394.348 216.59C393.707 216.262 393.23 215.871 392.918 215.418C392.613 214.965 392.461 214.426 392.461 213.801C392.461 212.762 392.898 211.883 393.773 211.164C394.656 210.445 395.781 210.086 397.148 210.086C398.586 210.086 399.75 210.457 400.641 211.199C401.539 211.941 401.988 212.891 401.988 214.047H399.809C399.809 213.453 399.555 212.941 399.047 212.512C398.547 212.082 397.914 211.867 397.148 211.867C396.359 211.867 395.742 212.039 395.297 212.383C394.852 212.727 394.629 213.176 394.629 213.73C394.629 214.254 394.836 214.648 395.25 214.914C395.664 215.18 396.41 215.434 397.488 215.676C398.574 215.918 399.453 216.207 400.125 216.543C400.797 216.879 401.293 217.285 401.613 217.762C401.941 218.23 402.105 218.805 402.105 219.484C402.105 220.617 401.652 221.527 400.746 222.215C399.84 222.895 398.664 223.234 397.219 223.234C396.203 223.234 395.305 223.055 394.523 222.695C393.742 222.336 393.129 221.836 392.684 221.195C392.246 220.547 392.027 219.848 392.027 219.098H394.195C394.234 219.824 394.523 220.402 395.062 220.832C395.609 221.254 396.328 221.465 397.219 221.465C398.039 221.465 398.695 221.301 399.188 220.973C399.688 220.637 399.938 220.191 399.938 219.637ZM413.238 223H411.07V205H413.238V223ZM424.547 223C424.422 222.75 424.32 222.305 424.242 221.664C423.234 222.711 422.031 223.234 420.633 223.234C419.383 223.234 418.355 222.883 417.551 222.18C416.754 221.469 416.355 220.57 416.355 219.484C416.355 218.164 416.855 217.141 417.855 216.414C418.863 215.68 420.277 215.312 422.098 215.312H424.207V214.316C424.207 213.559 423.98 212.957 423.527 212.512C423.074 212.059 422.406 211.832 421.523 211.832C420.75 211.832 420.102 212.027 419.578 212.418C419.055 212.809 418.793 213.281 418.793 213.836H416.613C416.613 213.203 416.836 212.594 417.281 212.008C417.734 211.414 418.344 210.945 419.109 210.602C419.883 210.258 420.73 210.086 421.652 210.086C423.113 210.086 424.258 210.453 425.086 211.188C425.914 211.914 426.344 212.918 426.375 214.199V220.035C426.375 221.199 426.523 222.125 426.82 222.812V223H424.547ZM420.949 221.348C421.629 221.348 422.273 221.172 422.883 220.82C423.492 220.469 423.934 220.012 424.207 219.449V216.848H422.508C419.852 216.848 418.523 217.625 418.523 219.18C418.523 219.859 418.75 220.391 419.203 220.773C419.656 221.156 420.238 221.348 420.949 221.348ZM441 220.012L443.438 210.32H445.605L441.914 223H440.156L437.074 213.391L434.074 223H432.316L428.637 210.32H430.793L433.289 219.812L436.242 210.32H437.988L441 220.012ZM446.414 221.863C446.414 221.488 446.523 221.176 446.742 220.926C446.969 220.676 447.305 220.551 447.75 220.551C448.195 220.551 448.531 220.676 448.758 220.926C448.992 221.176 449.109 221.488 449.109 221.863C449.109 222.223 448.992 222.523 448.758 222.766C448.531 223.008 448.195 223.129 447.75 223.129C447.305 223.129 446.969 223.008 446.742 222.766C446.523 222.523 446.414 222.223 446.414 221.863Z" fill="white" fill-opacity="0.8"/>
<line y1="100" x2="150" y2="100" stroke="#F4C346" stroke-width="8"/>
<path d="M34.207 53.6406H12.7617L7.94531 67H0.984375L20.5312 15.8125H26.4375L46.0195 67H39.0938L34.207 53.6406ZM14.8008 48.0859H32.2031L23.4844 24.1445L14.8008 48.0859ZM74.0391 56.9102C74.0391 55.1523 73.3711 53.793 72.0352 52.832C70.7227 51.8477 68.4141 51.0039 65.1094 50.3008C61.8281 49.5977 59.2148 48.7539 57.2695 47.7695C55.3477 46.7852 53.918 45.6133 52.9805 44.2539C52.0664 42.8945 51.6094 41.2773 51.6094 39.4023C51.6094 36.2852 52.9219 33.6484 55.5469 31.4922C58.1953 29.3359 61.5703 28.2578 65.6719 28.2578C69.9844 28.2578 73.4766 29.3711 76.1484 31.5977C78.8438 33.8242 80.1914 36.6719 80.1914 40.1406H73.6523C73.6523 38.3594 72.8906 36.8242 71.3672 35.5352C69.8672 34.2461 67.9688 33.6016 65.6719 33.6016C63.3047 33.6016 61.4531 34.1172 60.1172 35.1484C58.7812 36.1797 58.1133 37.5273 58.1133 39.1914C58.1133 40.7617 58.7344 41.9453 59.9766 42.7422C61.2188 43.5391 63.457 44.3008 66.6914 45.0273C69.9492 45.7539 72.5859 46.6211 74.6016 47.6289C76.6172 48.6367 78.1055 49.8555 79.0664 51.2852C80.0508 52.6914 80.543 54.4141 80.543 56.4531C80.543 59.8516 79.1836 62.582 76.4648 64.6445C73.7461 66.6836 70.2188 67.7031 65.8828 67.7031C62.8359 67.7031 60.1406 67.1641 57.7969 66.0859C55.4531 65.0078 53.6133 63.5078 52.2773 61.5859C50.9648 59.6406 50.3086 57.543 50.3086 55.293H56.8125C56.9297 57.4727 57.7969 59.207 59.4141 60.4961C61.0547 61.7617 63.2109 62.3945 65.8828 62.3945C68.3438 62.3945 70.3125 61.9023 71.7891 60.918C73.2891 59.9102 74.0391 58.5742 74.0391 56.9102ZM111.164 56.9102C111.164 55.1523 110.496 53.793 109.16 52.832C107.848 51.8477 105.539 51.0039 102.234 50.3008C98.9531 49.5977 96.3398 48.7539 94.3945 47.7695C92.4727 46.7852 91.043 45.6133 90.1055 44.2539C89.1914 42.8945 88.7344 41.2773 88.7344 39.4023C88.7344 36.2852 90.0469 33.6484 92.6719 31.4922C95.3203 29.3359 98.6953 28.2578 102.797 28.2578C107.109 28.2578 110.602 29.3711 113.273 31.5977C115.969 33.8242 117.316 36.6719 117.316 40.1406H110.777C110.777 38.3594 110.016 36.8242 108.492 35.5352C106.992 34.2461 105.094 33.6016 102.797 33.6016C100.43 33.6016 98.5781 34.1172 97.2422 35.1484C95.9062 36.1797 95.2383 37.5273 95.2383 39.1914C95.2383 40.7617 95.8594 41.9453 97.1016 42.7422C98.3438 43.5391 100.582 44.3008 103.816 45.0273C107.074 45.7539 109.711 46.6211 111.727 47.6289C113.742 48.6367 115.23 49.8555 116.191 51.2852C117.176 52.6914 117.668 54.4141 117.668 56.4531C117.668 59.8516 116.309 62.582 113.59 64.6445C110.871 66.6836 107.344 67.7031 103.008 67.7031C99.9609 67.7031 97.2656 67.1641 94.9219 66.0859C92.5781 65.0078 90.7383 63.5078 89.4023 61.5859C88.0898 59.6406 87.4336 57.543 87.4336 55.293H93.9375C94.0547 57.4727 94.9219 59.207 96.5391 60.4961C98.1797 61.7617 100.336 62.3945 103.008 62.3945C105.469 62.3945 107.438 61.9023 108.914 60.918C110.414 59.9102 111.164 58.5742 111.164 56.9102ZM141.926 67.7031C136.77 67.7031 132.574 66.0156 129.34 62.6406C126.105 59.2422 124.488 54.707 124.488 49.0352V47.8398C124.488 44.0664 125.203 40.7031 126.633 37.75C128.086 34.7734 130.102 32.4531 132.68 30.7891C135.281 29.1016 138.094 28.2578 141.117 28.2578C146.062 28.2578 149.906 29.8867 152.648 33.1445C155.391 36.4023 156.762 41.0664 156.762 47.1367V49.8438H130.992C131.086 53.5938 132.176 56.6289 134.262 58.9492C136.371 61.2461 139.043 62.3945 142.277 62.3945C144.574 62.3945 146.52 61.9258 148.113 60.9883C149.707 60.0508 151.102 58.8086 152.297 57.2617L156.27 60.3555C153.082 65.2539 148.301 67.7031 141.926 67.7031ZM141.117 33.6016C138.492 33.6016 136.289 34.5625 134.508 36.4844C132.727 38.3828 131.625 41.0547 131.203 44.5H150.258V44.0078C150.07 40.7031 149.18 38.1484 147.586 36.3438C145.992 34.5156 143.836 33.6016 141.117 33.6016ZM186.469 56.9102C186.469 55.1523 185.801 53.793 184.465 52.832C183.152 51.8477 180.844 51.0039 177.539 50.3008C174.258 49.5977 171.645 48.7539 169.699 47.7695C167.777 46.7852 166.348 45.6133 165.41 44.2539C164.496 42.8945 164.039 41.2773 164.039 39.4023C164.039 36.2852 165.352 33.6484 167.977 31.4922C170.625 29.3359 174 28.2578 178.102 28.2578C182.414 28.2578 185.906 29.3711 188.578 31.5977C191.273 33.8242 192.621 36.6719 192.621 40.1406H186.082C186.082 38.3594 185.32 36.8242 183.797 35.5352C182.297 34.2461 180.398 33.6016 178.102 33.6016C175.734 33.6016 173.883 34.1172 172.547 35.1484C171.211 36.1797 170.543 37.5273 170.543 39.1914C170.543 40.7617 171.164 41.9453 172.406 42.7422C173.648 43.5391 175.887 44.3008 179.121 45.0273C182.379 45.7539 185.016 46.6211 187.031 47.6289C189.047 48.6367 190.535 49.8555 191.496 51.2852C192.48 52.6914 192.973 54.4141 192.973 56.4531C192.973 59.8516 191.613 62.582 188.895 64.6445C186.176 66.6836 182.648 67.7031 178.312 67.7031C175.266 67.7031 172.57 67.1641 170.227 66.0859C167.883 65.0078 166.043 63.5078 164.707 61.5859C163.395 59.6406 162.738 57.543 162.738 55.293H169.242C169.359 57.4727 170.227 59.207 171.844 60.4961C173.484 61.7617 175.641 62.3945 178.312 62.3945C180.773 62.3945 182.742 61.9023 184.219 60.918C185.719 59.9102 186.469 58.5742 186.469 56.9102ZM223.594 56.9102C223.594 55.1523 222.926 53.793 221.59 52.832C220.277 51.8477 217.969 51.0039 214.664 50.3008C211.383 49.5977 208.77 48.7539 206.824 47.7695C204.902 46.7852 203.473 45.6133 202.535 44.2539C201.621 42.8945 201.164 41.2773 201.164 39.4023C201.164 36.2852 202.477 33.6484 205.102 31.4922C207.75 29.3359 211.125 28.2578 215.227 28.2578C219.539 28.2578 223.031 29.3711 225.703 31.5977C228.398 33.8242 229.746 36.6719 229.746 40.1406H223.207C223.207 38.3594 222.445 36.8242 220.922 35.5352C219.422 34.2461 217.523 33.6016 215.227 33.6016C212.859 33.6016 211.008 34.1172 209.672 35.1484C208.336 36.1797 207.668 37.5273 207.668 39.1914C207.668 40.7617 208.289 41.9453 209.531 42.7422C210.773 43.5391 213.012 44.3008 216.246 45.0273C219.504 45.7539 222.141 46.6211 224.156 47.6289C226.172 48.6367 227.66 49.8555 228.621 51.2852C229.605 52.6914 230.098 54.4141 230.098 56.4531C230.098 59.8516 228.738 62.582 226.02 64.6445C223.301 66.6836 219.773 67.7031 215.438 67.7031C212.391 67.7031 209.695 67.1641 207.352 66.0859C205.008 65.0078 203.168 63.5078 201.832 61.5859C200.52 59.6406 199.863 57.543 199.863 55.293H206.367C206.484 57.4727 207.352 59.207 208.969 60.4961C210.609 61.7617 212.766 62.3945 215.438 62.3945C217.898 62.3945 219.867 61.9023 221.344 60.918C222.844 59.9102 223.594 58.5742 223.594 56.9102Z" fill="white"/>
</svg>
