<svg width="231" height="53" viewBox="0 0 231 53" fill="none" xmlns="http://www.w3.org/2000/svg">
<path d="M34.207 38.6406H12.7617L7.94531 52H0.984375L20.5312 0.8125H26.4375L46.0195 52H39.0938L34.207 38.6406ZM14.8008 33.0859H32.2031L23.4844 9.14453L14.8008 33.0859ZM74.0391 41.9102C74.0391 40.1523 73.3711 38.793 72.0352 37.832C70.7227 36.8477 68.4141 36.0039 65.1094 35.3008C61.8281 34.5977 59.2148 33.7539 57.2695 32.7695C55.3477 31.7852 53.918 30.6133 52.9805 29.2539C52.0664 27.8945 51.6094 26.2773 51.6094 24.4023C51.6094 21.2852 52.9219 18.6484 55.5469 16.4922C58.1953 14.3359 61.5703 13.2578 65.6719 13.2578C69.9844 13.2578 73.4766 14.3711 76.1484 16.5977C78.8438 18.8242 80.1914 21.6719 80.1914 25.1406H73.6523C73.6523 23.3594 72.8906 21.8242 71.3672 20.5352C69.8672 19.2461 67.9688 18.6016 65.6719 18.6016C63.3047 18.6016 61.4531 19.1172 60.1172 20.1484C58.7812 21.1797 58.1133 22.5273 58.1133 24.1914C58.1133 25.7617 58.7344 26.9453 59.9766 27.7422C61.2188 28.5391 63.457 29.3008 66.6914 30.0273C69.9492 30.7539 72.5859 31.6211 74.6016 32.6289C76.6172 33.6367 78.1055 34.8555 79.0664 36.2852C80.0508 37.6914 80.543 39.4141 80.543 41.4531C80.543 44.8516 79.1836 47.582 76.4648 49.6445C73.7461 51.6836 70.2188 52.7031 65.8828 52.7031C62.8359 52.7031 60.1406 52.1641 57.7969 51.0859C55.4531 50.0078 53.6133 48.5078 52.2773 46.5859C50.9648 44.6406 50.3086 42.543 50.3086 40.293H56.8125C56.9297 42.4727 57.7969 44.207 59.4141 45.4961C61.0547 46.7617 63.2109 47.3945 65.8828 47.3945C68.3438 47.3945 70.3125 46.9023 71.7891 45.918C73.2891 44.9102 74.0391 43.5742 74.0391 41.9102ZM111.164 41.9102C111.164 40.1523 110.496 38.793 109.16 37.832C107.848 36.8477 105.539 36.0039 102.234 35.3008C98.9531 34.5977 96.3398 33.7539 94.3945 32.7695C92.4727 31.7852 91.043 30.6133 90.1055 29.2539C89.1914 27.8945 88.7344 26.2773 88.7344 24.4023C88.7344 21.2852 90.0469 18.6484 92.6719 16.4922C95.3203 14.3359 98.6953 13.2578 102.797 13.2578C107.109 13.2578 110.602 14.3711 113.273 16.5977C115.969 18.8242 117.316 21.6719 117.316 25.1406H110.777C110.777 23.3594 110.016 21.8242 108.492 20.5352C106.992 19.2461 105.094 18.6016 102.797 18.6016C100.43 18.6016 98.5781 19.1172 97.2422 20.1484C95.9062 21.1797 95.2383 22.5273 95.2383 24.1914C95.2383 25.7617 95.8594 26.9453 97.1016 27.7422C98.3438 28.5391 100.582 29.3008 103.816 30.0273C107.074 30.7539 109.711 31.6211 111.727 32.6289C113.742 33.6367 115.23 34.8555 116.191 36.2852C117.176 37.6914 117.668 39.4141 117.668 41.4531C117.668 44.8516 116.309 47.582 113.59 49.6445C110.871 51.6836 107.344 52.7031 103.008 52.7031C99.9609 52.7031 97.2656 52.1641 94.9219 51.0859C92.5781 50.0078 90.7383 48.5078 89.4023 46.5859C88.0898 44.6406 87.4336 42.543 87.4336 40.293H93.9375C94.0547 42.4727 94.9219 44.207 96.5391 45.4961C98.1797 46.7617 100.336 47.3945 103.008 47.3945C105.469 47.3945 107.438 46.9023 108.914 45.918C110.414 44.9102 111.164 43.5742 111.164 41.9102ZM141.926 52.7031C136.77 52.7031 132.574 51.0156 129.34 47.6406C126.105 44.2422 124.488 39.707 124.488 34.0352V32.8398C124.488 29.0664 125.203 25.7031 126.633 22.75C128.086 19.7734 130.102 17.4531 132.68 15.7891C135.281 14.1016 138.094 13.2578 141.117 13.2578C146.062 13.2578 149.906 14.8867 152.648 18.1445C155.391 21.4023 156.762 26.0664 156.762 32.1367V34.8438H130.992C131.086 38.5938 132.176 41.6289 134.262 43.9492C136.371 46.2461 139.043 47.3945 142.277 47.3945C144.574 47.3945 146.52 46.9258 148.113 45.9883C149.707 45.0508 151.102 43.8086 152.297 42.2617L156.27 45.3555C153.082 50.2539 148.301 52.7031 141.926 52.7031ZM141.117 18.6016C138.492 18.6016 136.289 19.5625 134.508 21.4844C132.727 23.3828 131.625 26.0547 131.203 29.5H150.258V29.0078C150.07 25.7031 149.18 23.1484 147.586 21.3438C145.992 19.5156 143.836 18.6016 141.117 18.6016ZM186.469 41.9102C186.469 40.1523 185.801 38.793 184.465 37.832C183.152 36.8477 180.844 36.0039 177.539 35.3008C174.258 34.5977 171.645 33.7539 169.699 32.7695C167.777 31.7852 166.348 30.6133 165.41 29.2539C164.496 27.8945 164.039 26.2773 164.039 24.4023C164.039 21.2852 165.352 18.6484 167.977 16.4922C170.625 14.3359 174 13.2578 178.102 13.2578C182.414 13.2578 185.906 14.3711 188.578 16.5977C191.273 18.8242 192.621 21.6719 192.621 25.1406H186.082C186.082 23.3594 185.32 21.8242 183.797 20.5352C182.297 19.2461 180.398 18.6016 178.102 18.6016C175.734 18.6016 173.883 19.1172 172.547 20.1484C171.211 21.1797 170.543 22.5273 170.543 24.1914C170.543 25.7617 171.164 26.9453 172.406 27.7422C173.648 28.5391 175.887 29.3008 179.121 30.0273C182.379 30.7539 185.016 31.6211 187.031 32.6289C189.047 33.6367 190.535 34.8555 191.496 36.2852C192.48 37.6914 192.973 39.4141 192.973 41.4531C192.973 44.8516 191.613 47.582 188.895 49.6445C186.176 51.6836 182.648 52.7031 178.312 52.7031C175.266 52.7031 172.57 52.1641 170.227 51.0859C167.883 50.0078 166.043 48.5078 164.707 46.5859C163.395 44.6406 162.738 42.543 162.738 40.293H169.242C169.359 42.4727 170.227 44.207 171.844 45.4961C173.484 46.7617 175.641 47.3945 178.312 47.3945C180.773 47.3945 182.742 46.9023 184.219 45.918C185.719 44.9102 186.469 43.5742 186.469 41.9102ZM223.594 41.9102C223.594 40.1523 222.926 38.793 221.59 37.832C220.277 36.8477 217.969 36.0039 214.664 35.3008C211.383 34.5977 208.77 33.7539 206.824 32.7695C204.902 31.7852 203.473 30.6133 202.535 29.2539C201.621 27.8945 201.164 26.2773 201.164 24.4023C201.164 21.2852 202.477 18.6484 205.102 16.4922C207.75 14.3359 211.125 13.2578 215.227 13.2578C219.539 13.2578 223.031 14.3711 225.703 16.5977C228.398 18.8242 229.746 21.6719 229.746 25.1406H223.207C223.207 23.3594 222.445 21.8242 220.922 20.5352C219.422 19.2461 217.523 18.6016 215.227 18.6016C212.859 18.6016 211.008 19.1172 209.672 20.1484C208.336 21.1797 207.668 22.5273 207.668 24.1914C207.668 25.7617 208.289 26.9453 209.531 27.7422C210.773 28.5391 213.012 29.3008 216.246 30.0273C219.504 30.7539 222.141 31.6211 224.156 32.6289C226.172 33.6367 227.66 34.8555 228.621 36.2852C229.605 37.6914 230.098 39.4141 230.098 41.4531C230.098 44.8516 228.738 47.582 226.02 49.6445C223.301 51.6836 219.773 52.7031 215.438 52.7031C212.391 52.7031 209.695 52.1641 207.352 51.0859C205.008 50.0078 203.168 48.5078 201.832 46.5859C200.52 44.6406 199.863 42.543 199.863 40.293H206.367C206.484 42.4727 207.352 44.207 208.969 45.4961C210.609 46.7617 212.766 47.3945 215.438 47.3945C217.898 47.3945 219.867 46.9023 221.344 45.918C222.844 44.9102 223.594 43.5742 223.594 41.9102Z" fill="white"/>
</svg>
