<svg width="120" height="125" viewBox="0 0 120 125" fill="none" xmlns="http://www.w3.org/2000/svg">
  <path fill-rule="evenodd" clip-rule="evenodd" d="M115.833 89.5714V18.1429C115.833 14.3541 114.318 10.7204 111.621 8.04133C108.924 5.36224 105.266 3.85714 101.452 3.85714H43.9286C40.1145 3.85714 36.4567 5.36224 33.7597 8.04133C31.0628 10.7204 29.5476 14.3541 29.5476 18.1429V89.5714C29.5476 93.3602 31.0628 96.9939 33.7597 99.673C36.4567 102.352 40.1145 103.857 43.9286 103.857H101.452C105.266 103.857 108.924 102.352 111.621 99.673C114.318 96.9939 115.833 93.3602 115.833 89.5714Z" stroke="#19578D" stroke-width="7" stroke-linecap="round" stroke-linejoin="round"/>
  <path d="M28.1454 21.25L13.7357 26.4643C10.1529 27.7606 7.23496 30.4174 5.62362 33.8505C4.01229 37.2836 3.83945 41.2118 5.14311 44.7714L29.7345 111.893C30.3807 113.656 31.3701 115.275 32.6464 116.659C33.9227 118.042 35.4608 119.162 37.1728 119.954C38.8848 120.747 40.7373 121.197 42.6244 121.278C44.5115 121.36 46.3962 121.071 48.1709 120.429L88.2075 104.729" stroke="#19578D" stroke-width="7" stroke-linecap="round" stroke-linejoin="round"/>
  <path d="M51.119 39.5714H87.0714" stroke="#19578D" stroke-width="7" stroke-linecap="round" stroke-linejoin="round"/>
  <path d="M51.119 53.8571H94.2619" stroke="#19578D" stroke-width="7" stroke-linecap="round" stroke-linejoin="round"/>
  <path d="M51.119 68.1429H72.6905" stroke="#19578D" stroke-width="7" stroke-linecap="round" stroke-linejoin="round"/>
</svg>
