<svg width="144" height="28" viewBox="0 0 144 28" fill="none" xmlns="http://www.w3.org/2000/svg">
<path d="M15.7598 15.9106H5.63477V22.7661H17.5176V27.0024H0.361328V1.40869H17.4824V5.68018H5.63477V11.7798H15.7598V15.9106ZM27.5195 13.6606L30.7188 7.98291H36.1504L30.7363 17.2993L36.3789 27.0024H30.9297L27.5371 21.0259L24.1621 27.0024H18.6953L24.3379 17.2993L18.9414 7.98291H24.3906L27.5195 13.6606ZM44.6758 3.30713V7.98291H47.9277V11.7095H44.6758V21.2017C44.6758 21.9048 44.8105 22.4087 45.0801 22.7134C45.3496 23.0181 45.8652 23.1704 46.627 23.1704C47.1895 23.1704 47.6875 23.1294 48.1211 23.0474V26.897C47.125 27.2017 46.0996 27.354 45.0449 27.354C41.4824 27.354 39.666 25.5552 39.5957 21.9575V11.7095H36.8184V7.98291H39.5957V3.30713H44.6758ZM49.4395 17.3169C49.4395 15.4302 49.8027 13.7485 50.5293 12.272C51.2559 10.7954 52.2988 9.65283 53.6582 8.84424C55.0293 8.03564 56.6172 7.63135 58.4219 7.63135C60.9883 7.63135 63.0801 8.4165 64.6973 9.98682C66.3262 11.5571 67.2344 13.6899 67.4219 16.3853L67.457 17.686C67.457 20.604 66.6426 22.9478 65.0137 24.7173C63.3848 26.4751 61.1992 27.354 58.457 27.354C55.7148 27.354 53.5234 26.4751 51.8828 24.7173C50.2539 22.9595 49.4395 20.5688 49.4395 17.5454V17.3169ZM54.5195 17.686C54.5195 19.4907 54.8594 20.8735 55.5391 21.8345C56.2188 22.7837 57.1914 23.2583 58.457 23.2583C59.6875 23.2583 60.6484 22.7896 61.3398 21.8521C62.0312 20.9028 62.377 19.3911 62.377 17.3169C62.377 15.5474 62.0312 14.1763 61.3398 13.2036C60.6484 12.231 59.6758 11.7446 58.4219 11.7446C57.1797 11.7446 56.2188 12.231 55.5391 13.2036C54.8594 14.1646 54.5195 15.6587 54.5195 17.686ZM81.2734 12.7466C80.582 12.6528 79.9727 12.606 79.4453 12.606C77.5234 12.606 76.2637 13.2563 75.666 14.5571V27.0024H70.5859V7.98291H75.3848L75.5254 10.2505C76.5449 8.50439 77.957 7.63135 79.7617 7.63135C80.3242 7.63135 80.8516 7.70752 81.3438 7.85986L81.2734 12.7466ZM90.6953 3.30713V7.98291H93.9473V11.7095H90.6953V21.2017C90.6953 21.9048 90.8301 22.4087 91.0996 22.7134C91.3691 23.0181 91.8848 23.1704 92.6465 23.1704C93.209 23.1704 93.707 23.1294 94.1406 23.0474V26.897C93.1445 27.2017 92.1191 27.354 91.0645 27.354C87.502 27.354 85.6855 25.5552 85.6152 21.9575V11.7095H82.8379V7.98291H85.6152V3.30713H90.6953ZM102.139 27.0024H97.041V7.98291H102.139V27.0024ZM96.7422 3.06104C96.7422 2.29932 96.9941 1.67236 97.498 1.18018C98.0137 0.687988 98.7109 0.441895 99.5898 0.441895C100.457 0.441895 101.148 0.687988 101.664 1.18018C102.18 1.67236 102.438 2.29932 102.438 3.06104C102.438 3.83447 102.174 4.46729 101.646 4.95947C101.131 5.45166 100.445 5.69775 99.5898 5.69775C98.7344 5.69775 98.043 5.45166 97.5156 4.95947C97 4.46729 96.7422 3.83447 96.7422 3.06104ZM105.549 17.3169C105.549 15.4302 105.912 13.7485 106.639 12.272C107.365 10.7954 108.408 9.65283 109.768 8.84424C111.139 8.03564 112.727 7.63135 114.531 7.63135C117.098 7.63135 119.189 8.4165 120.807 9.98682C122.436 11.5571 123.344 13.6899 123.531 16.3853L123.566 17.686C123.566 20.604 122.752 22.9478 121.123 24.7173C119.494 26.4751 117.309 27.354 114.566 27.354C111.824 27.354 109.633 26.4751 107.992 24.7173C106.363 22.9595 105.549 20.5688 105.549 17.5454V17.3169ZM110.629 17.686C110.629 19.4907 110.969 20.8735 111.648 21.8345C112.328 22.7837 113.301 23.2583 114.566 23.2583C115.797 23.2583 116.758 22.7896 117.449 21.8521C118.141 20.9028 118.486 19.3911 118.486 17.3169C118.486 15.5474 118.141 14.1763 117.449 13.2036C116.758 12.231 115.785 11.7446 114.531 11.7446C113.289 11.7446 112.328 12.231 111.648 13.2036C110.969 14.1646 110.629 15.6587 110.629 17.686ZM131.371 7.98291L131.529 10.1802C132.889 8.48096 134.711 7.63135 136.996 7.63135C139.012 7.63135 140.512 8.22314 141.496 9.40674C142.48 10.5903 142.984 12.3599 143.008 14.7153V27.0024H137.928V14.8384C137.928 13.7603 137.693 12.981 137.225 12.5005C136.756 12.0083 135.977 11.7622 134.887 11.7622C133.457 11.7622 132.385 12.3716 131.67 13.5903V27.0024H126.59V7.98291H131.371Z" fill="#19578D"/>
</svg>
