<svg width="241" height="28" viewBox="0 0 241 28" fill="none" xmlns="http://www.w3.org/2000/svg">
<path d="M16.0859 16.5435H5.96094V27.0024H0.6875V1.40869H17.3516V5.68018H5.96094V12.2896H16.0859V16.5435ZM25.4375 27.0024H20.3398V7.98291H25.4375V27.0024ZM20.041 3.06104C20.041 2.29932 20.293 1.67236 20.7969 1.18018C21.3125 0.687988 22.0098 0.441895 22.8887 0.441895C23.7559 0.441895 24.4473 0.687988 24.9629 1.18018C25.4785 1.67236 25.7363 2.29932 25.7363 3.06104C25.7363 3.83447 25.4727 4.46729 24.9453 4.95947C24.4297 5.45166 23.7441 5.69775 22.8887 5.69775C22.0332 5.69775 21.3418 5.45166 20.8145 4.95947C20.2988 4.46729 20.041 3.83447 20.041 3.06104ZM34.3145 7.98291L34.4727 10.1802C35.832 8.48096 37.6543 7.63135 39.9395 7.63135C41.9551 7.63135 43.4551 8.22314 44.4395 9.40674C45.4238 10.5903 45.9277 12.3599 45.9512 14.7153V27.0024H40.8711V14.8384C40.8711 13.7603 40.6367 12.981 40.168 12.5005C39.6992 12.0083 38.9199 11.7622 37.8301 11.7622C36.4004 11.7622 35.3281 12.3716 34.6133 13.5903V27.0024H29.5332V7.98291H34.3145ZM60.8398 27.0024C60.6055 26.5454 60.4355 25.9771 60.3301 25.2974C59.0996 26.6685 57.5 27.354 55.5312 27.354C53.668 27.354 52.1211 26.8149 50.8906 25.7368C49.6719 24.6587 49.0625 23.2993 49.0625 21.6587C49.0625 19.6431 49.8066 18.0962 51.2949 17.0181C52.7949 15.9399 54.957 15.395 57.7812 15.3833H60.1191V14.2935C60.1191 13.4146 59.8906 12.7114 59.4336 12.1841C58.9883 11.6567 58.2793 11.3931 57.3066 11.3931C56.4512 11.3931 55.7773 11.5981 55.2852 12.0083C54.8047 12.4185 54.5645 12.981 54.5645 13.6958H49.4844C49.4844 12.5942 49.8242 11.5747 50.5039 10.6372C51.1836 9.69971 52.1445 8.96729 53.3867 8.43994C54.6289 7.90088 56.0234 7.63135 57.5703 7.63135C59.9141 7.63135 61.7715 8.22314 63.1426 9.40674C64.5254 10.5786 65.2168 12.231 65.2168 14.3638V22.6079C65.2285 24.4126 65.4805 25.7778 65.9727 26.7036V27.0024H60.8398ZM56.6387 23.4692C57.3887 23.4692 58.0801 23.3052 58.7129 22.9771C59.3457 22.6372 59.8145 22.186 60.1191 21.6235V18.354H58.2207C55.6777 18.354 54.3242 19.2329 54.1602 20.9907L54.1426 21.2896C54.1426 21.9224 54.3652 22.4438 54.8105 22.854C55.2559 23.2642 55.8652 23.4692 56.6387 23.4692ZM73.7949 7.98291L73.9531 10.1802C75.3125 8.48096 77.1348 7.63135 79.4199 7.63135C81.4355 7.63135 82.9355 8.22314 83.9199 9.40674C84.9043 10.5903 85.4082 12.3599 85.4316 14.7153V27.0024H80.3516V14.8384C80.3516 13.7603 80.1172 12.981 79.6484 12.5005C79.1797 12.0083 78.4004 11.7622 77.3105 11.7622C75.8809 11.7622 74.8086 12.3716 74.0938 13.5903V27.0024H69.0137V7.98291H73.7949ZM97.209 23.2583C98.1465 23.2583 98.9082 23.0005 99.4941 22.4849C100.08 21.9692 100.385 21.2837 100.408 20.4282H105.172C105.16 21.7173 104.809 22.9009 104.117 23.979C103.426 25.0454 102.477 25.8774 101.27 26.4751C100.074 27.061 98.75 27.354 97.2969 27.354C94.5781 27.354 92.4336 26.4927 90.8633 24.77C89.293 23.0356 88.5078 20.645 88.5078 17.5981V17.2642C88.5078 14.3345 89.2871 11.9966 90.8457 10.2505C92.4043 8.50439 94.543 7.63135 97.2617 7.63135C99.6406 7.63135 101.545 8.31104 102.975 9.67041C104.416 11.0181 105.148 12.8169 105.172 15.0669H100.408C100.385 14.0825 100.08 13.2856 99.4941 12.6763C98.9082 12.0552 98.1348 11.7446 97.1738 11.7446C95.9902 11.7446 95.0938 12.1782 94.4844 13.0454C93.8867 13.9009 93.5879 15.2954 93.5879 17.229V17.7563C93.5879 19.7134 93.8867 21.1196 94.4844 21.9751C95.082 22.8306 95.9902 23.2583 97.209 23.2583ZM113.434 27.0024H108.336V7.98291H113.434V27.0024ZM108.037 3.06104C108.037 2.29932 108.289 1.67236 108.793 1.18018C109.309 0.687988 110.006 0.441895 110.885 0.441895C111.752 0.441895 112.443 0.687988 112.959 1.18018C113.475 1.67236 113.732 2.29932 113.732 3.06104C113.732 3.83447 113.469 4.46729 112.941 4.95947C112.426 5.45166 111.74 5.69775 110.885 5.69775C110.029 5.69775 109.338 5.45166 108.811 4.95947C108.295 4.46729 108.037 3.83447 108.037 3.06104ZM128.656 27.0024C128.422 26.5454 128.252 25.9771 128.146 25.2974C126.916 26.6685 125.316 27.354 123.348 27.354C121.484 27.354 119.938 26.8149 118.707 25.7368C117.488 24.6587 116.879 23.2993 116.879 21.6587C116.879 19.6431 117.623 18.0962 119.111 17.0181C120.611 15.9399 122.773 15.395 125.598 15.3833H127.936V14.2935C127.936 13.4146 127.707 12.7114 127.25 12.1841C126.805 11.6567 126.096 11.3931 125.123 11.3931C124.268 11.3931 123.594 11.5981 123.102 12.0083C122.621 12.4185 122.381 12.981 122.381 13.6958H117.301C117.301 12.5942 117.641 11.5747 118.32 10.6372C119 9.69971 119.961 8.96729 121.203 8.43994C122.445 7.90088 123.84 7.63135 125.387 7.63135C127.73 7.63135 129.588 8.22314 130.959 9.40674C132.342 10.5786 133.033 12.231 133.033 14.3638V22.6079C133.045 24.4126 133.297 25.7778 133.789 26.7036V27.0024H128.656ZM124.455 23.4692C125.205 23.4692 125.896 23.3052 126.529 22.9771C127.162 22.6372 127.631 22.186 127.936 21.6235V18.354H126.037C123.494 18.354 122.141 19.2329 121.977 20.9907L121.959 21.2896C121.959 21.9224 122.182 22.4438 122.627 22.854C123.072 23.2642 123.682 23.4692 124.455 23.4692ZM142.297 27.0024H137.199V0.00244141H142.297V27.0024ZM176.627 27.0024H171.354V16.0337H161.07V27.0024H155.797V1.40869H161.07V11.7798H171.354V1.40869H176.627V27.0024ZM191.938 27.0024C191.703 26.5454 191.533 25.9771 191.428 25.2974C190.197 26.6685 188.598 27.354 186.629 27.354C184.766 27.354 183.219 26.8149 181.988 25.7368C180.77 24.6587 180.16 23.2993 180.16 21.6587C180.16 19.6431 180.904 18.0962 182.393 17.0181C183.893 15.9399 186.055 15.395 188.879 15.3833H191.217V14.2935C191.217 13.4146 190.988 12.7114 190.531 12.1841C190.086 11.6567 189.377 11.3931 188.404 11.3931C187.549 11.3931 186.875 11.5981 186.383 12.0083C185.902 12.4185 185.662 12.981 185.662 13.6958H180.582C180.582 12.5942 180.922 11.5747 181.602 10.6372C182.281 9.69971 183.242 8.96729 184.484 8.43994C185.727 7.90088 187.121 7.63135 188.668 7.63135C191.012 7.63135 192.869 8.22314 194.24 9.40674C195.623 10.5786 196.314 12.231 196.314 14.3638V22.6079C196.326 24.4126 196.578 25.7778 197.07 26.7036V27.0024H191.938ZM187.736 23.4692C188.486 23.4692 189.178 23.3052 189.811 22.9771C190.443 22.6372 190.912 22.186 191.217 21.6235V18.354H189.318C186.775 18.354 185.422 19.2329 185.258 20.9907L185.24 21.2896C185.24 21.9224 185.463 22.4438 185.908 22.854C186.354 23.2642 186.963 23.4692 187.736 23.4692ZM210.904 12.7466C210.213 12.6528 209.604 12.606 209.076 12.606C207.154 12.606 205.895 13.2563 205.297 14.5571V27.0024H200.217V7.98291H205.016L205.156 10.2505C206.176 8.50439 207.588 7.63135 209.393 7.63135C209.955 7.63135 210.482 7.70752 210.975 7.85986L210.904 12.7466ZM218.129 7.98291L218.287 10.1099C219.635 8.45752 221.457 7.63135 223.754 7.63135C226.203 7.63135 227.885 8.59814 228.799 10.5317C230.135 8.59814 232.039 7.63135 234.512 7.63135C236.574 7.63135 238.109 8.23486 239.117 9.44189C240.125 10.6372 240.629 12.4419 240.629 14.856V27.0024H235.531V14.8735C235.531 13.7954 235.32 13.0103 234.898 12.5181C234.477 12.0142 233.732 11.7622 232.666 11.7622C231.143 11.7622 230.088 12.4888 229.502 13.9419L229.52 27.0024H224.439V14.8911C224.439 13.7896 224.223 12.9927 223.789 12.5005C223.355 12.0083 222.617 11.7622 221.574 11.7622C220.133 11.7622 219.09 12.3599 218.445 13.5552V27.0024H213.365V7.98291H218.129Z" fill="#19578D"/>
</svg>
