<svg width="58" height="58" viewBox="0 0 58 58" fill="none" xmlns="http://www.w3.org/2000/svg">
<path d="M16.85 9.19995C15.785 9.19995 15.075 10.28 15.075 11V20H11.525V11C11.525 9.91995 10.815 9.19995 9.75 9.19995C8.685 9.19995 7.975 10.28 7.975 11V20H4.425V11C4.425 9.91995 3.715 9.19995 2.65 9.19995C1.585 9.19995 0.875 10.28 0.875 11V22.88C0.875 26.12 3.36 28.64 6.2 29V54.2C6.2 56.36 7.62 57.8 9.75 57.8C11.88 57.8 13.3 56.36 13.3 54.2V29C16.14 28.64 18.625 26.12 18.625 22.88V11C18.625 10.28 17.915 9.19995 16.85 9.19995ZM23.95 11V32.6H27.5V54.2C27.5 56.36 28.92 57.8 31.05 57.8C33.18 57.8 34.6 56.36 34.6 54.2V0.199951C28.565 0.199951 23.95 4.87995 23.95 11ZM48.8 7.39995C43.83 7.39995 39.925 12.8 39.925 19.28C39.57 23.6 41.7 27.56 45.25 30.08V54.2C45.25 56.36 46.67 57.8 48.8 57.8C50.93 57.8 52.35 56.36 52.35 54.2V30.08C55.9 27.56 58.03 23.6 57.675 19.28C57.675 12.8 53.77 7.39995 48.8 7.39995Z" fill="white"/>
</svg>
