<svg width="150" height="150" viewBox="0 0 150 150" fill="none" xmlns="http://www.w3.org/2000/svg">
<path d="M117.773 15.8286H84.0994V14.4399C84.0994 12.0266 83.1407 9.71205 81.4342 8.00555C79.7277 6.29904 77.4132 5.34033 74.9998 5.34033C72.5864 5.34033 70.2719 6.29904 68.5654 8.00555C66.8589 9.71205 65.9002 12.0266 65.9002 14.4399V15.8286H32.2264C30.1305 15.8305 28.1209 16.6638 26.6388 18.1457C25.1567 19.6276 24.3231 21.637 24.3209 23.7329V136.758C24.3231 138.854 25.1567 140.863 26.6388 142.346C28.1208 143.828 30.1304 144.661 32.2264 144.663H117.773C119.869 144.661 121.879 143.828 123.361 142.346C124.843 140.863 125.677 138.854 125.679 136.758V23.7329C125.677 21.637 124.843 19.6276 123.361 18.1457C121.879 16.6638 119.869 15.8305 117.773 15.8286ZM110.683 30.8204V129.661H39.3162V30.8204H110.683ZM67.951 19.922C68.4949 19.922 69.0165 19.7059 69.4011 19.3213C69.7857 18.9367 70.0018 18.4151 70.0018 17.8712V14.4399C70.0018 13.1144 70.5283 11.8431 71.4656 10.9058C72.403 9.96847 73.6742 9.44189 74.9998 9.44189C76.3254 9.44189 77.5966 9.96847 78.534 10.9058C79.4713 11.8431 79.9978 13.1144 79.9978 14.4399V17.8794C79.9978 18.4233 80.2139 18.9449 80.5985 19.3295C80.9831 19.7141 81.5047 19.9302 82.0486 19.9302H91.624V26.7271H58.3744V19.9302L67.951 19.922ZM121.578 136.746C121.577 137.755 121.176 138.721 120.463 139.435C119.75 140.148 118.783 140.549 117.774 140.55H32.2275C31.219 140.549 30.252 140.148 29.5388 139.435C28.8256 138.722 28.4246 137.755 28.4236 136.746V23.7329C28.4249 22.7247 28.8259 21.7582 29.5388 21.0453C30.2517 20.3325 31.2182 19.9314 32.2264 19.9302H54.2728V26.7271H37.2654C36.9961 26.7269 36.7293 26.7798 36.4804 26.8828C36.2316 26.9858 36.0054 27.1369 35.815 27.3274C35.6245 27.5178 35.4734 27.744 35.3704 27.9928C35.2674 28.2417 35.2145 28.5085 35.2146 28.7778V131.719C35.2146 132.263 35.4307 132.784 35.8153 133.169C36.1999 133.554 36.7215 133.77 37.2654 133.77H112.734C113.278 133.769 113.799 133.553 114.184 133.169C114.568 132.784 114.785 132.263 114.785 131.719V28.7731C114.785 28.5035 114.733 28.2365 114.63 27.9873C114.527 27.738 114.376 27.5116 114.186 27.3207C113.995 27.1299 113.769 26.9786 113.52 26.8753C113.271 26.772 113.004 26.7188 112.734 26.7188H95.7256V19.922H117.773C118.782 19.9232 119.748 20.3242 120.461 21.0371C121.174 21.7499 121.576 22.7164 121.577 23.7247L121.578 136.746Z" fill="#19578D"/>
<path d="M53.4853 119.576C53.6756 119.767 53.9017 119.918 54.1505 120.021C54.3994 120.124 54.6661 120.177 54.9355 120.177C55.2049 120.177 55.4716 120.124 55.7204 120.021C55.9693 119.918 56.1953 119.767 56.3857 119.576L64.5478 111.414C64.7465 111.225 64.9054 110.999 65.0151 110.748C65.1248 110.497 65.1832 110.227 65.1867 109.953C65.1902 109.679 65.1389 109.407 65.0356 109.153C64.9324 108.9 64.7794 108.669 64.5856 108.476C64.3919 108.282 64.1613 108.129 63.9075 108.026C63.6537 107.923 63.3819 107.872 63.108 107.876C62.8342 107.879 62.5638 107.938 62.3129 108.048C62.0621 108.158 61.8358 108.317 61.6474 108.516L54.9349 115.227L52.304 112.596C51.9172 112.223 51.3991 112.016 50.8614 112.021C50.3237 112.026 49.8094 112.242 49.4292 112.622C49.0491 113.002 48.8335 113.517 48.8289 114.054C48.8244 114.592 49.0312 115.11 49.4048 115.497L53.4853 119.576Z" fill="#19578D"/>
<path d="M99.1404 111.994H72.1639C71.62 111.994 71.0984 112.21 70.7138 112.594C70.3292 112.979 70.1131 113.501 70.1131 114.044C70.1131 114.588 70.3292 115.11 70.7138 115.495C71.0984 115.879 71.62 116.095 72.1639 116.095H99.1404C99.6843 116.095 100.206 115.879 100.591 115.495C100.975 115.11 101.191 114.588 101.191 114.044C101.191 113.501 100.975 112.979 100.591 112.594C100.206 112.21 99.6843 111.994 99.1404 111.994Z" fill="#19578D"/>
<path d="M53.4854 99.3871C53.6758 99.5777 53.9019 99.7289 54.1507 99.8321C54.3995 99.9352 54.6663 99.9883 54.9356 99.9883C55.205 99.9883 55.4717 99.9352 55.7206 99.8321C55.9694 99.7289 56.1955 99.5777 56.3858 99.3871L64.5479 91.2262C64.9326 90.8416 65.1486 90.3199 65.1486 89.776C65.1486 89.232 64.9326 88.7104 64.5479 88.3258C64.3575 88.1353 64.1314 87.9843 63.8826 87.8812C63.6338 87.7781 63.3671 87.7251 63.0977 87.7251C62.5538 87.7251 62.0322 87.9412 61.6476 88.3258L54.935 95.0395L52.3042 92.4074C52.115 92.2116 51.8887 92.0554 51.6384 91.948C51.3882 91.8405 51.1191 91.784 50.8468 91.7817C50.5745 91.7794 50.3044 91.8314 50.0524 91.9345C49.8004 92.0377 49.5715 92.19 49.379 92.3826C49.1864 92.5752 49.0342 92.8042 48.9312 93.0562C48.8281 93.3083 48.7763 93.5784 48.7787 93.8507C48.7811 94.123 48.8377 94.3921 48.9453 94.6422C49.0528 94.8924 49.2091 95.1187 49.405 95.3078L53.4854 99.3871Z" fill="#19578D"/>
<path d="M99.1404 91.8062H72.1639C71.62 91.8062 71.0984 92.0222 70.7138 92.4068C70.3292 92.7914 70.1131 93.313 70.1131 93.8569C70.1131 94.4008 70.3292 94.9225 70.7138 95.3071C71.0984 95.6916 71.62 95.9077 72.1639 95.9077H99.1404C99.6843 95.9077 100.206 95.6916 100.591 95.3071C100.975 94.9225 101.191 94.4008 101.191 93.8569C101.191 93.313 100.975 92.7914 100.591 92.4068C100.206 92.0222 99.6843 91.8062 99.1404 91.8062Z" fill="#19578D"/>
<path d="M53.4853 79.2003C53.6756 79.3909 53.9017 79.5421 54.1505 79.6452C54.3994 79.7484 54.6661 79.8015 54.9355 79.8015C55.2048 79.8015 55.4716 79.7484 55.7204 79.6452C55.9692 79.5421 56.1953 79.3909 56.3857 79.2003L64.5478 71.0382C64.9212 70.6513 65.1279 70.1332 65.1231 69.5955C65.1183 69.0578 64.9025 68.5435 64.5222 68.1634C64.1419 67.7832 63.6275 67.5676 63.0898 67.5631C62.5521 67.5585 62.0341 67.7653 61.6474 68.139L54.9349 74.8503L52.304 72.2194C51.9155 71.8559 51.401 71.6575 50.869 71.6663C50.337 71.675 49.8292 71.8902 49.4529 72.2664C49.0766 72.6425 48.8612 73.1502 48.8522 73.6822C48.8432 74.2142 49.0414 74.7288 49.4048 75.1175L53.4853 79.2003Z" fill="#19578D"/>
<path d="M99.1404 71.6182H72.1639C71.62 71.6182 71.0984 71.8342 70.7138 72.2188C70.3292 72.6034 70.1131 73.125 70.1131 73.6689C70.1131 74.2128 70.3292 74.7345 70.7138 75.1191C71.0984 75.5037 71.62 75.7197 72.1639 75.7197H99.1404C99.6843 75.7197 100.206 75.5037 100.591 75.1191C100.975 74.7345 101.191 74.2128 101.191 73.6689C101.191 73.125 100.975 72.6034 100.591 72.2188C100.206 71.8342 99.6843 71.6182 99.1404 71.6182Z" fill="#19578D"/>
<path d="M50.8592 58.0488H99.1404C99.6843 58.0488 100.206 57.8328 100.591 57.4482C100.975 57.0636 101.191 56.5419 101.191 55.998V42.3621C101.191 41.8185 100.974 41.2974 100.59 40.9131C100.205 40.5288 99.684 40.3128 99.1404 40.3125H50.8592C50.3154 40.3128 49.7939 40.529 49.4094 40.9135C49.0249 41.298 48.8087 41.8195 48.8084 42.3633V55.998C48.8084 56.5419 49.0244 57.0636 49.409 57.4482C49.7936 57.8328 50.3153 58.0488 50.8592 58.0488ZM52.9053 44.4141H97.0943V53.9484H52.9053V44.4141Z" fill="#F4C346"/>
</svg>
