<svg width="150" height="150" viewBox="0 0 150 150" fill="none" xmlns="http://www.w3.org/2000/svg">
<path d="M8.36475 119.374H75.968C70.0152 113.767 66.261 105.814 66.261 96.9958C66.261 82.645 76.1162 70.641 89.4048 67.2325V37.5185H64.3838C62.0868 37.5185 60.2097 35.6662 60.2097 33.3444V8.34863H8.36475V119.374Z" fill="white"/>
<path d="M83.5261 29.2201L68.5579 14.252V29.2201H83.5261Z" fill="#F4C346"/>
<path d="M122.823 113.644C121.638 115.471 120.279 117.151 118.723 118.732C117.167 120.288 115.488 121.646 113.635 122.832L130.555 139.751C133 142.196 137.298 142.196 139.743 139.751C142.114 137.133 142.41 133.379 139.743 130.563L122.823 113.644Z" fill="#F4C346"/>
<path d="M19.0347 32.258H45.2164C47.5134 32.258 49.3906 30.4057 49.3906 28.0838C49.3906 25.7868 47.5383 23.9097 45.2164 23.9097H19.0347C16.7377 23.9097 14.8605 25.762 14.8605 28.0838C14.8605 30.4057 16.7128 32.258 19.0347 32.258Z" fill="#19578D"/>
<path d="M19.0347 54.3894H78.3881C80.6852 54.3894 82.5623 52.5371 82.5623 50.2152C82.5623 47.9182 80.71 46.041 78.3881 46.041H19.0347C16.7377 46.041 14.8605 47.8933 14.8605 50.2152C14.8605 52.5118 16.7128 54.3894 19.0347 54.3894Z" fill="#19578D"/>
<path d="M58.2827 68.147H19.0099C16.7129 68.147 14.8358 69.9993 14.8358 72.3211C14.8358 74.6182 16.6881 76.4953 19.0099 76.4953H58.2827C60.5797 76.4953 62.4568 74.643 62.4568 72.3211C62.4568 69.9993 60.6045 68.147 58.2827 68.147Z" fill="#19578D"/>
<path d="M45.2164 90.2529H19.0347C16.7377 90.2529 14.8605 92.1052 14.8605 94.4271C14.8605 96.749 16.7128 98.6013 19.0347 98.6013H45.2164C47.5134 98.6013 49.3906 96.749 49.3906 94.4271C49.3906 92.1052 47.5134 90.2529 45.2164 90.2529Z" fill="#19578D"/>
<path d="M97.0369 119.646C109.546 119.646 119.687 109.506 119.687 96.9965C119.687 84.4873 109.546 74.3467 97.0369 74.3467C84.5277 74.3467 74.3871 84.4873 74.3871 96.9965C74.3871 109.506 84.5277 119.646 97.0369 119.646Z" fill="white"/>
<path d="M97.0368 110.902C104.717 110.902 110.943 104.676 110.943 96.9963C110.943 89.3163 104.717 83.0903 97.0368 83.0903C89.3567 83.0903 83.1308 89.3163 83.1308 96.9963C83.1308 104.676 89.3567 110.902 97.0368 110.902Z" fill="#CAD8E5"/>
<path d="M145.621 124.61L126.479 105.468C127.27 102.751 127.714 99.8859 127.714 96.9466C127.714 80.2247 114.351 66.6645 97.7283 66.2446V33.3693C97.7283 32.2827 97.2835 31.2205 96.5179 30.4052L67.3231 1.21041C66.5574 0.444735 65.4953 0 64.359 0H4.215C1.91797 0 0.0408325 1.8523 0.0408325 4.17417V123.548C0.0408325 125.845 1.89313 127.722 4.215 127.722C4.215 127.722 96.0983 127.747 97.0123 127.747C100.001 127.747 102.866 127.302 105.583 126.512L124.676 145.605C131.073 151.83 140.286 151.089 145.646 145.605C151.401 139.826 151.401 130.415 145.621 124.61ZM68.558 14.2269L83.5262 29.1951H68.558V14.2269ZM8.36472 119.374V8.34872H60.2341V33.3448C60.2341 35.6419 62.0864 37.519 64.4083 37.519H89.454V67.2082C76.1655 70.5922 66.3102 82.6207 66.3102 96.9714C66.3102 105.789 70.0645 113.743 76.0172 119.35H8.36472V119.374ZM97.0367 119.621C84.5387 119.621 74.3869 109.494 74.3869 96.9714C74.3869 84.4485 84.5138 74.3216 97.0367 74.3216C109.56 74.3216 119.687 84.4485 119.687 96.9714C119.687 109.494 109.51 119.621 97.0367 119.621ZM139.743 139.702C137.298 142.147 133 142.147 130.555 139.702L113.635 122.782C117.291 120.411 120.428 117.299 122.823 113.594L139.743 130.514C142.262 133.058 142.262 137.158 139.743 139.702Z" fill="#19578D"/>
</svg>
