<svg width="150" height="150" viewBox="0 0 150 150" fill="none" xmlns="http://www.w3.org/2000/svg">
<path d="M110.027 84.7699C106.217 80.9602 101.152 78.8613 95.7619 78.8613C90.3717 78.8613 85.3066 80.9602 81.4969 84.7699C73.6312 92.6355 73.6312 105.435 81.4969 113.301C85.4302 117.234 90.596 119.201 95.7619 119.201C100.928 119.201 106.094 117.234 110.027 113.301C113.837 109.491 115.935 104.425 115.935 99.0349C115.935 93.6459 113.837 88.5795 110.027 84.7699ZM106.713 109.987C100.675 116.025 90.8513 116.027 84.8112 109.987C78.7732 103.948 78.7732 94.122 84.8112 88.084C87.7352 85.159 91.6249 83.5486 95.7621 83.5486C99.8993 83.5486 103.789 85.1588 106.713 88.084C109.638 91.008 111.248 94.8977 111.248 99.0349C111.248 103.173 109.638 107.062 106.713 109.987Z" fill="#F4C346"/>
<path d="M141.451 130.536L124.409 113.492C129.633 103.106 128.883 90.4655 122.127 80.7377V26.231C122.127 22.4177 119.025 19.3153 115.212 19.3153H96.6623V9.25148C96.6625 5.44289 93.5599 2.34375 89.7468 2.34375H33.0494C33.0037 2.34375 32.9967 2.3632 32.9603 2.36789C32.3345 2.39273 31.7261 2.64539 31.2937 3.13453L6.20596 31.5124C5.85299 31.9109 5.67463 32.4087 5.64252 32.9189C5.63525 32.97 5.61768 32.9951 5.61768 33.0642V103.021C5.61768 106.834 8.71682 109.936 12.5254 109.936H31.0832V120.001C31.0832 123.81 34.1824 126.909 37.991 126.909H79.8695C84.7806 129.707 90.2641 131.139 95.7618 131.139C100.73 131.139 105.692 129.976 110.227 127.691L127.262 144.725C129.151 146.616 131.671 147.656 134.356 147.656C137.042 147.656 139.562 146.616 141.451 144.725C145.364 140.814 145.364 134.448 141.451 130.536ZM30.7056 10.8764V24.7877C30.7056 28.0584 28.0438 30.7205 24.7729 30.7205H13.1617L30.7056 10.8764ZM31.6715 48.4852C31.3368 48.8632 31.1552 49.3305 31.1088 49.8131C31.0975 49.8766 31.0832 49.9289 31.0832 50.037V105.249H12.5254C11.3008 105.249 10.3052 104.25 10.3052 103.021V35.408H24.7729C30.6288 35.408 35.3931 30.6438 35.3931 24.7877V7.03125H89.7468C90.9541 7.03125 91.975 8.0475 91.975 9.25148V19.3153H58.5147C58.4753 19.3153 58.4657 19.3345 58.4324 19.3383C57.8045 19.3613 57.1928 19.6151 56.7592 20.1073L31.6715 48.4852ZM56.1709 27.8491V41.7675C56.1709 45.0347 53.5092 47.6932 50.2373 47.6932H38.6273L56.1709 27.8491ZM37.991 122.222C36.7663 122.222 35.7707 121.226 35.7707 120.001V52.3807H50.2373C56.0943 52.3807 60.8584 47.6198 60.8584 41.7675V24.0028H115.212C116.419 24.0028 117.439 25.0235 117.439 26.231V75.3865C111.502 69.9333 103.872 66.9148 95.7618 66.9148C87.1832 66.9148 79.1174 70.2565 73.0511 76.324C60.5278 88.8462 60.5278 109.223 73.0511 121.747C73.2199 121.916 73.4052 122.057 73.5768 122.222H37.991ZM76.3652 118.433C65.6706 107.737 65.6706 90.334 76.3652 79.6385C81.547 74.4567 88.4352 71.6025 95.7618 71.6025C103.088 71.6025 109.976 74.4567 115.158 79.6385C125.853 90.3342 125.853 107.737 115.158 118.433C104.462 129.127 87.0597 129.127 76.3652 118.433ZM138.137 141.411C136.128 143.418 132.585 143.421 130.576 141.411L114.351 125.186C115.791 124.161 117.182 123.037 118.473 121.747C119.762 120.457 120.903 119.077 121.927 117.639L138.137 133.85C139.14 134.855 139.693 136.197 139.693 137.631C139.693 139.064 139.141 140.406 138.137 141.411Z" fill="#144D7E"/>
<path d="M71.5403 35.8418L108.137 35.8498C109.432 35.8498 110.481 34.8002 110.481 33.506C110.481 32.2118 109.433 31.1623 108.137 31.1623L71.5403 31.1543C70.2461 31.1543 69.1966 32.2038 69.1966 33.498C69.1966 34.7923 70.245 35.8418 71.5403 35.8418Z" fill="#144D7E"/>
<path d="M71.5403 47.1665H108.137C109.432 47.1665 110.481 46.117 110.481 44.8228C110.481 43.5285 109.432 42.479 108.137 42.479H71.5403C70.2461 42.479 69.1966 43.5285 69.1966 44.8228C69.1966 46.117 70.2461 47.1665 71.5403 47.1665Z" fill="#144D7E"/>
<path d="M63.9771 58.4839H107.577C108.871 58.4839 109.92 57.4344 109.92 56.1401C109.92 54.8459 108.871 53.7964 107.577 53.7964H63.9771C62.6828 53.7964 61.6333 54.8459 61.6333 56.1401C61.6333 57.4344 62.6826 58.4839 63.9771 58.4839Z" fill="#144D7E"/>
<path d="M44.1742 69.8008H67.6665C68.9608 69.8008 70.0103 68.7513 70.0103 67.457C70.0103 66.1628 68.9608 65.1133 67.6665 65.1133H44.1742C42.88 65.1133 41.8304 66.1628 41.8304 67.457C41.8304 68.7513 42.8797 69.8008 44.1742 69.8008Z" fill="#144D7E"/>
<path d="M58.9644 76.4307H44.1742C42.88 76.4307 41.8304 77.4802 41.8304 78.7744C41.8304 80.0686 42.88 81.1182 44.1742 81.1182H58.9644C60.2586 81.1182 61.3082 80.0686 61.3082 78.7744C61.3082 77.4802 60.2586 76.4307 58.9644 76.4307Z" fill="#144D7E"/>
<path d="M44.1742 92.436H55.6274C56.9216 92.436 57.9711 91.3865 57.9711 90.0923C57.9711 88.7981 56.9216 87.7485 55.6274 87.7485H44.1742C42.88 87.7485 41.8304 88.7981 41.8304 90.0923C41.8304 91.3865 42.8797 92.436 44.1742 92.436Z" fill="#144D7E"/>
<path d="M44.1742 103.753H52.2995C53.5937 103.753 54.6433 102.704 54.6433 101.41C54.6433 100.115 53.5937 99.0659 52.2995 99.0659H44.1742C42.88 99.0659 41.8304 100.115 41.8304 101.41C41.8304 102.704 42.8797 103.753 44.1742 103.753Z" fill="#144D7E"/>
<path d="M58.9644 110.383H44.1742C42.88 110.383 41.8304 111.432 41.8304 112.727C41.8304 114.021 42.88 115.07 44.1742 115.07H58.9644C60.2586 115.07 61.3082 114.021 61.3082 112.727C61.3082 111.432 60.2586 110.383 58.9644 110.383Z" fill="#144D7E"/>
</svg>
