<svg width="104" height="150" viewBox="0 0 104 150" fill="none" xmlns="http://www.w3.org/2000/svg">
<path d="M93.1209 26.4868H79.5796V33.568C79.5796 35.8538 77.7163 37.7425 75.4052 37.7425H28.9417C26.656 37.7425 24.7673 35.8791 24.7673 33.568V26.4868H11.2259C9.98371 26.4868 9.13892 27.5303 9.13892 28.5738V139.39C9.13892 140.632 10.1824 141.477 11.2259 141.477H93.096C94.3382 141.477 95.183 140.434 95.183 139.39V28.7729C95.4067 27.5303 94.3632 26.4868 93.1209 26.4868Z" fill="white"/>
<path d="M87.0834 34.8105V133.328H17.5125V34.8105H25.1402C25.6122 36.5997 27.2272 37.9411 29.1655 37.9411H75.629C77.5669 37.9411 79.2069 36.5993 79.6543 34.8105H87.0834Z" fill="#CAD8E5"/>
<path d="M33.1409 17.0944V29.5922H71.4796V17.0944H61.4912C59.2055 17.0944 57.5405 15.4298 57.3168 13.1437C57.1181 10.4355 55.0311 8.34814 52.3226 8.34814C49.6141 8.34814 47.5271 10.4352 47.3283 13.1437C47.1296 15.4294 45.465 17.0944 43.1539 17.0944H33.1409Z" fill="#F4C346"/>
<path d="M93.1209 18.1382H79.5795V12.9203C79.5795 10.6345 77.7162 8.74585 75.4051 8.74585H64.5719C62.7086 3.75201 57.913 0 52.074 0C46.4587 0 41.4395 3.55292 39.5762 8.74623H28.7429C26.4572 8.74623 24.5685 10.6096 24.5685 12.9206V18.3622H11.0521C5.21312 18.3622 0.641296 23.1578 0.641296 28.7731V139.59C0.641296 145.429 5.43681 150 11.0521 150H92.9222C98.7612 150 103.333 145.205 103.333 139.59V28.7727C103.755 22.9337 98.9599 18.1382 93.1209 18.1382ZM95.4066 139.589C95.4066 140.831 94.3631 141.676 93.3196 141.676H11.4745C10.2323 141.676 9.38753 140.633 9.38753 139.589V28.7727C9.38753 27.5305 10.431 26.6857 11.4745 26.6857H25.0159V33.7669C25.0159 36.0526 26.8792 37.9413 29.1903 37.9413H75.6538C77.9395 37.9413 79.8282 36.078 79.8282 33.7669V26.6853H93.3696C94.6118 26.6853 95.4566 27.7288 95.4566 28.7723L95.4066 139.589ZM47.3035 13.1439C47.5022 10.4358 49.5892 8.34843 52.2977 8.34843C55.0058 8.34843 57.0932 10.4354 57.2919 13.1439C57.4907 15.4297 59.1553 17.0947 61.4663 17.0947H71.4548V29.5925H33.141V17.0947H43.1295C45.4152 17.0947 47.3035 15.231 47.3035 13.1439Z" fill="#19578D"/>
<path d="M33.4641 50.6375L27.4263 56.6752L26.3828 55.6317C24.9169 54.1658 22.4321 54.1658 20.9662 55.6317C19.5003 57.0976 19.5003 59.5825 20.9662 61.0484L24.7182 64.8004C26.3828 66.2663 28.6689 66.2663 30.1348 64.8004L38.8811 56.0541C40.347 54.5882 40.347 52.1034 38.8811 50.6375C37.4394 49.1716 34.93 49.1716 33.4641 50.6375Z" fill="#19578D"/>
<path d="M50.1359 61.2721H80.9706C83.0577 61.2721 84.7227 59.6075 84.7227 57.5201C84.7227 55.4327 82.8593 53.7681 80.7719 53.7681H50.1359C48.0489 53.7681 46.3839 55.4327 46.3839 57.5201C46.3839 59.6075 48.0489 61.2721 50.1359 61.2721Z" fill="#19578D"/>
<path d="M33.4641 71.6829L27.4263 77.7206L26.3828 76.6771C24.9169 75.2112 22.4321 75.2112 20.9662 76.6771C19.5003 78.143 19.5003 80.6279 20.9662 82.0938L24.7182 85.8458C26.3828 87.3117 28.6689 87.3117 30.1348 85.8458L38.8811 77.0995C40.347 75.6336 40.347 73.1488 38.8811 71.6829C37.4394 70.217 34.93 70.217 33.4641 71.6829Z" fill="#19578D"/>
<path d="M80.7471 74.814H50.136C48.049 74.814 46.384 76.4786 46.384 78.566C46.384 80.6534 48.0486 82.318 50.136 82.318H80.9708C83.0578 82.318 84.7228 80.6534 84.7228 78.566C84.7224 76.4786 82.8341 74.814 80.7471 74.814Z" fill="#19578D"/>
<path d="M33.4641 92.7281L27.4263 98.7659L26.3828 97.7224C24.9169 96.2565 22.4321 96.2565 20.9662 97.7224C19.5003 99.1883 19.5003 101.673 20.9662 103.139L24.7182 106.891C26.3828 108.357 28.6689 108.357 30.1348 106.891L38.8811 98.1448C40.347 96.6789 40.347 94.194 38.8811 92.7281C37.4394 91.2618 34.93 91.2618 33.4641 92.7281Z" fill="#19578D"/>
<path d="M80.7471 95.834H50.136C48.049 95.834 46.384 97.4986 46.384 99.586C46.384 101.673 48.0486 103.338 50.136 103.338H80.9708C83.0578 103.338 84.7228 101.673 84.7228 99.586C84.7228 97.4986 82.8341 95.834 80.7471 95.834Z" fill="#19578D"/>
<path d="M33.4641 113.748L27.4263 119.786L26.3828 118.743C24.9169 117.277 22.4321 117.277 20.9662 118.743C19.5003 120.209 19.5003 122.693 20.9662 124.159L24.7182 127.911C26.3828 129.377 28.6689 129.377 30.1348 127.911L38.8811 119.165C40.347 117.699 40.347 115.214 38.8811 113.748C37.4394 112.307 34.93 112.307 33.4641 113.748Z" fill="#19578D"/>
<path d="M80.7471 116.879H50.136C48.049 116.879 46.384 118.544 46.384 120.631C46.384 122.718 48.0486 124.383 50.136 124.383H80.9708C83.0578 124.383 84.7228 122.719 84.7228 120.631C84.4991 118.768 82.8341 116.879 80.7471 116.879Z" fill="#19578D"/>
</svg>
