<svg width="150" height="150" viewBox="0 0 150 150" fill="none" xmlns="http://www.w3.org/2000/svg">
<path d="M75 8.03564C61.5072 8.05124 48.5715 13.4182 39.0306 22.959C29.4897 32.4999 24.1228 45.4357 24.1072 58.9285C24.1072 102.589 71.3465 139.821 73.3554 141.428C73.8256 141.794 74.4043 141.993 75 141.993C75.5958 141.993 76.1745 141.794 76.6447 141.428C78.6536 139.821 125.893 102.589 125.893 58.9285C125.877 45.4357 120.51 32.4999 110.97 22.959C101.429 13.4182 88.4929 8.05124 75 8.03564ZM75 135.825C66.6536 128.829 29.4643 95.5767 29.4643 58.9285C29.4643 46.8517 34.2618 35.2695 42.8014 26.7299C51.341 18.1903 62.9232 13.3928 75 13.3928C87.0769 13.3928 98.6591 18.1903 107.199 26.7299C115.738 35.2695 120.536 46.8517 120.536 58.9285C120.536 95.5392 83.3465 128.823 75 135.825Z" fill="#144D7E"/>
<path d="M104.904 51.3749L100.939 50.716C100.469 49.2261 99.8699 47.7796 99.1501 46.3928L101.486 43.1249C101.856 42.6088 102.03 41.978 101.978 41.3451C101.926 40.7122 101.651 40.1184 101.202 39.6696L94.2376 32.7053C93.7891 32.2574 93.1963 31.9831 92.5646 31.9311C91.9329 31.8792 91.3032 32.0529 90.7876 32.4214L87.5143 34.7571C86.1303 34.0337 84.6855 33.4332 83.1965 32.9624L82.5376 29.0035C82.4295 28.3847 82.1074 27.8235 81.6276 27.4181C81.1478 27.0127 80.5407 26.7888 79.9126 26.7856H70.0876C69.4535 26.7859 68.8401 27.0111 68.3565 27.4212C67.8729 27.8312 67.5505 28.3995 67.4465 29.0249L66.7875 32.9839C65.2985 33.4546 63.8537 34.0551 62.4697 34.7785L59.1965 32.4428C58.6808 32.0743 58.0511 31.9006 57.4194 31.9526C56.7878 32.0046 56.195 32.2789 55.7465 32.7267L48.7822 39.691C48.333 40.1398 48.0578 40.7337 48.0058 41.3666C47.9538 41.9994 48.1283 42.6302 48.4983 43.1464L50.834 46.4142C50.1141 47.8011 49.5155 49.2475 49.0447 50.7374L45.0804 51.3964C44.4615 51.5031 43.8998 51.8239 43.4934 52.3028C43.0871 52.7816 42.8619 53.388 42.8572 54.016V63.841C42.8575 64.475 43.0827 65.0884 43.4927 65.572C43.9027 66.0556 44.471 66.3781 45.0965 66.4821L49.0608 67.141C49.5315 68.6309 50.1302 70.0774 50.85 71.4642L48.5143 74.7321C48.1444 75.2482 47.9698 75.879 48.0218 76.5119C48.0739 77.1448 48.349 77.7386 48.7983 78.1874L55.7625 85.1517C56.2111 85.5996 56.8038 85.8739 57.4355 85.9259C58.0672 85.9779 58.6969 85.8042 59.2125 85.4357L62.4858 83.0999C63.8698 83.8233 65.3146 84.4239 66.8036 84.8946L67.4626 88.8535C67.5665 89.479 67.889 90.0473 68.3726 90.4573C68.8562 90.8673 69.4696 91.0925 70.1036 91.0928H79.9286C80.5627 91.0925 81.176 90.8673 81.6596 90.4573C82.1432 90.0473 82.4657 89.479 82.5697 88.8535L83.2286 84.8946C84.7176 84.4239 86.1625 83.8233 87.5465 83.0999L90.8197 85.4357C91.3354 85.8042 91.965 85.9779 92.5967 85.9259C93.2284 85.8739 93.8212 85.5996 94.2697 85.1517L101.234 78.1874C101.683 77.7386 101.958 77.1448 102.01 76.5119C102.062 75.879 101.888 75.2482 101.518 74.7321L99.1822 71.4642C99.902 70.0774 100.501 68.6309 100.971 67.141L104.936 66.4821C105.555 66.3713 106.116 66.0459 106.52 65.563C106.923 65.08 107.144 64.4704 107.143 63.841V54.016C107.143 53.382 106.917 52.7686 106.507 52.285C106.097 51.8014 105.529 51.4789 104.904 51.3749ZM101.786 61.5696L98.384 62.1374C97.8699 62.2272 97.3933 62.4651 97.0126 62.822C96.632 63.1789 96.3638 63.6392 96.2411 64.1464C95.7146 66.2974 94.8619 68.3552 93.7126 70.2482C93.441 70.6964 93.3069 71.2145 93.3269 71.7382C93.3469 72.262 93.5201 72.7683 93.8251 73.1946L95.8286 76.0071L92.0786 79.7571L89.2661 77.7482C88.8372 77.4496 88.3316 77.2803 87.8094 77.2603C87.2871 77.2404 86.7701 77.3706 86.3197 77.6357C84.428 78.7899 82.37 79.6463 80.2179 80.1749C79.7117 80.2985 79.2526 80.5671 78.8967 80.9477C78.5408 81.3283 78.3037 81.8045 78.2143 82.3178L77.6411 85.7142H72.359L71.7911 82.3124C71.7018 81.7991 71.4646 81.323 71.1088 80.9423C70.7529 80.5617 70.2937 80.2932 69.7876 80.1696C67.6355 79.6409 65.5775 78.7845 63.6858 77.6303C63.2362 77.3627 62.7187 77.2309 62.1959 77.2509C61.6731 77.2709 61.1672 77.4417 60.7393 77.7428L57.9268 79.7517L54.1768 76.0017L56.1804 73.1892C56.4854 72.763 56.6586 72.2566 56.6786 71.7329C56.6986 71.2092 56.5645 70.6911 56.2929 70.2428C55.1436 68.3498 54.2908 66.2921 53.7643 64.141C53.6417 63.6338 53.3735 63.1735 52.9928 62.8166C52.6121 62.4597 52.1355 62.2218 51.6215 62.1321L48.2143 61.5696V56.2874L51.6161 55.7196C52.1302 55.6298 52.6068 55.3919 52.9875 55.035C53.3681 54.6781 53.6363 54.2178 53.759 53.7107C54.2855 51.5596 55.1382 49.5018 56.2875 47.6089C56.5591 47.1606 56.6932 46.6425 56.6732 46.1188C56.6532 45.595 56.48 45.0887 56.175 44.6624L54.1715 41.8553L57.9215 38.1053L60.734 40.1142C61.1602 40.4192 61.6666 40.5924 62.1903 40.6124C62.714 40.6324 63.2321 40.4983 63.6804 40.2267C65.5721 39.0725 67.6301 38.2161 69.7822 37.6874C70.2884 37.5638 70.7475 37.2953 71.1034 36.9147C71.4593 36.5341 71.6964 36.0579 71.7858 35.5446L72.359 32.1428H77.6411L78.209 35.5446C78.2983 36.0579 78.5355 36.5341 78.8913 36.9147C79.2472 37.2953 79.7064 37.5638 80.2126 37.6874C82.3646 38.2161 84.4226 39.0725 86.3143 40.2267C86.7644 40.493 87.2816 40.624 87.8041 40.6041C88.3266 40.5841 88.8324 40.4141 89.2608 40.1142L92.0733 38.1053L95.8233 41.8553L93.8197 44.6624C93.5147 45.0887 93.3415 45.595 93.3215 46.1188C93.3015 46.6425 93.4356 47.1606 93.7072 47.6089C94.8565 49.5018 95.7093 51.5596 96.2358 53.7107C96.3585 54.2178 96.6266 54.6781 97.0073 55.035C97.388 55.3919 97.8646 55.6298 98.3786 55.7196L101.78 56.2874L101.786 61.5696Z" fill="#144D7E"/>
<path d="M75.0001 44.4644C72.1393 44.4644 69.3428 45.3127 66.9642 46.902C64.5855 48.4914 62.7316 50.7504 61.6368 53.3934C60.5421 56.0364 60.2556 58.9447 60.8137 61.7505C61.3719 64.5563 62.7494 67.1336 64.7723 69.1564C66.7952 71.1793 69.3725 72.5569 72.1783 73.115C74.9841 73.6731 77.8923 73.3867 80.5353 72.2919C83.1783 71.1971 85.4374 69.3432 87.0267 66.9646C88.6161 64.5859 89.4644 61.7894 89.4644 58.9286C89.4644 55.0925 87.9405 51.4134 85.2279 48.7008C82.5153 45.9883 78.8363 44.4644 75.0001 44.4644ZM75.0001 68.0358C73.1989 68.0358 71.4381 67.5017 69.9404 66.5009C68.4428 65.5002 67.2755 64.0779 66.5862 62.4138C65.8969 60.7497 65.7166 58.9185 66.068 57.1519C66.4194 55.3853 67.2867 53.7626 68.5604 52.4889C69.834 51.2153 71.4568 50.3479 73.2234 49.9965C74.99 49.6451 76.8211 49.8254 78.4853 50.5147C80.1494 51.204 81.5717 52.3713 82.5724 53.869C83.5731 55.3666 84.1072 57.1274 84.1072 58.9286C84.1072 61.344 83.1477 63.6604 81.4398 65.3684C79.7319 67.0763 77.4155 68.0358 75.0001 68.0358Z" fill="#F4C346"/>
</svg>
