<svg width="150" height="150" viewBox="0 0 150 150" fill="none" xmlns="http://www.w3.org/2000/svg">
<path d="M67.1712 25.3374H61.022C60.9972 25.2384 60.9231 25.1399 60.8986 25.0409L65.2451 20.6945C66.8751 19.0644 66.8751 16.4469 65.2451 14.7921L56.5522 6.09989C54.9221 4.46986 52.3046 4.46986 50.6498 6.09989L46.3033 10.4464C46.2044 10.4215 46.1058 10.3474 46.0069 10.323V4.17343C46.0072 1.8768 44.1553 0 41.8338 0H29.5355C27.2389 0 25.3621 1.85197 25.3621 4.17343V10.3474C25.2631 10.3723 25.1646 10.4464 25.0656 10.4708L20.7192 6.09989C19.9536 5.33434 17.5088 3.80326 14.8168 6.09989L6.14864 14.8173C4.51862 16.4473 4.51862 19.0648 6.14864 20.7197L10.4707 25.0658C10.4458 25.1647 10.3717 25.2633 10.3473 25.3622H4.19811C1.90149 25.3622 0.0246887 27.2142 0.0246887 29.5356V41.834C0.0246887 44.1306 1.87666 46.0074 4.19811 46.0074H10.3473C10.3721 46.1063 10.4462 46.2049 10.4707 46.3038L6.12419 50.6503C4.49417 52.2803 4.49417 54.8978 6.12419 56.5527L14.7923 65.2701C16.4223 66.9001 19.0399 66.9001 20.6947 65.2701L25.0412 60.9236C25.1401 60.9484 25.2387 61.0225 25.3376 61.047V67.1962C25.3376 69.4928 27.1896 71.3696 29.511 71.3696H41.7845C44.0812 71.3696 45.958 69.5176 45.958 67.1962V61.047C46.0569 61.0222 46.1555 60.9481 46.2544 60.9236L50.6009 65.2701C52.2309 66.9001 54.8484 66.9001 56.5033 65.2701L65.2207 56.5527C66.8507 54.75 66.9248 52.3296 65.2207 50.6503L60.8497 46.2794C60.8746 46.1804 60.9487 46.0819 60.9731 45.9829H67.1223C69.4189 45.9829 71.2957 44.131 71.2957 41.8095V29.5356C71.3202 27.239 69.4678 25.3374 67.1712 25.3374ZM62.9978 37.6605H58.034C56.1572 37.6605 54.5272 38.92 54.0088 40.7227C53.5889 42.229 52.9716 43.6863 52.2061 45.0692C51.2923 46.6992 51.5639 48.7487 52.8727 50.0823L56.3795 53.5891L53.5641 56.4045L50.0573 52.8976C48.7237 51.5641 46.6987 51.2924 45.0442 52.231C43.6613 53.0214 42.1795 53.6139 40.6977 54.0337C38.895 54.5277 37.6356 56.1821 37.6356 58.0589V63.0227H33.6845V58.0589C33.6845 56.1821 32.425 54.5521 30.6223 54.0337C29.116 53.6139 27.6587 52.9966 26.2758 52.231C24.6458 51.3173 22.5963 51.5889 21.2627 52.8976L17.7559 56.4045L14.9405 53.5891L18.4474 50.0823C19.7809 48.7487 20.0526 46.7236 19.114 45.0692C18.3236 43.6863 17.7311 42.2045 17.3113 40.7227C16.8173 38.92 15.1629 37.6605 13.2861 37.6605H8.37154V33.7091H13.3353C15.237 33.7091 16.8422 32.4496 17.3605 30.6469C17.7804 29.1406 18.3977 27.6833 19.1632 26.3004C20.077 24.6704 19.8054 22.6209 18.4966 21.2873L14.9898 17.7805L17.8052 14.9651L21.312 18.4719C22.6456 19.8055 24.6706 20.0771 26.3251 19.1385C27.708 18.3482 29.1649 17.7557 30.6716 17.3359C32.4743 16.8419 33.7337 15.1874 33.7337 13.2858V8.3224H37.6848V13.2862C37.6848 15.1878 38.9443 16.793 40.747 17.3114C42.2533 17.7312 43.7106 18.3486 45.0935 19.1141C46.7235 20.0527 48.773 19.7563 50.1066 18.4475L53.6134 14.9407L56.4288 17.7561L52.922 21.2873C51.5884 22.6209 51.3168 24.6459 52.2554 26.3004C53.0457 27.6833 53.6382 29.1651 54.058 30.6469C54.552 32.4496 56.2065 33.7091 58.0833 33.7091H63.0471V37.6602L62.9978 37.6605Z" fill="#19578D"/>
<path d="M54.0334 30.6222C53.6135 29.116 52.9962 27.6586 52.2307 26.2758C51.3169 24.6457 51.5885 22.5963 52.8973 21.2627L56.4041 17.7559L53.5887 14.9405L50.0819 18.4473C48.7483 19.7809 46.7233 20.0525 45.0688 19.1139C43.6859 18.3235 42.2041 17.731 40.7223 17.3112C38.9196 16.8173 37.6602 15.1628 37.6602 13.286V8.29736H33.6846V13.2612C33.6846 15.1628 32.4251 16.768 30.6224 17.2864C29.1162 17.7062 27.6588 18.3235 26.276 19.0891C24.6459 20.0028 22.5965 19.7312 21.2629 18.4225L17.7561 14.9405L14.9407 17.7559L18.4475 21.2627C19.7811 22.5963 20.0527 24.6213 19.1141 26.2758C18.3237 27.6586 17.7312 29.1404 17.3114 30.6222C16.8175 32.4249 15.163 33.6844 13.2862 33.6844H8.37169V37.6355H13.3355C15.2371 37.6355 16.8423 38.895 17.3607 40.6977C17.7805 42.2039 18.3978 43.6613 19.1634 45.0441C20.0771 46.6742 19.8055 48.7236 18.4968 50.0572L14.99 53.564L17.8053 56.3794L21.3122 52.8726C22.6458 51.539 24.6708 51.2674 26.3252 52.206C27.7081 52.9964 29.1899 53.5889 30.6717 54.0087C32.4744 54.5026 33.7339 56.1571 33.7339 58.0339V62.9977H37.685V58.0339C37.685 56.1571 38.9445 54.5271 40.7472 54.0087C42.2534 53.5889 43.7108 52.9715 45.0936 52.206C46.7237 51.2922 48.7731 51.5639 50.1067 52.8726L53.6135 56.3794L56.4289 53.564L52.9221 50.0572C51.5885 48.7236 51.3169 46.6986 52.2555 45.0441C53.0459 43.6613 53.6384 42.1795 54.0582 40.6977C54.5521 38.895 56.2066 37.6355 58.0834 37.6355H63.0472V33.6844H58.0834C56.1573 33.7089 54.5028 32.4249 54.0334 30.6222ZM35.6848 48.452C28.6219 48.452 22.8925 42.7227 22.8925 35.6598C22.8925 28.5968 28.6219 22.8675 35.6848 22.8675C42.7477 22.8675 48.4771 28.5968 48.4771 35.6598C48.4771 42.7475 42.7229 48.452 35.6848 48.452Z" fill="#F4C346"/>
<path d="M35.6848 22.8682C28.6219 22.8682 22.8925 28.5975 22.8925 35.6604C22.8925 42.7234 28.6219 48.4527 35.6848 48.4527C42.7477 48.4527 48.477 42.7234 48.477 35.6604C48.477 28.622 42.7229 22.8682 35.6848 22.8682ZM35.6848 40.0314C33.2892 40.0314 31.3139 38.0804 31.3139 35.6604C31.3139 33.2404 33.2648 31.2895 35.6848 31.2895C38.0803 31.2895 40.0557 33.2404 40.0557 35.6604C40.0313 38.0804 38.0555 40.0314 35.6848 40.0314Z" fill="#19578D"/>
<path d="M128.366 91.5215C127.7 89.1014 126.736 86.8048 125.527 84.6809C124.613 83.0508 124.884 81.0014 126.193 79.6678L132.737 73.1236L125.823 66.2089L119.303 72.7779C117.969 74.1115 115.944 74.3831 114.29 73.4445C112.166 72.2343 109.869 71.2961 107.449 70.6047C105.647 70.1107 104.387 68.4563 104.387 66.5795V57.3188H94.6077V66.5795C94.6077 68.4563 93.373 70.0863 91.5455 70.6047C89.1255 71.2713 86.8289 72.2347 84.7049 73.4445C83.0749 74.3831 81.0254 74.0867 79.6918 72.7779L73.1477 66.2337L66.233 73.1484L72.7771 79.6926C74.1107 81.0262 74.3823 83.0512 73.4437 84.7057C72.2335 86.8296 71.2953 89.1263 70.6039 91.5463C70.11 93.349 68.4555 94.6085 66.5787 94.6085H57.3181V104.388H66.5787C68.4555 104.388 70.0855 105.622 70.6039 107.45C71.2705 109.87 72.2339 112.167 73.4437 114.291C74.3575 115.921 74.0859 117.97 72.7771 119.304L66.233 125.848L73.1477 132.763L79.6918 126.218C81.0254 124.885 83.0505 124.613 84.7049 125.552C86.8289 126.762 89.1255 127.7 91.5455 128.392C93.3482 128.886 94.6077 130.54 94.6077 132.417V141.677H104.387V132.417C104.387 130.515 105.647 128.91 107.449 128.392C109.869 127.749 112.166 126.762 114.29 125.552C115.92 124.613 117.969 124.91 119.303 126.218L125.847 132.763L132.762 125.848L126.218 119.304C124.884 117.97 124.612 115.945 125.551 114.291C126.761 112.167 127.699 109.87 128.391 107.45C128.885 105.647 130.539 104.388 132.416 104.388H141.677V94.6085H132.416C130.49 94.6085 128.86 93.349 128.366 91.5215ZM99.4978 116.266C90.2616 116.266 82.7296 108.734 82.7296 99.4981C82.7296 90.262 90.2616 82.7299 99.4978 82.7299C108.734 82.7299 116.266 90.262 116.266 99.4981C116.266 108.734 108.734 116.266 99.4978 116.266Z" fill="#CAD8E5"/>
<path d="M99.4975 82.7051C90.2614 82.7051 82.7293 90.2371 82.7293 99.4733C82.7293 108.709 90.2614 116.241 99.4975 116.241C108.734 116.241 116.266 108.709 116.266 99.4733C116.266 90.2371 108.733 82.7051 99.4975 82.7051ZM99.4975 107.919C94.8302 107.919 91.0517 104.141 91.0517 99.4733C91.0517 94.8059 94.8302 91.0275 99.4975 91.0275C104.165 91.0275 107.943 94.8059 107.943 99.4733C107.943 104.141 104.115 107.919 99.4975 107.919Z" fill="#19578D"/>
<path d="M145.802 86.286H135.429C135.084 85.323 134.689 84.3599 134.244 83.4213L141.603 76.062C143.233 74.432 143.233 71.8144 141.603 70.1596L128.811 57.3673C127.181 55.7373 124.564 55.7373 122.909 57.3673L115.549 64.7267C114.611 64.282 113.673 63.9119 112.685 63.5413V53.1446C112.685 50.848 110.832 48.9712 108.511 48.9712H90.4095C88.1128 48.9712 86.236 50.8232 86.236 53.1446V63.5413C85.273 63.887 84.31 64.282 83.3714 64.7267L76.012 57.3673C74.382 55.7373 71.7645 55.7373 70.1096 57.3673L57.3173 70.1596C55.6873 71.7896 55.6873 74.4071 57.3173 76.062L64.6767 83.4213C64.2321 84.3599 63.8619 85.2981 63.4913 86.286H53.095C50.7984 86.286 48.9216 88.138 48.9216 90.4594V108.561C48.9216 110.858 50.7736 112.735 53.095 112.735H63.4917C63.8374 113.698 64.2324 114.661 64.6771 115.599L57.3674 122.909C55.7374 124.539 55.7374 127.157 57.3674 128.811L70.1597 141.604C71.7897 143.234 74.4072 143.234 76.062 141.604L83.4214 134.244C84.36 134.689 85.2982 135.059 86.2861 135.43V145.826C86.2861 148.123 88.138 150 90.4595 150H108.561C110.858 150 112.735 148.148 112.735 145.826V135.43C113.698 135.084 114.661 134.689 115.599 134.244L122.959 141.604C124.663 143.382 127.453 143.16 128.861 141.604L141.653 128.811C143.283 127.181 143.283 124.564 141.653 122.909L134.294 115.55C134.739 114.611 135.109 113.673 135.479 112.685H145.802C148.099 112.685 149.975 110.833 149.975 108.512V90.4098C149.975 88.138 148.123 86.286 145.802 86.286ZM141.653 104.363H132.392C130.49 104.363 128.885 105.598 128.367 107.425C127.7 109.845 126.737 112.142 125.527 114.266C124.613 115.896 124.885 117.945 126.194 119.279L132.738 125.823L125.823 132.738L119.279 126.144C117.945 124.81 115.92 124.539 114.266 125.477C112.142 126.687 109.845 127.626 107.425 128.317C105.623 128.811 104.363 130.466 104.363 132.342V141.603H94.5836V132.343C94.5836 130.441 93.349 128.836 91.5215 128.317C89.1015 127.651 86.8048 126.687 84.6809 125.478C83.0509 124.564 81.0014 124.835 79.6678 126.144L73.1236 132.688L66.2089 125.774L72.7531 119.23C74.0867 117.896 74.3583 115.871 73.4197 114.216C72.2095 112.092 71.2713 109.796 70.5799 107.376C70.0859 105.573 68.4315 104.314 66.5547 104.314H57.2933V94.5343H66.5539C68.4307 94.5343 70.0607 93.2997 70.5791 91.4721C71.2457 89.0521 72.2091 86.7555 73.4189 84.6315C74.3327 83.0015 74.0611 80.9521 72.7523 79.6185L66.2082 73.0743L73.1229 66.1596L79.667 72.7038C81.0006 74.0373 83.0256 74.309 84.6801 73.3704C86.8041 72.1602 89.1007 71.222 91.5207 70.5305C93.3234 70.0366 94.5829 68.3821 94.5829 66.5053V57.2447H104.362V66.5053C104.362 68.3821 105.622 70.0121 107.424 70.5305C109.844 71.1727 112.141 72.1605 114.265 73.3704C115.895 74.2841 117.945 74.0125 119.278 72.7038L125.822 66.1596L132.737 73.0743L126.193 79.6185C124.859 80.9521 124.588 82.9771 125.526 84.6315C126.736 86.7555 127.675 89.0521 128.366 91.4721C128.86 93.2748 130.514 94.5343 132.391 94.5343H141.652V104.363H141.653Z" fill="#19578D"/>
</svg>
