<svg width="505" height="158" viewBox="0 0 505 158" fill="none" xmlns="http://www.w3.org/2000/svg">
<path d="M15.0117 49.0195C15.0117 50.668 14.75 52.0898 14.2266 53.2852C13.7031 54.4727 12.9688 55.4023 12.0234 56.0742L15.0703 58.4648L13.5352 59.8828L9.9375 57.0234C9.375 57.1641 8.78125 57.2344 8.15625 57.2344C6.8125 57.2344 5.62109 56.9062 4.58203 56.25C3.54297 55.5859 2.73438 54.6445 2.15625 53.4258C1.58594 52.1992 1.29297 50.7812 1.27734 49.1719V47.9414C1.27734 46.3008 1.5625 44.8516 2.13281 43.5938C2.70312 42.3359 3.50781 41.375 4.54688 40.7109C5.59375 40.0391 6.78906 39.7031 8.13281 39.7031C9.50781 39.7031 10.7148 40.0352 11.7539 40.6992C12.8008 41.3633 13.6055 42.3203 14.168 43.5703C14.7305 44.8125 15.0117 46.2656 15.0117 47.9297V49.0195ZM12.7617 47.918C12.7617 45.9102 12.3594 44.3633 11.5547 43.2773C10.7578 42.1836 9.61719 41.6367 8.13281 41.6367C6.71875 41.6367 5.60156 42.1797 4.78125 43.2656C3.96875 44.3438 3.55078 45.8438 3.52734 47.7656V49.0195C3.52734 50.9727 3.93359 52.5117 4.74609 53.6367C5.56641 54.7617 6.70312 55.3242 8.15625 55.3242C9.60938 55.3242 10.7344 54.7969 11.5312 53.7422C12.3281 52.6797 12.7383 51.1602 12.7617 49.1836V47.918ZM25.9688 55.7461C25.125 56.7383 23.8867 57.2344 22.2539 57.2344C20.9023 57.2344 19.8711 56.8438 19.1602 56.0625C18.457 55.2734 18.1016 54.1094 18.0938 52.5703V44.3203H20.2617V52.5117C20.2617 54.4336 21.043 55.3945 22.6055 55.3945C24.2617 55.3945 25.3633 54.7773 25.9102 53.543V44.3203H28.0781V57H26.0156L25.9688 55.7461ZM36.6445 57.2344C34.9258 57.2344 33.5273 56.6719 32.4492 55.5469C31.3711 54.4141 30.832 52.9023 30.832 51.0117V50.6133C30.832 49.3555 31.0703 48.2344 31.5469 47.25C32.0312 46.2578 32.7031 45.4844 33.5625 44.9297C34.4297 44.3672 35.3672 44.0859 36.375 44.0859C38.0234 44.0859 39.3047 44.6289 40.2188 45.7148C41.1328 46.8008 41.5898 48.3555 41.5898 50.3789V51.2812H33C33.0312 52.5312 33.3945 53.543 34.0898 54.3164C34.793 55.082 35.6836 55.4648 36.7617 55.4648C37.5273 55.4648 38.1758 55.3086 38.707 54.9961C39.2383 54.6836 39.7031 54.2695 40.1016 53.7539L41.4258 54.7852C40.3633 56.418 38.7695 57.2344 36.6445 57.2344ZM36.375 45.8672C35.5 45.8672 34.7656 46.1875 34.1719 46.8281C33.5781 47.4609 33.2109 48.3516 33.0703 49.5H39.4219V49.3359C39.3594 48.2344 39.0625 47.3828 38.5312 46.7812C38 46.1719 37.2812 45.8672 36.375 45.8672ZM51.4922 53.6367C51.4922 53.0508 51.2695 52.5977 50.8242 52.2773C50.3867 51.9492 49.6172 51.668 48.5156 51.4336C47.4219 51.1992 46.5508 50.918 45.9023 50.5898C45.2617 50.2617 44.7852 49.8711 44.4727 49.418C44.168 48.9648 44.0156 48.4258 44.0156 47.8008C44.0156 46.7617 44.4531 45.8828 45.3281 45.1641C46.2109 44.4453 47.3359 44.0859 48.7031 44.0859C50.1406 44.0859 51.3047 44.457 52.1953 45.1992C53.0938 45.9414 53.543 46.8906 53.543 48.0469H51.3633C51.3633 47.4531 51.1094 46.9414 50.6016 46.5117C50.1016 46.082 49.4688 45.8672 48.7031 45.8672C47.9141 45.8672 47.2969 46.0391 46.8516 46.3828C46.4062 46.7266 46.1836 47.1758 46.1836 47.7305C46.1836 48.2539 46.3906 48.6484 46.8047 48.9141C47.2188 49.1797 47.9648 49.4336 49.043 49.6758C50.1289 49.918 51.0078 50.207 51.6797 50.543C52.3516 50.8789 52.8477 51.2852 53.168 51.7617C53.4961 52.2305 53.6602 52.8047 53.6602 53.4844C53.6602 54.6172 53.207 55.5273 52.3008 56.2148C51.3945 56.8945 50.2188 57.2344 48.7734 57.2344C47.7578 57.2344 46.8594 57.0547 46.0781 56.6953C45.2969 56.3359 44.6836 55.8359 44.2383 55.1953C43.8008 54.5469 43.582 53.8477 43.582 53.0977H45.75C45.7891 53.8242 46.0781 54.4023 46.6172 54.832C47.1641 55.2539 47.8828 55.4648 48.7734 55.4648C49.5938 55.4648 50.25 55.3008 50.7422 54.9727C51.2422 54.6367 51.4922 54.1914 51.4922 53.6367ZM59.4258 41.25V44.3203H61.793V45.9961H59.4258V53.8594C59.4258 54.3672 59.5312 54.75 59.7422 55.0078C59.9531 55.2578 60.3125 55.3828 60.8203 55.3828C61.0703 55.3828 61.4141 55.3359 61.8516 55.2422V57C61.2812 57.1562 60.7266 57.2344 60.1875 57.2344C59.2188 57.2344 58.4883 56.9414 57.9961 56.3555C57.5039 55.7695 57.2578 54.9375 57.2578 53.8594V45.9961H54.9492V44.3203H57.2578V41.25H59.4258ZM66.6914 57H64.5234V44.3203H66.6914V57ZM64.3477 40.957C64.3477 40.6055 64.4531 40.3086 64.6641 40.0664C64.8828 39.8242 65.2031 39.7031 65.625 39.7031C66.0469 39.7031 66.3672 39.8242 66.5859 40.0664C66.8047 40.3086 66.9141 40.6055 66.9141 40.957C66.9141 41.3086 66.8047 41.6016 66.5859 41.8359C66.3672 42.0703 66.0469 42.1875 65.625 42.1875C65.2031 42.1875 64.8828 42.0703 64.6641 41.8359C64.4531 41.6016 64.3477 41.3086 64.3477 40.957ZM69.5977 50.543C69.5977 49.3008 69.8398 48.1836 70.3242 47.1914C70.8164 46.1992 71.4961 45.4336 72.3633 44.8945C73.2383 44.3555 74.2344 44.0859 75.3516 44.0859C77.0781 44.0859 78.4727 44.6836 79.5352 45.8789C80.6055 47.0742 81.1406 48.6641 81.1406 50.6484V50.8008C81.1406 52.0352 80.9023 53.1445 80.4258 54.1289C79.957 55.1055 79.2812 55.8672 78.3984 56.4141C77.5234 56.9609 76.5156 57.2344 75.375 57.2344C73.6562 57.2344 72.2617 56.6367 71.1914 55.4414C70.1289 54.2461 69.5977 52.6641 69.5977 50.6953V50.543ZM71.7773 50.8008C71.7773 52.207 72.1016 53.3359 72.75 54.1875C73.4062 55.0391 74.2812 55.4648 75.375 55.4648C76.4766 55.4648 77.3516 55.0352 78 54.1758C78.6484 53.3086 78.9727 52.0977 78.9727 50.543C78.9727 49.1523 78.6406 48.0273 77.9766 47.168C77.3203 46.3008 76.4453 45.8672 75.3516 45.8672C74.2812 45.8672 73.418 46.293 72.7617 47.1445C72.1055 47.9961 71.7773 49.2148 71.7773 50.8008ZM85.9102 44.3203L85.9805 45.9141C86.9492 44.6953 88.2148 44.0859 89.7773 44.0859C92.457 44.0859 93.8086 45.5977 93.832 48.6211V57H91.6641V48.6094C91.6562 47.6953 91.4453 47.0195 91.0312 46.582C90.625 46.1445 89.9883 45.9258 89.1211 45.9258C88.418 45.9258 87.8008 46.1133 87.2695 46.4883C86.7383 46.8633 86.3242 47.3555 86.0273 47.9648V57H83.8594V44.3203H85.9102ZM104.484 53.6367C104.484 53.0508 104.262 52.5977 103.816 52.2773C103.379 51.9492 102.609 51.668 101.508 51.4336C100.414 51.1992 99.543 50.918 98.8945 50.5898C98.2539 50.2617 97.7773 49.8711 97.4648 49.418C97.1602 48.9648 97.0078 48.4258 97.0078 47.8008C97.0078 46.7617 97.4453 45.8828 98.3203 45.1641C99.2031 44.4453 100.328 44.0859 101.695 44.0859C103.133 44.0859 104.297 44.457 105.188 45.1992C106.086 45.9414 106.535 46.8906 106.535 48.0469H104.355C104.355 47.4531 104.102 46.9414 103.594 46.5117C103.094 46.082 102.461 45.8672 101.695 45.8672C100.906 45.8672 100.289 46.0391 99.8438 46.3828C99.3984 46.7266 99.1758 47.1758 99.1758 47.7305C99.1758 48.2539 99.3828 48.6484 99.7969 48.9141C100.211 49.1797 100.957 49.4336 102.035 49.6758C103.121 49.918 104 50.207 104.672 50.543C105.344 50.8789 105.84 51.2852 106.16 51.7617C106.488 52.2305 106.652 52.8047 106.652 53.4844C106.652 54.6172 106.199 55.5273 105.293 56.2148C104.387 56.8945 103.211 57.2344 101.766 57.2344C100.75 57.2344 99.8516 57.0547 99.0703 56.6953C98.2891 56.3359 97.6758 55.8359 97.2305 55.1953C96.793 54.5469 96.5742 53.8477 96.5742 53.0977H98.7422C98.7812 53.8242 99.0703 54.4023 99.6094 54.832C100.156 55.2539 100.875 55.4648 101.766 55.4648C102.586 55.4648 103.242 55.3008 103.734 54.9727C104.234 54.6367 104.484 54.1914 104.484 53.6367ZM114.902 50.5547C114.902 48.6094 115.363 47.0469 116.285 45.8672C117.207 44.6797 118.414 44.0859 119.906 44.0859C121.391 44.0859 122.566 44.5938 123.434 45.6094V39H125.602V57H123.609L123.504 55.6406C122.637 56.7031 121.43 57.2344 119.883 57.2344C118.414 57.2344 117.215 56.6328 116.285 55.4297C115.363 54.2266 114.902 52.6562 114.902 50.7188V50.5547ZM117.07 50.8008C117.07 52.2383 117.367 53.3633 117.961 54.1758C118.555 54.9883 119.375 55.3945 120.422 55.3945C121.797 55.3945 122.801 54.7773 123.434 53.543V47.7188C122.785 46.5234 121.789 45.9258 120.445 45.9258C119.383 45.9258 118.555 46.3359 117.961 47.1562C117.367 47.9766 117.07 49.1914 117.07 50.8008ZM134.238 57.2344C132.52 57.2344 131.121 56.6719 130.043 55.5469C128.965 54.4141 128.426 52.9023 128.426 51.0117V50.6133C128.426 49.3555 128.664 48.2344 129.141 47.25C129.625 46.2578 130.297 45.4844 131.156 44.9297C132.023 44.3672 132.961 44.0859 133.969 44.0859C135.617 44.0859 136.898 44.6289 137.812 45.7148C138.727 46.8008 139.184 48.3555 139.184 50.3789V51.2812H130.594C130.625 52.5312 130.988 53.543 131.684 54.3164C132.387 55.082 133.277 55.4648 134.355 55.4648C135.121 55.4648 135.77 55.3086 136.301 54.9961C136.832 54.6836 137.297 54.2695 137.695 53.7539L139.02 54.7852C137.957 56.418 136.363 57.2344 134.238 57.2344ZM133.969 45.8672C133.094 45.8672 132.359 46.1875 131.766 46.8281C131.172 47.4609 130.805 48.3516 130.664 49.5H137.016V49.3359C136.953 48.2344 136.656 47.3828 136.125 46.7812C135.594 46.1719 134.875 45.8672 133.969 45.8672ZM149.086 53.6367C149.086 53.0508 148.863 52.5977 148.418 52.2773C147.98 51.9492 147.211 51.668 146.109 51.4336C145.016 51.1992 144.145 50.918 143.496 50.5898C142.855 50.2617 142.379 49.8711 142.066 49.418C141.762 48.9648 141.609 48.4258 141.609 47.8008C141.609 46.7617 142.047 45.8828 142.922 45.1641C143.805 44.4453 144.93 44.0859 146.297 44.0859C147.734 44.0859 148.898 44.457 149.789 45.1992C150.688 45.9414 151.137 46.8906 151.137 48.0469H148.957C148.957 47.4531 148.703 46.9414 148.195 46.5117C147.695 46.082 147.062 45.8672 146.297 45.8672C145.508 45.8672 144.891 46.0391 144.445 46.3828C144 46.7266 143.777 47.1758 143.777 47.7305C143.777 48.2539 143.984 48.6484 144.398 48.9141C144.812 49.1797 145.559 49.4336 146.637 49.6758C147.723 49.918 148.602 50.207 149.273 50.543C149.945 50.8789 150.441 51.2852 150.762 51.7617C151.09 52.2305 151.254 52.8047 151.254 53.4844C151.254 54.6172 150.801 55.5273 149.895 56.2148C148.988 56.8945 147.812 57.2344 146.367 57.2344C145.352 57.2344 144.453 57.0547 143.672 56.6953C142.891 56.3359 142.277 55.8359 141.832 55.1953C141.395 54.5469 141.176 53.8477 141.176 53.0977H143.344C143.383 53.8242 143.672 54.4023 144.211 54.832C144.758 55.2539 145.477 55.4648 146.367 55.4648C147.188 55.4648 147.844 55.3008 148.336 54.9727C148.836 54.6367 149.086 54.1914 149.086 53.6367ZM156.434 57H154.266V44.3203H156.434V57ZM154.09 40.957C154.09 40.6055 154.195 40.3086 154.406 40.0664C154.625 39.8242 154.945 39.7031 155.367 39.7031C155.789 39.7031 156.109 39.8242 156.328 40.0664C156.547 40.3086 156.656 40.6055 156.656 40.957C156.656 41.3086 156.547 41.6016 156.328 41.8359C156.109 42.0703 155.789 42.1875 155.367 42.1875C154.945 42.1875 154.625 42.0703 154.406 41.8359C154.195 41.6016 154.09 41.3086 154.09 40.957ZM159.398 50.5547C159.398 48.5781 159.855 47.0078 160.77 45.8438C161.684 44.6719 162.895 44.0859 164.402 44.0859C165.949 44.0859 167.156 44.6328 168.023 45.7266L168.129 44.3203H170.109V56.6953C170.109 58.3359 169.621 59.6289 168.645 60.5742C167.676 61.5195 166.371 61.9922 164.73 61.9922C163.816 61.9922 162.922 61.7969 162.047 61.4062C161.172 61.0156 160.504 60.4805 160.043 59.8008L161.168 58.5C162.098 59.6484 163.234 60.2227 164.578 60.2227C165.633 60.2227 166.453 59.9258 167.039 59.332C167.633 58.7383 167.93 57.9023 167.93 56.8242V55.7344C167.062 56.7344 165.879 57.2344 164.379 57.2344C162.895 57.2344 161.691 56.6367 160.77 55.4414C159.855 54.2461 159.398 52.6172 159.398 50.5547ZM161.578 50.8008C161.578 52.2305 161.871 53.3555 162.457 54.1758C163.043 54.9883 163.863 55.3945 164.918 55.3945C166.285 55.3945 167.289 54.7734 167.93 53.5312V47.7422C167.266 46.5312 166.27 45.9258 164.941 45.9258C163.887 45.9258 163.062 46.3359 162.469 47.1562C161.875 47.9766 161.578 49.1914 161.578 50.8008ZM175.441 44.3203L175.512 45.9141C176.48 44.6953 177.746 44.0859 179.309 44.0859C181.988 44.0859 183.34 45.5977 183.363 48.6211V57H181.195V48.6094C181.188 47.6953 180.977 47.0195 180.562 46.582C180.156 46.1445 179.52 45.9258 178.652 45.9258C177.949 45.9258 177.332 46.1133 176.801 46.4883C176.27 46.8633 175.855 47.3555 175.559 47.9648V57H173.391V44.3203H175.441ZM191.895 57.2344C190.176 57.2344 188.777 56.6719 187.699 55.5469C186.621 54.4141 186.082 52.9023 186.082 51.0117V50.6133C186.082 49.3555 186.32 48.2344 186.797 47.25C187.281 46.2578 187.953 45.4844 188.812 44.9297C189.68 44.3672 190.617 44.0859 191.625 44.0859C193.273 44.0859 194.555 44.6289 195.469 45.7148C196.383 46.8008 196.84 48.3555 196.84 50.3789V51.2812H188.25C188.281 52.5312 188.645 53.543 189.34 54.3164C190.043 55.082 190.934 55.4648 192.012 55.4648C192.777 55.4648 193.426 55.3086 193.957 54.9961C194.488 54.6836 194.953 54.2695 195.352 53.7539L196.676 54.7852C195.613 56.418 194.02 57.2344 191.895 57.2344ZM191.625 45.8672C190.75 45.8672 190.016 46.1875 189.422 46.8281C188.828 47.4609 188.461 48.3516 188.32 49.5H194.672V49.3359C194.609 48.2344 194.312 47.3828 193.781 46.7812C193.25 46.1719 192.531 45.8672 191.625 45.8672ZM198.832 50.5547C198.832 48.6094 199.293 47.0469 200.215 45.8672C201.137 44.6797 202.344 44.0859 203.836 44.0859C205.32 44.0859 206.496 44.5938 207.363 45.6094V39H209.531V57H207.539L207.434 55.6406C206.566 56.7031 205.359 57.2344 203.812 57.2344C202.344 57.2344 201.145 56.6328 200.215 55.4297C199.293 54.2266 198.832 52.6562 198.832 50.7188V50.5547ZM201 50.8008C201 52.2383 201.297 53.3633 201.891 54.1758C202.484 54.9883 203.305 55.3945 204.352 55.3945C205.727 55.3945 206.73 54.7773 207.363 53.543V47.7188C206.715 46.5234 205.719 45.9258 204.375 45.9258C203.312 45.9258 202.484 46.3359 201.891 47.1562C201.297 47.9766 201 49.1914 201 50.8008ZM219.926 57V45.9961H217.922V44.3203H219.926V43.0195C219.926 41.6602 220.289 40.6094 221.016 39.8672C221.742 39.125 222.77 38.7539 224.098 38.7539C224.598 38.7539 225.094 38.8203 225.586 38.9531L225.469 40.7109C225.102 40.6406 224.711 40.6055 224.297 40.6055C223.594 40.6055 223.051 40.8125 222.668 41.2266C222.285 41.6328 222.094 42.2188 222.094 42.9844V44.3203H224.801V45.9961H222.094V57H219.926ZM226.629 50.543C226.629 49.3008 226.871 48.1836 227.355 47.1914C227.848 46.1992 228.527 45.4336 229.395 44.8945C230.27 44.3555 231.266 44.0859 232.383 44.0859C234.109 44.0859 235.504 44.6836 236.566 45.8789C237.637 47.0742 238.172 48.6641 238.172 50.6484V50.8008C238.172 52.0352 237.934 53.1445 237.457 54.1289C236.988 55.1055 236.312 55.8672 235.43 56.4141C234.555 56.9609 233.547 57.2344 232.406 57.2344C230.688 57.2344 229.293 56.6367 228.223 55.4414C227.16 54.2461 226.629 52.6641 226.629 50.6953V50.543ZM228.809 50.8008C228.809 52.207 229.133 53.3359 229.781 54.1875C230.438 55.0391 231.312 55.4648 232.406 55.4648C233.508 55.4648 234.383 55.0352 235.031 54.1758C235.68 53.3086 236.004 52.0977 236.004 50.543C236.004 49.1523 235.672 48.0273 235.008 47.168C234.352 46.3008 233.477 45.8672 232.383 45.8672C231.312 45.8672 230.449 46.293 229.793 47.1445C229.137 47.9961 228.809 49.2148 228.809 50.8008ZM247.02 46.2656C246.691 46.2109 246.336 46.1836 245.953 46.1836C244.531 46.1836 243.566 46.7891 243.059 48V57H240.891V44.3203H243L243.035 45.7852C243.746 44.6523 244.754 44.0859 246.059 44.0859C246.48 44.0859 246.801 44.1406 247.02 44.25V46.2656ZM257.332 57H255.164V44.3203H257.332V57ZM254.988 40.957C254.988 40.6055 255.094 40.3086 255.305 40.0664C255.523 39.8242 255.844 39.7031 256.266 39.7031C256.688 39.7031 257.008 39.8242 257.227 40.0664C257.445 40.3086 257.555 40.6055 257.555 40.957C257.555 41.3086 257.445 41.6016 257.227 41.8359C257.008 42.0703 256.688 42.1875 256.266 42.1875C255.844 42.1875 255.523 42.0703 255.305 41.8359C255.094 41.6016 254.988 41.3086 254.988 40.957ZM262.863 44.3203L262.934 45.9141C263.902 44.6953 265.168 44.0859 266.73 44.0859C269.41 44.0859 270.762 45.5977 270.785 48.6211V57H268.617V48.6094C268.609 47.6953 268.398 47.0195 267.984 46.582C267.578 46.1445 266.941 45.9258 266.074 45.9258C265.371 45.9258 264.754 46.1133 264.223 46.4883C263.691 46.8633 263.277 47.3555 262.98 47.9648V57H260.812V44.3203H262.863ZM278.238 54.0586L281.379 44.3203H283.594L279.047 57H277.395L272.801 44.3203H275.016L278.238 54.0586ZM290.777 57.2344C289.059 57.2344 287.66 56.6719 286.582 55.5469C285.504 54.4141 284.965 52.9023 284.965 51.0117V50.6133C284.965 49.3555 285.203 48.2344 285.68 47.25C286.164 46.2578 286.836 45.4844 287.695 44.9297C288.562 44.3672 289.5 44.0859 290.508 44.0859C292.156 44.0859 293.438 44.6289 294.352 45.7148C295.266 46.8008 295.723 48.3555 295.723 50.3789V51.2812H287.133C287.164 52.5312 287.527 53.543 288.223 54.3164C288.926 55.082 289.816 55.4648 290.895 55.4648C291.66 55.4648 292.309 55.3086 292.84 54.9961C293.371 54.6836 293.836 54.2695 294.234 53.7539L295.559 54.7852C294.496 56.418 292.902 57.2344 290.777 57.2344ZM290.508 45.8672C289.633 45.8672 288.898 46.1875 288.305 46.8281C287.711 47.4609 287.344 48.3516 287.203 49.5H293.555V49.3359C293.492 48.2344 293.195 47.3828 292.664 46.7812C292.133 46.1719 291.414 45.8672 290.508 45.8672ZM305.625 53.6367C305.625 53.0508 305.402 52.5977 304.957 52.2773C304.52 51.9492 303.75 51.668 302.648 51.4336C301.555 51.1992 300.684 50.918 300.035 50.5898C299.395 50.2617 298.918 49.8711 298.605 49.418C298.301 48.9648 298.148 48.4258 298.148 47.8008C298.148 46.7617 298.586 45.8828 299.461 45.1641C300.344 44.4453 301.469 44.0859 302.836 44.0859C304.273 44.0859 305.438 44.457 306.328 45.1992C307.227 45.9414 307.676 46.8906 307.676 48.0469H305.496C305.496 47.4531 305.242 46.9414 304.734 46.5117C304.234 46.082 303.602 45.8672 302.836 45.8672C302.047 45.8672 301.43 46.0391 300.984 46.3828C300.539 46.7266 300.316 47.1758 300.316 47.7305C300.316 48.2539 300.523 48.6484 300.938 48.9141C301.352 49.1797 302.098 49.4336 303.176 49.6758C304.262 49.918 305.141 50.207 305.812 50.543C306.484 50.8789 306.98 51.2852 307.301 51.7617C307.629 52.2305 307.793 52.8047 307.793 53.4844C307.793 54.6172 307.34 55.5273 306.434 56.2148C305.527 56.8945 304.352 57.2344 302.906 57.2344C301.891 57.2344 300.992 57.0547 300.211 56.6953C299.43 56.3359 298.816 55.8359 298.371 55.1953C297.934 54.5469 297.715 53.8477 297.715 53.0977H299.883C299.922 53.8242 300.211 54.4023 300.75 54.832C301.297 55.2539 302.016 55.4648 302.906 55.4648C303.727 55.4648 304.383 55.3008 304.875 54.9727C305.375 54.6367 305.625 54.1914 305.625 53.6367ZM313.559 41.25V44.3203H315.926V45.9961H313.559V53.8594C313.559 54.3672 313.664 54.75 313.875 55.0078C314.086 55.2578 314.445 55.3828 314.953 55.3828C315.203 55.3828 315.547 55.3359 315.984 55.2422V57C315.414 57.1562 314.859 57.2344 314.32 57.2344C313.352 57.2344 312.621 56.9414 312.129 56.3555C311.637 55.7695 311.391 54.9375 311.391 53.8594V45.9961H309.082V44.3203H311.391V41.25H313.559ZM320.824 57H318.656V44.3203H320.824V57ZM318.48 40.957C318.48 40.6055 318.586 40.3086 318.797 40.0664C319.016 39.8242 319.336 39.7031 319.758 39.7031C320.18 39.7031 320.5 39.8242 320.719 40.0664C320.938 40.3086 321.047 40.6055 321.047 40.957C321.047 41.3086 320.938 41.6016 320.719 41.8359C320.5 42.0703 320.18 42.1875 319.758 42.1875C319.336 42.1875 319.016 42.0703 318.797 41.8359C318.586 41.6016 318.48 41.3086 318.48 40.957ZM323.789 50.5547C323.789 48.5781 324.246 47.0078 325.16 45.8438C326.074 44.6719 327.285 44.0859 328.793 44.0859C330.34 44.0859 331.547 44.6328 332.414 45.7266L332.52 44.3203H334.5V56.6953C334.5 58.3359 334.012 59.6289 333.035 60.5742C332.066 61.5195 330.762 61.9922 329.121 61.9922C328.207 61.9922 327.312 61.7969 326.438 61.4062C325.562 61.0156 324.895 60.4805 324.434 59.8008L325.559 58.5C326.488 59.6484 327.625 60.2227 328.969 60.2227C330.023 60.2227 330.844 59.9258 331.43 59.332C332.023 58.7383 332.32 57.9023 332.32 56.8242V55.7344C331.453 56.7344 330.27 57.2344 328.77 57.2344C327.285 57.2344 326.082 56.6367 325.16 55.4414C324.246 54.2461 323.789 52.6172 323.789 50.5547ZM325.969 50.8008C325.969 52.2305 326.262 53.3555 326.848 54.1758C327.434 54.9883 328.254 55.3945 329.309 55.3945C330.676 55.3945 331.68 54.7734 332.32 53.5312V47.7422C331.656 46.5312 330.66 45.9258 329.332 45.9258C328.277 45.9258 327.453 46.3359 326.859 47.1562C326.266 47.9766 325.969 49.1914 325.969 50.8008ZM345.609 57C345.484 56.75 345.383 56.3047 345.305 55.6641C344.297 56.7109 343.094 57.2344 341.695 57.2344C340.445 57.2344 339.418 56.8828 338.613 56.1797C337.816 55.4688 337.418 54.5703 337.418 53.4844C337.418 52.1641 337.918 51.1406 338.918 50.4141C339.926 49.6797 341.34 49.3125 343.16 49.3125H345.27V48.3164C345.27 47.5586 345.043 46.957 344.59 46.5117C344.137 46.0586 343.469 45.832 342.586 45.832C341.812 45.832 341.164 46.0273 340.641 46.418C340.117 46.8086 339.855 47.2812 339.855 47.8359H337.676C337.676 47.2031 337.898 46.5938 338.344 46.0078C338.797 45.4141 339.406 44.9453 340.172 44.6016C340.945 44.2578 341.793 44.0859 342.715 44.0859C344.176 44.0859 345.32 44.4531 346.148 45.1875C346.977 45.9141 347.406 46.918 347.438 48.1992V54.0352C347.438 55.1992 347.586 56.125 347.883 56.8125V57H345.609ZM342.012 55.3477C342.691 55.3477 343.336 55.1719 343.945 54.8203C344.555 54.4688 344.996 54.0117 345.27 53.4492V50.8477H343.57C340.914 50.8477 339.586 51.625 339.586 53.1797C339.586 53.8594 339.812 54.3906 340.266 54.7734C340.719 55.1562 341.301 55.3477 342.012 55.3477ZM353.777 41.25V44.3203H356.145V45.9961H353.777V53.8594C353.777 54.3672 353.883 54.75 354.094 55.0078C354.305 55.2578 354.664 55.3828 355.172 55.3828C355.422 55.3828 355.766 55.3359 356.203 55.2422V57C355.633 57.1562 355.078 57.2344 354.539 57.2344C353.57 57.2344 352.84 56.9414 352.348 56.3555C351.855 55.7695 351.609 54.9375 351.609 53.8594V45.9961H349.301V44.3203H351.609V41.25H353.777ZM357.879 50.543C357.879 49.3008 358.121 48.1836 358.605 47.1914C359.098 46.1992 359.777 45.4336 360.645 44.8945C361.52 44.3555 362.516 44.0859 363.633 44.0859C365.359 44.0859 366.754 44.6836 367.816 45.8789C368.887 47.0742 369.422 48.6641 369.422 50.6484V50.8008C369.422 52.0352 369.184 53.1445 368.707 54.1289C368.238 55.1055 367.562 55.8672 366.68 56.4141C365.805 56.9609 364.797 57.2344 363.656 57.2344C361.938 57.2344 360.543 56.6367 359.473 55.4414C358.41 54.2461 357.879 52.6641 357.879 50.6953V50.543ZM360.059 50.8008C360.059 52.207 360.383 53.3359 361.031 54.1875C361.688 55.0391 362.562 55.4648 363.656 55.4648C364.758 55.4648 365.633 55.0352 366.281 54.1758C366.93 53.3086 367.254 52.0977 367.254 50.543C367.254 49.1523 366.922 48.0273 366.258 47.168C365.602 46.3008 364.727 45.8672 363.633 45.8672C362.562 45.8672 361.699 46.293 361.043 47.1445C360.387 47.9961 360.059 49.2148 360.059 50.8008ZM378.27 46.2656C377.941 46.2109 377.586 46.1836 377.203 46.1836C375.781 46.1836 374.816 46.7891 374.309 48V57H372.141V44.3203H374.25L374.285 45.7852C374.996 44.6523 376.004 44.0859 377.309 44.0859C377.73 44.0859 378.051 44.1406 378.27 44.25V46.2656ZM387.656 53.6367C387.656 53.0508 387.434 52.5977 386.988 52.2773C386.551 51.9492 385.781 51.668 384.68 51.4336C383.586 51.1992 382.715 50.918 382.066 50.5898C381.426 50.2617 380.949 49.8711 380.637 49.418C380.332 48.9648 380.18 48.4258 380.18 47.8008C380.18 46.7617 380.617 45.8828 381.492 45.1641C382.375 44.4453 383.5 44.0859 384.867 44.0859C386.305 44.0859 387.469 44.457 388.359 45.1992C389.258 45.9414 389.707 46.8906 389.707 48.0469H387.527C387.527 47.4531 387.273 46.9414 386.766 46.5117C386.266 46.082 385.633 45.8672 384.867 45.8672C384.078 45.8672 383.461 46.0391 383.016 46.3828C382.57 46.7266 382.348 47.1758 382.348 47.7305C382.348 48.2539 382.555 48.6484 382.969 48.9141C383.383 49.1797 384.129 49.4336 385.207 49.6758C386.293 49.918 387.172 50.207 387.844 50.543C388.516 50.8789 389.012 51.2852 389.332 51.7617C389.66 52.2305 389.824 52.8047 389.824 53.4844C389.824 54.6172 389.371 55.5273 388.465 56.2148C387.559 56.8945 386.383 57.2344 384.938 57.2344C383.922 57.2344 383.023 57.0547 382.242 56.6953C381.461 56.3359 380.848 55.8359 380.402 55.1953C379.965 54.5469 379.746 53.8477 379.746 53.0977H381.914C381.953 53.8242 382.242 54.4023 382.781 54.832C383.328 55.2539 384.047 55.4648 384.938 55.4648C385.758 55.4648 386.414 55.3008 386.906 54.9727C387.406 54.6367 387.656 54.1914 387.656 53.6367ZM401.543 41.25V44.3203H403.91V45.9961H401.543V53.8594C401.543 54.3672 401.648 54.75 401.859 55.0078C402.07 55.2578 402.43 55.3828 402.938 55.3828C403.188 55.3828 403.531 55.3359 403.969 55.2422V57C403.398 57.1562 402.844 57.2344 402.305 57.2344C401.336 57.2344 400.605 56.9414 400.113 56.3555C399.621 55.7695 399.375 54.9375 399.375 53.8594V45.9961H397.066V44.3203H399.375V41.25H401.543ZM405.645 50.543C405.645 49.3008 405.887 48.1836 406.371 47.1914C406.863 46.1992 407.543 45.4336 408.41 44.8945C409.285 44.3555 410.281 44.0859 411.398 44.0859C413.125 44.0859 414.52 44.6836 415.582 45.8789C416.652 47.0742 417.188 48.6641 417.188 50.6484V50.8008C417.188 52.0352 416.949 53.1445 416.473 54.1289C416.004 55.1055 415.328 55.8672 414.445 56.4141C413.57 56.9609 412.562 57.2344 411.422 57.2344C409.703 57.2344 408.309 56.6367 407.238 55.4414C406.176 54.2461 405.645 52.6641 405.645 50.6953V50.543ZM407.824 50.8008C407.824 52.207 408.148 53.3359 408.797 54.1875C409.453 55.0391 410.328 55.4648 411.422 55.4648C412.523 55.4648 413.398 55.0352 414.047 54.1758C414.695 53.3086 415.02 52.0977 415.02 50.543C415.02 49.1523 414.688 48.0273 414.023 47.168C413.367 46.3008 412.492 45.8672 411.398 45.8672C410.328 45.8672 409.465 46.293 408.809 47.1445C408.152 47.9961 407.824 49.2148 407.824 50.8008ZM428.027 45.8555C428.988 44.6758 430.238 44.0859 431.777 44.0859C434.457 44.0859 435.809 45.5977 435.832 48.6211V57H433.664V48.6094C433.656 47.6953 433.445 47.0195 433.031 46.582C432.625 46.1445 431.988 45.9258 431.121 45.9258C430.418 45.9258 429.801 46.1133 429.27 46.4883C428.738 46.8633 428.324 47.3555 428.027 47.9648V57H425.859V39H428.027V45.8555ZM444.34 57.2344C442.621 57.2344 441.223 56.6719 440.145 55.5469C439.066 54.4141 438.527 52.9023 438.527 51.0117V50.6133C438.527 49.3555 438.766 48.2344 439.242 47.25C439.727 46.2578 440.398 45.4844 441.258 44.9297C442.125 44.3672 443.062 44.0859 444.07 44.0859C445.719 44.0859 447 44.6289 447.914 45.7148C448.828 46.8008 449.285 48.3555 449.285 50.3789V51.2812H440.695C440.727 52.5312 441.09 53.543 441.785 54.3164C442.488 55.082 443.379 55.4648 444.457 55.4648C445.223 55.4648 445.871 55.3086 446.402 54.9961C446.934 54.6836 447.398 54.2695 447.797 53.7539L449.121 54.7852C448.059 56.418 446.465 57.2344 444.34 57.2344ZM444.07 45.8672C443.195 45.8672 442.461 46.1875 441.867 46.8281C441.273 47.4609 440.906 48.3516 440.766 49.5H447.117V49.3359C447.055 48.2344 446.758 47.3828 446.227 46.7812C445.695 46.1719 444.977 45.8672 444.07 45.8672ZM454.16 57H451.992V39H454.16V57ZM468.352 50.8008C468.352 52.7305 467.91 54.2852 467.027 55.4648C466.145 56.6445 464.949 57.2344 463.441 57.2344C461.902 57.2344 460.691 56.7461 459.809 55.7695V61.875H457.641V44.3203H459.621L459.727 45.7266C460.609 44.6328 461.836 44.0859 463.406 44.0859C464.93 44.0859 466.133 44.6602 467.016 45.8086C467.906 46.957 468.352 48.5547 468.352 50.6016V50.8008ZM466.184 50.5547C466.184 49.125 465.879 47.9961 465.27 47.168C464.66 46.3398 463.824 45.9258 462.762 45.9258C461.449 45.9258 460.465 46.5078 459.809 47.6719V53.7305C460.457 54.8867 461.449 55.4648 462.785 55.4648C463.824 55.4648 464.648 55.0547 465.258 54.2344C465.875 53.4062 466.184 52.1797 466.184 50.5547ZM1.11328 85.5547C1.11328 83.6094 1.57422 82.0469 2.49609 80.8672C3.41797 79.6797 4.625 79.0859 6.11719 79.0859C7.60156 79.0859 8.77734 79.5938 9.64453 80.6094V74H11.8125V92H9.82031L9.71484 90.6406C8.84766 91.7031 7.64062 92.2344 6.09375 92.2344C4.625 92.2344 3.42578 91.6328 2.49609 90.4297C1.57422 89.2266 1.11328 87.6562 1.11328 85.7188V85.5547ZM3.28125 85.8008C3.28125 87.2383 3.57812 88.3633 4.17188 89.1758C4.76562 89.9883 5.58594 90.3945 6.63281 90.3945C8.00781 90.3945 9.01172 89.7773 9.64453 88.543V82.7188C8.99609 81.5234 8 80.9258 6.65625 80.9258C5.59375 80.9258 4.76562 81.3359 4.17188 82.1562C3.57812 82.9766 3.28125 84.1914 3.28125 85.8008ZM20.4492 92.2344C18.7305 92.2344 17.332 91.6719 16.2539 90.5469C15.1758 89.4141 14.6367 87.9023 14.6367 86.0117V85.6133C14.6367 84.3555 14.875 83.2344 15.3516 82.25C15.8359 81.2578 16.5078 80.4844 17.3672 79.9297C18.2344 79.3672 19.1719 79.0859 20.1797 79.0859C21.8281 79.0859 23.1094 79.6289 24.0234 80.7148C24.9375 81.8008 25.3945 83.3555 25.3945 85.3789V86.2812H16.8047C16.8359 87.5312 17.1992 88.543 17.8945 89.3164C18.5977 90.082 19.4883 90.4648 20.5664 90.4648C21.332 90.4648 21.9805 90.3086 22.5117 89.9961C23.043 89.6836 23.5078 89.2695 23.9062 88.7539L25.2305 89.7852C24.168 91.418 22.5742 92.2344 20.4492 92.2344ZM20.1797 80.8672C19.3047 80.8672 18.5703 81.1875 17.9766 81.8281C17.3828 82.4609 17.0156 83.3516 16.875 84.5H23.2266V84.3359C23.1641 83.2344 22.8672 82.3828 22.3359 81.7812C21.8047 81.1719 21.0859 80.8672 20.1797 80.8672ZM30.8555 76.25V79.3203H33.2227V80.9961H30.8555V88.8594C30.8555 89.3672 30.9609 89.75 31.1719 90.0078C31.3828 90.2578 31.7422 90.3828 32.25 90.3828C32.5 90.3828 32.8438 90.3359 33.2812 90.2422V92C32.7109 92.1562 32.1562 92.2344 31.6172 92.2344C30.6484 92.2344 29.918 91.9414 29.4258 91.3555C28.9336 90.7695 28.6875 89.9375 28.6875 88.8594V80.9961H26.3789V79.3203H28.6875V76.25H30.8555ZM41.0273 92.2344C39.3086 92.2344 37.9102 91.6719 36.832 90.5469C35.7539 89.4141 35.2148 87.9023 35.2148 86.0117V85.6133C35.2148 84.3555 35.4531 83.2344 35.9297 82.25C36.4141 81.2578 37.0859 80.4844 37.9453 79.9297C38.8125 79.3672 39.75 79.0859 40.7578 79.0859C42.4062 79.0859 43.6875 79.6289 44.6016 80.7148C45.5156 81.8008 45.9727 83.3555 45.9727 85.3789V86.2812H37.3828C37.4141 87.5312 37.7773 88.543 38.4727 89.3164C39.1758 90.082 40.0664 90.4648 41.1445 90.4648C41.9102 90.4648 42.5586 90.3086 43.0898 89.9961C43.6211 89.6836 44.0859 89.2695 44.4844 88.7539L45.8086 89.7852C44.7461 91.418 43.1523 92.2344 41.0273 92.2344ZM40.7578 80.8672C39.8828 80.8672 39.1484 81.1875 38.5547 81.8281C37.9609 82.4609 37.5938 83.3516 37.4531 84.5H43.8047V84.3359C43.7422 83.2344 43.4453 82.3828 42.9141 81.7812C42.3828 81.1719 41.6641 80.8672 40.7578 80.8672ZM54.6211 81.2656C54.293 81.2109 53.9375 81.1836 53.5547 81.1836C52.1328 81.1836 51.168 81.7891 50.6602 83V92H48.4922V79.3203H50.6016L50.6367 80.7852C51.3477 79.6523 52.3555 79.0859 53.6602 79.0859C54.082 79.0859 54.4023 79.1406 54.6211 79.25V81.2656ZM58.6641 79.3203L58.7227 80.7266C59.6523 79.6328 60.9062 79.0859 62.4844 79.0859C64.2578 79.0859 65.4648 79.7656 66.1055 81.125C66.5273 80.5156 67.0742 80.0234 67.7461 79.6484C68.4258 79.2734 69.2266 79.0859 70.1484 79.0859C72.9297 79.0859 74.3438 80.5586 74.3906 83.5039V92H72.2227V83.6328C72.2227 82.7266 72.0156 82.0508 71.6016 81.6055C71.1875 81.1523 70.4922 80.9258 69.5156 80.9258C68.7109 80.9258 68.043 81.168 67.5117 81.6523C66.9805 82.1289 66.6719 82.7734 66.5859 83.5859V92H64.4062V83.6914C64.4062 81.8477 63.5039 80.9258 61.6992 80.9258C60.2773 80.9258 59.3047 81.5312 58.7812 82.7422V92H56.6133V79.3203H58.6641ZM80.0273 92H77.8594V79.3203H80.0273V92ZM77.6836 75.957C77.6836 75.6055 77.7891 75.3086 78 75.0664C78.2188 74.8242 78.5391 74.7031 78.9609 74.7031C79.3828 74.7031 79.7031 74.8242 79.9219 75.0664C80.1406 75.3086 80.25 75.6055 80.25 75.957C80.25 76.3086 80.1406 76.6016 79.9219 76.8359C79.7031 77.0703 79.3828 77.1875 78.9609 77.1875C78.5391 77.1875 78.2188 77.0703 78 76.8359C77.7891 76.6016 77.6836 76.3086 77.6836 75.957ZM85.5586 79.3203L85.6289 80.9141C86.5977 79.6953 87.8633 79.0859 89.4258 79.0859C92.1055 79.0859 93.457 80.5977 93.4805 83.6211V92H91.3125V83.6094C91.3047 82.6953 91.0938 82.0195 90.6797 81.582C90.2734 81.1445 89.6367 80.9258 88.7695 80.9258C88.0664 80.9258 87.4492 81.1133 86.918 81.4883C86.3867 81.8633 85.9727 82.3555 85.6758 82.9648V92H83.5078V79.3203H85.5586ZM102.012 92.2344C100.293 92.2344 98.8945 91.6719 97.8164 90.5469C96.7383 89.4141 96.1992 87.9023 96.1992 86.0117V85.6133C96.1992 84.3555 96.4375 83.2344 96.9141 82.25C97.3984 81.2578 98.0703 80.4844 98.9297 79.9297C99.7969 79.3672 100.734 79.0859 101.742 79.0859C103.391 79.0859 104.672 79.6289 105.586 80.7148C106.5 81.8008 106.957 83.3555 106.957 85.3789V86.2812H98.3672C98.3984 87.5312 98.7617 88.543 99.457 89.3164C100.16 90.082 101.051 90.4648 102.129 90.4648C102.895 90.4648 103.543 90.3086 104.074 89.9961C104.605 89.6836 105.07 89.2695 105.469 88.7539L106.793 89.7852C105.73 91.418 104.137 92.2344 102.012 92.2344ZM101.742 80.8672C100.867 80.8672 100.133 81.1875 99.5391 81.8281C98.9453 82.4609 98.5781 83.3516 98.4375 84.5H104.789V84.3359C104.727 83.2344 104.43 82.3828 103.898 81.7812C103.367 81.1719 102.648 80.8672 101.742 80.8672ZM117.785 92H115.617V79.3203H117.785V92ZM115.441 75.957C115.441 75.6055 115.547 75.3086 115.758 75.0664C115.977 74.8242 116.297 74.7031 116.719 74.7031C117.141 74.7031 117.461 74.8242 117.68 75.0664C117.898 75.3086 118.008 75.6055 118.008 75.957C118.008 76.3086 117.898 76.6016 117.68 76.8359C117.461 77.0703 117.141 77.1875 116.719 77.1875C116.297 77.1875 115.977 77.0703 115.758 76.8359C115.547 76.6016 115.441 76.3086 115.441 75.957ZM122.332 92V80.9961H120.328V79.3203H122.332V78.0195C122.332 76.6602 122.695 75.6094 123.422 74.8672C124.148 74.125 125.176 73.7539 126.504 73.7539C127.004 73.7539 127.5 73.8203 127.992 73.9531L127.875 75.7109C127.508 75.6406 127.117 75.6055 126.703 75.6055C126 75.6055 125.457 75.8125 125.074 76.2266C124.691 76.6328 124.5 77.2188 124.5 77.9844V79.3203H127.207V80.9961H124.5V92H122.332ZM140.648 90.4648C141.422 90.4648 142.098 90.2305 142.676 89.7617C143.254 89.293 143.574 88.707 143.637 88.0039H145.688C145.648 88.7305 145.398 89.4219 144.938 90.0781C144.477 90.7344 143.859 91.2578 143.086 91.6484C142.32 92.0391 141.508 92.2344 140.648 92.2344C138.922 92.2344 137.547 91.6602 136.523 90.5117C135.508 89.3555 135 87.7773 135 85.7773V85.4141C135 84.1797 135.227 83.082 135.68 82.1211C136.133 81.1602 136.781 80.4141 137.625 79.8828C138.477 79.3516 139.48 79.0859 140.637 79.0859C142.059 79.0859 143.238 79.5117 144.176 80.3633C145.121 81.2148 145.625 82.3203 145.688 83.6797H143.637C143.574 82.8594 143.262 82.1875 142.699 81.6641C142.145 81.1328 141.457 80.8672 140.637 80.8672C139.535 80.8672 138.68 81.2656 138.07 82.0625C137.469 82.8516 137.168 83.9961 137.168 85.4961V85.9062C137.168 87.3672 137.469 88.4922 138.07 89.2812C138.672 90.0703 139.531 90.4648 140.648 90.4648ZM150.48 92H148.312V79.3203H150.48V92ZM148.137 75.957C148.137 75.6055 148.242 75.3086 148.453 75.0664C148.672 74.8242 148.992 74.7031 149.414 74.7031C149.836 74.7031 150.156 74.8242 150.375 75.0664C150.594 75.3086 150.703 75.6055 150.703 75.957C150.703 76.3086 150.594 76.6016 150.375 76.8359C150.156 77.0703 149.836 77.1875 149.414 77.1875C148.992 77.1875 148.672 77.0703 148.453 76.8359C148.242 76.6016 148.137 76.3086 148.137 75.957ZM160.09 81.2656C159.762 81.2109 159.406 81.1836 159.023 81.1836C157.602 81.1836 156.637 81.7891 156.129 83V92H153.961V79.3203H156.07L156.105 80.7852C156.816 79.6523 157.824 79.0859 159.129 79.0859C159.551 79.0859 159.871 79.1406 160.09 79.25V81.2656ZM166.945 90.4648C167.719 90.4648 168.395 90.2305 168.973 89.7617C169.551 89.293 169.871 88.707 169.934 88.0039H171.984C171.945 88.7305 171.695 89.4219 171.234 90.0781C170.773 90.7344 170.156 91.2578 169.383 91.6484C168.617 92.0391 167.805 92.2344 166.945 92.2344C165.219 92.2344 163.844 91.6602 162.82 90.5117C161.805 89.3555 161.297 87.7773 161.297 85.7773V85.4141C161.297 84.1797 161.523 83.082 161.977 82.1211C162.43 81.1602 163.078 80.4141 163.922 79.8828C164.773 79.3516 165.777 79.0859 166.934 79.0859C168.355 79.0859 169.535 79.5117 170.473 80.3633C171.418 81.2148 171.922 82.3203 171.984 83.6797H169.934C169.871 82.8594 169.559 82.1875 168.996 81.6641C168.441 81.1328 167.754 80.8672 166.934 80.8672C165.832 80.8672 164.977 81.2656 164.367 82.0625C163.766 82.8516 163.465 83.9961 163.465 85.4961V85.9062C163.465 87.3672 163.766 88.4922 164.367 89.2812C164.969 90.0703 165.828 90.4648 166.945 90.4648ZM182.25 90.7461C181.406 91.7383 180.168 92.2344 178.535 92.2344C177.184 92.2344 176.152 91.8438 175.441 91.0625C174.738 90.2734 174.383 89.1094 174.375 87.5703V79.3203H176.543V87.5117C176.543 89.4336 177.324 90.3945 178.887 90.3945C180.543 90.3945 181.645 89.7773 182.191 88.543V79.3203H184.359V92H182.297L182.25 90.7461ZM189.703 79.3203L189.762 80.7266C190.691 79.6328 191.945 79.0859 193.523 79.0859C195.297 79.0859 196.504 79.7656 197.145 81.125C197.566 80.5156 198.113 80.0234 198.785 79.6484C199.465 79.2734 200.266 79.0859 201.188 79.0859C203.969 79.0859 205.383 80.5586 205.43 83.5039V92H203.262V83.6328C203.262 82.7266 203.055 82.0508 202.641 81.6055C202.227 81.1523 201.531 80.9258 200.555 80.9258C199.75 80.9258 199.082 81.168 198.551 81.6523C198.02 82.1289 197.711 82.7734 197.625 83.5859V92H195.445V83.6914C195.445 81.8477 194.543 80.9258 192.738 80.9258C191.316 80.9258 190.344 81.5312 189.82 82.7422V92H187.652V79.3203H189.703ZM216.094 88.6367C216.094 88.0508 215.871 87.5977 215.426 87.2773C214.988 86.9492 214.219 86.668 213.117 86.4336C212.023 86.1992 211.152 85.918 210.504 85.5898C209.863 85.2617 209.387 84.8711 209.074 84.418C208.77 83.9648 208.617 83.4258 208.617 82.8008C208.617 81.7617 209.055 80.8828 209.93 80.1641C210.812 79.4453 211.938 79.0859 213.305 79.0859C214.742 79.0859 215.906 79.457 216.797 80.1992C217.695 80.9414 218.145 81.8906 218.145 83.0469H215.965C215.965 82.4531 215.711 81.9414 215.203 81.5117C214.703 81.082 214.07 80.8672 213.305 80.8672C212.516 80.8672 211.898 81.0391 211.453 81.3828C211.008 81.7266 210.785 82.1758 210.785 82.7305C210.785 83.2539 210.992 83.6484 211.406 83.9141C211.82 84.1797 212.566 84.4336 213.645 84.6758C214.73 84.918 215.609 85.207 216.281 85.543C216.953 85.8789 217.449 86.2852 217.77 86.7617C218.098 87.2305 218.262 87.8047 218.262 88.4844C218.262 89.6172 217.809 90.5273 216.902 91.2148C215.996 91.8945 214.82 92.2344 213.375 92.2344C212.359 92.2344 211.461 92.0547 210.68 91.6953C209.898 91.3359 209.285 90.8359 208.84 90.1953C208.402 89.5469 208.184 88.8477 208.184 88.0977H210.352C210.391 88.8242 210.68 89.4023 211.219 89.832C211.766 90.2539 212.484 90.4648 213.375 90.4648C214.195 90.4648 214.852 90.3008 215.344 89.9727C215.844 89.6367 216.094 89.1914 216.094 88.6367ZM224.027 76.25V79.3203H226.395V80.9961H224.027V88.8594C224.027 89.3672 224.133 89.75 224.344 90.0078C224.555 90.2578 224.914 90.3828 225.422 90.3828C225.672 90.3828 226.016 90.3359 226.453 90.2422V92C225.883 92.1562 225.328 92.2344 224.789 92.2344C223.82 92.2344 223.09 91.9414 222.598 91.3555C222.105 90.7695 221.859 89.9375 221.859 88.8594V80.9961H219.551V79.3203H221.859V76.25H224.027ZM236.766 92C236.641 91.75 236.539 91.3047 236.461 90.6641C235.453 91.7109 234.25 92.2344 232.852 92.2344C231.602 92.2344 230.574 91.8828 229.77 91.1797C228.973 90.4688 228.574 89.5703 228.574 88.4844C228.574 87.1641 229.074 86.1406 230.074 85.4141C231.082 84.6797 232.496 84.3125 234.316 84.3125H236.426V83.3164C236.426 82.5586 236.199 81.957 235.746 81.5117C235.293 81.0586 234.625 80.832 233.742 80.832C232.969 80.832 232.32 81.0273 231.797 81.418C231.273 81.8086 231.012 82.2812 231.012 82.8359H228.832C228.832 82.2031 229.055 81.5938 229.5 81.0078C229.953 80.4141 230.562 79.9453 231.328 79.6016C232.102 79.2578 232.949 79.0859 233.871 79.0859C235.332 79.0859 236.477 79.4531 237.305 80.1875C238.133 80.9141 238.562 81.918 238.594 83.1992V89.0352C238.594 90.1992 238.742 91.125 239.039 91.8125V92H236.766ZM233.168 90.3477C233.848 90.3477 234.492 90.1719 235.102 89.8203C235.711 89.4688 236.152 89.0117 236.426 88.4492V85.8477H234.727C232.07 85.8477 230.742 86.625 230.742 88.1797C230.742 88.8594 230.969 89.3906 231.422 89.7734C231.875 90.1562 232.457 90.3477 233.168 90.3477ZM244.043 79.3203L244.113 80.9141C245.082 79.6953 246.348 79.0859 247.91 79.0859C250.59 79.0859 251.941 80.5977 251.965 83.6211V92H249.797V83.6094C249.789 82.6953 249.578 82.0195 249.164 81.582C248.758 81.1445 248.121 80.9258 247.254 80.9258C246.551 80.9258 245.934 81.1133 245.402 81.4883C244.871 81.8633 244.457 82.3555 244.16 82.9648V92H241.992V79.3203H244.043ZM260.32 90.4648C261.094 90.4648 261.77 90.2305 262.348 89.7617C262.926 89.293 263.246 88.707 263.309 88.0039H265.359C265.32 88.7305 265.07 89.4219 264.609 90.0781C264.148 90.7344 263.531 91.2578 262.758 91.6484C261.992 92.0391 261.18 92.2344 260.32 92.2344C258.594 92.2344 257.219 91.6602 256.195 90.5117C255.18 89.3555 254.672 87.7773 254.672 85.7773V85.4141C254.672 84.1797 254.898 83.082 255.352 82.1211C255.805 81.1602 256.453 80.4141 257.297 79.8828C258.148 79.3516 259.152 79.0859 260.309 79.0859C261.73 79.0859 262.91 79.5117 263.848 80.3633C264.793 81.2148 265.297 82.3203 265.359 83.6797H263.309C263.246 82.8594 262.934 82.1875 262.371 81.6641C261.816 81.1328 261.129 80.8672 260.309 80.8672C259.207 80.8672 258.352 81.2656 257.742 82.0625C257.141 82.8516 256.84 83.9961 256.84 85.4961V85.9062C256.84 87.3672 257.141 88.4922 257.742 89.2812C258.344 90.0703 259.203 90.4648 260.32 90.4648ZM273.059 92.2344C271.34 92.2344 269.941 91.6719 268.863 90.5469C267.785 89.4141 267.246 87.9023 267.246 86.0117V85.6133C267.246 84.3555 267.484 83.2344 267.961 82.25C268.445 81.2578 269.117 80.4844 269.977 79.9297C270.844 79.3672 271.781 79.0859 272.789 79.0859C274.438 79.0859 275.719 79.6289 276.633 80.7148C277.547 81.8008 278.004 83.3555 278.004 85.3789V86.2812H269.414C269.445 87.5312 269.809 88.543 270.504 89.3164C271.207 90.082 272.098 90.4648 273.176 90.4648C273.941 90.4648 274.59 90.3086 275.121 89.9961C275.652 89.6836 276.117 89.2695 276.516 88.7539L277.84 89.7852C276.777 91.418 275.184 92.2344 273.059 92.2344ZM272.789 80.8672C271.914 80.8672 271.18 81.1875 270.586 81.8281C269.992 82.4609 269.625 83.3516 269.484 84.5H275.836V84.3359C275.773 83.2344 275.477 82.3828 274.945 81.7812C274.414 81.1719 273.695 80.8672 272.789 80.8672ZM287.906 88.6367C287.906 88.0508 287.684 87.5977 287.238 87.2773C286.801 86.9492 286.031 86.668 284.93 86.4336C283.836 86.1992 282.965 85.918 282.316 85.5898C281.676 85.2617 281.199 84.8711 280.887 84.418C280.582 83.9648 280.43 83.4258 280.43 82.8008C280.43 81.7617 280.867 80.8828 281.742 80.1641C282.625 79.4453 283.75 79.0859 285.117 79.0859C286.555 79.0859 287.719 79.457 288.609 80.1992C289.508 80.9414 289.957 81.8906 289.957 83.0469H287.777C287.777 82.4531 287.523 81.9414 287.016 81.5117C286.516 81.082 285.883 80.8672 285.117 80.8672C284.328 80.8672 283.711 81.0391 283.266 81.3828C282.82 81.7266 282.598 82.1758 282.598 82.7305C282.598 83.2539 282.805 83.6484 283.219 83.9141C283.633 84.1797 284.379 84.4336 285.457 84.6758C286.543 84.918 287.422 85.207 288.094 85.543C288.766 85.8789 289.262 86.2852 289.582 86.7617C289.91 87.2305 290.074 87.8047 290.074 88.4844C290.074 89.6172 289.621 90.5273 288.715 91.2148C287.809 91.8945 286.633 92.2344 285.188 92.2344C284.172 92.2344 283.273 92.0547 282.492 91.6953C281.711 91.3359 281.098 90.8359 280.652 90.1953C280.215 89.5469 279.996 88.8477 279.996 88.0977H282.164C282.203 88.8242 282.492 89.4023 283.031 89.832C283.578 90.2539 284.297 90.4648 285.188 90.4648C286.008 90.4648 286.664 90.3008 287.156 89.9727C287.656 89.6367 287.906 89.1914 287.906 88.6367ZM304.98 81.2656C304.652 81.2109 304.297 81.1836 303.914 81.1836C302.492 81.1836 301.527 81.7891 301.02 83V92H298.852V79.3203H300.961L300.996 80.7852C301.707 79.6523 302.715 79.0859 304.02 79.0859C304.441 79.0859 304.762 79.1406 304.98 79.25V81.2656ZM309.34 92H307.172V79.3203H309.34V92ZM306.996 75.957C306.996 75.6055 307.102 75.3086 307.312 75.0664C307.531 74.8242 307.852 74.7031 308.273 74.7031C308.695 74.7031 309.016 74.8242 309.234 75.0664C309.453 75.3086 309.562 75.6055 309.562 75.957C309.562 76.3086 309.453 76.6016 309.234 76.8359C309.016 77.0703 308.695 77.1875 308.273 77.1875C307.852 77.1875 307.531 77.0703 307.312 76.8359C307.102 76.6016 306.996 76.3086 306.996 75.957ZM320.203 88.6367C320.203 88.0508 319.98 87.5977 319.535 87.2773C319.098 86.9492 318.328 86.668 317.227 86.4336C316.133 86.1992 315.262 85.918 314.613 85.5898C313.973 85.2617 313.496 84.8711 313.184 84.418C312.879 83.9648 312.727 83.4258 312.727 82.8008C312.727 81.7617 313.164 80.8828 314.039 80.1641C314.922 79.4453 316.047 79.0859 317.414 79.0859C318.852 79.0859 320.016 79.457 320.906 80.1992C321.805 80.9414 322.254 81.8906 322.254 83.0469H320.074C320.074 82.4531 319.82 81.9414 319.312 81.5117C318.812 81.082 318.18 80.8672 317.414 80.8672C316.625 80.8672 316.008 81.0391 315.562 81.3828C315.117 81.7266 314.895 82.1758 314.895 82.7305C314.895 83.2539 315.102 83.6484 315.516 83.9141C315.93 84.1797 316.676 84.4336 317.754 84.6758C318.84 84.918 319.719 85.207 320.391 85.543C321.062 85.8789 321.559 86.2852 321.879 86.7617C322.207 87.2305 322.371 87.8047 322.371 88.4844C322.371 89.6172 321.918 90.5273 321.012 91.2148C320.105 91.8945 318.93 92.2344 317.484 92.2344C316.469 92.2344 315.57 92.0547 314.789 91.6953C314.008 91.3359 313.395 90.8359 312.949 90.1953C312.512 89.5469 312.293 88.8477 312.293 88.0977H314.461C314.5 88.8242 314.789 89.4023 315.328 89.832C315.875 90.2539 316.594 90.4648 317.484 90.4648C318.305 90.4648 318.961 90.3008 319.453 89.9727C319.953 89.6367 320.203 89.1914 320.203 88.6367ZM330.457 92.2344C328.738 92.2344 327.34 91.6719 326.262 90.5469C325.184 89.4141 324.645 87.9023 324.645 86.0117V85.6133C324.645 84.3555 324.883 83.2344 325.359 82.25C325.844 81.2578 326.516 80.4844 327.375 79.9297C328.242 79.3672 329.18 79.0859 330.188 79.0859C331.836 79.0859 333.117 79.6289 334.031 80.7148C334.945 81.8008 335.402 83.3555 335.402 85.3789V86.2812H326.812C326.844 87.5312 327.207 88.543 327.902 89.3164C328.605 90.082 329.496 90.4648 330.574 90.4648C331.34 90.4648 331.988 90.3086 332.52 89.9961C333.051 89.6836 333.516 89.2695 333.914 88.7539L335.238 89.7852C334.176 91.418 332.582 92.2344 330.457 92.2344ZM330.188 80.8672C329.312 80.8672 328.578 81.1875 327.984 81.8281C327.391 82.4609 327.023 83.3516 326.883 84.5H333.234V84.3359C333.172 83.2344 332.875 82.3828 332.344 81.7812C331.812 81.1719 331.094 80.8672 330.188 80.8672ZM346.816 76.25V79.3203H349.184V80.9961H346.816V88.8594C346.816 89.3672 346.922 89.75 347.133 90.0078C347.344 90.2578 347.703 90.3828 348.211 90.3828C348.461 90.3828 348.805 90.3359 349.242 90.2422V92C348.672 92.1562 348.117 92.2344 347.578 92.2344C346.609 92.2344 345.879 91.9414 345.387 91.3555C344.895 90.7695 344.648 89.9375 344.648 88.8594V80.9961H342.34V79.3203H344.648V76.25H346.816ZM350.918 85.543C350.918 84.3008 351.16 83.1836 351.645 82.1914C352.137 81.1992 352.816 80.4336 353.684 79.8945C354.559 79.3555 355.555 79.0859 356.672 79.0859C358.398 79.0859 359.793 79.6836 360.855 80.8789C361.926 82.0742 362.461 83.6641 362.461 85.6484V85.8008C362.461 87.0352 362.223 88.1445 361.746 89.1289C361.277 90.1055 360.602 90.8672 359.719 91.4141C358.844 91.9609 357.836 92.2344 356.695 92.2344C354.977 92.2344 353.582 91.6367 352.512 90.4414C351.449 89.2461 350.918 87.6641 350.918 85.6953V85.543ZM353.098 85.8008C353.098 87.207 353.422 88.3359 354.07 89.1875C354.727 90.0391 355.602 90.4648 356.695 90.4648C357.797 90.4648 358.672 90.0352 359.32 89.1758C359.969 88.3086 360.293 87.0977 360.293 85.543C360.293 84.1523 359.961 83.0273 359.297 82.168C358.641 81.3008 357.766 80.8672 356.672 80.8672C355.602 80.8672 354.738 81.293 354.082 82.1445C353.426 82.9961 353.098 84.2148 353.098 85.8008ZM374.074 76.25V79.3203H376.441V80.9961H374.074V88.8594C374.074 89.3672 374.18 89.75 374.391 90.0078C374.602 90.2578 374.961 90.3828 375.469 90.3828C375.719 90.3828 376.062 90.3359 376.5 90.2422V92C375.93 92.1562 375.375 92.2344 374.836 92.2344C373.867 92.2344 373.137 91.9414 372.645 91.3555C372.152 90.7695 371.906 89.9375 371.906 88.8594V80.9961H369.598V79.3203H371.906V76.25H374.074ZM381.152 80.8555C382.113 79.6758 383.363 79.0859 384.902 79.0859C387.582 79.0859 388.934 80.5977 388.957 83.6211V92H386.789V83.6094C386.781 82.6953 386.57 82.0195 386.156 81.582C385.75 81.1445 385.113 80.9258 384.246 80.9258C383.543 80.9258 382.926 81.1133 382.395 81.4883C381.863 81.8633 381.449 82.3555 381.152 82.9648V92H378.984V74H381.152V80.8555ZM397.465 92.2344C395.746 92.2344 394.348 91.6719 393.27 90.5469C392.191 89.4141 391.652 87.9023 391.652 86.0117V85.6133C391.652 84.3555 391.891 83.2344 392.367 82.25C392.852 81.2578 393.523 80.4844 394.383 79.9297C395.25 79.3672 396.188 79.0859 397.195 79.0859C398.844 79.0859 400.125 79.6289 401.039 80.7148C401.953 81.8008 402.41 83.3555 402.41 85.3789V86.2812H393.82C393.852 87.5312 394.215 88.543 394.91 89.3164C395.613 90.082 396.504 90.4648 397.582 90.4648C398.348 90.4648 398.996 90.3086 399.527 89.9961C400.059 89.6836 400.523 89.2695 400.922 88.7539L402.246 89.7852C401.184 91.418 399.59 92.2344 397.465 92.2344ZM397.195 80.8672C396.32 80.8672 395.586 81.1875 394.992 81.8281C394.398 82.4609 394.031 83.3516 393.891 84.5H400.242V84.3359C400.18 83.2344 399.883 82.3828 399.352 81.7812C398.82 81.1719 398.102 80.8672 397.195 80.8672ZM413.238 92H411.07V74H413.238V92ZM421.98 92.2344C420.262 92.2344 418.863 91.6719 417.785 90.5469C416.707 89.4141 416.168 87.9023 416.168 86.0117V85.6133C416.168 84.3555 416.406 83.2344 416.883 82.25C417.367 81.2578 418.039 80.4844 418.898 79.9297C419.766 79.3672 420.703 79.0859 421.711 79.0859C423.359 79.0859 424.641 79.6289 425.555 80.7148C426.469 81.8008 426.926 83.3555 426.926 85.3789V86.2812H418.336C418.367 87.5312 418.73 88.543 419.426 89.3164C420.129 90.082 421.02 90.4648 422.098 90.4648C422.863 90.4648 423.512 90.3086 424.043 89.9961C424.574 89.6836 425.039 89.2695 425.438 88.7539L426.762 89.7852C425.699 91.418 424.105 92.2344 421.98 92.2344ZM421.711 80.8672C420.836 80.8672 420.102 81.1875 419.508 81.8281C418.914 82.4609 418.547 83.3516 418.406 84.5H424.758V84.3359C424.695 83.2344 424.398 82.3828 423.867 81.7812C423.336 81.1719 422.617 80.8672 421.711 80.8672ZM433.465 89.0586L436.605 79.3203H438.82L434.273 92H432.621L428.027 79.3203H430.242L433.465 89.0586ZM446.004 92.2344C444.285 92.2344 442.887 91.6719 441.809 90.5469C440.73 89.4141 440.191 87.9023 440.191 86.0117V85.6133C440.191 84.3555 440.43 83.2344 440.906 82.25C441.391 81.2578 442.062 80.4844 442.922 79.9297C443.789 79.3672 444.727 79.0859 445.734 79.0859C447.383 79.0859 448.664 79.6289 449.578 80.7148C450.492 81.8008 450.949 83.3555 450.949 85.3789V86.2812H442.359C442.391 87.5312 442.754 88.543 443.449 89.3164C444.152 90.082 445.043 90.4648 446.121 90.4648C446.887 90.4648 447.535 90.3086 448.066 89.9961C448.598 89.6836 449.062 89.2695 449.461 88.7539L450.785 89.7852C449.723 91.418 448.129 92.2344 446.004 92.2344ZM445.734 80.8672C444.859 80.8672 444.125 81.1875 443.531 81.8281C442.938 82.4609 442.57 83.3516 442.43 84.5H448.781V84.3359C448.719 83.2344 448.422 82.3828 447.891 81.7812C447.359 81.1719 446.641 80.8672 445.734 80.8672ZM455.824 92H453.656V74H455.824V92ZM464.684 85.543C464.684 84.3008 464.926 83.1836 465.41 82.1914C465.902 81.1992 466.582 80.4336 467.449 79.8945C468.324 79.3555 469.32 79.0859 470.438 79.0859C472.164 79.0859 473.559 79.6836 474.621 80.8789C475.691 82.0742 476.227 83.6641 476.227 85.6484V85.8008C476.227 87.0352 475.988 88.1445 475.512 89.1289C475.043 90.1055 474.367 90.8672 473.484 91.4141C472.609 91.9609 471.602 92.2344 470.461 92.2344C468.742 92.2344 467.348 91.6367 466.277 90.4414C465.215 89.2461 464.684 87.6641 464.684 85.6953V85.543ZM466.863 85.8008C466.863 87.207 467.188 88.3359 467.836 89.1875C468.492 90.0391 469.367 90.4648 470.461 90.4648C471.562 90.4648 472.438 90.0352 473.086 89.1758C473.734 88.3086 474.059 87.0977 474.059 85.543C474.059 84.1523 473.727 83.0273 473.062 82.168C472.406 81.3008 471.531 80.8672 470.438 80.8672C469.367 80.8672 468.504 81.293 467.848 82.1445C467.191 82.9961 466.863 84.2148 466.863 85.8008ZM480.012 92V80.9961H478.008V79.3203H480.012V78.0195C480.012 76.6602 480.375 75.6094 481.102 74.8672C481.828 74.125 482.855 73.7539 484.184 73.7539C484.684 73.7539 485.18 73.8203 485.672 73.9531L485.555 75.7109C485.188 75.6406 484.797 75.6055 484.383 75.6055C483.68 75.6055 483.137 75.8125 482.754 76.2266C482.371 76.6328 482.18 77.2188 482.18 77.9844V79.3203H484.887V80.9961H482.18V92H480.012ZM3.99609 127H1.82812V109H3.99609V127ZM15.3047 127C15.1797 126.75 15.0781 126.305 15 125.664C13.9922 126.711 12.7891 127.234 11.3906 127.234C10.1406 127.234 9.11328 126.883 8.30859 126.18C7.51172 125.469 7.11328 124.57 7.11328 123.484C7.11328 122.164 7.61328 121.141 8.61328 120.414C9.62109 119.68 11.0352 119.312 12.8555 119.312H14.9648V118.316C14.9648 117.559 14.7383 116.957 14.2852 116.512C13.832 116.059 13.1641 115.832 12.2812 115.832C11.5078 115.832 10.8594 116.027 10.3359 116.418C9.8125 116.809 9.55078 117.281 9.55078 117.836H7.37109C7.37109 117.203 7.59375 116.594 8.03906 116.008C8.49219 115.414 9.10156 114.945 9.86719 114.602C10.6406 114.258 11.4883 114.086 12.4102 114.086C13.8711 114.086 15.0156 114.453 15.8438 115.188C16.6719 115.914 17.1016 116.918 17.1328 118.199V124.035C17.1328 125.199 17.2812 126.125 17.5781 126.812V127H15.3047ZM11.707 125.348C12.3867 125.348 13.0312 125.172 13.6406 124.82C14.25 124.469 14.6914 124.012 14.9648 123.449V120.848H13.2656C10.6094 120.848 9.28125 121.625 9.28125 123.18C9.28125 123.859 9.50781 124.391 9.96094 124.773C10.4141 125.156 10.9961 125.348 11.707 125.348ZM31.2656 120.801C31.2656 122.738 30.8203 124.297 29.9297 125.477C29.0391 126.648 27.8438 127.234 26.3438 127.234C24.7422 127.234 23.5039 126.668 22.6289 125.535L22.5234 127H20.5312V109H22.6992V115.715C23.5742 114.629 24.7812 114.086 26.3203 114.086C27.8594 114.086 29.0664 114.668 29.9414 115.832C30.8242 116.996 31.2656 118.59 31.2656 120.613V120.801ZM29.0977 120.555C29.0977 119.078 28.8125 117.938 28.2422 117.133C27.6719 116.328 26.8516 115.926 25.7812 115.926C24.3516 115.926 23.3242 116.59 22.6992 117.918V123.402C23.3633 124.73 24.3984 125.395 25.8047 125.395C26.8438 125.395 27.6523 124.992 28.2305 124.188C28.8086 123.383 29.0977 122.172 29.0977 120.555ZM33.4336 120.543C33.4336 119.301 33.6758 118.184 34.1602 117.191C34.6523 116.199 35.332 115.434 36.1992 114.895C37.0742 114.355 38.0703 114.086 39.1875 114.086C40.9141 114.086 42.3086 114.684 43.3711 115.879C44.4414 117.074 44.9766 118.664 44.9766 120.648V120.801C44.9766 122.035 44.7383 123.145 44.2617 124.129C43.793 125.105 43.1172 125.867 42.2344 126.414C41.3594 126.961 40.3516 127.234 39.2109 127.234C37.4922 127.234 36.0977 126.637 35.0273 125.441C33.9648 124.246 33.4336 122.664 33.4336 120.695V120.543ZM35.6133 120.801C35.6133 122.207 35.9375 123.336 36.5859 124.188C37.2422 125.039 38.1172 125.465 39.2109 125.465C40.3125 125.465 41.1875 125.035 41.8359 124.176C42.4844 123.309 42.8086 122.098 42.8086 120.543C42.8086 119.152 42.4766 118.027 41.8125 117.168C41.1562 116.301 40.2812 115.867 39.1875 115.867C38.1172 115.867 37.2539 116.293 36.5977 117.145C35.9414 117.996 35.6133 119.215 35.6133 120.801ZM53.8242 116.266C53.4961 116.211 53.1406 116.184 52.7578 116.184C51.3359 116.184 50.3711 116.789 49.8633 118V127H47.6953V114.32H49.8047L49.8398 115.785C50.5508 114.652 51.5586 114.086 52.8633 114.086C53.2852 114.086 53.6055 114.141 53.8242 114.25V116.266ZM64.7227 111.25V114.32H67.0898V115.996H64.7227V123.859C64.7227 124.367 64.8281 124.75 65.0391 125.008C65.25 125.258 65.6094 125.383 66.1172 125.383C66.3672 125.383 66.7109 125.336 67.1484 125.242V127C66.5781 127.156 66.0234 127.234 65.4844 127.234C64.5156 127.234 63.7852 126.941 63.293 126.355C62.8008 125.77 62.5547 124.938 62.5547 123.859V115.996H60.2461V114.32H62.5547V111.25H64.7227ZM75.7617 116.266C75.4336 116.211 75.0781 116.184 74.6953 116.184C73.2734 116.184 72.3086 116.789 71.8008 118V127H69.6328V114.32H71.7422L71.7773 115.785C72.4883 114.652 73.4961 114.086 74.8008 114.086C75.2227 114.086 75.543 114.141 75.7617 114.25V116.266ZM85.125 127C85 126.75 84.8984 126.305 84.8203 125.664C83.8125 126.711 82.6094 127.234 81.2109 127.234C79.9609 127.234 78.9336 126.883 78.1289 126.18C77.332 125.469 76.9336 124.57 76.9336 123.484C76.9336 122.164 77.4336 121.141 78.4336 120.414C79.4414 119.68 80.8555 119.312 82.6758 119.312H84.7852V118.316C84.7852 117.559 84.5586 116.957 84.1055 116.512C83.6523 116.059 82.9844 115.832 82.1016 115.832C81.3281 115.832 80.6797 116.027 80.1562 116.418C79.6328 116.809 79.3711 117.281 79.3711 117.836H77.1914C77.1914 117.203 77.4141 116.594 77.8594 116.008C78.3125 115.414 78.9219 114.945 79.6875 114.602C80.4609 114.258 81.3086 114.086 82.2305 114.086C83.6914 114.086 84.8359 114.453 85.6641 115.188C86.4922 115.914 86.9219 116.918 86.9531 118.199V124.035C86.9531 125.199 87.1016 126.125 87.3984 126.812V127H85.125ZM81.5273 125.348C82.207 125.348 82.8516 125.172 83.4609 124.82C84.0703 124.469 84.5117 124.012 84.7852 123.449V120.848H83.0859C80.4297 120.848 79.1016 121.625 79.1016 123.18C79.1016 123.859 79.3281 124.391 79.7812 124.773C80.2344 125.156 80.8164 125.348 81.5273 125.348ZM91.418 127V115.996H89.4141V114.32H91.418V113.02C91.418 111.66 91.7812 110.609 92.5078 109.867C93.2344 109.125 94.2617 108.754 95.5898 108.754C96.0898 108.754 96.5859 108.82 97.0781 108.953L96.9609 110.711C96.5938 110.641 96.2031 110.605 95.7891 110.605C95.0859 110.605 94.543 110.812 94.1602 111.227C93.7773 111.633 93.5859 112.219 93.5859 112.984V114.32H98.2734V113.242C98.2734 111.828 98.6758 110.727 99.4805 109.938C100.293 109.148 101.438 108.754 102.914 108.754C103.789 108.754 104.895 108.992 106.23 109.469L105.867 111.297C104.891 110.906 103.957 110.711 103.066 110.711C102.137 110.711 101.465 110.918 101.051 111.332C100.645 111.746 100.441 112.375 100.441 113.219V114.32H103.043V115.996H100.441V127H98.2734V115.996H93.5859V127H91.418ZM107.297 127H105.129V114.32H107.297V127ZM115.922 125.465C116.695 125.465 117.371 125.23 117.949 124.762C118.527 124.293 118.848 123.707 118.91 123.004H120.961C120.922 123.73 120.672 124.422 120.211 125.078C119.75 125.734 119.133 126.258 118.359 126.648C117.594 127.039 116.781 127.234 115.922 127.234C114.195 127.234 112.82 126.66 111.797 125.512C110.781 124.355 110.273 122.777 110.273 120.777V120.414C110.273 119.18 110.5 118.082 110.953 117.121C111.406 116.16 112.055 115.414 112.898 114.883C113.75 114.352 114.754 114.086 115.91 114.086C117.332 114.086 118.512 114.512 119.449 115.363C120.395 116.215 120.898 117.32 120.961 118.68H118.91C118.848 117.859 118.535 117.188 117.973 116.664C117.418 116.133 116.73 115.867 115.91 115.867C114.809 115.867 113.953 116.266 113.344 117.062C112.742 117.852 112.441 118.996 112.441 120.496V120.906C112.441 122.367 112.742 123.492 113.344 124.281C113.945 125.07 114.805 125.465 115.922 125.465ZM126.938 121.129L125.578 122.547V127H123.41V109H125.578V119.887L126.738 118.492L130.688 114.32H133.324L128.391 119.617L133.898 127H131.355L126.938 121.129ZM137.918 127H135.75V114.32H137.918V127ZM135.574 110.957C135.574 110.605 135.68 110.309 135.891 110.066C136.109 109.824 136.43 109.703 136.852 109.703C137.273 109.703 137.594 109.824 137.812 110.066C138.031 110.309 138.141 110.605 138.141 110.957C138.141 111.309 138.031 111.602 137.812 111.836C137.594 112.07 137.273 112.188 136.852 112.188C136.43 112.188 136.109 112.07 135.891 111.836C135.68 111.602 135.574 111.309 135.574 110.957ZM143.449 114.32L143.52 115.914C144.488 114.695 145.754 114.086 147.316 114.086C149.996 114.086 151.348 115.598 151.371 118.621V127H149.203V118.609C149.195 117.695 148.984 117.02 148.57 116.582C148.164 116.145 147.527 115.926 146.66 115.926C145.957 115.926 145.34 116.113 144.809 116.488C144.277 116.863 143.863 117.355 143.566 117.965V127H141.398V114.32H143.449ZM154.125 120.555C154.125 118.578 154.582 117.008 155.496 115.844C156.41 114.672 157.621 114.086 159.129 114.086C160.676 114.086 161.883 114.633 162.75 115.727L162.855 114.32H164.836V126.695C164.836 128.336 164.348 129.629 163.371 130.574C162.402 131.52 161.098 131.992 159.457 131.992C158.543 131.992 157.648 131.797 156.773 131.406C155.898 131.016 155.23 130.48 154.77 129.801L155.895 128.5C156.824 129.648 157.961 130.223 159.305 130.223C160.359 130.223 161.18 129.926 161.766 129.332C162.359 128.738 162.656 127.902 162.656 126.824V125.734C161.789 126.734 160.605 127.234 159.105 127.234C157.621 127.234 156.418 126.637 155.496 125.441C154.582 124.246 154.125 122.617 154.125 120.555ZM156.305 120.801C156.305 122.23 156.598 123.355 157.184 124.176C157.77 124.988 158.59 125.395 159.645 125.395C161.012 125.395 162.016 124.773 162.656 123.531V117.742C161.992 116.531 160.996 115.926 159.668 115.926C158.613 115.926 157.789 116.336 157.195 117.156C156.602 117.977 156.305 119.191 156.305 120.801ZM181.898 125.746C181.055 126.738 179.816 127.234 178.184 127.234C176.832 127.234 175.801 126.844 175.09 126.062C174.387 125.273 174.031 124.109 174.023 122.57V114.32H176.191V122.512C176.191 124.434 176.973 125.395 178.535 125.395C180.191 125.395 181.293 124.777 181.84 123.543V114.32H184.008V127H181.945L181.898 125.746ZM189.363 114.32L189.434 115.914C190.402 114.695 191.668 114.086 193.23 114.086C195.91 114.086 197.262 115.598 197.285 118.621V127H195.117V118.609C195.109 117.695 194.898 117.02 194.484 116.582C194.078 116.145 193.441 115.926 192.574 115.926C191.871 115.926 191.254 116.113 190.723 116.488C190.191 116.863 189.777 117.355 189.48 117.965V127H187.312V114.32H189.363ZM200.027 120.555C200.027 118.609 200.488 117.047 201.41 115.867C202.332 114.68 203.539 114.086 205.031 114.086C206.516 114.086 207.691 114.594 208.559 115.609V109H210.727V127H208.734L208.629 125.641C207.762 126.703 206.555 127.234 205.008 127.234C203.539 127.234 202.34 126.633 201.41 125.43C200.488 124.227 200.027 122.656 200.027 120.719V120.555ZM202.195 120.801C202.195 122.238 202.492 123.363 203.086 124.176C203.68 124.988 204.5 125.395 205.547 125.395C206.922 125.395 207.926 124.777 208.559 123.543V117.719C207.91 116.523 206.914 115.926 205.57 115.926C204.508 115.926 203.68 116.336 203.086 117.156C202.492 117.977 202.195 119.191 202.195 120.801ZM219.363 127.234C217.645 127.234 216.246 126.672 215.168 125.547C214.09 124.414 213.551 122.902 213.551 121.012V120.613C213.551 119.355 213.789 118.234 214.266 117.25C214.75 116.258 215.422 115.484 216.281 114.93C217.148 114.367 218.086 114.086 219.094 114.086C220.742 114.086 222.023 114.629 222.938 115.715C223.852 116.801 224.309 118.355 224.309 120.379V121.281H215.719C215.75 122.531 216.113 123.543 216.809 124.316C217.512 125.082 218.402 125.465 219.48 125.465C220.246 125.465 220.895 125.309 221.426 124.996C221.957 124.684 222.422 124.27 222.82 123.754L224.145 124.785C223.082 126.418 221.488 127.234 219.363 127.234ZM219.094 115.867C218.219 115.867 217.484 116.188 216.891 116.828C216.297 117.461 215.93 118.352 215.789 119.5H222.141V119.336C222.078 118.234 221.781 117.383 221.25 116.781C220.719 116.172 220 115.867 219.094 115.867ZM232.957 116.266C232.629 116.211 232.273 116.184 231.891 116.184C230.469 116.184 229.504 116.789 228.996 118V127H226.828V114.32H228.938L228.973 115.785C229.684 114.652 230.691 114.086 231.996 114.086C232.418 114.086 232.738 114.141 232.957 114.25V116.266ZM244.16 109.938L249.738 123.859L255.316 109.938H258.234V127H255.984V120.355L256.195 113.184L250.594 127H248.871L243.281 113.219L243.504 120.355V127H241.254V109.938H244.16ZM269.695 127C269.57 126.75 269.469 126.305 269.391 125.664C268.383 126.711 267.18 127.234 265.781 127.234C264.531 127.234 263.504 126.883 262.699 126.18C261.902 125.469 261.504 124.57 261.504 123.484C261.504 122.164 262.004 121.141 263.004 120.414C264.012 119.68 265.426 119.312 267.246 119.312H269.355V118.316C269.355 117.559 269.129 116.957 268.676 116.512C268.223 116.059 267.555 115.832 266.672 115.832C265.898 115.832 265.25 116.027 264.727 116.418C264.203 116.809 263.941 117.281 263.941 117.836H261.762C261.762 117.203 261.984 116.594 262.43 116.008C262.883 115.414 263.492 114.945 264.258 114.602C265.031 114.258 265.879 114.086 266.801 114.086C268.262 114.086 269.406 114.453 270.234 115.188C271.062 115.914 271.492 116.918 271.523 118.199V124.035C271.523 125.199 271.672 126.125 271.969 126.812V127H269.695ZM266.098 125.348C266.777 125.348 267.422 125.172 268.031 124.82C268.641 124.469 269.082 124.012 269.355 123.449V120.848H267.656C265 120.848 263.672 121.625 263.672 123.18C263.672 123.859 263.898 124.391 264.352 124.773C264.805 125.156 265.387 125.348 266.098 125.348ZM282.305 123.637C282.305 123.051 282.082 122.598 281.637 122.277C281.199 121.949 280.43 121.668 279.328 121.434C278.234 121.199 277.363 120.918 276.715 120.59C276.074 120.262 275.598 119.871 275.285 119.418C274.98 118.965 274.828 118.426 274.828 117.801C274.828 116.762 275.266 115.883 276.141 115.164C277.023 114.445 278.148 114.086 279.516 114.086C280.953 114.086 282.117 114.457 283.008 115.199C283.906 115.941 284.355 116.891 284.355 118.047H282.176C282.176 117.453 281.922 116.941 281.414 116.512C280.914 116.082 280.281 115.867 279.516 115.867C278.727 115.867 278.109 116.039 277.664 116.383C277.219 116.727 276.996 117.176 276.996 117.73C276.996 118.254 277.203 118.648 277.617 118.914C278.031 119.18 278.777 119.434 279.855 119.676C280.941 119.918 281.82 120.207 282.492 120.543C283.164 120.879 283.66 121.285 283.98 121.762C284.309 122.23 284.473 122.805 284.473 123.484C284.473 124.617 284.02 125.527 283.113 126.215C282.207 126.895 281.031 127.234 279.586 127.234C278.57 127.234 277.672 127.055 276.891 126.695C276.109 126.336 275.496 125.836 275.051 125.195C274.613 124.547 274.395 123.848 274.395 123.098H276.562C276.602 123.824 276.891 124.402 277.43 124.832C277.977 125.254 278.695 125.465 279.586 125.465C280.406 125.465 281.062 125.301 281.555 124.973C282.055 124.637 282.305 124.191 282.305 123.637ZM294.68 123.637C294.68 123.051 294.457 122.598 294.012 122.277C293.574 121.949 292.805 121.668 291.703 121.434C290.609 121.199 289.738 120.918 289.09 120.59C288.449 120.262 287.973 119.871 287.66 119.418C287.355 118.965 287.203 118.426 287.203 117.801C287.203 116.762 287.641 115.883 288.516 115.164C289.398 114.445 290.523 114.086 291.891 114.086C293.328 114.086 294.492 114.457 295.383 115.199C296.281 115.941 296.73 116.891 296.73 118.047H294.551C294.551 117.453 294.297 116.941 293.789 116.512C293.289 116.082 292.656 115.867 291.891 115.867C291.102 115.867 290.484 116.039 290.039 116.383C289.594 116.727 289.371 117.176 289.371 117.73C289.371 118.254 289.578 118.648 289.992 118.914C290.406 119.18 291.152 119.434 292.23 119.676C293.316 119.918 294.195 120.207 294.867 120.543C295.539 120.879 296.035 121.285 296.355 121.762C296.684 122.23 296.848 122.805 296.848 123.484C296.848 124.617 296.395 125.527 295.488 126.215C294.582 126.895 293.406 127.234 291.961 127.234C290.945 127.234 290.047 127.055 289.266 126.695C288.484 126.336 287.871 125.836 287.426 125.195C286.988 124.547 286.77 123.848 286.77 123.098H288.938C288.977 123.824 289.266 124.402 289.805 124.832C290.352 125.254 291.07 125.465 291.961 125.465C292.781 125.465 293.438 125.301 293.93 124.973C294.43 124.637 294.68 124.191 294.68 123.637ZM307.5 127C307.375 126.75 307.273 126.305 307.195 125.664C306.188 126.711 304.984 127.234 303.586 127.234C302.336 127.234 301.309 126.883 300.504 126.18C299.707 125.469 299.309 124.57 299.309 123.484C299.309 122.164 299.809 121.141 300.809 120.414C301.816 119.68 303.23 119.312 305.051 119.312H307.16V118.316C307.16 117.559 306.934 116.957 306.48 116.512C306.027 116.059 305.359 115.832 304.477 115.832C303.703 115.832 303.055 116.027 302.531 116.418C302.008 116.809 301.746 117.281 301.746 117.836H299.566C299.566 117.203 299.789 116.594 300.234 116.008C300.688 115.414 301.297 114.945 302.062 114.602C302.836 114.258 303.684 114.086 304.605 114.086C306.066 114.086 307.211 114.453 308.039 115.188C308.867 115.914 309.297 116.918 309.328 118.199V124.035C309.328 125.199 309.477 126.125 309.773 126.812V127H307.5ZM303.902 125.348C304.582 125.348 305.227 125.172 305.836 124.82C306.445 124.469 306.887 124.012 307.16 123.449V120.848H305.461C302.805 120.848 301.477 121.625 301.477 123.18C301.477 123.859 301.703 124.391 302.156 124.773C302.609 125.156 303.191 125.348 303.902 125.348ZM317.812 125.465C318.586 125.465 319.262 125.23 319.84 124.762C320.418 124.293 320.738 123.707 320.801 123.004H322.852C322.812 123.73 322.562 124.422 322.102 125.078C321.641 125.734 321.023 126.258 320.25 126.648C319.484 127.039 318.672 127.234 317.812 127.234C316.086 127.234 314.711 126.66 313.688 125.512C312.672 124.355 312.164 122.777 312.164 120.777V120.414C312.164 119.18 312.391 118.082 312.844 117.121C313.297 116.16 313.945 115.414 314.789 114.883C315.641 114.352 316.645 114.086 317.801 114.086C319.223 114.086 320.402 114.512 321.34 115.363C322.285 116.215 322.789 117.32 322.852 118.68H320.801C320.738 117.859 320.426 117.188 319.863 116.664C319.309 116.133 318.621 115.867 317.801 115.867C316.699 115.867 315.844 116.266 315.234 117.062C314.633 117.852 314.332 118.996 314.332 120.496V120.906C314.332 122.367 314.633 123.492 315.234 124.281C315.836 125.07 316.695 125.465 317.812 125.465ZM327.457 115.855C328.418 114.676 329.668 114.086 331.207 114.086C333.887 114.086 335.238 115.598 335.262 118.621V127H333.094V118.609C333.086 117.695 332.875 117.02 332.461 116.582C332.055 116.145 331.418 115.926 330.551 115.926C329.848 115.926 329.23 116.113 328.699 116.488C328.168 116.863 327.754 117.355 327.457 117.965V127H325.289V109H327.457V115.855ZM346.336 125.746C345.492 126.738 344.254 127.234 342.621 127.234C341.27 127.234 340.238 126.844 339.527 126.062C338.824 125.273 338.469 124.109 338.461 122.57V114.32H340.629V122.512C340.629 124.434 341.41 125.395 342.973 125.395C344.629 125.395 345.73 124.777 346.277 123.543V114.32H348.445V127H346.383L346.336 125.746ZM359.133 123.637C359.133 123.051 358.91 122.598 358.465 122.277C358.027 121.949 357.258 121.668 356.156 121.434C355.062 121.199 354.191 120.918 353.543 120.59C352.902 120.262 352.426 119.871 352.113 119.418C351.809 118.965 351.656 118.426 351.656 117.801C351.656 116.762 352.094 115.883 352.969 115.164C353.852 114.445 354.977 114.086 356.344 114.086C357.781 114.086 358.945 114.457 359.836 115.199C360.734 115.941 361.184 116.891 361.184 118.047H359.004C359.004 117.453 358.75 116.941 358.242 116.512C357.742 116.082 357.109 115.867 356.344 115.867C355.555 115.867 354.938 116.039 354.492 116.383C354.047 116.727 353.824 117.176 353.824 117.73C353.824 118.254 354.031 118.648 354.445 118.914C354.859 119.18 355.605 119.434 356.684 119.676C357.77 119.918 358.648 120.207 359.32 120.543C359.992 120.879 360.488 121.285 360.809 121.762C361.137 122.23 361.301 122.805 361.301 123.484C361.301 124.617 360.848 125.527 359.941 126.215C359.035 126.895 357.859 127.234 356.414 127.234C355.398 127.234 354.5 127.055 353.719 126.695C352.938 126.336 352.324 125.836 351.879 125.195C351.441 124.547 351.223 123.848 351.223 123.098H353.391C353.43 123.824 353.719 124.402 354.258 124.832C354.805 125.254 355.523 125.465 356.414 125.465C357.234 125.465 357.891 125.301 358.383 124.973C358.883 124.637 359.133 124.191 359.133 123.637ZM369.387 127.234C367.668 127.234 366.27 126.672 365.191 125.547C364.113 124.414 363.574 122.902 363.574 121.012V120.613C363.574 119.355 363.812 118.234 364.289 117.25C364.773 116.258 365.445 115.484 366.305 114.93C367.172 114.367 368.109 114.086 369.117 114.086C370.766 114.086 372.047 114.629 372.961 115.715C373.875 116.801 374.332 118.355 374.332 120.379V121.281H365.742C365.773 122.531 366.137 123.543 366.832 124.316C367.535 125.082 368.426 125.465 369.504 125.465C370.27 125.465 370.918 125.309 371.449 124.996C371.98 124.684 372.445 124.27 372.844 123.754L374.168 124.785C373.105 126.418 371.512 127.234 369.387 127.234ZM369.117 115.867C368.242 115.867 367.508 116.188 366.914 116.828C366.32 117.461 365.953 118.352 365.812 119.5H372.164V119.336C372.102 118.234 371.805 117.383 371.273 116.781C370.742 116.172 370.023 115.867 369.117 115.867ZM379.793 111.25V114.32H382.16V115.996H379.793V123.859C379.793 124.367 379.898 124.75 380.109 125.008C380.32 125.258 380.68 125.383 381.188 125.383C381.438 125.383 381.781 125.336 382.219 125.242V127C381.648 127.156 381.094 127.234 380.555 127.234C379.586 127.234 378.855 126.941 378.363 126.355C377.871 125.77 377.625 124.938 377.625 123.859V115.996H375.316V114.32H377.625V111.25H379.793ZM387.645 111.25V114.32H390.012V115.996H387.645V123.859C387.645 124.367 387.75 124.75 387.961 125.008C388.172 125.258 388.531 125.383 389.039 125.383C389.289 125.383 389.633 125.336 390.07 125.242V127C389.5 127.156 388.945 127.234 388.406 127.234C387.438 127.234 386.707 126.941 386.215 126.355C385.723 125.77 385.477 124.938 385.477 123.859V115.996H383.168V114.32H385.477V111.25H387.645ZM399.938 123.637C399.938 123.051 399.715 122.598 399.27 122.277C398.832 121.949 398.062 121.668 396.961 121.434C395.867 121.199 394.996 120.918 394.348 120.59C393.707 120.262 393.23 119.871 392.918 119.418C392.613 118.965 392.461 118.426 392.461 117.801C392.461 116.762 392.898 115.883 393.773 115.164C394.656 114.445 395.781 114.086 397.148 114.086C398.586 114.086 399.75 114.457 400.641 115.199C401.539 115.941 401.988 116.891 401.988 118.047H399.809C399.809 117.453 399.555 116.941 399.047 116.512C398.547 116.082 397.914 115.867 397.148 115.867C396.359 115.867 395.742 116.039 395.297 116.383C394.852 116.727 394.629 117.176 394.629 117.73C394.629 118.254 394.836 118.648 395.25 118.914C395.664 119.18 396.41 119.434 397.488 119.676C398.574 119.918 399.453 120.207 400.125 120.543C400.797 120.879 401.293 121.285 401.613 121.762C401.941 122.23 402.105 122.805 402.105 123.484C402.105 124.617 401.652 125.527 400.746 126.215C399.84 126.895 398.664 127.234 397.219 127.234C396.203 127.234 395.305 127.055 394.523 126.695C393.742 126.336 393.129 125.836 392.684 125.195C392.246 124.547 392.027 123.848 392.027 123.098H394.195C394.234 123.824 394.523 124.402 395.062 124.832C395.609 125.254 396.328 125.465 397.219 125.465C398.039 125.465 398.695 125.301 399.188 124.973C399.688 124.637 399.938 124.191 399.938 123.637ZM413.238 127H411.07V109H413.238V127ZM424.547 127C424.422 126.75 424.32 126.305 424.242 125.664C423.234 126.711 422.031 127.234 420.633 127.234C419.383 127.234 418.355 126.883 417.551 126.18C416.754 125.469 416.355 124.57 416.355 123.484C416.355 122.164 416.855 121.141 417.855 120.414C418.863 119.68 420.277 119.312 422.098 119.312H424.207V118.316C424.207 117.559 423.98 116.957 423.527 116.512C423.074 116.059 422.406 115.832 421.523 115.832C420.75 115.832 420.102 116.027 419.578 116.418C419.055 116.809 418.793 117.281 418.793 117.836H416.613C416.613 117.203 416.836 116.594 417.281 116.008C417.734 115.414 418.344 114.945 419.109 114.602C419.883 114.258 420.73 114.086 421.652 114.086C423.113 114.086 424.258 114.453 425.086 115.188C425.914 115.914 426.344 116.918 426.375 118.199V124.035C426.375 125.199 426.523 126.125 426.82 126.812V127H424.547ZM420.949 125.348C421.629 125.348 422.273 125.172 422.883 124.82C423.492 124.469 423.934 124.012 424.207 123.449V120.848H422.508C419.852 120.848 418.523 121.625 418.523 123.18C418.523 123.859 418.75 124.391 419.203 124.773C419.656 125.156 420.238 125.348 420.949 125.348ZM441 124.012L443.438 114.32H445.605L441.914 127H440.156L437.074 117.391L434.074 127H432.316L428.637 114.32H430.793L433.289 123.812L436.242 114.32H437.988L441 124.012ZM446.414 125.863C446.414 125.488 446.523 125.176 446.742 124.926C446.969 124.676 447.305 124.551 447.75 124.551C448.195 124.551 448.531 124.676 448.758 124.926C448.992 125.176 449.109 125.488 449.109 125.863C449.109 126.223 448.992 126.523 448.758 126.766C448.531 127.008 448.195 127.129 447.75 127.129C447.305 127.129 446.969 127.008 446.742 126.766C446.523 126.523 446.414 126.223 446.414 125.863Z" fill="white" fill-opacity="0.8"/>
<line y1="4" x2="150" y2="4" stroke="#F4C346" stroke-width="8"/>
</svg>
