<svg width="511" height="243" viewBox="0 0 511 243" fill="none" xmlns="http://www.w3.org/2000/svg">
<path d="M14.2383 130.098H10.2305V137H7.96875V119.938H13.6172C15.5391 119.938 17.0156 120.375 18.0469 121.25C19.0859 122.125 19.6055 123.398 19.6055 125.07C19.6055 126.133 19.3164 127.059 18.7383 127.848C18.168 128.637 17.3711 129.227 16.3477 129.617L20.3555 136.859V137H17.9414L14.2383 130.098ZM10.2305 128.258H13.6875C14.8047 128.258 15.6914 127.969 16.3477 127.391C17.0117 126.812 17.3438 126.039 17.3438 125.07C17.3438 124.016 17.0273 123.207 16.3945 122.645C15.7695 122.082 14.8633 121.797 13.6758 121.789H10.2305V128.258ZM27.6914 137.234C25.9727 137.234 24.5742 136.672 23.4961 135.547C22.418 134.414 21.8789 132.902 21.8789 131.012V130.613C21.8789 129.355 22.1172 128.234 22.5938 127.25C23.0781 126.258 23.75 125.484 24.6094 124.93C25.4766 124.367 26.4141 124.086 27.4219 124.086C29.0703 124.086 30.3516 124.629 31.2656 125.715C32.1797 126.801 32.6367 128.355 32.6367 130.379V131.281H24.0469C24.0781 132.531 24.4414 133.543 25.1367 134.316C25.8398 135.082 26.7305 135.465 27.8086 135.465C28.5742 135.465 29.2227 135.309 29.7539 134.996C30.2852 134.684 30.75 134.27 31.1484 133.754L32.4727 134.785C31.4102 136.418 29.8164 137.234 27.6914 137.234ZM27.4219 125.867C26.5469 125.867 25.8125 126.188 25.2188 126.828C24.625 127.461 24.2578 128.352 24.1172 129.5H30.4688V129.336C30.4062 128.234 30.1094 127.383 29.5781 126.781C29.0469 126.172 28.3281 125.867 27.4219 125.867ZM40.2422 135.465C41.0156 135.465 41.6914 135.23 42.2695 134.762C42.8477 134.293 43.168 133.707 43.2305 133.004H45.2812C45.2422 133.73 44.9922 134.422 44.5312 135.078C44.0703 135.734 43.4531 136.258 42.6797 136.648C41.9141 137.039 41.1016 137.234 40.2422 137.234C38.5156 137.234 37.1406 136.66 36.1172 135.512C35.1016 134.355 34.5938 132.777 34.5938 130.777V130.414C34.5938 129.18 34.8203 128.082 35.2734 127.121C35.7266 126.16 36.375 125.414 37.2188 124.883C38.0703 124.352 39.0742 124.086 40.2305 124.086C41.6523 124.086 42.832 124.512 43.7695 125.363C44.7148 126.215 45.2188 127.32 45.2812 128.68H43.2305C43.168 127.859 42.8555 127.188 42.293 126.664C41.7383 126.133 41.0508 125.867 40.2305 125.867C39.1289 125.867 38.2734 126.266 37.6641 127.062C37.0625 127.852 36.7617 128.996 36.7617 130.496V130.906C36.7617 132.367 37.0625 133.492 37.6641 134.281C38.2656 135.07 39.125 135.465 40.2422 135.465ZM47.1445 130.543C47.1445 129.301 47.3867 128.184 47.8711 127.191C48.3633 126.199 49.043 125.434 49.9102 124.895C50.7852 124.355 51.7812 124.086 52.8984 124.086C54.625 124.086 56.0195 124.684 57.082 125.879C58.1523 127.074 58.6875 128.664 58.6875 130.648V130.801C58.6875 132.035 58.4492 133.145 57.9727 134.129C57.5039 135.105 56.8281 135.867 55.9453 136.414C55.0703 136.961 54.0625 137.234 52.9219 137.234C51.2031 137.234 49.8086 136.637 48.7383 135.441C47.6758 134.246 47.1445 132.664 47.1445 130.695V130.543ZM49.3242 130.801C49.3242 132.207 49.6484 133.336 50.2969 134.188C50.9531 135.039 51.8281 135.465 52.9219 135.465C54.0234 135.465 54.8984 135.035 55.5469 134.176C56.1953 133.309 56.5195 132.098 56.5195 130.543C56.5195 129.152 56.1875 128.027 55.5234 127.168C54.8672 126.301 53.9922 125.867 52.8984 125.867C51.8281 125.867 50.9648 126.293 50.3086 127.145C49.6523 127.996 49.3242 129.215 49.3242 130.801ZM60.8906 130.555C60.8906 128.578 61.3477 127.008 62.2617 125.844C63.1758 124.672 64.3867 124.086 65.8945 124.086C67.4414 124.086 68.6484 124.633 69.5156 125.727L69.6211 124.32H71.6016V136.695C71.6016 138.336 71.1133 139.629 70.1367 140.574C69.168 141.52 67.8633 141.992 66.2227 141.992C65.3086 141.992 64.4141 141.797 63.5391 141.406C62.6641 141.016 61.9961 140.48 61.5352 139.801L62.6602 138.5C63.5898 139.648 64.7266 140.223 66.0703 140.223C67.125 140.223 67.9453 139.926 68.5312 139.332C69.125 138.738 69.4219 137.902 69.4219 136.824V135.734C68.5547 136.734 67.3711 137.234 65.8711 137.234C64.3867 137.234 63.1836 136.637 62.2617 135.441C61.3477 134.246 60.8906 132.617 60.8906 130.555ZM63.0703 130.801C63.0703 132.23 63.3633 133.355 63.9492 134.176C64.5352 134.988 65.3555 135.395 66.4102 135.395C67.7773 135.395 68.7812 134.773 69.4219 133.531V127.742C68.7578 126.531 67.7617 125.926 66.4336 125.926C65.3789 125.926 64.5547 126.336 63.9609 127.156C63.3672 127.977 63.0703 129.191 63.0703 130.801ZM76.9336 124.32L77.0039 125.914C77.9727 124.695 79.2383 124.086 80.8008 124.086C83.4805 124.086 84.832 125.598 84.8555 128.621V137H82.6875V128.609C82.6797 127.695 82.4688 127.02 82.0547 126.582C81.6484 126.145 81.0117 125.926 80.1445 125.926C79.4414 125.926 78.8242 126.113 78.293 126.488C77.7617 126.863 77.3477 127.355 77.0508 127.965V137H74.8828V124.32H76.9336ZM90.4805 137H88.3125V124.32H90.4805V137ZM88.1367 120.957C88.1367 120.605 88.2422 120.309 88.4531 120.066C88.6719 119.824 88.9922 119.703 89.4141 119.703C89.8359 119.703 90.1562 119.824 90.375 120.066C90.5938 120.309 90.7031 120.605 90.7031 120.957C90.7031 121.309 90.5938 121.602 90.375 121.836C90.1562 122.07 89.8359 122.188 89.4141 122.188C88.9922 122.188 88.6719 122.07 88.4531 121.836C88.2422 121.602 88.1367 121.309 88.1367 120.957ZM96 135.23H103.418V137H93.3516V135.406L100.348 126.113H93.457V124.32H103.066V125.855L96 135.23ZM110.941 137.234C109.223 137.234 107.824 136.672 106.746 135.547C105.668 134.414 105.129 132.902 105.129 131.012V130.613C105.129 129.355 105.367 128.234 105.844 127.25C106.328 126.258 107 125.484 107.859 124.93C108.727 124.367 109.664 124.086 110.672 124.086C112.32 124.086 113.602 124.629 114.516 125.715C115.43 126.801 115.887 128.355 115.887 130.379V131.281H107.297C107.328 132.531 107.691 133.543 108.387 134.316C109.09 135.082 109.98 135.465 111.059 135.465C111.824 135.465 112.473 135.309 113.004 134.996C113.535 134.684 114 134.27 114.398 133.754L115.723 134.785C114.66 136.418 113.066 137.234 110.941 137.234ZM110.672 125.867C109.797 125.867 109.062 126.188 108.469 126.828C107.875 127.461 107.508 128.352 107.367 129.5H113.719V129.336C113.656 128.234 113.359 127.383 112.828 126.781C112.297 126.172 111.578 125.867 110.672 125.867ZM132.188 137C132.062 136.75 131.961 136.305 131.883 135.664C130.875 136.711 129.672 137.234 128.273 137.234C127.023 137.234 125.996 136.883 125.191 136.18C124.395 135.469 123.996 134.57 123.996 133.484C123.996 132.164 124.496 131.141 125.496 130.414C126.504 129.68 127.918 129.312 129.738 129.312H131.848V128.316C131.848 127.559 131.621 126.957 131.168 126.512C130.715 126.059 130.047 125.832 129.164 125.832C128.391 125.832 127.742 126.027 127.219 126.418C126.695 126.809 126.434 127.281 126.434 127.836H124.254C124.254 127.203 124.477 126.594 124.922 126.008C125.375 125.414 125.984 124.945 126.75 124.602C127.523 124.258 128.371 124.086 129.293 124.086C130.754 124.086 131.898 124.453 132.727 125.188C133.555 125.914 133.984 126.918 134.016 128.199V134.035C134.016 135.199 134.164 136.125 134.461 136.812V137H132.188ZM128.59 135.348C129.27 135.348 129.914 135.172 130.523 134.82C131.133 134.469 131.574 134.012 131.848 133.449V130.848H130.148C127.492 130.848 126.164 131.625 126.164 133.18C126.164 133.859 126.391 134.391 126.844 134.773C127.297 135.156 127.879 135.348 128.59 135.348ZM139.465 124.32L139.535 125.914C140.504 124.695 141.77 124.086 143.332 124.086C146.012 124.086 147.363 125.598 147.387 128.621V137H145.219V128.609C145.211 127.695 145 127.02 144.586 126.582C144.18 126.145 143.543 125.926 142.676 125.926C141.973 125.926 141.355 126.113 140.824 126.488C140.293 126.863 139.879 127.355 139.582 127.965V137H137.414V124.32H139.465ZM150.129 130.555C150.129 128.609 150.59 127.047 151.512 125.867C152.434 124.68 153.641 124.086 155.133 124.086C156.617 124.086 157.793 124.594 158.66 125.609V119H160.828V137H158.836L158.73 135.641C157.863 136.703 156.656 137.234 155.109 137.234C153.641 137.234 152.441 136.633 151.512 135.43C150.59 134.227 150.129 132.656 150.129 130.719V130.555ZM152.297 130.801C152.297 132.238 152.594 133.363 153.188 134.176C153.781 134.988 154.602 135.395 155.648 135.395C157.023 135.395 158.027 134.777 158.66 133.543V127.719C158.012 126.523 157.016 125.926 155.672 125.926C154.609 125.926 153.781 126.336 153.188 127.156C152.594 127.977 152.297 129.191 152.297 130.801ZM180.141 129.113H172.746V135.16H181.336V137H170.496V119.938H181.219V121.789H172.746V127.273H180.141V129.113ZM187.676 134.059L190.816 124.32H193.031L188.484 137H186.832L182.238 124.32H184.453L187.676 134.059ZM202.758 137C202.633 136.75 202.531 136.305 202.453 135.664C201.445 136.711 200.242 137.234 198.844 137.234C197.594 137.234 196.566 136.883 195.762 136.18C194.965 135.469 194.566 134.57 194.566 133.484C194.566 132.164 195.066 131.141 196.066 130.414C197.074 129.68 198.488 129.312 200.309 129.312H202.418V128.316C202.418 127.559 202.191 126.957 201.738 126.512C201.285 126.059 200.617 125.832 199.734 125.832C198.961 125.832 198.312 126.027 197.789 126.418C197.266 126.809 197.004 127.281 197.004 127.836H194.824C194.824 127.203 195.047 126.594 195.492 126.008C195.945 125.414 196.555 124.945 197.32 124.602C198.094 124.258 198.941 124.086 199.863 124.086C201.324 124.086 202.469 124.453 203.297 125.188C204.125 125.914 204.555 126.918 204.586 128.199V134.035C204.586 135.199 204.734 136.125 205.031 136.812V137H202.758ZM199.16 135.348C199.84 135.348 200.484 135.172 201.094 134.82C201.703 134.469 202.145 134.012 202.418 133.449V130.848H200.719C198.062 130.848 196.734 131.625 196.734 133.18C196.734 133.859 196.961 134.391 197.414 134.773C197.867 135.156 198.449 135.348 199.16 135.348ZM210.34 137H208.172V119H210.34V137ZM221.648 135.746C220.805 136.738 219.566 137.234 217.934 137.234C216.582 137.234 215.551 136.844 214.84 136.062C214.137 135.273 213.781 134.109 213.773 132.57V124.32H215.941V132.512C215.941 134.434 216.723 135.395 218.285 135.395C219.941 135.395 221.043 134.777 221.59 133.543V124.32H223.758V137H221.695L221.648 135.746ZM234.891 137C234.766 136.75 234.664 136.305 234.586 135.664C233.578 136.711 232.375 137.234 230.977 137.234C229.727 137.234 228.699 136.883 227.895 136.18C227.098 135.469 226.699 134.57 226.699 133.484C226.699 132.164 227.199 131.141 228.199 130.414C229.207 129.68 230.621 129.312 232.441 129.312H234.551V128.316C234.551 127.559 234.324 126.957 233.871 126.512C233.418 126.059 232.75 125.832 231.867 125.832C231.094 125.832 230.445 126.027 229.922 126.418C229.398 126.809 229.137 127.281 229.137 127.836H226.957C226.957 127.203 227.18 126.594 227.625 126.008C228.078 125.414 228.688 124.945 229.453 124.602C230.227 124.258 231.074 124.086 231.996 124.086C233.457 124.086 234.602 124.453 235.43 125.188C236.258 125.914 236.688 126.918 236.719 128.199V134.035C236.719 135.199 236.867 136.125 237.164 136.812V137H234.891ZM231.293 135.348C231.973 135.348 232.617 135.172 233.227 134.82C233.836 134.469 234.277 134.012 234.551 133.449V130.848H232.852C230.195 130.848 228.867 131.625 228.867 133.18C228.867 133.859 229.094 134.391 229.547 134.773C230 135.156 230.582 135.348 231.293 135.348ZM243.059 121.25V124.32H245.426V125.996H243.059V133.859C243.059 134.367 243.164 134.75 243.375 135.008C243.586 135.258 243.945 135.383 244.453 135.383C244.703 135.383 245.047 135.336 245.484 135.242V137C244.914 137.156 244.359 137.234 243.82 137.234C242.852 137.234 242.121 136.941 241.629 136.355C241.137 135.77 240.891 134.938 240.891 133.859V125.996H238.582V124.32H240.891V121.25H243.059ZM253.23 137.234C251.512 137.234 250.113 136.672 249.035 135.547C247.957 134.414 247.418 132.902 247.418 131.012V130.613C247.418 129.355 247.656 128.234 248.133 127.25C248.617 126.258 249.289 125.484 250.148 124.93C251.016 124.367 251.953 124.086 252.961 124.086C254.609 124.086 255.891 124.629 256.805 125.715C257.719 126.801 258.176 128.355 258.176 130.379V131.281H249.586C249.617 132.531 249.98 133.543 250.676 134.316C251.379 135.082 252.27 135.465 253.348 135.465C254.113 135.465 254.762 135.309 255.293 134.996C255.824 134.684 256.289 134.27 256.688 133.754L258.012 134.785C256.949 136.418 255.355 137.234 253.23 137.234ZM252.961 125.867C252.086 125.867 251.352 126.188 250.758 126.828C250.164 127.461 249.797 128.352 249.656 129.5H256.008V129.336C255.945 128.234 255.648 127.383 255.117 126.781C254.586 126.172 253.867 125.867 252.961 125.867ZM272.016 129.395C270.086 128.84 268.68 128.16 267.797 127.355C266.922 126.543 266.484 125.543 266.484 124.355C266.484 123.012 267.02 121.902 268.09 121.027C269.168 120.145 270.566 119.703 272.285 119.703C273.457 119.703 274.5 119.93 275.414 120.383C276.336 120.836 277.047 121.461 277.547 122.258C278.055 123.055 278.309 123.926 278.309 124.871H276.047C276.047 123.84 275.719 123.031 275.062 122.445C274.406 121.852 273.48 121.555 272.285 121.555C271.176 121.555 270.309 121.801 269.684 122.293C269.066 122.777 268.758 123.453 268.758 124.32C268.758 125.016 269.051 125.605 269.637 126.09C270.23 126.566 271.234 127.004 272.648 127.402C274.07 127.801 275.18 128.242 275.977 128.727C276.781 129.203 277.375 129.762 277.758 130.402C278.148 131.043 278.344 131.797 278.344 132.664C278.344 134.047 277.805 135.156 276.727 135.992C275.648 136.82 274.207 137.234 272.402 137.234C271.23 137.234 270.137 137.012 269.121 136.566C268.105 136.113 267.32 135.496 266.766 134.715C266.219 133.934 265.945 133.047 265.945 132.055H268.207C268.207 133.086 268.586 133.902 269.344 134.504C270.109 135.098 271.129 135.395 272.402 135.395C273.59 135.395 274.5 135.152 275.133 134.668C275.766 134.184 276.082 133.523 276.082 132.688C276.082 131.852 275.789 131.207 275.203 130.754C274.617 130.293 273.555 129.84 272.016 129.395ZM283.254 137H281.086V124.32H283.254V137ZM280.91 120.957C280.91 120.605 281.016 120.309 281.227 120.066C281.445 119.824 281.766 119.703 282.188 119.703C282.609 119.703 282.93 119.824 283.148 120.066C283.367 120.309 283.477 120.605 283.477 120.957C283.477 121.309 283.367 121.602 283.148 121.836C282.93 122.07 282.609 122.188 282.188 122.188C281.766 122.188 281.445 122.07 281.227 121.836C281.016 121.602 280.91 121.309 280.91 120.957ZM286.219 130.555C286.219 128.578 286.676 127.008 287.59 125.844C288.504 124.672 289.715 124.086 291.223 124.086C292.77 124.086 293.977 124.633 294.844 125.727L294.949 124.32H296.93V136.695C296.93 138.336 296.441 139.629 295.465 140.574C294.496 141.52 293.191 141.992 291.551 141.992C290.637 141.992 289.742 141.797 288.867 141.406C287.992 141.016 287.324 140.48 286.863 139.801L287.988 138.5C288.918 139.648 290.055 140.223 291.398 140.223C292.453 140.223 293.273 139.926 293.859 139.332C294.453 138.738 294.75 137.902 294.75 136.824V135.734C293.883 136.734 292.699 137.234 291.199 137.234C289.715 137.234 288.512 136.637 287.59 135.441C286.676 134.246 286.219 132.617 286.219 130.555ZM288.398 130.801C288.398 132.23 288.691 133.355 289.277 134.176C289.863 134.988 290.684 135.395 291.738 135.395C293.105 135.395 294.109 134.773 294.75 133.531V127.742C294.086 126.531 293.09 125.926 291.762 125.926C290.707 125.926 289.883 126.336 289.289 127.156C288.695 127.977 288.398 129.191 288.398 130.801ZM302.262 124.32L302.332 125.914C303.301 124.695 304.566 124.086 306.129 124.086C308.809 124.086 310.16 125.598 310.184 128.621V137H308.016V128.609C308.008 127.695 307.797 127.02 307.383 126.582C306.977 126.145 306.34 125.926 305.473 125.926C304.77 125.926 304.152 126.113 303.621 126.488C303.09 126.863 302.676 127.355 302.379 127.965V137H300.211V124.32H302.262ZM320.836 133.637C320.836 133.051 320.613 132.598 320.168 132.277C319.73 131.949 318.961 131.668 317.859 131.434C316.766 131.199 315.895 130.918 315.246 130.59C314.605 130.262 314.129 129.871 313.816 129.418C313.512 128.965 313.359 128.426 313.359 127.801C313.359 126.762 313.797 125.883 314.672 125.164C315.555 124.445 316.68 124.086 318.047 124.086C319.484 124.086 320.648 124.457 321.539 125.199C322.438 125.941 322.887 126.891 322.887 128.047H320.707C320.707 127.453 320.453 126.941 319.945 126.512C319.445 126.082 318.812 125.867 318.047 125.867C317.258 125.867 316.641 126.039 316.195 126.383C315.75 126.727 315.527 127.176 315.527 127.73C315.527 128.254 315.734 128.648 316.148 128.914C316.562 129.18 317.309 129.434 318.387 129.676C319.473 129.918 320.352 130.207 321.023 130.543C321.695 130.879 322.191 131.285 322.512 131.762C322.84 132.23 323.004 132.805 323.004 133.484C323.004 134.617 322.551 135.527 321.645 136.215C320.738 136.895 319.562 137.234 318.117 137.234C317.102 137.234 316.203 137.055 315.422 136.695C314.641 136.336 314.027 135.836 313.582 135.195C313.145 134.547 312.926 133.848 312.926 133.098H315.094C315.133 133.824 315.422 134.402 315.961 134.832C316.508 135.254 317.227 135.465 318.117 135.465C318.938 135.465 319.594 135.301 320.086 134.973C320.586 134.637 320.836 134.191 320.836 133.637ZM334.723 121.25V124.32H337.09V125.996H334.723V133.859C334.723 134.367 334.828 134.75 335.039 135.008C335.25 135.258 335.609 135.383 336.117 135.383C336.367 135.383 336.711 135.336 337.148 135.242V137C336.578 137.156 336.023 137.234 335.484 137.234C334.516 137.234 333.785 136.941 333.293 136.355C332.801 135.77 332.555 134.938 332.555 133.859V125.996H330.246V124.32H332.555V121.25H334.723ZM338.824 130.543C338.824 129.301 339.066 128.184 339.551 127.191C340.043 126.199 340.723 125.434 341.59 124.895C342.465 124.355 343.461 124.086 344.578 124.086C346.305 124.086 347.699 124.684 348.762 125.879C349.832 127.074 350.367 128.664 350.367 130.648V130.801C350.367 132.035 350.129 133.145 349.652 134.129C349.184 135.105 348.508 135.867 347.625 136.414C346.75 136.961 345.742 137.234 344.602 137.234C342.883 137.234 341.488 136.637 340.418 135.441C339.355 134.246 338.824 132.664 338.824 130.695V130.543ZM341.004 130.801C341.004 132.207 341.328 133.336 341.977 134.188C342.633 135.039 343.508 135.465 344.602 135.465C345.703 135.465 346.578 135.035 347.227 134.176C347.875 133.309 348.199 132.098 348.199 130.543C348.199 129.152 347.867 128.027 347.203 127.168C346.547 126.301 345.672 125.867 344.578 125.867C343.508 125.867 342.645 126.293 341.988 127.145C341.332 127.996 341.004 129.215 341.004 130.801ZM371.391 119.938V131.539C371.383 133.148 370.875 134.465 369.867 135.488C368.867 136.512 367.508 137.086 365.789 137.211L365.191 137.234C363.324 137.234 361.836 136.73 360.727 135.723C359.617 134.715 359.055 133.328 359.039 131.562V119.938H361.266V131.492C361.266 132.727 361.605 133.688 362.285 134.375C362.965 135.055 363.934 135.395 365.191 135.395C366.465 135.395 367.438 135.055 368.109 134.375C368.789 133.695 369.129 132.738 369.129 131.504V119.938H371.391ZM376.652 124.32L376.723 125.914C377.691 124.695 378.957 124.086 380.52 124.086C383.199 124.086 384.551 125.598 384.574 128.621V137H382.406V128.609C382.398 127.695 382.188 127.02 381.773 126.582C381.367 126.145 380.73 125.926 379.863 125.926C379.16 125.926 378.543 126.113 378.012 126.488C377.48 126.863 377.066 127.355 376.77 127.965V137H374.602V124.32H376.652ZM392.93 135.465C393.703 135.465 394.379 135.23 394.957 134.762C395.535 134.293 395.855 133.707 395.918 133.004H397.969C397.93 133.73 397.68 134.422 397.219 135.078C396.758 135.734 396.141 136.258 395.367 136.648C394.602 137.039 393.789 137.234 392.93 137.234C391.203 137.234 389.828 136.66 388.805 135.512C387.789 134.355 387.281 132.777 387.281 130.777V130.414C387.281 129.18 387.508 128.082 387.961 127.121C388.414 126.16 389.062 125.414 389.906 124.883C390.758 124.352 391.762 124.086 392.918 124.086C394.34 124.086 395.52 124.512 396.457 125.363C397.402 126.215 397.906 127.32 397.969 128.68H395.918C395.855 127.859 395.543 127.188 394.98 126.664C394.426 126.133 393.738 125.867 392.918 125.867C391.816 125.867 390.961 126.266 390.352 127.062C389.75 127.852 389.449 128.996 389.449 130.496V130.906C389.449 132.367 389.75 133.492 390.352 134.281C390.953 135.07 391.812 135.465 392.93 135.465ZM399.832 130.543C399.832 129.301 400.074 128.184 400.559 127.191C401.051 126.199 401.73 125.434 402.598 124.895C403.473 124.355 404.469 124.086 405.586 124.086C407.312 124.086 408.707 124.684 409.77 125.879C410.84 127.074 411.375 128.664 411.375 130.648V130.801C411.375 132.035 411.137 133.145 410.66 134.129C410.191 135.105 409.516 135.867 408.633 136.414C407.758 136.961 406.75 137.234 405.609 137.234C403.891 137.234 402.496 136.637 401.426 135.441C400.363 134.246 399.832 132.664 399.832 130.695V130.543ZM402.012 130.801C402.012 132.207 402.336 133.336 402.984 134.188C403.641 135.039 404.516 135.465 405.609 135.465C406.711 135.465 407.586 135.035 408.234 134.176C408.883 133.309 409.207 132.098 409.207 130.543C409.207 129.152 408.875 128.027 408.211 127.168C407.555 126.301 406.68 125.867 405.586 125.867C404.516 125.867 403.652 126.293 402.996 127.145C402.34 127.996 402.012 129.215 402.012 130.801ZM418.09 134.059L421.23 124.32H423.445L418.898 137H417.246L412.652 124.32H414.867L418.09 134.059ZM430.629 137.234C428.91 137.234 427.512 136.672 426.434 135.547C425.355 134.414 424.816 132.902 424.816 131.012V130.613C424.816 129.355 425.055 128.234 425.531 127.25C426.016 126.258 426.688 125.484 427.547 124.93C428.414 124.367 429.352 124.086 430.359 124.086C432.008 124.086 433.289 124.629 434.203 125.715C435.117 126.801 435.574 128.355 435.574 130.379V131.281H426.984C427.016 132.531 427.379 133.543 428.074 134.316C428.777 135.082 429.668 135.465 430.746 135.465C431.512 135.465 432.16 135.309 432.691 134.996C433.223 134.684 433.688 134.27 434.086 133.754L435.41 134.785C434.348 136.418 432.754 137.234 430.629 137.234ZM430.359 125.867C429.484 125.867 428.75 126.188 428.156 126.828C427.562 127.461 427.195 128.352 427.055 129.5H433.406V129.336C433.344 128.234 433.047 127.383 432.516 126.781C431.984 126.172 431.266 125.867 430.359 125.867ZM444.223 126.266C443.895 126.211 443.539 126.184 443.156 126.184C441.734 126.184 440.77 126.789 440.262 128V137H438.094V124.32H440.203L440.238 125.785C440.949 124.652 441.957 124.086 443.262 124.086C443.684 124.086 444.004 124.141 444.223 124.25V126.266ZM10.2422 170.16H18.3281V172H7.98047V154.938H10.2422V170.16ZM28.3828 172C28.2578 171.75 28.1562 171.305 28.0781 170.664C27.0703 171.711 25.8672 172.234 24.4688 172.234C23.2188 172.234 22.1914 171.883 21.3867 171.18C20.5898 170.469 20.1914 169.57 20.1914 168.484C20.1914 167.164 20.6914 166.141 21.6914 165.414C22.6992 164.68 24.1133 164.312 25.9336 164.312H28.043V163.316C28.043 162.559 27.8164 161.957 27.3633 161.512C26.9102 161.059 26.2422 160.832 25.3594 160.832C24.5859 160.832 23.9375 161.027 23.4141 161.418C22.8906 161.809 22.6289 162.281 22.6289 162.836H20.4492C20.4492 162.203 20.6719 161.594 21.1172 161.008C21.5703 160.414 22.1797 159.945 22.9453 159.602C23.7188 159.258 24.5664 159.086 25.4883 159.086C26.9492 159.086 28.0938 159.453 28.9219 160.188C29.75 160.914 30.1797 161.918 30.2109 163.199V169.035C30.2109 170.199 30.3594 171.125 30.6562 171.812V172H28.3828ZM24.7852 170.348C25.4648 170.348 26.1094 170.172 26.7188 169.82C27.3281 169.469 27.7695 169.012 28.043 168.449V165.848H26.3438C23.6875 165.848 22.3594 166.625 22.3594 168.18C22.3594 168.859 22.5859 169.391 23.0391 169.773C23.4922 170.156 24.0742 170.348 24.7852 170.348ZM44.3438 165.801C44.3438 167.738 43.8984 169.297 43.0078 170.477C42.1172 171.648 40.9219 172.234 39.4219 172.234C37.8203 172.234 36.582 171.668 35.707 170.535L35.6016 172H33.6094V154H35.7773V160.715C36.6523 159.629 37.8594 159.086 39.3984 159.086C40.9375 159.086 42.1445 159.668 43.0195 160.832C43.9023 161.996 44.3438 163.59 44.3438 165.613V165.801ZM42.1758 165.555C42.1758 164.078 41.8906 162.938 41.3203 162.133C40.75 161.328 39.9297 160.926 38.8594 160.926C37.4297 160.926 36.4023 161.59 35.7773 162.918V168.402C36.4414 169.73 37.4766 170.395 38.8828 170.395C39.9219 170.395 40.7305 169.992 41.3086 169.188C41.8867 168.383 42.1758 167.172 42.1758 165.555ZM46.5117 165.543C46.5117 164.301 46.7539 163.184 47.2383 162.191C47.7305 161.199 48.4102 160.434 49.2773 159.895C50.1523 159.355 51.1484 159.086 52.2656 159.086C53.9922 159.086 55.3867 159.684 56.4492 160.879C57.5195 162.074 58.0547 163.664 58.0547 165.648V165.801C58.0547 167.035 57.8164 168.145 57.3398 169.129C56.8711 170.105 56.1953 170.867 55.3125 171.414C54.4375 171.961 53.4297 172.234 52.2891 172.234C50.5703 172.234 49.1758 171.637 48.1055 170.441C47.043 169.246 46.5117 167.664 46.5117 165.695V165.543ZM48.6914 165.801C48.6914 167.207 49.0156 168.336 49.6641 169.188C50.3203 170.039 51.1953 170.465 52.2891 170.465C53.3906 170.465 54.2656 170.035 54.9141 169.176C55.5625 168.309 55.8867 167.098 55.8867 165.543C55.8867 164.152 55.5547 163.027 54.8906 162.168C54.2344 161.301 53.3594 160.867 52.2656 160.867C51.1953 160.867 50.332 161.293 49.6758 162.145C49.0195 162.996 48.6914 164.215 48.6914 165.801ZM66.9023 161.266C66.5742 161.211 66.2188 161.184 65.8359 161.184C64.4141 161.184 63.4492 161.789 62.9414 163V172H60.7734V159.32H62.8828L62.918 160.785C63.6289 159.652 64.6367 159.086 65.9414 159.086C66.3633 159.086 66.6836 159.141 66.9023 159.25V161.266ZM86.5195 156.789H81.0352V172H78.7969V156.789H73.3242V154.938H86.5195V156.789ZM93.9492 161.266C93.6211 161.211 93.2656 161.184 92.8828 161.184C91.4609 161.184 90.4961 161.789 89.9883 163V172H87.8203V159.32H89.9297L89.9648 160.785C90.6758 159.652 91.6836 159.086 92.9883 159.086C93.4102 159.086 93.7305 159.141 93.9492 159.25V161.266ZM103.312 172C103.188 171.75 103.086 171.305 103.008 170.664C102 171.711 100.797 172.234 99.3984 172.234C98.1484 172.234 97.1211 171.883 96.3164 171.18C95.5195 170.469 95.1211 169.57 95.1211 168.484C95.1211 167.164 95.6211 166.141 96.6211 165.414C97.6289 164.68 99.043 164.312 100.863 164.312H102.973V163.316C102.973 162.559 102.746 161.957 102.293 161.512C101.84 161.059 101.172 160.832 100.289 160.832C99.5156 160.832 98.8672 161.027 98.3438 161.418C97.8203 161.809 97.5586 162.281 97.5586 162.836H95.3789C95.3789 162.203 95.6016 161.594 96.0469 161.008C96.5 160.414 97.1094 159.945 97.875 159.602C98.6484 159.258 99.4961 159.086 100.418 159.086C101.879 159.086 103.023 159.453 103.852 160.188C104.68 160.914 105.109 161.918 105.141 163.199V169.035C105.141 170.199 105.289 171.125 105.586 171.812V172H103.312ZM99.7148 170.348C100.395 170.348 101.039 170.172 101.648 169.82C102.258 169.469 102.699 169.012 102.973 168.449V165.848H101.273C98.6172 165.848 97.2891 166.625 97.2891 168.18C97.2891 168.859 97.5156 169.391 97.9688 169.773C98.4219 170.156 99.0039 170.348 99.7148 170.348ZM109.605 172V160.996H107.602V159.32H109.605V158.02C109.605 156.66 109.969 155.609 110.695 154.867C111.422 154.125 112.449 153.754 113.777 153.754C114.277 153.754 114.773 153.82 115.266 153.953L115.148 155.711C114.781 155.641 114.391 155.605 113.977 155.605C113.273 155.605 112.73 155.812 112.348 156.227C111.965 156.633 111.773 157.219 111.773 157.984V159.32H116.461V158.242C116.461 156.828 116.863 155.727 117.668 154.938C118.48 154.148 119.625 153.754 121.102 153.754C121.977 153.754 123.082 153.992 124.418 154.469L124.055 156.297C123.078 155.906 122.145 155.711 121.254 155.711C120.324 155.711 119.652 155.918 119.238 156.332C118.832 156.746 118.629 157.375 118.629 158.219V159.32H121.23V160.996H118.629V172H116.461V160.996H111.773V172H109.605ZM125.484 172H123.316V159.32H125.484V172ZM134.109 170.465C134.883 170.465 135.559 170.23 136.137 169.762C136.715 169.293 137.035 168.707 137.098 168.004H139.148C139.109 168.73 138.859 169.422 138.398 170.078C137.938 170.734 137.32 171.258 136.547 171.648C135.781 172.039 134.969 172.234 134.109 172.234C132.383 172.234 131.008 171.66 129.984 170.512C128.969 169.355 128.461 167.777 128.461 165.777V165.414C128.461 164.18 128.688 163.082 129.141 162.121C129.594 161.16 130.242 160.414 131.086 159.883C131.938 159.352 132.941 159.086 134.098 159.086C135.52 159.086 136.699 159.512 137.637 160.363C138.582 161.215 139.086 162.32 139.148 163.68H137.098C137.035 162.859 136.723 162.188 136.16 161.664C135.605 161.133 134.918 160.867 134.098 160.867C132.996 160.867 132.141 161.266 131.531 162.062C130.93 162.852 130.629 163.996 130.629 165.496V165.906C130.629 167.367 130.93 168.492 131.531 169.281C132.133 170.07 132.992 170.465 134.109 170.465ZM145.125 166.129L143.766 167.547V172H141.598V154H143.766V164.887L144.926 163.492L148.875 159.32H151.512L146.578 164.617L152.086 172H149.543L145.125 166.129ZM156.105 172H153.938V159.32H156.105V172ZM153.762 155.957C153.762 155.605 153.867 155.309 154.078 155.066C154.297 154.824 154.617 154.703 155.039 154.703C155.461 154.703 155.781 154.824 156 155.066C156.219 155.309 156.328 155.605 156.328 155.957C156.328 156.309 156.219 156.602 156 156.836C155.781 157.07 155.461 157.188 155.039 157.188C154.617 157.188 154.297 157.07 154.078 156.836C153.867 156.602 153.762 156.309 153.762 155.957ZM161.637 159.32L161.707 160.914C162.676 159.695 163.941 159.086 165.504 159.086C168.184 159.086 169.535 160.598 169.559 163.621V172H167.391V163.609C167.383 162.695 167.172 162.02 166.758 161.582C166.352 161.145 165.715 160.926 164.848 160.926C164.145 160.926 163.527 161.113 162.996 161.488C162.465 161.863 162.051 162.355 161.754 162.965V172H159.586V159.32H161.637ZM172.312 165.555C172.312 163.578 172.77 162.008 173.684 160.844C174.598 159.672 175.809 159.086 177.316 159.086C178.863 159.086 180.07 159.633 180.938 160.727L181.043 159.32H183.023V171.695C183.023 173.336 182.535 174.629 181.559 175.574C180.59 176.52 179.285 176.992 177.645 176.992C176.73 176.992 175.836 176.797 174.961 176.406C174.086 176.016 173.418 175.48 172.957 174.801L174.082 173.5C175.012 174.648 176.148 175.223 177.492 175.223C178.547 175.223 179.367 174.926 179.953 174.332C180.547 173.738 180.844 172.902 180.844 171.824V170.734C179.977 171.734 178.793 172.234 177.293 172.234C175.809 172.234 174.605 171.637 173.684 170.441C172.77 169.246 172.312 167.617 172.312 165.555ZM174.492 165.801C174.492 167.23 174.785 168.355 175.371 169.176C175.957 169.988 176.777 170.395 177.832 170.395C179.199 170.395 180.203 169.773 180.844 168.531V162.742C180.18 161.531 179.184 160.926 177.855 160.926C176.801 160.926 175.977 161.336 175.383 162.156C174.789 162.977 174.492 164.191 174.492 165.801ZM186.234 175.398L185.004 174.555C185.738 173.531 186.121 172.477 186.152 171.391V169.434H188.273V171.133C188.273 171.922 188.078 172.711 187.688 173.5C187.305 174.289 186.82 174.922 186.234 175.398ZM199.324 172H197.156V159.32H199.324V172ZM196.98 155.957C196.98 155.605 197.086 155.309 197.297 155.066C197.516 154.824 197.836 154.703 198.258 154.703C198.68 154.703 199 154.824 199.219 155.066C199.438 155.309 199.547 155.605 199.547 155.957C199.547 156.309 199.438 156.602 199.219 156.836C199 157.07 198.68 157.188 198.258 157.188C197.836 157.188 197.516 157.07 197.297 156.836C197.086 156.602 196.98 156.309 196.98 155.957ZM210.188 168.637C210.188 168.051 209.965 167.598 209.52 167.277C209.082 166.949 208.312 166.668 207.211 166.434C206.117 166.199 205.246 165.918 204.598 165.59C203.957 165.262 203.48 164.871 203.168 164.418C202.863 163.965 202.711 163.426 202.711 162.801C202.711 161.762 203.148 160.883 204.023 160.164C204.906 159.445 206.031 159.086 207.398 159.086C208.836 159.086 210 159.457 210.891 160.199C211.789 160.941 212.238 161.891 212.238 163.047H210.059C210.059 162.453 209.805 161.941 209.297 161.512C208.797 161.082 208.164 160.867 207.398 160.867C206.609 160.867 205.992 161.039 205.547 161.383C205.102 161.727 204.879 162.176 204.879 162.73C204.879 163.254 205.086 163.648 205.5 163.914C205.914 164.18 206.66 164.434 207.738 164.676C208.824 164.918 209.703 165.207 210.375 165.543C211.047 165.879 211.543 166.285 211.863 166.762C212.191 167.23 212.355 167.805 212.355 168.484C212.355 169.617 211.902 170.527 210.996 171.215C210.09 171.895 208.914 172.234 207.469 172.234C206.453 172.234 205.555 172.055 204.773 171.695C203.992 171.336 203.379 170.836 202.934 170.195C202.496 169.547 202.277 168.848 202.277 168.098H204.445C204.484 168.824 204.773 169.402 205.312 169.832C205.859 170.254 206.578 170.465 207.469 170.465C208.289 170.465 208.945 170.301 209.438 169.973C209.938 169.637 210.188 169.191 210.188 168.637ZM228.961 172C228.836 171.75 228.734 171.305 228.656 170.664C227.648 171.711 226.445 172.234 225.047 172.234C223.797 172.234 222.77 171.883 221.965 171.18C221.168 170.469 220.77 169.57 220.77 168.484C220.77 167.164 221.27 166.141 222.27 165.414C223.277 164.68 224.691 164.312 226.512 164.312H228.621V163.316C228.621 162.559 228.395 161.957 227.941 161.512C227.488 161.059 226.82 160.832 225.938 160.832C225.164 160.832 224.516 161.027 223.992 161.418C223.469 161.809 223.207 162.281 223.207 162.836H221.027C221.027 162.203 221.25 161.594 221.695 161.008C222.148 160.414 222.758 159.945 223.523 159.602C224.297 159.258 225.145 159.086 226.066 159.086C227.527 159.086 228.672 159.453 229.5 160.188C230.328 160.914 230.758 161.918 230.789 163.199V169.035C230.789 170.199 230.938 171.125 231.234 171.812V172H228.961ZM225.363 170.348C226.043 170.348 226.688 170.172 227.297 169.82C227.906 169.469 228.348 169.012 228.621 168.449V165.848H226.922C224.266 165.848 222.938 166.625 222.938 168.18C222.938 168.859 223.164 169.391 223.617 169.773C224.07 170.156 224.652 170.348 225.363 170.348ZM243.082 156.25V159.32H245.449V160.996H243.082V168.859C243.082 169.367 243.188 169.75 243.398 170.008C243.609 170.258 243.969 170.383 244.477 170.383C244.727 170.383 245.07 170.336 245.508 170.242V172C244.938 172.156 244.383 172.234 243.844 172.234C242.875 172.234 242.145 171.941 241.652 171.355C241.16 170.77 240.914 169.938 240.914 168.859V160.996H238.605V159.32H240.914V156.25H243.082ZM247.184 165.543C247.184 164.301 247.426 163.184 247.91 162.191C248.402 161.199 249.082 160.434 249.949 159.895C250.824 159.355 251.82 159.086 252.938 159.086C254.664 159.086 256.059 159.684 257.121 160.879C258.191 162.074 258.727 163.664 258.727 165.648V165.801C258.727 167.035 258.488 168.145 258.012 169.129C257.543 170.105 256.867 170.867 255.984 171.414C255.109 171.961 254.102 172.234 252.961 172.234C251.242 172.234 249.848 171.637 248.777 170.441C247.715 169.246 247.184 167.664 247.184 165.695V165.543ZM249.363 165.801C249.363 167.207 249.688 168.336 250.336 169.188C250.992 170.039 251.867 170.465 252.961 170.465C254.062 170.465 254.938 170.035 255.586 169.176C256.234 168.309 256.559 167.098 256.559 165.543C256.559 164.152 256.227 163.027 255.562 162.168C254.906 161.301 254.031 160.867 252.938 160.867C251.867 160.867 251.004 161.293 250.348 162.145C249.691 162.996 249.363 164.215 249.363 165.801ZM260.871 165.543C260.871 164.301 261.113 163.184 261.598 162.191C262.09 161.199 262.77 160.434 263.637 159.895C264.512 159.355 265.508 159.086 266.625 159.086C268.352 159.086 269.746 159.684 270.809 160.879C271.879 162.074 272.414 163.664 272.414 165.648V165.801C272.414 167.035 272.176 168.145 271.699 169.129C271.23 170.105 270.555 170.867 269.672 171.414C268.797 171.961 267.789 172.234 266.648 172.234C264.93 172.234 263.535 171.637 262.465 170.441C261.402 169.246 260.871 167.664 260.871 165.695V165.543ZM263.051 165.801C263.051 167.207 263.375 168.336 264.023 169.188C264.68 170.039 265.555 170.465 266.648 170.465C267.75 170.465 268.625 170.035 269.273 169.176C269.922 168.309 270.246 167.098 270.246 165.543C270.246 164.152 269.914 163.027 269.25 162.168C268.594 161.301 267.719 160.867 266.625 160.867C265.555 160.867 264.691 161.293 264.035 162.145C263.379 162.996 263.051 164.215 263.051 165.801ZM277.488 172H275.32V154H277.488V172ZM289.863 156.25V159.32H292.23V160.996H289.863V168.859C289.863 169.367 289.969 169.75 290.18 170.008C290.391 170.258 290.75 170.383 291.258 170.383C291.508 170.383 291.852 170.336 292.289 170.242V172C291.719 172.156 291.164 172.234 290.625 172.234C289.656 172.234 288.926 171.941 288.434 171.355C287.941 170.77 287.695 169.938 287.695 168.859V160.996H285.387V159.32H287.695V156.25H289.863ZM293.965 165.543C293.965 164.301 294.207 163.184 294.691 162.191C295.184 161.199 295.863 160.434 296.73 159.895C297.605 159.355 298.602 159.086 299.719 159.086C301.445 159.086 302.84 159.684 303.902 160.879C304.973 162.074 305.508 163.664 305.508 165.648V165.801C305.508 167.035 305.27 168.145 304.793 169.129C304.324 170.105 303.648 170.867 302.766 171.414C301.891 171.961 300.883 172.234 299.742 172.234C298.023 172.234 296.629 171.637 295.559 170.441C294.496 169.246 293.965 167.664 293.965 165.695V165.543ZM296.145 165.801C296.145 167.207 296.469 168.336 297.117 169.188C297.773 170.039 298.648 170.465 299.742 170.465C300.844 170.465 301.719 170.035 302.367 169.176C303.016 168.309 303.34 167.098 303.34 165.543C303.34 164.152 303.008 163.027 302.344 162.168C301.688 161.301 300.812 160.867 299.719 160.867C298.648 160.867 297.785 161.293 297.129 162.145C296.473 162.996 296.145 164.215 296.145 165.801ZM316.348 160.855C317.309 159.676 318.559 159.086 320.098 159.086C322.777 159.086 324.129 160.598 324.152 163.621V172H321.984V163.609C321.977 162.695 321.766 162.02 321.352 161.582C320.945 161.145 320.309 160.926 319.441 160.926C318.738 160.926 318.121 161.113 317.59 161.488C317.059 161.863 316.645 162.355 316.348 162.965V172H314.18V154H316.348V160.855ZM332.66 172.234C330.941 172.234 329.543 171.672 328.465 170.547C327.387 169.414 326.848 167.902 326.848 166.012V165.613C326.848 164.355 327.086 163.234 327.562 162.25C328.047 161.258 328.719 160.484 329.578 159.93C330.445 159.367 331.383 159.086 332.391 159.086C334.039 159.086 335.32 159.629 336.234 160.715C337.148 161.801 337.605 163.355 337.605 165.379V166.281H329.016C329.047 167.531 329.41 168.543 330.105 169.316C330.809 170.082 331.699 170.465 332.777 170.465C333.543 170.465 334.191 170.309 334.723 169.996C335.254 169.684 335.719 169.27 336.117 168.754L337.441 169.785C336.379 171.418 334.785 172.234 332.66 172.234ZM332.391 160.867C331.516 160.867 330.781 161.188 330.188 161.828C329.594 162.461 329.227 163.352 329.086 164.5H335.438V164.336C335.375 163.234 335.078 162.383 334.547 161.781C334.016 161.172 333.297 160.867 332.391 160.867ZM342.48 172H340.312V154H342.48V172ZM356.672 165.801C356.672 167.73 356.23 169.285 355.348 170.465C354.465 171.645 353.27 172.234 351.762 172.234C350.223 172.234 349.012 171.746 348.129 170.77V176.875H345.961V159.32H347.941L348.047 160.727C348.93 159.633 350.156 159.086 351.727 159.086C353.25 159.086 354.453 159.66 355.336 160.809C356.227 161.957 356.672 163.555 356.672 165.602V165.801ZM354.504 165.555C354.504 164.125 354.199 162.996 353.59 162.168C352.98 161.34 352.145 160.926 351.082 160.926C349.77 160.926 348.785 161.508 348.129 162.672V168.73C348.777 169.887 349.77 170.465 351.105 170.465C352.145 170.465 352.969 170.055 353.578 169.234C354.195 168.406 354.504 167.18 354.504 165.555ZM367.746 172H365.578V159.32H367.746V172ZM365.402 155.957C365.402 155.605 365.508 155.309 365.719 155.066C365.938 154.824 366.258 154.703 366.68 154.703C367.102 154.703 367.422 154.824 367.641 155.066C367.859 155.309 367.969 155.605 367.969 155.957C367.969 156.309 367.859 156.602 367.641 156.836C367.422 157.07 367.102 157.188 366.68 157.188C366.258 157.188 365.938 157.07 365.719 156.836C365.508 156.602 365.402 156.309 365.402 155.957ZM373.277 159.32L373.348 160.914C374.316 159.695 375.582 159.086 377.145 159.086C379.824 159.086 381.176 160.598 381.199 163.621V172H379.031V163.609C379.023 162.695 378.812 162.02 378.398 161.582C377.992 161.145 377.355 160.926 376.488 160.926C375.785 160.926 375.168 161.113 374.637 161.488C374.105 161.863 373.691 162.355 373.395 162.965V172H371.227V159.32H373.277ZM388.652 169.059L391.793 159.32H394.008L389.461 172H387.809L383.215 159.32H385.43L388.652 169.059ZM401.191 172.234C399.473 172.234 398.074 171.672 396.996 170.547C395.918 169.414 395.379 167.902 395.379 166.012V165.613C395.379 164.355 395.617 163.234 396.094 162.25C396.578 161.258 397.25 160.484 398.109 159.93C398.977 159.367 399.914 159.086 400.922 159.086C402.57 159.086 403.852 159.629 404.766 160.715C405.68 161.801 406.137 163.355 406.137 165.379V166.281H397.547C397.578 167.531 397.941 168.543 398.637 169.316C399.34 170.082 400.23 170.465 401.309 170.465C402.074 170.465 402.723 170.309 403.254 169.996C403.785 169.684 404.25 169.27 404.648 168.754L405.973 169.785C404.91 171.418 403.316 172.234 401.191 172.234ZM400.922 160.867C400.047 160.867 399.312 161.188 398.719 161.828C398.125 162.461 397.758 163.352 397.617 164.5H403.969V164.336C403.906 163.234 403.609 162.383 403.078 161.781C402.547 161.172 401.828 160.867 400.922 160.867ZM416.039 168.637C416.039 168.051 415.816 167.598 415.371 167.277C414.934 166.949 414.164 166.668 413.062 166.434C411.969 166.199 411.098 165.918 410.449 165.59C409.809 165.262 409.332 164.871 409.02 164.418C408.715 163.965 408.562 163.426 408.562 162.801C408.562 161.762 409 160.883 409.875 160.164C410.758 159.445 411.883 159.086 413.25 159.086C414.688 159.086 415.852 159.457 416.742 160.199C417.641 160.941 418.09 161.891 418.09 163.047H415.91C415.91 162.453 415.656 161.941 415.148 161.512C414.648 161.082 414.016 160.867 413.25 160.867C412.461 160.867 411.844 161.039 411.398 161.383C410.953 161.727 410.73 162.176 410.73 162.73C410.73 163.254 410.938 163.648 411.352 163.914C411.766 164.18 412.512 164.434 413.59 164.676C414.676 164.918 415.555 165.207 416.227 165.543C416.898 165.879 417.395 166.285 417.715 166.762C418.043 167.23 418.207 167.805 418.207 168.484C418.207 169.617 417.754 170.527 416.848 171.215C415.941 171.895 414.766 172.234 413.32 172.234C412.305 172.234 411.406 172.055 410.625 171.695C409.844 171.336 409.23 170.836 408.785 170.195C408.348 169.547 408.129 168.848 408.129 168.098H410.297C410.336 168.824 410.625 169.402 411.164 169.832C411.711 170.254 412.43 170.465 413.32 170.465C414.141 170.465 414.797 170.301 415.289 169.973C415.789 169.637 416.039 169.191 416.039 168.637ZM423.973 156.25V159.32H426.34V160.996H423.973V168.859C423.973 169.367 424.078 169.75 424.289 170.008C424.5 170.258 424.859 170.383 425.367 170.383C425.617 170.383 425.961 170.336 426.398 170.242V172C425.828 172.156 425.273 172.234 424.734 172.234C423.766 172.234 423.035 171.941 422.543 171.355C422.051 170.77 421.805 169.938 421.805 168.859V160.996H419.496V159.32H421.805V156.25H423.973ZM431.238 172H429.07V159.32H431.238V172ZM428.895 155.957C428.895 155.605 429 155.309 429.211 155.066C429.43 154.824 429.75 154.703 430.172 154.703C430.594 154.703 430.914 154.824 431.133 155.066C431.352 155.309 431.461 155.605 431.461 155.957C431.461 156.309 431.352 156.602 431.133 156.836C430.914 157.07 430.594 157.188 430.172 157.188C429.75 157.188 429.43 157.07 429.211 156.836C429 156.602 428.895 156.309 428.895 155.957ZM434.203 165.555C434.203 163.578 434.66 162.008 435.574 160.844C436.488 159.672 437.699 159.086 439.207 159.086C440.754 159.086 441.961 159.633 442.828 160.727L442.934 159.32H444.914V171.695C444.914 173.336 444.426 174.629 443.449 175.574C442.48 176.52 441.176 176.992 439.535 176.992C438.621 176.992 437.727 176.797 436.852 176.406C435.977 176.016 435.309 175.48 434.848 174.801L435.973 173.5C436.902 174.648 438.039 175.223 439.383 175.223C440.438 175.223 441.258 174.926 441.844 174.332C442.438 173.738 442.734 172.902 442.734 171.824V170.734C441.867 171.734 440.684 172.234 439.184 172.234C437.699 172.234 436.496 171.637 435.574 170.441C434.66 169.246 434.203 167.617 434.203 165.555ZM436.383 165.801C436.383 167.23 436.676 168.355 437.262 169.176C437.848 169.988 438.668 170.395 439.723 170.395C441.09 170.395 442.094 169.773 442.734 168.531V162.742C442.07 161.531 441.074 160.926 439.746 160.926C438.691 160.926 437.867 161.336 437.273 162.156C436.68 162.977 436.383 164.191 436.383 165.801ZM456.023 172C455.898 171.75 455.797 171.305 455.719 170.664C454.711 171.711 453.508 172.234 452.109 172.234C450.859 172.234 449.832 171.883 449.027 171.18C448.23 170.469 447.832 169.57 447.832 168.484C447.832 167.164 448.332 166.141 449.332 165.414C450.34 164.68 451.754 164.312 453.574 164.312H455.684V163.316C455.684 162.559 455.457 161.957 455.004 161.512C454.551 161.059 453.883 160.832 453 160.832C452.227 160.832 451.578 161.027 451.055 161.418C450.531 161.809 450.27 162.281 450.27 162.836H448.09C448.09 162.203 448.312 161.594 448.758 161.008C449.211 160.414 449.82 159.945 450.586 159.602C451.359 159.258 452.207 159.086 453.129 159.086C454.59 159.086 455.734 159.453 456.562 160.188C457.391 160.914 457.82 161.918 457.852 163.199V169.035C457.852 170.199 458 171.125 458.297 171.812V172H456.023ZM452.426 170.348C453.105 170.348 453.75 170.172 454.359 169.82C454.969 169.469 455.41 169.012 455.684 168.449V165.848H453.984C451.328 165.848 450 166.625 450 168.18C450 168.859 450.227 169.391 450.68 169.773C451.133 170.156 451.715 170.348 452.426 170.348ZM464.191 156.25V159.32H466.559V160.996H464.191V168.859C464.191 169.367 464.297 169.75 464.508 170.008C464.719 170.258 465.078 170.383 465.586 170.383C465.836 170.383 466.18 170.336 466.617 170.242V172C466.047 172.156 465.492 172.234 464.953 172.234C463.984 172.234 463.254 171.941 462.762 171.355C462.27 170.77 462.023 169.938 462.023 168.859V160.996H459.715V159.32H462.023V156.25H464.191ZM468.293 165.543C468.293 164.301 468.535 163.184 469.02 162.191C469.512 161.199 470.191 160.434 471.059 159.895C471.934 159.355 472.93 159.086 474.047 159.086C475.773 159.086 477.168 159.684 478.23 160.879C479.301 162.074 479.836 163.664 479.836 165.648V165.801C479.836 167.035 479.598 168.145 479.121 169.129C478.652 170.105 477.977 170.867 477.094 171.414C476.219 171.961 475.211 172.234 474.07 172.234C472.352 172.234 470.957 171.637 469.887 170.441C468.824 169.246 468.293 167.664 468.293 165.695V165.543ZM470.473 165.801C470.473 167.207 470.797 168.336 471.445 169.188C472.102 170.039 472.977 170.465 474.07 170.465C475.172 170.465 476.047 170.035 476.695 169.176C477.344 168.309 477.668 167.098 477.668 165.543C477.668 164.152 477.336 163.027 476.672 162.168C476.016 161.301 475.141 160.867 474.047 160.867C472.977 160.867 472.113 161.293 471.457 162.145C470.801 162.996 470.473 164.215 470.473 165.801ZM488.684 161.266C488.355 161.211 488 161.184 487.617 161.184C486.195 161.184 485.23 161.789 484.723 163V172H482.555V159.32H484.664L484.699 160.785C485.41 159.652 486.418 159.086 487.723 159.086C488.145 159.086 488.465 159.141 488.684 159.25V161.266ZM498.07 168.637C498.07 168.051 497.848 167.598 497.402 167.277C496.965 166.949 496.195 166.668 495.094 166.434C494 166.199 493.129 165.918 492.48 165.59C491.84 165.262 491.363 164.871 491.051 164.418C490.746 163.965 490.594 163.426 490.594 162.801C490.594 161.762 491.031 160.883 491.906 160.164C492.789 159.445 493.914 159.086 495.281 159.086C496.719 159.086 497.883 159.457 498.773 160.199C499.672 160.941 500.121 161.891 500.121 163.047H497.941C497.941 162.453 497.688 161.941 497.18 161.512C496.68 161.082 496.047 160.867 495.281 160.867C494.492 160.867 493.875 161.039 493.43 161.383C492.984 161.727 492.762 162.176 492.762 162.73C492.762 163.254 492.969 163.648 493.383 163.914C493.797 164.18 494.543 164.434 495.621 164.676C496.707 164.918 497.586 165.207 498.258 165.543C498.93 165.879 499.426 166.285 499.746 166.762C500.074 167.23 500.238 167.805 500.238 168.484C500.238 169.617 499.785 170.527 498.879 171.215C497.973 171.895 496.797 172.234 495.352 172.234C494.336 172.234 493.438 172.055 492.656 171.695C491.875 171.336 491.262 170.836 490.816 170.195C490.379 169.547 490.16 168.848 490.16 168.098H492.328C492.367 168.824 492.656 169.402 493.195 169.832C493.742 170.254 494.461 170.465 495.352 170.465C496.172 170.465 496.828 170.301 497.32 169.973C497.82 169.637 498.07 169.191 498.07 168.637ZM9.99609 207H7.82812V194.32H9.99609V207ZM7.65234 190.957C7.65234 190.605 7.75781 190.309 7.96875 190.066C8.1875 189.824 8.50781 189.703 8.92969 189.703C9.35156 189.703 9.67188 189.824 9.89062 190.066C10.1094 190.309 10.2188 190.605 10.2188 190.957C10.2188 191.309 10.1094 191.602 9.89062 191.836C9.67188 192.07 9.35156 192.188 8.92969 192.188C8.50781 192.188 8.1875 192.07 7.96875 191.836C7.75781 191.602 7.65234 191.309 7.65234 190.957ZM12.9492 200.555C12.9492 198.609 13.4102 197.047 14.332 195.867C15.2539 194.68 16.4609 194.086 17.9531 194.086C19.4375 194.086 20.6133 194.594 21.4805 195.609V189H23.6484V207H21.6562L21.5508 205.641C20.6836 206.703 19.4766 207.234 17.9297 207.234C16.4609 207.234 15.2617 206.633 14.332 205.43C13.4102 204.227 12.9492 202.656 12.9492 200.719V200.555ZM15.1172 200.801C15.1172 202.238 15.4141 203.363 16.0078 204.176C16.6016 204.988 17.4219 205.395 18.4688 205.395C19.8438 205.395 20.8477 204.777 21.4805 203.543V197.719C20.832 196.523 19.8359 195.926 18.4922 195.926C17.4297 195.926 16.6016 196.336 16.0078 197.156C15.4141 197.977 15.1172 199.191 15.1172 200.801ZM32.2852 207.234C30.5664 207.234 29.168 206.672 28.0898 205.547C27.0117 204.414 26.4727 202.902 26.4727 201.012V200.613C26.4727 199.355 26.7109 198.234 27.1875 197.25C27.6719 196.258 28.3438 195.484 29.2031 194.93C30.0703 194.367 31.0078 194.086 32.0156 194.086C33.6641 194.086 34.9453 194.629 35.8594 195.715C36.7734 196.801 37.2305 198.355 37.2305 200.379V201.281H28.6406C28.6719 202.531 29.0352 203.543 29.7305 204.316C30.4336 205.082 31.3242 205.465 32.4023 205.465C33.168 205.465 33.8164 205.309 34.3477 204.996C34.8789 204.684 35.3438 204.27 35.7422 203.754L37.0664 204.785C36.0039 206.418 34.4102 207.234 32.2852 207.234ZM32.0156 195.867C31.1406 195.867 30.4062 196.188 29.8125 196.828C29.2188 197.461 28.8516 198.352 28.7109 199.5H35.0625V199.336C35 198.234 34.7031 197.383 34.1719 196.781C33.6406 196.172 32.9219 195.867 32.0156 195.867ZM41.8008 194.32L41.8711 195.914C42.8398 194.695 44.1055 194.086 45.668 194.086C48.3477 194.086 49.6992 195.598 49.7227 198.621V207H47.5547V198.609C47.5469 197.695 47.3359 197.02 46.9219 196.582C46.5156 196.145 45.8789 195.926 45.0117 195.926C44.3086 195.926 43.6914 196.113 43.1602 196.488C42.6289 196.863 42.2148 197.355 41.918 197.965V207H39.75V194.32H41.8008ZM55.9336 191.25V194.32H58.3008V195.996H55.9336V203.859C55.9336 204.367 56.0391 204.75 56.25 205.008C56.4609 205.258 56.8203 205.383 57.3281 205.383C57.5781 205.383 57.9219 205.336 58.3594 205.242V207C57.7891 207.156 57.2344 207.234 56.6953 207.234C55.7266 207.234 54.9961 206.941 54.5039 206.355C54.0117 205.77 53.7656 204.938 53.7656 203.859V195.996H51.457V194.32H53.7656V191.25H55.9336ZM63.1992 207H61.0312V194.32H63.1992V207ZM60.8555 190.957C60.8555 190.605 60.9609 190.309 61.1719 190.066C61.3906 189.824 61.7109 189.703 62.1328 189.703C62.5547 189.703 62.875 189.824 63.0938 190.066C63.3125 190.309 63.4219 190.605 63.4219 190.957C63.4219 191.309 63.3125 191.602 63.0938 191.836C62.875 192.07 62.5547 192.188 62.1328 192.188C61.7109 192.188 61.3906 192.07 61.1719 191.836C60.9609 191.602 60.8555 191.309 60.8555 190.957ZM67.7461 207V195.996H65.7422V194.32H67.7461V193.02C67.7461 191.66 68.1094 190.609 68.8359 189.867C69.5625 189.125 70.5898 188.754 71.918 188.754C72.418 188.754 72.9141 188.82 73.4062 188.953L73.2891 190.711C72.9219 190.641 72.5312 190.605 72.1172 190.605C71.4141 190.605 70.8711 190.812 70.4883 191.227C70.1055 191.633 69.9141 192.219 69.9141 192.984V194.32H72.6211V195.996H69.9141V207H67.7461ZM79.1719 203.824L82.125 194.32H84.4453L79.3477 208.957C78.5586 211.066 77.3047 212.121 75.5859 212.121L75.1758 212.086L74.3672 211.934V210.176L74.9531 210.223C75.6875 210.223 76.2578 210.074 76.6641 209.777C77.0781 209.48 77.418 208.938 77.6836 208.148L78.1641 206.859L73.6406 194.32H76.0078L79.1719 203.824ZM103.055 200.801C103.055 202.73 102.613 204.285 101.73 205.465C100.848 206.645 99.6523 207.234 98.1445 207.234C96.6055 207.234 95.3945 206.746 94.5117 205.77V211.875H92.3438V194.32H94.3242L94.4297 195.727C95.3125 194.633 96.5391 194.086 98.1094 194.086C99.6328 194.086 100.836 194.66 101.719 195.809C102.609 196.957 103.055 198.555 103.055 200.602V200.801ZM100.887 200.555C100.887 199.125 100.582 197.996 99.9727 197.168C99.3633 196.34 98.5273 195.926 97.4648 195.926C96.1523 195.926 95.168 196.508 94.5117 197.672V203.73C95.1602 204.887 96.1523 205.465 97.4883 205.465C98.5273 205.465 99.3516 205.055 99.9609 204.234C100.578 203.406 100.887 202.18 100.887 200.555ZM105.246 200.543C105.246 199.301 105.488 198.184 105.973 197.191C106.465 196.199 107.145 195.434 108.012 194.895C108.887 194.355 109.883 194.086 111 194.086C112.727 194.086 114.121 194.684 115.184 195.879C116.254 197.074 116.789 198.664 116.789 200.648V200.801C116.789 202.035 116.551 203.145 116.074 204.129C115.605 205.105 114.93 205.867 114.047 206.414C113.172 206.961 112.164 207.234 111.023 207.234C109.305 207.234 107.91 206.637 106.84 205.441C105.777 204.246 105.246 202.664 105.246 200.695V200.543ZM107.426 200.801C107.426 202.207 107.75 203.336 108.398 204.188C109.055 205.039 109.93 205.465 111.023 205.465C112.125 205.465 113 205.035 113.648 204.176C114.297 203.309 114.621 202.098 114.621 200.543C114.621 199.152 114.289 198.027 113.625 197.168C112.969 196.301 112.094 195.867 111 195.867C109.93 195.867 109.066 196.293 108.41 197.145C107.754 197.996 107.426 199.215 107.426 200.801ZM122.449 191.25V194.32H124.816V195.996H122.449V203.859C122.449 204.367 122.555 204.75 122.766 205.008C122.977 205.258 123.336 205.383 123.844 205.383C124.094 205.383 124.438 205.336 124.875 205.242V207C124.305 207.156 123.75 207.234 123.211 207.234C122.242 207.234 121.512 206.941 121.02 206.355C120.527 205.77 120.281 204.938 120.281 203.859V195.996H117.973V194.32H120.281V191.25H122.449ZM132.621 207.234C130.902 207.234 129.504 206.672 128.426 205.547C127.348 204.414 126.809 202.902 126.809 201.012V200.613C126.809 199.355 127.047 198.234 127.523 197.25C128.008 196.258 128.68 195.484 129.539 194.93C130.406 194.367 131.344 194.086 132.352 194.086C134 194.086 135.281 194.629 136.195 195.715C137.109 196.801 137.566 198.355 137.566 200.379V201.281H128.977C129.008 202.531 129.371 203.543 130.066 204.316C130.77 205.082 131.66 205.465 132.738 205.465C133.504 205.465 134.152 205.309 134.684 204.996C135.215 204.684 135.68 204.27 136.078 203.754L137.402 204.785C136.34 206.418 134.746 207.234 132.621 207.234ZM132.352 195.867C131.477 195.867 130.742 196.188 130.148 196.828C129.555 197.461 129.188 198.352 129.047 199.5H135.398V199.336C135.336 198.234 135.039 197.383 134.508 196.781C133.977 196.172 133.258 195.867 132.352 195.867ZM142.137 194.32L142.207 195.914C143.176 194.695 144.441 194.086 146.004 194.086C148.684 194.086 150.035 195.598 150.059 198.621V207H147.891V198.609C147.883 197.695 147.672 197.02 147.258 196.582C146.852 196.145 146.215 195.926 145.348 195.926C144.645 195.926 144.027 196.113 143.496 196.488C142.965 196.863 142.551 197.355 142.254 197.965V207H140.086V194.32H142.137ZM156.27 191.25V194.32H158.637V195.996H156.27V203.859C156.27 204.367 156.375 204.75 156.586 205.008C156.797 205.258 157.156 205.383 157.664 205.383C157.914 205.383 158.258 205.336 158.695 205.242V207C158.125 207.156 157.57 207.234 157.031 207.234C156.062 207.234 155.332 206.941 154.84 206.355C154.348 205.77 154.102 204.938 154.102 203.859V195.996H151.793V194.32H154.102V191.25H156.27ZM163.535 207H161.367V194.32H163.535V207ZM161.191 190.957C161.191 190.605 161.297 190.309 161.508 190.066C161.727 189.824 162.047 189.703 162.469 189.703C162.891 189.703 163.211 189.824 163.43 190.066C163.648 190.309 163.758 190.605 163.758 190.957C163.758 191.309 163.648 191.602 163.43 191.836C163.211 192.07 162.891 192.188 162.469 192.188C162.047 192.188 161.727 192.07 161.508 191.836C161.297 191.602 161.191 191.309 161.191 190.957ZM174.844 207C174.719 206.75 174.617 206.305 174.539 205.664C173.531 206.711 172.328 207.234 170.93 207.234C169.68 207.234 168.652 206.883 167.848 206.18C167.051 205.469 166.652 204.57 166.652 203.484C166.652 202.164 167.152 201.141 168.152 200.414C169.16 199.68 170.574 199.312 172.395 199.312H174.504V198.316C174.504 197.559 174.277 196.957 173.824 196.512C173.371 196.059 172.703 195.832 171.82 195.832C171.047 195.832 170.398 196.027 169.875 196.418C169.352 196.809 169.09 197.281 169.09 197.836H166.91C166.91 197.203 167.133 196.594 167.578 196.008C168.031 195.414 168.641 194.945 169.406 194.602C170.18 194.258 171.027 194.086 171.949 194.086C173.41 194.086 174.555 194.453 175.383 195.188C176.211 195.914 176.641 196.918 176.672 198.199V204.035C176.672 205.199 176.82 206.125 177.117 206.812V207H174.844ZM171.246 205.348C171.926 205.348 172.57 205.172 173.18 204.82C173.789 204.469 174.23 204.012 174.504 203.449V200.848H172.805C170.148 200.848 168.82 201.625 168.82 203.18C168.82 203.859 169.047 204.391 169.5 204.773C169.953 205.156 170.535 205.348 171.246 205.348ZM182.426 207H180.258V189H182.426V207ZM194.215 207H192.047V189H194.215V207ZM205.523 207C205.398 206.75 205.297 206.305 205.219 205.664C204.211 206.711 203.008 207.234 201.609 207.234C200.359 207.234 199.332 206.883 198.527 206.18C197.73 205.469 197.332 204.57 197.332 203.484C197.332 202.164 197.832 201.141 198.832 200.414C199.84 199.68 201.254 199.312 203.074 199.312H205.184V198.316C205.184 197.559 204.957 196.957 204.504 196.512C204.051 196.059 203.383 195.832 202.5 195.832C201.727 195.832 201.078 196.027 200.555 196.418C200.031 196.809 199.77 197.281 199.77 197.836H197.59C197.59 197.203 197.812 196.594 198.258 196.008C198.711 195.414 199.32 194.945 200.086 194.602C200.859 194.258 201.707 194.086 202.629 194.086C204.09 194.086 205.234 194.453 206.062 195.188C206.891 195.914 207.32 196.918 207.352 198.199V204.035C207.352 205.199 207.5 206.125 207.797 206.812V207H205.523ZM201.926 205.348C202.605 205.348 203.25 205.172 203.859 204.82C204.469 204.469 204.91 204.012 205.184 203.449V200.848H203.484C200.828 200.848 199.5 201.625 199.5 203.18C199.5 203.859 199.727 204.391 200.18 204.773C200.633 205.156 201.215 205.348 201.926 205.348ZM221.484 200.801C221.484 202.738 221.039 204.297 220.148 205.477C219.258 206.648 218.062 207.234 216.562 207.234C214.961 207.234 213.723 206.668 212.848 205.535L212.742 207H210.75V189H212.918V195.715C213.793 194.629 215 194.086 216.539 194.086C218.078 194.086 219.285 194.668 220.16 195.832C221.043 196.996 221.484 198.59 221.484 200.613V200.801ZM219.316 200.555C219.316 199.078 219.031 197.938 218.461 197.133C217.891 196.328 217.07 195.926 216 195.926C214.57 195.926 213.543 196.59 212.918 197.918V203.402C213.582 204.73 214.617 205.395 216.023 205.395C217.062 205.395 217.871 204.992 218.449 204.188C219.027 203.383 219.316 202.172 219.316 200.555ZM223.652 200.543C223.652 199.301 223.895 198.184 224.379 197.191C224.871 196.199 225.551 195.434 226.418 194.895C227.293 194.355 228.289 194.086 229.406 194.086C231.133 194.086 232.527 194.684 233.59 195.879C234.66 197.074 235.195 198.664 235.195 200.648V200.801C235.195 202.035 234.957 203.145 234.48 204.129C234.012 205.105 233.336 205.867 232.453 206.414C231.578 206.961 230.57 207.234 229.43 207.234C227.711 207.234 226.316 206.637 225.246 205.441C224.184 204.246 223.652 202.664 223.652 200.695V200.543ZM225.832 200.801C225.832 202.207 226.156 203.336 226.805 204.188C227.461 205.039 228.336 205.465 229.43 205.465C230.531 205.465 231.406 205.035 232.055 204.176C232.703 203.309 233.027 202.098 233.027 200.543C233.027 199.152 232.695 198.027 232.031 197.168C231.375 196.301 230.5 195.867 229.406 195.867C228.336 195.867 227.473 196.293 226.816 197.145C226.16 197.996 225.832 199.215 225.832 200.801ZM244.043 196.266C243.715 196.211 243.359 196.184 242.977 196.184C241.555 196.184 240.59 196.789 240.082 198V207H237.914V194.32H240.023L240.059 195.785C240.77 194.652 241.777 194.086 243.082 194.086C243.504 194.086 243.824 194.141 244.043 194.25V196.266ZM254.941 191.25V194.32H257.309V195.996H254.941V203.859C254.941 204.367 255.047 204.75 255.258 205.008C255.469 205.258 255.828 205.383 256.336 205.383C256.586 205.383 256.93 205.336 257.367 205.242V207C256.797 207.156 256.242 207.234 255.703 207.234C254.734 207.234 254.004 206.941 253.512 206.355C253.02 205.77 252.773 204.938 252.773 203.859V195.996H250.465V194.32H252.773V191.25H254.941ZM265.98 196.266C265.652 196.211 265.297 196.184 264.914 196.184C263.492 196.184 262.527 196.789 262.02 198V207H259.852V194.32H261.961L261.996 195.785C262.707 194.652 263.715 194.086 265.02 194.086C265.441 194.086 265.762 194.141 265.98 194.25V196.266ZM275.344 207C275.219 206.75 275.117 206.305 275.039 205.664C274.031 206.711 272.828 207.234 271.43 207.234C270.18 207.234 269.152 206.883 268.348 206.18C267.551 205.469 267.152 204.57 267.152 203.484C267.152 202.164 267.652 201.141 268.652 200.414C269.66 199.68 271.074 199.312 272.895 199.312H275.004V198.316C275.004 197.559 274.777 196.957 274.324 196.512C273.871 196.059 273.203 195.832 272.32 195.832C271.547 195.832 270.898 196.027 270.375 196.418C269.852 196.809 269.59 197.281 269.59 197.836H267.41C267.41 197.203 267.633 196.594 268.078 196.008C268.531 195.414 269.141 194.945 269.906 194.602C270.68 194.258 271.527 194.086 272.449 194.086C273.91 194.086 275.055 194.453 275.883 195.188C276.711 195.914 277.141 196.918 277.172 198.199V204.035C277.172 205.199 277.32 206.125 277.617 206.812V207H275.344ZM271.746 205.348C272.426 205.348 273.07 205.172 273.68 204.82C274.289 204.469 274.73 204.012 275.004 203.449V200.848H273.305C270.648 200.848 269.32 201.625 269.32 203.18C269.32 203.859 269.547 204.391 270 204.773C270.453 205.156 271.035 205.348 271.746 205.348ZM281.637 207V195.996H279.633V194.32H281.637V193.02C281.637 191.66 282 190.609 282.727 189.867C283.453 189.125 284.48 188.754 285.809 188.754C286.309 188.754 286.805 188.82 287.297 188.953L287.18 190.711C286.812 190.641 286.422 190.605 286.008 190.605C285.305 190.605 284.762 190.812 284.379 191.227C283.996 191.633 283.805 192.219 283.805 192.984V194.32H288.492V193.242C288.492 191.828 288.895 190.727 289.699 189.938C290.512 189.148 291.656 188.754 293.133 188.754C294.008 188.754 295.113 188.992 296.449 189.469L296.086 191.297C295.109 190.906 294.176 190.711 293.285 190.711C292.355 190.711 291.684 190.918 291.27 191.332C290.863 191.746 290.66 192.375 290.66 193.219V194.32H293.262V195.996H290.66V207H288.492V195.996H283.805V207H281.637ZM297.516 207H295.348V194.32H297.516V207ZM306.141 205.465C306.914 205.465 307.59 205.23 308.168 204.762C308.746 204.293 309.066 203.707 309.129 203.004H311.18C311.141 203.73 310.891 204.422 310.43 205.078C309.969 205.734 309.352 206.258 308.578 206.648C307.812 207.039 307 207.234 306.141 207.234C304.414 207.234 303.039 206.66 302.016 205.512C301 204.355 300.492 202.777 300.492 200.777V200.414C300.492 199.18 300.719 198.082 301.172 197.121C301.625 196.16 302.273 195.414 303.117 194.883C303.969 194.352 304.973 194.086 306.129 194.086C307.551 194.086 308.73 194.512 309.668 195.363C310.613 196.215 311.117 197.32 311.18 198.68H309.129C309.066 197.859 308.754 197.188 308.191 196.664C307.637 196.133 306.949 195.867 306.129 195.867C305.027 195.867 304.172 196.266 303.562 197.062C302.961 197.852 302.66 198.996 302.66 200.496V200.906C302.66 202.367 302.961 203.492 303.562 204.281C304.164 205.07 305.023 205.465 306.141 205.465ZM317.156 201.129L315.797 202.547V207H313.629V189H315.797V199.887L316.957 198.492L320.906 194.32H323.543L318.609 199.617L324.117 207H321.574L317.156 201.129ZM328.137 207H325.969V194.32H328.137V207ZM325.793 190.957C325.793 190.605 325.898 190.309 326.109 190.066C326.328 189.824 326.648 189.703 327.07 189.703C327.492 189.703 327.812 189.824 328.031 190.066C328.25 190.309 328.359 190.605 328.359 190.957C328.359 191.309 328.25 191.602 328.031 191.836C327.812 192.07 327.492 192.188 327.07 192.188C326.648 192.188 326.328 192.07 326.109 191.836C325.898 191.602 325.793 191.309 325.793 190.957ZM333.668 194.32L333.738 195.914C334.707 194.695 335.973 194.086 337.535 194.086C340.215 194.086 341.566 195.598 341.59 198.621V207H339.422V198.609C339.414 197.695 339.203 197.02 338.789 196.582C338.383 196.145 337.746 195.926 336.879 195.926C336.176 195.926 335.559 196.113 335.027 196.488C334.496 196.863 334.082 197.355 333.785 197.965V207H331.617V194.32H333.668ZM344.344 200.555C344.344 198.578 344.801 197.008 345.715 195.844C346.629 194.672 347.84 194.086 349.348 194.086C350.895 194.086 352.102 194.633 352.969 195.727L353.074 194.32H355.055V206.695C355.055 208.336 354.566 209.629 353.59 210.574C352.621 211.52 351.316 211.992 349.676 211.992C348.762 211.992 347.867 211.797 346.992 211.406C346.117 211.016 345.449 210.48 344.988 209.801L346.113 208.5C347.043 209.648 348.18 210.223 349.523 210.223C350.578 210.223 351.398 209.926 351.984 209.332C352.578 208.738 352.875 207.902 352.875 206.824V205.734C352.008 206.734 350.824 207.234 349.324 207.234C347.84 207.234 346.637 206.637 345.715 205.441C344.801 204.246 344.344 202.617 344.344 200.555ZM346.523 200.801C346.523 202.23 346.816 203.355 347.402 204.176C347.988 204.988 348.809 205.395 349.863 205.395C351.23 205.395 352.234 204.773 352.875 203.531V197.742C352.211 196.531 351.215 195.926 349.887 195.926C348.832 195.926 348.008 196.336 347.414 197.156C346.82 197.977 346.523 199.191 346.523 200.801ZM372.117 205.746C371.273 206.738 370.035 207.234 368.402 207.234C367.051 207.234 366.02 206.844 365.309 206.062C364.605 205.273 364.25 204.109 364.242 202.57V194.32H366.41V202.512C366.41 204.434 367.191 205.395 368.754 205.395C370.41 205.395 371.512 204.777 372.059 203.543V194.32H374.227V207H372.164L372.117 205.746ZM379.582 194.32L379.652 195.914C380.621 194.695 381.887 194.086 383.449 194.086C386.129 194.086 387.48 195.598 387.504 198.621V207H385.336V198.609C385.328 197.695 385.117 197.02 384.703 196.582C384.297 196.145 383.66 195.926 382.793 195.926C382.09 195.926 381.473 196.113 380.941 196.488C380.41 196.863 379.996 197.355 379.699 197.965V207H377.531V194.32H379.582ZM390.246 200.555C390.246 198.609 390.707 197.047 391.629 195.867C392.551 194.68 393.758 194.086 395.25 194.086C396.734 194.086 397.91 194.594 398.777 195.609V189H400.945V207H398.953L398.848 205.641C397.98 206.703 396.773 207.234 395.227 207.234C393.758 207.234 392.559 206.633 391.629 205.43C390.707 204.227 390.246 202.656 390.246 200.719V200.555ZM392.414 200.801C392.414 202.238 392.711 203.363 393.305 204.176C393.898 204.988 394.719 205.395 395.766 205.395C397.141 205.395 398.145 204.777 398.777 203.543V197.719C398.129 196.523 397.133 195.926 395.789 195.926C394.727 195.926 393.898 196.336 393.305 197.156C392.711 197.977 392.414 199.191 392.414 200.801ZM409.582 207.234C407.863 207.234 406.465 206.672 405.387 205.547C404.309 204.414 403.77 202.902 403.77 201.012V200.613C403.77 199.355 404.008 198.234 404.484 197.25C404.969 196.258 405.641 195.484 406.5 194.93C407.367 194.367 408.305 194.086 409.312 194.086C410.961 194.086 412.242 194.629 413.156 195.715C414.07 196.801 414.527 198.355 414.527 200.379V201.281H405.938C405.969 202.531 406.332 203.543 407.027 204.316C407.73 205.082 408.621 205.465 409.699 205.465C410.465 205.465 411.113 205.309 411.645 204.996C412.176 204.684 412.641 204.27 413.039 203.754L414.363 204.785C413.301 206.418 411.707 207.234 409.582 207.234ZM409.312 195.867C408.438 195.867 407.703 196.188 407.109 196.828C406.516 197.461 406.148 198.352 406.008 199.5H412.359V199.336C412.297 198.234 412 197.383 411.469 196.781C410.938 196.172 410.219 195.867 409.312 195.867ZM423.176 196.266C422.848 196.211 422.492 196.184 422.109 196.184C420.688 196.184 419.723 196.789 419.215 198V207H417.047V194.32H419.156L419.191 195.785C419.902 194.652 420.91 194.086 422.215 194.086C422.637 194.086 422.957 194.141 423.176 194.25V196.266ZM10.8867 224.938L16.4648 238.859L22.043 224.938H24.9609V242H22.7109V235.355L22.9219 228.184L17.3203 242H15.5977L10.0078 228.219L10.2305 235.355V242H7.98047V224.938H10.8867ZM36.4219 242C36.2969 241.75 36.1953 241.305 36.1172 240.664C35.1094 241.711 33.9062 242.234 32.5078 242.234C31.2578 242.234 30.2305 241.883 29.4258 241.18C28.6289 240.469 28.2305 239.57 28.2305 238.484C28.2305 237.164 28.7305 236.141 29.7305 235.414C30.7383 234.68 32.1523 234.312 33.9727 234.312H36.082V233.316C36.082 232.559 35.8555 231.957 35.4023 231.512C34.9492 231.059 34.2812 230.832 33.3984 230.832C32.625 230.832 31.9766 231.027 31.4531 231.418C30.9297 231.809 30.668 232.281 30.668 232.836H28.4883C28.4883 232.203 28.7109 231.594 29.1562 231.008C29.6094 230.414 30.2188 229.945 30.9844 229.602C31.7578 229.258 32.6055 229.086 33.5273 229.086C34.9883 229.086 36.1328 229.453 36.9609 230.188C37.7891 230.914 38.2188 231.918 38.25 233.199V239.035C38.25 240.199 38.3984 241.125 38.6953 241.812V242H36.4219ZM32.8242 240.348C33.5039 240.348 34.1484 240.172 34.7578 239.82C35.3672 239.469 35.8086 239.012 36.082 238.449V235.848H34.3828C31.7266 235.848 30.3984 236.625 30.3984 238.18C30.3984 238.859 30.625 239.391 31.0781 239.773C31.5312 240.156 32.1133 240.348 32.8242 240.348ZM49.0312 238.637C49.0312 238.051 48.8086 237.598 48.3633 237.277C47.9258 236.949 47.1562 236.668 46.0547 236.434C44.9609 236.199 44.0898 235.918 43.4414 235.59C42.8008 235.262 42.3242 234.871 42.0117 234.418C41.707 233.965 41.5547 233.426 41.5547 232.801C41.5547 231.762 41.9922 230.883 42.8672 230.164C43.75 229.445 44.875 229.086 46.2422 229.086C47.6797 229.086 48.8438 229.457 49.7344 230.199C50.6328 230.941 51.082 231.891 51.082 233.047H48.9023C48.9023 232.453 48.6484 231.941 48.1406 231.512C47.6406 231.082 47.0078 230.867 46.2422 230.867C45.4531 230.867 44.8359 231.039 44.3906 231.383C43.9453 231.727 43.7227 232.176 43.7227 232.73C43.7227 233.254 43.9297 233.648 44.3438 233.914C44.7578 234.18 45.5039 234.434 46.582 234.676C47.668 234.918 48.5469 235.207 49.2188 235.543C49.8906 235.879 50.3867 236.285 50.707 236.762C51.0352 237.23 51.1992 237.805 51.1992 238.484C51.1992 239.617 50.7461 240.527 49.8398 241.215C48.9336 241.895 47.7578 242.234 46.3125 242.234C45.2969 242.234 44.3984 242.055 43.6172 241.695C42.8359 241.336 42.2227 240.836 41.7773 240.195C41.3398 239.547 41.1211 238.848 41.1211 238.098H43.2891C43.3281 238.824 43.6172 239.402 44.1562 239.832C44.7031 240.254 45.4219 240.465 46.3125 240.465C47.1328 240.465 47.7891 240.301 48.2812 239.973C48.7812 239.637 49.0312 239.191 49.0312 238.637ZM61.4062 238.637C61.4062 238.051 61.1836 237.598 60.7383 237.277C60.3008 236.949 59.5312 236.668 58.4297 236.434C57.3359 236.199 56.4648 235.918 55.8164 235.59C55.1758 235.262 54.6992 234.871 54.3867 234.418C54.082 233.965 53.9297 233.426 53.9297 232.801C53.9297 231.762 54.3672 230.883 55.2422 230.164C56.125 229.445 57.25 229.086 58.6172 229.086C60.0547 229.086 61.2188 229.457 62.1094 230.199C63.0078 230.941 63.457 231.891 63.457 233.047H61.2773C61.2773 232.453 61.0234 231.941 60.5156 231.512C60.0156 231.082 59.3828 230.867 58.6172 230.867C57.8281 230.867 57.2109 231.039 56.7656 231.383C56.3203 231.727 56.0977 232.176 56.0977 232.73C56.0977 233.254 56.3047 233.648 56.7188 233.914C57.1328 234.18 57.8789 234.434 58.957 234.676C60.043 234.918 60.9219 235.207 61.5938 235.543C62.2656 235.879 62.7617 236.285 63.082 236.762C63.4102 237.23 63.5742 237.805 63.5742 238.484C63.5742 239.617 63.1211 240.527 62.2148 241.215C61.3086 241.895 60.1328 242.234 58.6875 242.234C57.6719 242.234 56.7734 242.055 55.9922 241.695C55.2109 241.336 54.5977 240.836 54.1523 240.195C53.7148 239.547 53.4961 238.848 53.4961 238.098H55.6641C55.7031 238.824 55.9922 239.402 56.5312 239.832C57.0781 240.254 57.7969 240.465 58.6875 240.465C59.5078 240.465 60.1641 240.301 60.6562 239.973C61.1562 239.637 61.4062 239.191 61.4062 238.637ZM74.2266 242C74.1016 241.75 74 241.305 73.9219 240.664C72.9141 241.711 71.7109 242.234 70.3125 242.234C69.0625 242.234 68.0352 241.883 67.2305 241.18C66.4336 240.469 66.0352 239.57 66.0352 238.484C66.0352 237.164 66.5352 236.141 67.5352 235.414C68.543 234.68 69.957 234.312 71.7773 234.312H73.8867V233.316C73.8867 232.559 73.6602 231.957 73.207 231.512C72.7539 231.059 72.0859 230.832 71.2031 230.832C70.4297 230.832 69.7812 231.027 69.2578 231.418C68.7344 231.809 68.4727 232.281 68.4727 232.836H66.293C66.293 232.203 66.5156 231.594 66.9609 231.008C67.4141 230.414 68.0234 229.945 68.7891 229.602C69.5625 229.258 70.4102 229.086 71.332 229.086C72.793 229.086 73.9375 229.453 74.7656 230.188C75.5938 230.914 76.0234 231.918 76.0547 233.199V239.035C76.0547 240.199 76.2031 241.125 76.5 241.812V242H74.2266ZM70.6289 240.348C71.3086 240.348 71.9531 240.172 72.5625 239.82C73.1719 239.469 73.6133 239.012 73.8867 238.449V235.848H72.1875C69.5312 235.848 68.2031 236.625 68.2031 238.18C68.2031 238.859 68.4297 239.391 68.8828 239.773C69.3359 240.156 69.918 240.348 70.6289 240.348ZM84.5391 240.465C85.3125 240.465 85.9883 240.23 86.5664 239.762C87.1445 239.293 87.4648 238.707 87.5273 238.004H89.5781C89.5391 238.73 89.2891 239.422 88.8281 240.078C88.3672 240.734 87.75 241.258 86.9766 241.648C86.2109 242.039 85.3984 242.234 84.5391 242.234C82.8125 242.234 81.4375 241.66 80.4141 240.512C79.3984 239.355 78.8906 237.777 78.8906 235.777V235.414C78.8906 234.18 79.1172 233.082 79.5703 232.121C80.0234 231.16 80.6719 230.414 81.5156 229.883C82.3672 229.352 83.3711 229.086 84.5273 229.086C85.9492 229.086 87.1289 229.512 88.0664 230.363C89.0117 231.215 89.5156 232.32 89.5781 233.68H87.5273C87.4648 232.859 87.1523 232.188 86.5898 231.664C86.0352 231.133 85.3477 230.867 84.5273 230.867C83.4258 230.867 82.5703 231.266 81.9609 232.062C81.3594 232.852 81.0586 233.996 81.0586 235.496V235.906C81.0586 237.367 81.3594 238.492 81.9609 239.281C82.5625 240.07 83.4219 240.465 84.5391 240.465ZM94.1836 230.855C95.1445 229.676 96.3945 229.086 97.9336 229.086C100.613 229.086 101.965 230.598 101.988 233.621V242H99.8203V233.609C99.8125 232.695 99.6016 232.02 99.1875 231.582C98.7812 231.145 98.1445 230.926 97.2773 230.926C96.5742 230.926 95.957 231.113 95.4258 231.488C94.8945 231.863 94.4805 232.355 94.1836 232.965V242H92.0156V224H94.1836V230.855ZM113.062 240.746C112.219 241.738 110.98 242.234 109.348 242.234C107.996 242.234 106.965 241.844 106.254 241.062C105.551 240.273 105.195 239.109 105.188 237.57V229.32H107.355V237.512C107.355 239.434 108.137 240.395 109.699 240.395C111.355 240.395 112.457 239.777 113.004 238.543V229.32H115.172V242H113.109L113.062 240.746ZM125.859 238.637C125.859 238.051 125.637 237.598 125.191 237.277C124.754 236.949 123.984 236.668 122.883 236.434C121.789 236.199 120.918 235.918 120.27 235.59C119.629 235.262 119.152 234.871 118.84 234.418C118.535 233.965 118.383 233.426 118.383 232.801C118.383 231.762 118.82 230.883 119.695 230.164C120.578 229.445 121.703 229.086 123.07 229.086C124.508 229.086 125.672 229.457 126.562 230.199C127.461 230.941 127.91 231.891 127.91 233.047H125.73C125.73 232.453 125.477 231.941 124.969 231.512C124.469 231.082 123.836 230.867 123.07 230.867C122.281 230.867 121.664 231.039 121.219 231.383C120.773 231.727 120.551 232.176 120.551 232.73C120.551 233.254 120.758 233.648 121.172 233.914C121.586 234.18 122.332 234.434 123.41 234.676C124.496 234.918 125.375 235.207 126.047 235.543C126.719 235.879 127.215 236.285 127.535 236.762C127.863 237.23 128.027 237.805 128.027 238.484C128.027 239.617 127.574 240.527 126.668 241.215C125.762 241.895 124.586 242.234 123.141 242.234C122.125 242.234 121.227 242.055 120.445 241.695C119.664 241.336 119.051 240.836 118.605 240.195C118.168 239.547 117.949 238.848 117.949 238.098H120.117C120.156 238.824 120.445 239.402 120.984 239.832C121.531 240.254 122.25 240.465 123.141 240.465C123.961 240.465 124.617 240.301 125.109 239.973C125.609 239.637 125.859 239.191 125.859 238.637ZM136.113 242.234C134.395 242.234 132.996 241.672 131.918 240.547C130.84 239.414 130.301 237.902 130.301 236.012V235.613C130.301 234.355 130.539 233.234 131.016 232.25C131.5 231.258 132.172 230.484 133.031 229.93C133.898 229.367 134.836 229.086 135.844 229.086C137.492 229.086 138.773 229.629 139.688 230.715C140.602 231.801 141.059 233.355 141.059 235.379V236.281H132.469C132.5 237.531 132.863 238.543 133.559 239.316C134.262 240.082 135.152 240.465 136.23 240.465C136.996 240.465 137.645 240.309 138.176 239.996C138.707 239.684 139.172 239.27 139.57 238.754L140.895 239.785C139.832 241.418 138.238 242.234 136.113 242.234ZM135.844 230.867C134.969 230.867 134.234 231.188 133.641 231.828C133.047 232.461 132.68 233.352 132.539 234.5H138.891V234.336C138.828 233.234 138.531 232.383 138 231.781C137.469 231.172 136.75 230.867 135.844 230.867ZM146.52 226.25V229.32H148.887V230.996H146.52V238.859C146.52 239.367 146.625 239.75 146.836 240.008C147.047 240.258 147.406 240.383 147.914 240.383C148.164 240.383 148.508 240.336 148.945 240.242V242C148.375 242.156 147.82 242.234 147.281 242.234C146.312 242.234 145.582 241.941 145.09 241.355C144.598 240.77 144.352 239.938 144.352 238.859V230.996H142.043V229.32H144.352V226.25H146.52ZM154.371 226.25V229.32H156.738V230.996H154.371V238.859C154.371 239.367 154.477 239.75 154.688 240.008C154.898 240.258 155.258 240.383 155.766 240.383C156.016 240.383 156.359 240.336 156.797 240.242V242C156.227 242.156 155.672 242.234 155.133 242.234C154.164 242.234 153.434 241.941 152.941 241.355C152.449 240.77 152.203 239.938 152.203 238.859V230.996H149.895V229.32H152.203V226.25H154.371ZM164.543 242.234C162.824 242.234 161.426 241.672 160.348 240.547C159.27 239.414 158.73 237.902 158.73 236.012V235.613C158.73 234.355 158.969 233.234 159.445 232.25C159.93 231.258 160.602 230.484 161.461 229.93C162.328 229.367 163.266 229.086 164.273 229.086C165.922 229.086 167.203 229.629 168.117 230.715C169.031 231.801 169.488 233.355 169.488 235.379V236.281H160.898C160.93 237.531 161.293 238.543 161.988 239.316C162.691 240.082 163.582 240.465 164.66 240.465C165.426 240.465 166.074 240.309 166.605 239.996C167.137 239.684 167.602 239.27 168 238.754L169.324 239.785C168.262 241.418 166.668 242.234 164.543 242.234ZM164.273 230.867C163.398 230.867 162.664 231.188 162.07 231.828C161.477 232.461 161.109 233.352 160.969 234.5H167.32V234.336C167.258 233.234 166.961 232.383 166.43 231.781C165.898 231.172 165.18 230.867 164.273 230.867ZM179.391 238.637C179.391 238.051 179.168 237.598 178.723 237.277C178.285 236.949 177.516 236.668 176.414 236.434C175.32 236.199 174.449 235.918 173.801 235.59C173.16 235.262 172.684 234.871 172.371 234.418C172.066 233.965 171.914 233.426 171.914 232.801C171.914 231.762 172.352 230.883 173.227 230.164C174.109 229.445 175.234 229.086 176.602 229.086C178.039 229.086 179.203 229.457 180.094 230.199C180.992 230.941 181.441 231.891 181.441 233.047H179.262C179.262 232.453 179.008 231.941 178.5 231.512C178 231.082 177.367 230.867 176.602 230.867C175.812 230.867 175.195 231.039 174.75 231.383C174.305 231.727 174.082 232.176 174.082 232.73C174.082 233.254 174.289 233.648 174.703 233.914C175.117 234.18 175.863 234.434 176.941 234.676C178.027 234.918 178.906 235.207 179.578 235.543C180.25 235.879 180.746 236.285 181.066 236.762C181.395 237.23 181.559 237.805 181.559 238.484C181.559 239.617 181.105 240.527 180.199 241.215C179.293 241.895 178.117 242.234 176.672 242.234C175.656 242.234 174.758 242.055 173.977 241.695C173.195 241.336 172.582 240.836 172.137 240.195C171.699 239.547 171.48 238.848 171.48 238.098H173.648C173.688 238.824 173.977 239.402 174.516 239.832C175.062 240.254 175.781 240.465 176.672 240.465C177.492 240.465 178.148 240.301 178.641 239.973C179.141 239.637 179.391 239.191 179.391 238.637ZM192.938 240.16H201.023V242H190.676V224.938H192.938V240.16ZM211.078 242C210.953 241.75 210.852 241.305 210.773 240.664C209.766 241.711 208.562 242.234 207.164 242.234C205.914 242.234 204.887 241.883 204.082 241.18C203.285 240.469 202.887 239.57 202.887 238.484C202.887 237.164 203.387 236.141 204.387 235.414C205.395 234.68 206.809 234.312 208.629 234.312H210.738V233.316C210.738 232.559 210.512 231.957 210.059 231.512C209.605 231.059 208.938 230.832 208.055 230.832C207.281 230.832 206.633 231.027 206.109 231.418C205.586 231.809 205.324 232.281 205.324 232.836H203.145C203.145 232.203 203.367 231.594 203.812 231.008C204.266 230.414 204.875 229.945 205.641 229.602C206.414 229.258 207.262 229.086 208.184 229.086C209.645 229.086 210.789 229.453 211.617 230.188C212.445 230.914 212.875 231.918 212.906 233.199V239.035C212.906 240.199 213.055 241.125 213.352 241.812V242H211.078ZM207.48 240.348C208.16 240.348 208.805 240.172 209.414 239.82C210.023 239.469 210.465 239.012 210.738 238.449V235.848H209.039C206.383 235.848 205.055 236.625 205.055 238.18C205.055 238.859 205.281 239.391 205.734 239.773C206.188 240.156 206.77 240.348 207.48 240.348ZM227.531 239.012L229.969 229.32H232.137L228.445 242H226.688L223.605 232.391L220.605 242H218.848L215.168 229.32H217.324L219.82 238.812L222.773 229.32H224.52L227.531 239.012ZM232.945 240.863C232.945 240.488 233.055 240.176 233.273 239.926C233.5 239.676 233.836 239.551 234.281 239.551C234.727 239.551 235.062 239.676 235.289 239.926C235.523 240.176 235.641 240.488 235.641 240.863C235.641 241.223 235.523 241.523 235.289 241.766C235.062 242.008 234.727 242.129 234.281 242.129C233.836 242.129 233.5 242.008 233.273 241.766C233.055 241.523 232.945 241.223 232.945 240.863Z" fill="white" fill-opacity="0.8"/>
<g clip-path="url(#clip0)">
<path d="M45.9204 45.9202C45.9204 47.6284 46.4228 48.9346 47.4276 49.9394C48.4325 50.8438 49.7387 51.3462 51.4469 51.3462H81.4911V45.3173H52.8537V28.4362H79.381V22.5078H52.8537V6.73206H81.4911V0.703125H45.9204V45.9202Z" fill="white"/>
<path d="M122.488 27.5321C120.277 25.623 117.263 24.3167 113.244 23.6133L100.181 21.4027C98.1713 21.0008 96.664 20.2974 95.5587 19.2926C94.4534 18.2878 93.951 16.9815 93.951 15.4743V12.2588C93.951 10.4502 94.7549 8.94292 96.2621 7.83762C97.7693 6.73231 99.779 6.2299 102.191 6.2299H110.33C112.641 6.2299 114.449 6.93328 115.856 8.44051C117.263 9.94775 117.966 11.8569 117.966 14.2685H124.799C124.799 11.455 124.196 8.94292 122.99 6.8328C121.785 4.62219 120.076 3.01447 117.866 1.80868C115.655 0.602894 113.143 0 110.33 0H102.191C97.6689 0 94.0515 1.10531 91.238 3.31592C88.525 5.52653 87.1182 8.44051 87.1182 12.0579V16.0772C87.1182 19.1921 88.123 21.7042 90.2332 23.7138C92.3433 25.8239 95.3578 27.1302 99.1761 27.7331L112.339 29.9437C114.449 30.2452 116.057 30.9485 117.162 31.9534C118.268 32.9582 118.871 34.164 118.871 35.6712V39.59C118.871 41.4992 118.067 43.0064 116.459 44.1117C114.952 45.217 112.741 45.8199 110.129 45.8199H102.09C99.3771 45.8199 97.2669 45.0161 95.6592 43.3079C94.0515 41.5997 93.2476 39.2886 93.2476 36.4751H86.5153C86.5153 41.1977 87.9221 44.9156 90.7356 47.7291C93.5491 50.5426 97.2669 51.9493 101.99 51.7484H110.229C114.952 51.7484 118.67 50.6431 121.483 48.4325C124.297 46.2219 125.703 43.2074 125.703 39.59V34.8674C125.703 31.9534 124.598 29.4413 122.488 27.5321Z" fill="white"/>
<path d="M165.997 34.8672C165.997 38.0826 165.193 40.7957 163.384 42.8053C161.575 44.815 159.264 45.8198 156.451 45.8198H148.714C145.8 45.8198 143.589 44.815 141.78 42.8053C140.072 40.7957 139.168 38.1831 139.168 34.8672V0.803711H132.335V34.8672C132.335 38.1831 133.038 41.1976 134.345 43.8101C135.651 46.4227 137.56 48.4323 140.072 49.8391C142.584 51.2458 145.498 51.9492 148.714 51.9492H156.451C159.767 51.9492 162.58 51.2458 165.092 49.8391C167.504 48.4323 169.514 46.4227 170.82 43.8101C172.126 41.1976 172.829 38.2836 172.829 34.8672V0.803711H165.997V34.8672Z" fill="white"/>
<path d="M188.103 0.703125H181.27V46.0206C181.27 47.6284 181.772 48.9346 182.777 49.9394C183.782 50.8438 185.189 51.3462 186.796 51.3462H215.635V45.3173H188.103V0.703125Z" fill="white"/>
<path d="M211.013 0.703125V6.73206H227.09V51.3462H233.923V6.73206H250V0.703125H211.013Z" fill="white"/>
<path d="M29.8432 28.8382C32.5563 27.8333 34.6664 26.4266 36.2741 24.5174C37.8818 22.6083 38.5852 20.3977 38.5852 17.8856V12.6605C38.5852 9.04316 37.3794 6.22965 34.9678 4.01904C32.5563 1.80843 29.4413 0.703125 25.5225 0.703125H15.5748H0.100482V6.73206V16.1774L9.54582 6.73206H14.8714H25.3215C27.2307 6.73206 28.7379 7.23447 29.8432 8.33978C31.049 9.44509 31.5514 10.7514 31.5514 12.56V17.8856C31.5514 19.9957 30.8481 21.7039 29.3408 23.0102C27.8336 24.3165 25.9244 24.9194 23.5129 24.9194H14.7709H6.8328H0V51.3462H6.8328V31.0488H20.6994C22.6085 31.0488 24.2162 31.6517 25.7235 32.9579C27.2307 34.2642 28.2355 36.0729 28.9389 38.2835L32.8577 51.3462H39.992L36.1736 38.0825C34.7669 33.5608 32.6567 30.5464 29.8432 28.8382Z" fill="white"/>
</g>
<line x1="6" y1="84" x2="156" y2="84" stroke="#F4C346" stroke-width="8"/>
<defs>
<clipPath id="clip0">
<rect width="250" height="51.9494" fill="white"/>
</clipPath>
</defs>
</svg>
