<svg width="505" height="256" viewBox="0 0 505 256" fill="none" xmlns="http://www.w3.org/2000/svg">
<path d="M11.3906 147.465H4.23047V155H1.98047V137.938H12.5508V139.789H4.23047V145.625H11.3906V147.465ZM17.2617 155H15.0938V142.32H17.2617V155ZM14.918 138.957C14.918 138.605 15.0234 138.309 15.2344 138.066C15.4531 137.824 15.7734 137.703 16.1953 137.703C16.6172 137.703 16.9375 137.824 17.1562 138.066C17.375 138.309 17.4844 138.605 17.4844 138.957C17.4844 139.309 17.375 139.602 17.1562 139.836C16.9375 140.07 16.6172 140.188 16.1953 140.188C15.7734 140.188 15.4531 140.07 15.2344 139.836C15.0234 139.602 14.918 139.309 14.918 138.957ZM22.793 142.32L22.8633 143.914C23.832 142.695 25.0977 142.086 26.6602 142.086C29.3398 142.086 30.6914 143.598 30.7148 146.621V155H28.5469V146.609C28.5391 145.695 28.3281 145.02 27.9141 144.582C27.5078 144.145 26.8711 143.926 26.0039 143.926C25.3008 143.926 24.6836 144.113 24.1523 144.488C23.6211 144.863 23.207 145.355 22.9102 145.965V155H20.7422V142.32H22.793ZM33.457 148.555C33.457 146.609 33.918 145.047 34.8398 143.867C35.7617 142.68 36.9688 142.086 38.4609 142.086C39.9453 142.086 41.1211 142.594 41.9883 143.609V137H44.1562V155H42.1641L42.0586 153.641C41.1914 154.703 39.9844 155.234 38.4375 155.234C36.9688 155.234 35.7695 154.633 34.8398 153.43C33.918 152.227 33.457 150.656 33.457 148.719V148.555ZM35.625 148.801C35.625 150.238 35.9219 151.363 36.5156 152.176C37.1094 152.988 37.9297 153.395 38.9766 153.395C40.3516 153.395 41.3555 152.777 41.9883 151.543V145.719C41.3398 144.523 40.3438 143.926 39 143.926C37.9375 143.926 37.1094 144.336 36.5156 145.156C35.9219 145.977 35.625 147.191 35.625 148.801ZM56.4258 139.25V142.32H58.793V143.996H56.4258V151.859C56.4258 152.367 56.5312 152.75 56.7422 153.008C56.9531 153.258 57.3125 153.383 57.8203 153.383C58.0703 153.383 58.4141 153.336 58.8516 153.242V155C58.2812 155.156 57.7266 155.234 57.1875 155.234C56.2188 155.234 55.4883 154.941 54.9961 154.355C54.5039 153.77 54.2578 152.938 54.2578 151.859V143.996H51.9492V142.32H54.2578V139.25H56.4258ZM63.6914 155H61.5234V142.32H63.6914V155ZM61.3477 138.957C61.3477 138.605 61.4531 138.309 61.6641 138.066C61.8828 137.824 62.2031 137.703 62.625 137.703C63.0469 137.703 63.3672 137.824 63.5859 138.066C63.8047 138.309 63.9141 138.605 63.9141 138.957C63.9141 139.309 63.8047 139.602 63.5859 139.836C63.3672 140.07 63.0469 140.188 62.625 140.188C62.2031 140.188 61.8828 140.07 61.6641 139.836C61.4531 139.602 61.3477 139.309 61.3477 138.957ZM77.8828 148.801C77.8828 150.73 77.4414 152.285 76.5586 153.465C75.6758 154.645 74.4805 155.234 72.9727 155.234C71.4336 155.234 70.2227 154.746 69.3398 153.77V159.875H67.1719V142.32H69.1523L69.2578 143.727C70.1406 142.633 71.3672 142.086 72.9375 142.086C74.4609 142.086 75.6641 142.66 76.5469 143.809C77.4375 144.957 77.8828 146.555 77.8828 148.602V148.801ZM75.7148 148.555C75.7148 147.125 75.4102 145.996 74.8008 145.168C74.1914 144.34 73.3555 143.926 72.293 143.926C70.9805 143.926 69.9961 144.508 69.3398 145.672V151.73C69.9883 152.887 70.9805 153.465 72.3164 153.465C73.3555 153.465 74.1797 153.055 74.7891 152.234C75.4062 151.406 75.7148 150.18 75.7148 148.555ZM88.0312 151.637C88.0312 151.051 87.8086 150.598 87.3633 150.277C86.9258 149.949 86.1562 149.668 85.0547 149.434C83.9609 149.199 83.0898 148.918 82.4414 148.59C81.8008 148.262 81.3242 147.871 81.0117 147.418C80.707 146.965 80.5547 146.426 80.5547 145.801C80.5547 144.762 80.9922 143.883 81.8672 143.164C82.75 142.445 83.875 142.086 85.2422 142.086C86.6797 142.086 87.8438 142.457 88.7344 143.199C89.6328 143.941 90.082 144.891 90.082 146.047H87.9023C87.9023 145.453 87.6484 144.941 87.1406 144.512C86.6406 144.082 86.0078 143.867 85.2422 143.867C84.4531 143.867 83.8359 144.039 83.3906 144.383C82.9453 144.727 82.7227 145.176 82.7227 145.73C82.7227 146.254 82.9297 146.648 83.3438 146.914C83.7578 147.18 84.5039 147.434 85.582 147.676C86.668 147.918 87.5469 148.207 88.2188 148.543C88.8906 148.879 89.3867 149.285 89.707 149.762C90.0352 150.23 90.1992 150.805 90.1992 151.484C90.1992 152.617 89.7461 153.527 88.8398 154.215C87.9336 154.895 86.7578 155.234 85.3125 155.234C84.2969 155.234 83.3984 155.055 82.6172 154.695C81.8359 154.336 81.2227 153.836 80.7773 153.195C80.3398 152.547 80.1211 151.848 80.1211 151.098H82.2891C82.3281 151.824 82.6172 152.402 83.1562 152.832C83.7031 153.254 84.4219 153.465 85.3125 153.465C86.1328 153.465 86.7891 153.301 87.2812 152.973C87.7812 152.637 88.0312 152.191 88.0312 151.637ZM100.043 155V143.996H98.0391V142.32H100.043V141.02C100.043 139.66 100.406 138.609 101.133 137.867C101.859 137.125 102.887 136.754 104.215 136.754C104.715 136.754 105.211 136.82 105.703 136.953L105.586 138.711C105.219 138.641 104.828 138.605 104.414 138.605C103.711 138.605 103.168 138.812 102.785 139.227C102.402 139.633 102.211 140.219 102.211 140.984V142.32H104.918V143.996H102.211V155H100.043ZM106.746 148.543C106.746 147.301 106.988 146.184 107.473 145.191C107.965 144.199 108.645 143.434 109.512 142.895C110.387 142.355 111.383 142.086 112.5 142.086C114.227 142.086 115.621 142.684 116.684 143.879C117.754 145.074 118.289 146.664 118.289 148.648V148.801C118.289 150.035 118.051 151.145 117.574 152.129C117.105 153.105 116.43 153.867 115.547 154.414C114.672 154.961 113.664 155.234 112.523 155.234C110.805 155.234 109.41 154.637 108.34 153.441C107.277 152.246 106.746 150.664 106.746 148.695V148.543ZM108.926 148.801C108.926 150.207 109.25 151.336 109.898 152.188C110.555 153.039 111.43 153.465 112.523 153.465C113.625 153.465 114.5 153.035 115.148 152.176C115.797 151.309 116.121 150.098 116.121 148.543C116.121 147.152 115.789 146.027 115.125 145.168C114.469 144.301 113.594 143.867 112.5 143.867C111.43 143.867 110.566 144.293 109.91 145.145C109.254 145.996 108.926 147.215 108.926 148.801ZM127.137 144.266C126.809 144.211 126.453 144.184 126.07 144.184C124.648 144.184 123.684 144.789 123.176 146V155H121.008V142.32H123.117L123.152 143.785C123.863 142.652 124.871 142.086 126.176 142.086C126.598 142.086 126.918 142.141 127.137 142.25V144.266ZM137.449 155H135.281V142.32H137.449V155ZM135.105 138.957C135.105 138.605 135.211 138.309 135.422 138.066C135.641 137.824 135.961 137.703 136.383 137.703C136.805 137.703 137.125 137.824 137.344 138.066C137.562 138.309 137.672 138.605 137.672 138.957C137.672 139.309 137.562 139.602 137.344 139.836C137.125 140.07 136.805 140.188 136.383 140.188C135.961 140.188 135.641 140.07 135.422 139.836C135.211 139.602 135.105 139.309 135.105 138.957ZM142.98 142.32L143.051 143.914C144.02 142.695 145.285 142.086 146.848 142.086C149.527 142.086 150.879 143.598 150.902 146.621V155H148.734V146.609C148.727 145.695 148.516 145.02 148.102 144.582C147.695 144.145 147.059 143.926 146.191 143.926C145.488 143.926 144.871 144.113 144.34 144.488C143.809 144.863 143.395 145.355 143.098 145.965V155H140.93V142.32H142.98ZM157.113 139.25V142.32H159.48V143.996H157.113V151.859C157.113 152.367 157.219 152.75 157.43 153.008C157.641 153.258 158 153.383 158.508 153.383C158.758 153.383 159.102 153.336 159.539 153.242V155C158.969 155.156 158.414 155.234 157.875 155.234C156.906 155.234 156.176 154.941 155.684 154.355C155.191 153.77 154.945 152.938 154.945 151.859V143.996H152.637V142.32H154.945V139.25H157.113ZM167.285 155.234C165.566 155.234 164.168 154.672 163.09 153.547C162.012 152.414 161.473 150.902 161.473 149.012V148.613C161.473 147.355 161.711 146.234 162.188 145.25C162.672 144.258 163.344 143.484 164.203 142.93C165.07 142.367 166.008 142.086 167.016 142.086C168.664 142.086 169.945 142.629 170.859 143.715C171.773 144.801 172.23 146.355 172.23 148.379V149.281H163.641C163.672 150.531 164.035 151.543 164.73 152.316C165.434 153.082 166.324 153.465 167.402 153.465C168.168 153.465 168.816 153.309 169.348 152.996C169.879 152.684 170.344 152.27 170.742 151.754L172.066 152.785C171.004 154.418 169.41 155.234 167.285 155.234ZM167.016 143.867C166.141 143.867 165.406 144.188 164.812 144.828C164.219 145.461 163.852 146.352 163.711 147.5H170.062V147.336C170 146.234 169.703 145.383 169.172 144.781C168.641 144.172 167.922 143.867 167.016 143.867ZM180.879 144.266C180.551 144.211 180.195 144.184 179.812 144.184C178.391 144.184 177.426 144.789 176.918 146V155H174.75V142.32H176.859L176.895 143.785C177.605 142.652 178.613 142.086 179.918 142.086C180.34 142.086 180.66 142.141 180.879 142.25V144.266ZM187.277 152.059L190.418 142.32H192.633L188.086 155H186.434L181.84 142.32H184.055L187.277 152.059ZM197.074 155H194.906V142.32H197.074V155ZM194.73 138.957C194.73 138.605 194.836 138.309 195.047 138.066C195.266 137.824 195.586 137.703 196.008 137.703C196.43 137.703 196.75 137.824 196.969 138.066C197.188 138.309 197.297 138.605 197.297 138.957C197.297 139.309 197.188 139.602 196.969 139.836C196.75 140.07 196.43 140.188 196.008 140.188C195.586 140.188 195.266 140.07 195.047 139.836C194.836 139.602 194.73 139.309 194.73 138.957ZM205.816 155.234C204.098 155.234 202.699 154.672 201.621 153.547C200.543 152.414 200.004 150.902 200.004 149.012V148.613C200.004 147.355 200.242 146.234 200.719 145.25C201.203 144.258 201.875 143.484 202.734 142.93C203.602 142.367 204.539 142.086 205.547 142.086C207.195 142.086 208.477 142.629 209.391 143.715C210.305 144.801 210.762 146.355 210.762 148.379V149.281H202.172C202.203 150.531 202.566 151.543 203.262 152.316C203.965 153.082 204.855 153.465 205.934 153.465C206.699 153.465 207.348 153.309 207.879 152.996C208.41 152.684 208.875 152.27 209.273 151.754L210.598 152.785C209.535 154.418 207.941 155.234 205.816 155.234ZM205.547 143.867C204.672 143.867 203.938 144.188 203.344 144.828C202.75 145.461 202.383 146.352 202.242 147.5H208.594V147.336C208.531 146.234 208.234 145.383 207.703 144.781C207.172 144.172 206.453 143.867 205.547 143.867ZM224.508 152.012L226.945 142.32H229.113L225.422 155H223.664L220.582 145.391L217.582 155H215.824L212.145 142.32H214.301L216.797 151.812L219.75 142.32H221.496L224.508 152.012ZM233.684 155H231.516V142.32H233.684V155ZM231.34 138.957C231.34 138.605 231.445 138.309 231.656 138.066C231.875 137.824 232.195 137.703 232.617 137.703C233.039 137.703 233.359 137.824 233.578 138.066C233.797 138.309 233.906 138.605 233.906 138.957C233.906 139.309 233.797 139.602 233.578 139.836C233.359 140.07 233.039 140.188 232.617 140.188C232.195 140.188 231.875 140.07 231.656 139.836C231.445 139.602 231.34 139.309 231.34 138.957ZM239.215 142.32L239.285 143.914C240.254 142.695 241.52 142.086 243.082 142.086C245.762 142.086 247.113 143.598 247.137 146.621V155H244.969V146.609C244.961 145.695 244.75 145.02 244.336 144.582C243.93 144.145 243.293 143.926 242.426 143.926C241.723 143.926 241.105 144.113 240.574 144.488C240.043 144.863 239.629 145.355 239.332 145.965V155H237.164V142.32H239.215ZM249.891 148.555C249.891 146.578 250.348 145.008 251.262 143.844C252.176 142.672 253.387 142.086 254.895 142.086C256.441 142.086 257.648 142.633 258.516 143.727L258.621 142.32H260.602V154.695C260.602 156.336 260.113 157.629 259.137 158.574C258.168 159.52 256.863 159.992 255.223 159.992C254.309 159.992 253.414 159.797 252.539 159.406C251.664 159.016 250.996 158.48 250.535 157.801L251.66 156.5C252.59 157.648 253.727 158.223 255.07 158.223C256.125 158.223 256.945 157.926 257.531 157.332C258.125 156.738 258.422 155.902 258.422 154.824V153.734C257.555 154.734 256.371 155.234 254.871 155.234C253.387 155.234 252.184 154.637 251.262 153.441C250.348 152.246 249.891 150.617 249.891 148.555ZM252.07 148.801C252.07 150.23 252.363 151.355 252.949 152.176C253.535 152.988 254.355 153.395 255.41 153.395C256.777 153.395 257.781 152.773 258.422 151.531V145.742C257.758 144.531 256.762 143.926 255.434 143.926C254.379 143.926 253.555 144.336 252.961 145.156C252.367 145.977 252.07 147.191 252.07 148.801ZM274.02 152.059L277.16 142.32H279.375L274.828 155H273.176L268.582 142.32H270.797L274.02 152.059ZM283.816 155H281.648V142.32H283.816V155ZM281.473 138.957C281.473 138.605 281.578 138.309 281.789 138.066C282.008 137.824 282.328 137.703 282.75 137.703C283.172 137.703 283.492 137.824 283.711 138.066C283.93 138.309 284.039 138.605 284.039 138.957C284.039 139.309 283.93 139.602 283.711 139.836C283.492 140.07 283.172 140.188 282.75 140.188C282.328 140.188 282.008 140.07 281.789 139.836C281.578 139.602 281.473 139.309 281.473 138.957ZM292.383 153.465C293.156 153.465 293.832 153.23 294.41 152.762C294.988 152.293 295.309 151.707 295.371 151.004H297.422C297.383 151.73 297.133 152.422 296.672 153.078C296.211 153.734 295.594 154.258 294.82 154.648C294.055 155.039 293.242 155.234 292.383 155.234C290.656 155.234 289.281 154.66 288.258 153.512C287.242 152.355 286.734 150.777 286.734 148.777V148.414C286.734 147.18 286.961 146.082 287.414 145.121C287.867 144.16 288.516 143.414 289.359 142.883C290.211 142.352 291.215 142.086 292.371 142.086C293.793 142.086 294.973 142.512 295.91 143.363C296.855 144.215 297.359 145.32 297.422 146.68H295.371C295.309 145.859 294.996 145.188 294.434 144.664C293.879 144.133 293.191 143.867 292.371 143.867C291.27 143.867 290.414 144.266 289.805 145.062C289.203 145.852 288.902 146.996 288.902 148.496V148.906C288.902 150.367 289.203 151.492 289.805 152.281C290.406 153.07 291.266 153.465 292.383 153.465ZM302.801 139.25V142.32H305.168V143.996H302.801V151.859C302.801 152.367 302.906 152.75 303.117 153.008C303.328 153.258 303.688 153.383 304.195 153.383C304.445 153.383 304.789 153.336 305.227 153.242V155C304.656 155.156 304.102 155.234 303.562 155.234C302.594 155.234 301.863 154.941 301.371 154.355C300.879 153.77 300.633 152.938 300.633 151.859V143.996H298.324V142.32H300.633V139.25H302.801ZM310.066 155H307.898V142.32H310.066V155ZM307.723 138.957C307.723 138.605 307.828 138.309 308.039 138.066C308.258 137.824 308.578 137.703 309 137.703C309.422 137.703 309.742 137.824 309.961 138.066C310.18 138.309 310.289 138.605 310.289 138.957C310.289 139.309 310.18 139.602 309.961 139.836C309.742 140.07 309.422 140.188 309 140.188C308.578 140.188 308.258 140.07 308.039 139.836C307.828 139.602 307.723 139.309 307.723 138.957ZM315.586 142.32L315.645 143.727C316.574 142.633 317.828 142.086 319.406 142.086C321.18 142.086 322.387 142.766 323.027 144.125C323.449 143.516 323.996 143.023 324.668 142.648C325.348 142.273 326.148 142.086 327.07 142.086C329.852 142.086 331.266 143.559 331.312 146.504V155H329.145V146.633C329.145 145.727 328.938 145.051 328.523 144.605C328.109 144.152 327.414 143.926 326.438 143.926C325.633 143.926 324.965 144.168 324.434 144.652C323.902 145.129 323.594 145.773 323.508 146.586V155H321.328V146.691C321.328 144.848 320.426 143.926 318.621 143.926C317.199 143.926 316.227 144.531 315.703 145.742V155H313.535V142.32H315.586ZM341.977 151.637C341.977 151.051 341.754 150.598 341.309 150.277C340.871 149.949 340.102 149.668 339 149.434C337.906 149.199 337.035 148.918 336.387 148.59C335.746 148.262 335.27 147.871 334.957 147.418C334.652 146.965 334.5 146.426 334.5 145.801C334.5 144.762 334.938 143.883 335.812 143.164C336.695 142.445 337.82 142.086 339.188 142.086C340.625 142.086 341.789 142.457 342.68 143.199C343.578 143.941 344.027 144.891 344.027 146.047H341.848C341.848 145.453 341.594 144.941 341.086 144.512C340.586 144.082 339.953 143.867 339.188 143.867C338.398 143.867 337.781 144.039 337.336 144.383C336.891 144.727 336.668 145.176 336.668 145.73C336.668 146.254 336.875 146.648 337.289 146.914C337.703 147.18 338.449 147.434 339.527 147.676C340.613 147.918 341.492 148.207 342.164 148.543C342.836 148.879 343.332 149.285 343.652 149.762C343.98 150.23 344.145 150.805 344.145 151.484C344.145 152.617 343.691 153.527 342.785 154.215C341.879 154.895 340.703 155.234 339.258 155.234C338.242 155.234 337.344 155.055 336.562 154.695C335.781 154.336 335.168 153.836 334.723 153.195C334.285 152.547 334.066 151.848 334.066 151.098H336.234C336.273 151.824 336.562 152.402 337.102 152.832C337.648 153.254 338.367 153.465 339.258 153.465C340.078 153.465 340.734 153.301 341.227 152.973C341.727 152.637 341.977 152.191 341.977 151.637ZM360.75 155C360.625 154.75 360.523 154.305 360.445 153.664C359.438 154.711 358.234 155.234 356.836 155.234C355.586 155.234 354.559 154.883 353.754 154.18C352.957 153.469 352.559 152.57 352.559 151.484C352.559 150.164 353.059 149.141 354.059 148.414C355.066 147.68 356.48 147.312 358.301 147.312H360.41V146.316C360.41 145.559 360.184 144.957 359.73 144.512C359.277 144.059 358.609 143.832 357.727 143.832C356.953 143.832 356.305 144.027 355.781 144.418C355.258 144.809 354.996 145.281 354.996 145.836H352.816C352.816 145.203 353.039 144.594 353.484 144.008C353.938 143.414 354.547 142.945 355.312 142.602C356.086 142.258 356.934 142.086 357.855 142.086C359.316 142.086 360.461 142.453 361.289 143.188C362.117 143.914 362.547 144.918 362.578 146.199V152.035C362.578 153.199 362.727 154.125 363.023 154.812V155H360.75ZM357.152 153.348C357.832 153.348 358.477 153.172 359.086 152.82C359.695 152.469 360.137 152.012 360.41 151.449V148.848H358.711C356.055 148.848 354.727 149.625 354.727 151.18C354.727 151.859 354.953 152.391 355.406 152.773C355.859 153.156 356.441 153.348 357.152 153.348ZM368.027 142.32L368.098 143.914C369.066 142.695 370.332 142.086 371.895 142.086C374.574 142.086 375.926 143.598 375.949 146.621V155H373.781V146.609C373.773 145.695 373.562 145.02 373.148 144.582C372.742 144.145 372.105 143.926 371.238 143.926C370.535 143.926 369.918 144.113 369.387 144.488C368.855 144.863 368.441 145.355 368.145 145.965V155H365.977V142.32H368.027ZM378.691 148.555C378.691 146.609 379.152 145.047 380.074 143.867C380.996 142.68 382.203 142.086 383.695 142.086C385.18 142.086 386.355 142.594 387.223 143.609V137H389.391V155H387.398L387.293 153.641C386.426 154.703 385.219 155.234 383.672 155.234C382.203 155.234 381.004 154.633 380.074 153.43C379.152 152.227 378.691 150.656 378.691 148.719V148.555ZM380.859 148.801C380.859 150.238 381.156 151.363 381.75 152.176C382.344 152.988 383.164 153.395 384.211 153.395C385.586 153.395 386.59 152.777 387.223 151.543V145.719C386.574 144.523 385.578 143.926 384.234 143.926C383.172 143.926 382.344 144.336 381.75 145.156C381.156 145.977 380.859 147.191 380.859 148.801ZM398.191 148.555C398.191 146.609 398.652 145.047 399.574 143.867C400.496 142.68 401.703 142.086 403.195 142.086C404.68 142.086 405.855 142.594 406.723 143.609V137H408.891V155H406.898L406.793 153.641C405.926 154.703 404.719 155.234 403.172 155.234C401.703 155.234 400.504 154.633 399.574 153.43C398.652 152.227 398.191 150.656 398.191 148.719V148.555ZM400.359 148.801C400.359 150.238 400.656 151.363 401.25 152.176C401.844 152.988 402.664 153.395 403.711 153.395C405.086 153.395 406.09 152.777 406.723 151.543V145.719C406.074 144.523 405.078 143.926 403.734 143.926C402.672 143.926 401.844 144.336 401.25 145.156C400.656 145.977 400.359 147.191 400.359 148.801ZM414.621 155H412.453V142.32H414.621V155ZM412.277 138.957C412.277 138.605 412.383 138.309 412.594 138.066C412.812 137.824 413.133 137.703 413.555 137.703C413.977 137.703 414.297 137.824 414.516 138.066C414.734 138.309 414.844 138.605 414.844 138.957C414.844 139.309 414.734 139.602 414.516 139.836C414.297 140.07 413.977 140.188 413.555 140.188C413.133 140.188 412.812 140.07 412.594 139.836C412.383 139.602 412.277 139.309 412.277 138.957ZM425.484 151.637C425.484 151.051 425.262 150.598 424.816 150.277C424.379 149.949 423.609 149.668 422.508 149.434C421.414 149.199 420.543 148.918 419.895 148.59C419.254 148.262 418.777 147.871 418.465 147.418C418.16 146.965 418.008 146.426 418.008 145.801C418.008 144.762 418.445 143.883 419.32 143.164C420.203 142.445 421.328 142.086 422.695 142.086C424.133 142.086 425.297 142.457 426.188 143.199C427.086 143.941 427.535 144.891 427.535 146.047H425.355C425.355 145.453 425.102 144.941 424.594 144.512C424.094 144.082 423.461 143.867 422.695 143.867C421.906 143.867 421.289 144.039 420.844 144.383C420.398 144.727 420.176 145.176 420.176 145.73C420.176 146.254 420.383 146.648 420.797 146.914C421.211 147.18 421.957 147.434 423.035 147.676C424.121 147.918 425 148.207 425.672 148.543C426.344 148.879 426.84 149.285 427.16 149.762C427.488 150.23 427.652 150.805 427.652 151.484C427.652 152.617 427.199 153.527 426.293 154.215C425.387 154.895 424.211 155.234 422.766 155.234C421.75 155.234 420.852 155.055 420.07 154.695C419.289 154.336 418.676 153.836 418.23 153.195C417.793 152.547 417.574 151.848 417.574 151.098H419.742C419.781 151.824 420.07 152.402 420.609 152.832C421.156 153.254 421.875 153.465 422.766 153.465C423.586 153.465 424.242 153.301 424.734 152.973C425.234 152.637 425.484 152.191 425.484 151.637ZM435.562 153.465C436.336 153.465 437.012 153.23 437.59 152.762C438.168 152.293 438.488 151.707 438.551 151.004H440.602C440.562 151.73 440.312 152.422 439.852 153.078C439.391 153.734 438.773 154.258 438 154.648C437.234 155.039 436.422 155.234 435.562 155.234C433.836 155.234 432.461 154.66 431.438 153.512C430.422 152.355 429.914 150.777 429.914 148.777V148.414C429.914 147.18 430.141 146.082 430.594 145.121C431.047 144.16 431.695 143.414 432.539 142.883C433.391 142.352 434.395 142.086 435.551 142.086C436.973 142.086 438.152 142.512 439.09 143.363C440.035 144.215 440.539 145.32 440.602 146.68H438.551C438.488 145.859 438.176 145.188 437.613 144.664C437.059 144.133 436.371 143.867 435.551 143.867C434.449 143.867 433.594 144.266 432.984 145.062C432.383 145.852 432.082 146.996 432.082 148.496V148.906C432.082 150.367 432.383 151.492 432.984 152.281C433.586 153.07 434.445 153.465 435.562 153.465ZM442.465 148.543C442.465 147.301 442.707 146.184 443.191 145.191C443.684 144.199 444.363 143.434 445.23 142.895C446.105 142.355 447.102 142.086 448.219 142.086C449.945 142.086 451.34 142.684 452.402 143.879C453.473 145.074 454.008 146.664 454.008 148.648V148.801C454.008 150.035 453.77 151.145 453.293 152.129C452.824 153.105 452.148 153.867 451.266 154.414C450.391 154.961 449.383 155.234 448.242 155.234C446.523 155.234 445.129 154.637 444.059 153.441C442.996 152.246 442.465 150.664 442.465 148.695V148.543ZM444.645 148.801C444.645 150.207 444.969 151.336 445.617 152.188C446.273 153.039 447.148 153.465 448.242 153.465C449.344 153.465 450.219 153.035 450.867 152.176C451.516 151.309 451.84 150.098 451.84 148.543C451.84 147.152 451.508 146.027 450.844 145.168C450.188 144.301 449.312 143.867 448.219 143.867C447.148 143.867 446.285 144.293 445.629 145.145C444.973 145.996 444.645 147.215 444.645 148.801ZM460.723 152.059L463.863 142.32H466.078L461.531 155H459.879L455.285 142.32H457.5L460.723 152.059ZM473.262 155.234C471.543 155.234 470.145 154.672 469.066 153.547C467.988 152.414 467.449 150.902 467.449 149.012V148.613C467.449 147.355 467.688 146.234 468.164 145.25C468.648 144.258 469.32 143.484 470.18 142.93C471.047 142.367 471.984 142.086 472.992 142.086C474.641 142.086 475.922 142.629 476.836 143.715C477.75 144.801 478.207 146.355 478.207 148.379V149.281H469.617C469.648 150.531 470.012 151.543 470.707 152.316C471.41 153.082 472.301 153.465 473.379 153.465C474.145 153.465 474.793 153.309 475.324 152.996C475.855 152.684 476.32 152.27 476.719 151.754L478.043 152.785C476.98 154.418 475.387 155.234 473.262 155.234ZM472.992 143.867C472.117 143.867 471.383 144.188 470.789 144.828C470.195 145.461 469.828 146.352 469.688 147.5H476.039V147.336C475.977 146.234 475.68 145.383 475.148 144.781C474.617 144.172 473.898 143.867 472.992 143.867ZM486.855 144.266C486.527 144.211 486.172 144.184 485.789 144.184C484.367 144.184 483.402 144.789 482.895 146V155H480.727V142.32H482.836L482.871 143.785C483.582 142.652 484.59 142.086 485.895 142.086C486.316 142.086 486.637 142.141 486.855 142.25V144.266ZM9.46875 190C9.34375 189.75 9.24219 189.305 9.16406 188.664C8.15625 189.711 6.95312 190.234 5.55469 190.234C4.30469 190.234 3.27734 189.883 2.47266 189.18C1.67578 188.469 1.27734 187.57 1.27734 186.484C1.27734 185.164 1.77734 184.141 2.77734 183.414C3.78516 182.68 5.19922 182.312 7.01953 182.312H9.12891V181.316C9.12891 180.559 8.90234 179.957 8.44922 179.512C7.99609 179.059 7.32812 178.832 6.44531 178.832C5.67188 178.832 5.02344 179.027 4.5 179.418C3.97656 179.809 3.71484 180.281 3.71484 180.836H1.53516C1.53516 180.203 1.75781 179.594 2.20312 179.008C2.65625 178.414 3.26562 177.945 4.03125 177.602C4.80469 177.258 5.65234 177.086 6.57422 177.086C8.03516 177.086 9.17969 177.453 10.0078 178.188C10.8359 178.914 11.2656 179.918 11.2969 181.199V187.035C11.2969 188.199 11.4453 189.125 11.7422 189.812V190H9.46875ZM5.87109 188.348C6.55078 188.348 7.19531 188.172 7.80469 187.82C8.41406 187.469 8.85547 187.012 9.12891 186.449V183.848H7.42969C4.77344 183.848 3.44531 184.625 3.44531 186.18C3.44531 186.859 3.67188 187.391 4.125 187.773C4.57812 188.156 5.16016 188.348 5.87109 188.348ZM16.7461 177.32L16.8164 178.914C17.7852 177.695 19.0508 177.086 20.6133 177.086C23.293 177.086 24.6445 178.598 24.668 181.621V190H22.5V181.609C22.4922 180.695 22.2812 180.02 21.8672 179.582C21.4609 179.145 20.8242 178.926 19.957 178.926C19.2539 178.926 18.6367 179.113 18.1055 179.488C17.5742 179.863 17.1602 180.355 16.8633 180.965V190H14.6953V177.32H16.7461ZM27.4102 183.555C27.4102 181.609 27.8711 180.047 28.793 178.867C29.7148 177.68 30.9219 177.086 32.4141 177.086C33.8984 177.086 35.0742 177.594 35.9414 178.609V172H38.1094V190H36.1172L36.0117 188.641C35.1445 189.703 33.9375 190.234 32.3906 190.234C30.9219 190.234 29.7227 189.633 28.793 188.43C27.8711 187.227 27.4102 185.656 27.4102 183.719V183.555ZM29.5781 183.801C29.5781 185.238 29.875 186.363 30.4688 187.176C31.0625 187.988 31.8828 188.395 32.9297 188.395C34.3047 188.395 35.3086 187.777 35.9414 186.543V180.719C35.293 179.523 34.2969 178.926 32.9531 178.926C31.8906 178.926 31.0625 179.336 30.4688 180.156C29.875 180.977 29.5781 182.191 29.5781 183.801ZM49.793 190H47.625V172H49.793V190ZM58.5352 190.234C56.8164 190.234 55.418 189.672 54.3398 188.547C53.2617 187.414 52.7227 185.902 52.7227 184.012V183.613C52.7227 182.355 52.9609 181.234 53.4375 180.25C53.9219 179.258 54.5938 178.484 55.4531 177.93C56.3203 177.367 57.2578 177.086 58.2656 177.086C59.9141 177.086 61.1953 177.629 62.1094 178.715C63.0234 179.801 63.4805 181.355 63.4805 183.379V184.281H54.8906C54.9219 185.531 55.2852 186.543 55.9805 187.316C56.6836 188.082 57.5742 188.465 58.6523 188.465C59.418 188.465 60.0664 188.309 60.5977 187.996C61.1289 187.684 61.5938 187.27 61.9922 186.754L63.3164 187.785C62.2539 189.418 60.6602 190.234 58.5352 190.234ZM58.2656 178.867C57.3906 178.867 56.6562 179.188 56.0625 179.828C55.4688 180.461 55.1016 181.352 54.9609 182.5H61.3125V182.336C61.25 181.234 60.9531 180.383 60.4219 179.781C59.8906 179.172 59.1719 178.867 58.2656 178.867ZM73.8281 190C73.7031 189.75 73.6016 189.305 73.5234 188.664C72.5156 189.711 71.3125 190.234 69.9141 190.234C68.6641 190.234 67.6367 189.883 66.832 189.18C66.0352 188.469 65.6367 187.57 65.6367 186.484C65.6367 185.164 66.1367 184.141 67.1367 183.414C68.1445 182.68 69.5586 182.312 71.3789 182.312H73.4883V181.316C73.4883 180.559 73.2617 179.957 72.8086 179.512C72.3555 179.059 71.6875 178.832 70.8047 178.832C70.0312 178.832 69.3828 179.027 68.8594 179.418C68.3359 179.809 68.0742 180.281 68.0742 180.836H65.8945C65.8945 180.203 66.1172 179.594 66.5625 179.008C67.0156 178.414 67.625 177.945 68.3906 177.602C69.1641 177.258 70.0117 177.086 70.9336 177.086C72.3945 177.086 73.5391 177.453 74.3672 178.188C75.1953 178.914 75.625 179.918 75.6562 181.199V187.035C75.6562 188.199 75.8047 189.125 76.1016 189.812V190H73.8281ZM70.2305 188.348C70.9102 188.348 71.5547 188.172 72.1641 187.82C72.7734 187.469 73.2148 187.012 73.4883 186.449V183.848H71.7891C69.1328 183.848 67.8047 184.625 67.8047 186.18C67.8047 186.859 68.0312 187.391 68.4844 187.773C68.9375 188.156 69.5195 188.348 70.2305 188.348ZM85.1836 179.266C84.8555 179.211 84.5 179.184 84.1172 179.184C82.6953 179.184 81.7305 179.789 81.2227 181V190H79.0547V177.32H81.1641L81.1992 178.785C81.9102 177.652 82.918 177.086 84.2227 177.086C84.6445 177.086 84.9648 177.141 85.1836 177.25V179.266ZM89.2383 177.32L89.3086 178.914C90.2773 177.695 91.543 177.086 93.1055 177.086C95.7852 177.086 97.1367 178.598 97.1602 181.621V190H94.9922V181.609C94.9844 180.695 94.7734 180.02 94.3594 179.582C93.9531 179.145 93.3164 178.926 92.4492 178.926C91.7461 178.926 91.1289 179.113 90.5977 179.488C90.0664 179.863 89.6523 180.355 89.3555 180.965V190H87.1875V177.32H89.2383ZM117.609 187.012L120.047 177.32H122.215L118.523 190H116.766L113.684 180.391L110.684 190H108.926L105.246 177.32H107.402L109.898 186.812L112.852 177.32H114.598L117.609 187.012ZM126.598 178.855C127.559 177.676 128.809 177.086 130.348 177.086C133.027 177.086 134.379 178.598 134.402 181.621V190H132.234V181.609C132.227 180.695 132.016 180.02 131.602 179.582C131.195 179.145 130.559 178.926 129.691 178.926C128.988 178.926 128.371 179.113 127.84 179.488C127.309 179.863 126.895 180.355 126.598 180.965V190H124.43V172H126.598V178.855ZM145.477 190C145.352 189.75 145.25 189.305 145.172 188.664C144.164 189.711 142.961 190.234 141.562 190.234C140.312 190.234 139.285 189.883 138.48 189.18C137.684 188.469 137.285 187.57 137.285 186.484C137.285 185.164 137.785 184.141 138.785 183.414C139.793 182.68 141.207 182.312 143.027 182.312H145.137V181.316C145.137 180.559 144.91 179.957 144.457 179.512C144.004 179.059 143.336 178.832 142.453 178.832C141.68 178.832 141.031 179.027 140.508 179.418C139.984 179.809 139.723 180.281 139.723 180.836H137.543C137.543 180.203 137.766 179.594 138.211 179.008C138.664 178.414 139.273 177.945 140.039 177.602C140.812 177.258 141.66 177.086 142.582 177.086C144.043 177.086 145.188 177.453 146.016 178.188C146.844 178.914 147.273 179.918 147.305 181.199V187.035C147.305 188.199 147.453 189.125 147.75 189.812V190H145.477ZM141.879 188.348C142.559 188.348 143.203 188.172 143.812 187.82C144.422 187.469 144.863 187.012 145.137 186.449V183.848H143.438C140.781 183.848 139.453 184.625 139.453 186.18C139.453 186.859 139.68 187.391 140.133 187.773C140.586 188.156 141.168 188.348 141.879 188.348ZM153.645 174.25V177.32H156.012V178.996H153.645V186.859C153.645 187.367 153.75 187.75 153.961 188.008C154.172 188.258 154.531 188.383 155.039 188.383C155.289 188.383 155.633 188.336 156.07 188.242V190C155.5 190.156 154.945 190.234 154.406 190.234C153.438 190.234 152.707 189.941 152.215 189.355C151.723 188.77 151.477 187.938 151.477 186.859V178.996H149.168V177.32H151.477V174.25H153.645ZM167.449 174.25V177.32H169.816V178.996H167.449V186.859C167.449 187.367 167.555 187.75 167.766 188.008C167.977 188.258 168.336 188.383 168.844 188.383C169.094 188.383 169.438 188.336 169.875 188.242V190C169.305 190.156 168.75 190.234 168.211 190.234C167.242 190.234 166.512 189.941 166.02 189.355C165.527 188.77 165.281 187.938 165.281 186.859V178.996H162.973V177.32H165.281V174.25H167.449ZM171.551 183.543C171.551 182.301 171.793 181.184 172.277 180.191C172.77 179.199 173.449 178.434 174.316 177.895C175.191 177.355 176.188 177.086 177.305 177.086C179.031 177.086 180.426 177.684 181.488 178.879C182.559 180.074 183.094 181.664 183.094 183.648V183.801C183.094 185.035 182.855 186.145 182.379 187.129C181.91 188.105 181.234 188.867 180.352 189.414C179.477 189.961 178.469 190.234 177.328 190.234C175.609 190.234 174.215 189.637 173.145 188.441C172.082 187.246 171.551 185.664 171.551 183.695V183.543ZM173.73 183.801C173.73 185.207 174.055 186.336 174.703 187.188C175.359 188.039 176.234 188.465 177.328 188.465C178.43 188.465 179.305 188.035 179.953 187.176C180.602 186.309 180.926 185.098 180.926 183.543C180.926 182.152 180.594 181.027 179.93 180.168C179.273 179.301 178.398 178.867 177.305 178.867C176.234 178.867 175.371 179.293 174.715 180.145C174.059 180.996 173.73 182.215 173.73 183.801ZM194.707 174.25V177.32H197.074V178.996H194.707V186.859C194.707 187.367 194.812 187.75 195.023 188.008C195.234 188.258 195.594 188.383 196.102 188.383C196.352 188.383 196.695 188.336 197.133 188.242V190C196.562 190.156 196.008 190.234 195.469 190.234C194.5 190.234 193.77 189.941 193.277 189.355C192.785 188.77 192.539 187.938 192.539 186.859V178.996H190.23V177.32H192.539V174.25H194.707ZM201.785 178.855C202.746 177.676 203.996 177.086 205.535 177.086C208.215 177.086 209.566 178.598 209.59 181.621V190H207.422V181.609C207.414 180.695 207.203 180.02 206.789 179.582C206.383 179.145 205.746 178.926 204.879 178.926C204.176 178.926 203.559 179.113 203.027 179.488C202.496 179.863 202.082 180.355 201.785 180.965V190H199.617V172H201.785V178.855ZM215.191 190H213.023V177.32H215.191V190ZM212.848 173.957C212.848 173.605 212.953 173.309 213.164 173.066C213.383 172.824 213.703 172.703 214.125 172.703C214.547 172.703 214.867 172.824 215.086 173.066C215.305 173.309 215.414 173.605 215.414 173.957C215.414 174.309 215.305 174.602 215.086 174.836C214.867 175.07 214.547 175.188 214.125 175.188C213.703 175.188 213.383 175.07 213.164 174.836C212.953 174.602 212.848 174.309 212.848 173.957ZM220.723 177.32L220.793 178.914C221.762 177.695 223.027 177.086 224.59 177.086C227.27 177.086 228.621 178.598 228.645 181.621V190H226.477V181.609C226.469 180.695 226.258 180.02 225.844 179.582C225.438 179.145 224.801 178.926 223.934 178.926C223.23 178.926 222.613 179.113 222.082 179.488C221.551 179.863 221.137 180.355 220.84 180.965V190H218.672V177.32H220.723ZM235.453 184.129L234.094 185.547V190H231.926V172H234.094V182.887L235.254 181.492L239.203 177.32H241.84L236.906 182.617L242.414 190H239.871L235.453 184.129ZM257.859 190C257.734 189.75 257.633 189.305 257.555 188.664C256.547 189.711 255.344 190.234 253.945 190.234C252.695 190.234 251.668 189.883 250.863 189.18C250.066 188.469 249.668 187.57 249.668 186.484C249.668 185.164 250.168 184.141 251.168 183.414C252.176 182.68 253.59 182.312 255.41 182.312H257.52V181.316C257.52 180.559 257.293 179.957 256.84 179.512C256.387 179.059 255.719 178.832 254.836 178.832C254.062 178.832 253.414 179.027 252.891 179.418C252.367 179.809 252.105 180.281 252.105 180.836H249.926C249.926 180.203 250.148 179.594 250.594 179.008C251.047 178.414 251.656 177.945 252.422 177.602C253.195 177.258 254.043 177.086 254.965 177.086C256.426 177.086 257.57 177.453 258.398 178.188C259.227 178.914 259.656 179.918 259.688 181.199V187.035C259.688 188.199 259.836 189.125 260.133 189.812V190H257.859ZM254.262 188.348C254.941 188.348 255.586 188.172 256.195 187.82C256.805 187.469 257.246 187.012 257.52 186.449V183.848H255.82C253.164 183.848 251.836 184.625 251.836 186.18C251.836 186.859 252.062 187.391 252.516 187.773C252.969 188.156 253.551 188.348 254.262 188.348ZM273.82 183.801C273.82 185.738 273.375 187.297 272.484 188.477C271.594 189.648 270.398 190.234 268.898 190.234C267.297 190.234 266.059 189.668 265.184 188.535L265.078 190H263.086V172H265.254V178.715C266.129 177.629 267.336 177.086 268.875 177.086C270.414 177.086 271.621 177.668 272.496 178.832C273.379 179.996 273.82 181.59 273.82 183.613V183.801ZM271.652 183.555C271.652 182.078 271.367 180.938 270.797 180.133C270.227 179.328 269.406 178.926 268.336 178.926C266.906 178.926 265.879 179.59 265.254 180.918V186.402C265.918 187.73 266.953 188.395 268.359 188.395C269.398 188.395 270.207 187.992 270.785 187.188C271.363 186.383 271.652 185.172 271.652 183.555ZM275.988 183.543C275.988 182.301 276.23 181.184 276.715 180.191C277.207 179.199 277.887 178.434 278.754 177.895C279.629 177.355 280.625 177.086 281.742 177.086C283.469 177.086 284.863 177.684 285.926 178.879C286.996 180.074 287.531 181.664 287.531 183.648V183.801C287.531 185.035 287.293 186.145 286.816 187.129C286.348 188.105 285.672 188.867 284.789 189.414C283.914 189.961 282.906 190.234 281.766 190.234C280.047 190.234 278.652 189.637 277.582 188.441C276.52 187.246 275.988 185.664 275.988 183.695V183.543ZM278.168 183.801C278.168 185.207 278.492 186.336 279.141 187.188C279.797 188.039 280.672 188.465 281.766 188.465C282.867 188.465 283.742 188.035 284.391 187.176C285.039 186.309 285.363 185.098 285.363 183.543C285.363 182.152 285.031 181.027 284.367 180.168C283.711 179.301 282.836 178.867 281.742 178.867C280.672 178.867 279.809 179.293 279.152 180.145C278.496 180.996 278.168 182.215 278.168 183.801ZM298.078 188.746C297.234 189.738 295.996 190.234 294.363 190.234C293.012 190.234 291.98 189.844 291.27 189.062C290.566 188.273 290.211 187.109 290.203 185.57V177.32H292.371V185.512C292.371 187.434 293.152 188.395 294.715 188.395C296.371 188.395 297.473 187.777 298.02 186.543V177.32H300.188V190H298.125L298.078 188.746ZM306.434 174.25V177.32H308.801V178.996H306.434V186.859C306.434 187.367 306.539 187.75 306.75 188.008C306.961 188.258 307.32 188.383 307.828 188.383C308.078 188.383 308.422 188.336 308.859 188.242V190C308.289 190.156 307.734 190.234 307.195 190.234C306.227 190.234 305.496 189.941 305.004 189.355C304.512 188.77 304.266 187.938 304.266 186.859V178.996H301.957V177.32H304.266V174.25H306.434ZM328.523 187.012L330.961 177.32H333.129L329.438 190H327.68L324.598 180.391L321.598 190H319.84L316.16 177.32H318.316L320.812 186.812L323.766 177.32H325.512L328.523 187.012ZM337.512 178.855C338.473 177.676 339.723 177.086 341.262 177.086C343.941 177.086 345.293 178.598 345.316 181.621V190H343.148V181.609C343.141 180.695 342.93 180.02 342.516 179.582C342.109 179.145 341.473 178.926 340.605 178.926C339.902 178.926 339.285 179.113 338.754 179.488C338.223 179.863 337.809 180.355 337.512 180.965V190H335.344V172H337.512V178.855ZM353.824 190.234C352.105 190.234 350.707 189.672 349.629 188.547C348.551 187.414 348.012 185.902 348.012 184.012V183.613C348.012 182.355 348.25 181.234 348.727 180.25C349.211 179.258 349.883 178.484 350.742 177.93C351.609 177.367 352.547 177.086 353.555 177.086C355.203 177.086 356.484 177.629 357.398 178.715C358.312 179.801 358.77 181.355 358.77 183.379V184.281H350.18C350.211 185.531 350.574 186.543 351.27 187.316C351.973 188.082 352.863 188.465 353.941 188.465C354.707 188.465 355.355 188.309 355.887 187.996C356.418 187.684 356.883 187.27 357.281 186.754L358.605 187.785C357.543 189.418 355.949 190.234 353.824 190.234ZM353.555 178.867C352.68 178.867 351.945 179.188 351.352 179.828C350.758 180.461 350.391 181.352 350.25 182.5H356.602V182.336C356.539 181.234 356.242 180.383 355.711 179.781C355.18 179.172 354.461 178.867 353.555 178.867ZM363.34 177.32L363.41 178.914C364.379 177.695 365.645 177.086 367.207 177.086C369.887 177.086 371.238 178.598 371.262 181.621V190H369.094V181.609C369.086 180.695 368.875 180.02 368.461 179.582C368.055 179.145 367.418 178.926 366.551 178.926C365.848 178.926 365.23 179.113 364.699 179.488C364.168 179.863 363.754 180.355 363.457 180.965V190H361.289V177.32H363.34ZM3.99609 225H1.82812V212.32H3.99609V225ZM1.65234 208.957C1.65234 208.605 1.75781 208.309 1.96875 208.066C2.1875 207.824 2.50781 207.703 2.92969 207.703C3.35156 207.703 3.67188 207.824 3.89062 208.066C4.10938 208.309 4.21875 208.605 4.21875 208.957C4.21875 209.309 4.10938 209.602 3.89062 209.836C3.67188 210.07 3.35156 210.188 2.92969 210.188C2.50781 210.188 2.1875 210.07 1.96875 209.836C1.75781 209.602 1.65234 209.309 1.65234 208.957ZM9.52734 212.32L9.59766 213.914C10.5664 212.695 11.832 212.086 13.3945 212.086C16.0742 212.086 17.4258 213.598 17.4492 216.621V225H15.2812V216.609C15.2734 215.695 15.0625 215.02 14.6484 214.582C14.2422 214.145 13.6055 213.926 12.7383 213.926C12.0352 213.926 11.418 214.113 10.8867 214.488C10.3555 214.863 9.94141 215.355 9.64453 215.965V225H7.47656V212.32H9.52734ZM23.6602 209.25V212.32H26.0273V213.996H23.6602V221.859C23.6602 222.367 23.7656 222.75 23.9766 223.008C24.1875 223.258 24.5469 223.383 25.0547 223.383C25.3047 223.383 25.6484 223.336 26.0859 223.242V225C25.5156 225.156 24.9609 225.234 24.4219 225.234C23.4531 225.234 22.7227 224.941 22.2305 224.355C21.7383 223.77 21.4922 222.938 21.4922 221.859V213.996H19.1836V212.32H21.4922V209.25H23.6602ZM33.832 225.234C32.1133 225.234 30.7148 224.672 29.6367 223.547C28.5586 222.414 28.0195 220.902 28.0195 219.012V218.613C28.0195 217.355 28.2578 216.234 28.7344 215.25C29.2188 214.258 29.8906 213.484 30.75 212.93C31.6172 212.367 32.5547 212.086 33.5625 212.086C35.2109 212.086 36.4922 212.629 37.4062 213.715C38.3203 214.801 38.7773 216.355 38.7773 218.379V219.281H30.1875C30.2188 220.531 30.582 221.543 31.2773 222.316C31.9805 223.082 32.8711 223.465 33.9492 223.465C34.7148 223.465 35.3633 223.309 35.8945 222.996C36.4258 222.684 36.8906 222.27 37.2891 221.754L38.6133 222.785C37.5508 224.418 35.957 225.234 33.832 225.234ZM33.5625 213.867C32.6875 213.867 31.9531 214.188 31.3594 214.828C30.7656 215.461 30.3984 216.352 30.2578 217.5H36.6094V217.336C36.5469 216.234 36.25 215.383 35.7188 214.781C35.1875 214.172 34.4688 213.867 33.5625 213.867ZM47.4258 214.266C47.0977 214.211 46.7422 214.184 46.3594 214.184C44.9375 214.184 43.9727 214.789 43.4648 216V225H41.2969V212.32H43.4062L43.4414 213.785C44.1523 212.652 45.1602 212.086 46.4648 212.086C46.8867 212.086 47.207 212.141 47.4258 212.25V214.266ZM53.8242 222.059L56.9648 212.32H59.1797L54.6328 225H52.9805L48.3867 212.32H50.6016L53.8242 222.059ZM63.6211 225H61.4531V212.32H63.6211V225ZM61.2773 208.957C61.2773 208.605 61.3828 208.309 61.5938 208.066C61.8125 207.824 62.1328 207.703 62.5547 207.703C62.9766 207.703 63.2969 207.824 63.5156 208.066C63.7344 208.309 63.8438 208.605 63.8438 208.957C63.8438 209.309 63.7344 209.602 63.5156 209.836C63.2969 210.07 62.9766 210.188 62.5547 210.188C62.1328 210.188 61.8125 210.07 61.5938 209.836C61.3828 209.602 61.2773 209.309 61.2773 208.957ZM72.3633 225.234C70.6445 225.234 69.2461 224.672 68.168 223.547C67.0898 222.414 66.5508 220.902 66.5508 219.012V218.613C66.5508 217.355 66.7891 216.234 67.2656 215.25C67.75 214.258 68.4219 213.484 69.2812 212.93C70.1484 212.367 71.0859 212.086 72.0938 212.086C73.7422 212.086 75.0234 212.629 75.9375 213.715C76.8516 214.801 77.3086 216.355 77.3086 218.379V219.281H68.7188C68.75 220.531 69.1133 221.543 69.8086 222.316C70.5117 223.082 71.4023 223.465 72.4805 223.465C73.2461 223.465 73.8945 223.309 74.4258 222.996C74.957 222.684 75.4219 222.27 75.8203 221.754L77.1445 222.785C76.082 224.418 74.4883 225.234 72.3633 225.234ZM72.0938 213.867C71.2188 213.867 70.4844 214.188 69.8906 214.828C69.2969 215.461 68.9297 216.352 68.7891 217.5H75.1406V217.336C75.0781 216.234 74.7812 215.383 74.25 214.781C73.7188 214.172 73 213.867 72.0938 213.867ZM91.0547 222.012L93.4922 212.32H95.6602L91.9688 225H90.2109L87.1289 215.391L84.1289 225H82.3711L78.6914 212.32H80.8477L83.3438 221.812L86.2969 212.32H88.043L91.0547 222.012ZM100.23 225H98.0625V212.32H100.23V225ZM97.8867 208.957C97.8867 208.605 97.9922 208.309 98.2031 208.066C98.4219 207.824 98.7422 207.703 99.1641 207.703C99.5859 207.703 99.9062 207.824 100.125 208.066C100.344 208.309 100.453 208.605 100.453 208.957C100.453 209.309 100.344 209.602 100.125 209.836C99.9062 210.07 99.5859 210.188 99.1641 210.188C98.7422 210.188 98.4219 210.07 98.2031 209.836C97.9922 209.602 97.8867 209.309 97.8867 208.957ZM105.762 212.32L105.832 213.914C106.801 212.695 108.066 212.086 109.629 212.086C112.309 212.086 113.66 213.598 113.684 216.621V225H111.516V216.609C111.508 215.695 111.297 215.02 110.883 214.582C110.477 214.145 109.84 213.926 108.973 213.926C108.27 213.926 107.652 214.113 107.121 214.488C106.59 214.863 106.176 215.355 105.879 215.965V225H103.711V212.32H105.762ZM116.438 218.555C116.438 216.578 116.895 215.008 117.809 213.844C118.723 212.672 119.934 212.086 121.441 212.086C122.988 212.086 124.195 212.633 125.062 213.727L125.168 212.32H127.148V224.695C127.148 226.336 126.66 227.629 125.684 228.574C124.715 229.52 123.41 229.992 121.77 229.992C120.855 229.992 119.961 229.797 119.086 229.406C118.211 229.016 117.543 228.48 117.082 227.801L118.207 226.5C119.137 227.648 120.273 228.223 121.617 228.223C122.672 228.223 123.492 227.926 124.078 227.332C124.672 226.738 124.969 225.902 124.969 224.824V223.734C124.102 224.734 122.918 225.234 121.418 225.234C119.934 225.234 118.73 224.637 117.809 223.441C116.895 222.246 116.438 220.617 116.438 218.555ZM118.617 218.801C118.617 220.23 118.91 221.355 119.496 222.176C120.082 222.988 120.902 223.395 121.957 223.395C123.324 223.395 124.328 222.773 124.969 221.531V215.742C124.305 214.531 123.309 213.926 121.98 213.926C120.926 213.926 120.102 214.336 119.508 215.156C118.914 215.977 118.617 217.191 118.617 218.801ZM139.324 209.25V212.32H141.691V213.996H139.324V221.859C139.324 222.367 139.43 222.75 139.641 223.008C139.852 223.258 140.211 223.383 140.719 223.383C140.969 223.383 141.312 223.336 141.75 223.242V225C141.18 225.156 140.625 225.234 140.086 225.234C139.117 225.234 138.387 224.941 137.895 224.355C137.402 223.77 137.156 222.938 137.156 221.859V213.996H134.848V212.32H137.156V209.25H139.324ZM146.402 213.855C147.363 212.676 148.613 212.086 150.152 212.086C152.832 212.086 154.184 213.598 154.207 216.621V225H152.039V216.609C152.031 215.695 151.82 215.02 151.406 214.582C151 214.145 150.363 213.926 149.496 213.926C148.793 213.926 148.176 214.113 147.645 214.488C147.113 214.863 146.699 215.355 146.402 215.965V225H144.234V207H146.402V213.855ZM162.715 225.234C160.996 225.234 159.598 224.672 158.52 223.547C157.441 222.414 156.902 220.902 156.902 219.012V218.613C156.902 217.355 157.141 216.234 157.617 215.25C158.102 214.258 158.773 213.484 159.633 212.93C160.5 212.367 161.438 212.086 162.445 212.086C164.094 212.086 165.375 212.629 166.289 213.715C167.203 214.801 167.66 216.355 167.66 218.379V219.281H159.07C159.102 220.531 159.465 221.543 160.16 222.316C160.863 223.082 161.754 223.465 162.832 223.465C163.598 223.465 164.246 223.309 164.777 222.996C165.309 222.684 165.773 222.27 166.172 221.754L167.496 222.785C166.434 224.418 164.84 225.234 162.715 225.234ZM162.445 213.867C161.57 213.867 160.836 214.188 160.242 214.828C159.648 215.461 159.281 216.352 159.141 217.5H165.492V217.336C165.43 216.234 165.133 215.383 164.602 214.781C164.07 214.172 163.352 213.867 162.445 213.867ZM180.316 222.059L183.457 212.32H185.672L181.125 225H179.473L174.879 212.32H177.094L180.316 222.059ZM190.113 225H187.945V212.32H190.113V225ZM187.77 208.957C187.77 208.605 187.875 208.309 188.086 208.066C188.305 207.824 188.625 207.703 189.047 207.703C189.469 207.703 189.789 207.824 190.008 208.066C190.227 208.309 190.336 208.605 190.336 208.957C190.336 209.309 190.227 209.602 190.008 209.836C189.789 210.07 189.469 210.188 189.047 210.188C188.625 210.188 188.305 210.07 188.086 209.836C187.875 209.602 187.77 209.309 187.77 208.957ZM198.68 223.465C199.453 223.465 200.129 223.23 200.707 222.762C201.285 222.293 201.605 221.707 201.668 221.004H203.719C203.68 221.73 203.43 222.422 202.969 223.078C202.508 223.734 201.891 224.258 201.117 224.648C200.352 225.039 199.539 225.234 198.68 225.234C196.953 225.234 195.578 224.66 194.555 223.512C193.539 222.355 193.031 220.777 193.031 218.777V218.414C193.031 217.18 193.258 216.082 193.711 215.121C194.164 214.16 194.812 213.414 195.656 212.883C196.508 212.352 197.512 212.086 198.668 212.086C200.09 212.086 201.27 212.512 202.207 213.363C203.152 214.215 203.656 215.32 203.719 216.68H201.668C201.605 215.859 201.293 215.188 200.73 214.664C200.176 214.133 199.488 213.867 198.668 213.867C197.566 213.867 196.711 214.266 196.102 215.062C195.5 215.852 195.199 216.996 195.199 218.496V218.906C195.199 220.367 195.5 221.492 196.102 222.281C196.703 223.07 197.562 223.465 198.68 223.465ZM209.098 209.25V212.32H211.465V213.996H209.098V221.859C209.098 222.367 209.203 222.75 209.414 223.008C209.625 223.258 209.984 223.383 210.492 223.383C210.742 223.383 211.086 223.336 211.523 223.242V225C210.953 225.156 210.398 225.234 209.859 225.234C208.891 225.234 208.16 224.941 207.668 224.355C207.176 223.77 206.93 222.938 206.93 221.859V213.996H204.621V212.32H206.93V209.25H209.098ZM216.363 225H214.195V212.32H216.363V225ZM214.02 208.957C214.02 208.605 214.125 208.309 214.336 208.066C214.555 207.824 214.875 207.703 215.297 207.703C215.719 207.703 216.039 207.824 216.258 208.066C216.477 208.309 216.586 208.605 216.586 208.957C216.586 209.309 216.477 209.602 216.258 209.836C216.039 210.07 215.719 210.188 215.297 210.188C214.875 210.188 214.555 210.07 214.336 209.836C214.125 209.602 214.02 209.309 214.02 208.957ZM221.883 212.32L221.941 213.727C222.871 212.633 224.125 212.086 225.703 212.086C227.477 212.086 228.684 212.766 229.324 214.125C229.746 213.516 230.293 213.023 230.965 212.648C231.645 212.273 232.445 212.086 233.367 212.086C236.148 212.086 237.562 213.559 237.609 216.504V225H235.441V216.633C235.441 215.727 235.234 215.051 234.82 214.605C234.406 214.152 233.711 213.926 232.734 213.926C231.93 213.926 231.262 214.168 230.73 214.652C230.199 215.129 229.891 215.773 229.805 216.586V225H227.625V216.691C227.625 214.848 226.723 213.926 224.918 213.926C223.496 213.926 222.523 214.531 222 215.742V225H219.832V212.32H221.883ZM240.938 223.863C240.938 223.488 241.047 223.176 241.266 222.926C241.492 222.676 241.828 222.551 242.273 222.551C242.719 222.551 243.055 222.676 243.281 222.926C243.516 223.176 243.633 223.488 243.633 223.863C243.633 224.223 243.516 224.523 243.281 224.766C243.055 225.008 242.719 225.129 242.273 225.129C241.828 225.129 241.492 225.008 241.266 224.766C241.047 224.523 240.938 224.223 240.938 223.863Z" fill="white" fill-opacity="0.8"/>
<line y1="102" x2="150" y2="102" stroke="#F4C346" stroke-width="8"/>
<path d="M12.6914 46.9609V67H5.94141V15.8125H24.8203C30.4219 15.8125 34.8047 17.2422 37.9688 20.1016C41.1562 22.9609 42.75 26.7461 42.75 31.457C42.75 36.4258 41.1914 40.2578 38.0742 42.9531C34.9805 45.625 30.5391 46.9609 24.75 46.9609H12.6914ZM12.6914 41.4414H24.8203C28.4297 41.4414 31.1953 40.5977 33.1172 38.9102C35.0391 37.1992 36 34.7383 36 31.5273C36 28.4805 35.0391 26.043 33.1172 24.2148C31.1953 22.3867 28.5586 21.4375 25.207 21.3672H12.6914V41.4414ZM68.7305 34.7969C67.7461 34.6328 66.6797 34.5508 65.5312 34.5508C61.2656 34.5508 58.3711 36.3672 56.8477 40V67H50.3438V28.9609H56.6719L56.7773 33.3555C58.9102 29.957 61.9336 28.2578 65.8477 28.2578C67.1133 28.2578 68.0742 28.4219 68.7305 28.75V34.7969ZM89.8242 67.7031C84.668 67.7031 80.4727 66.0156 77.2383 62.6406C74.0039 59.2422 72.3867 54.707 72.3867 49.0352V47.8398C72.3867 44.0664 73.1016 40.7031 74.5312 37.75C75.9844 34.7734 78 32.4531 80.5781 30.7891C83.1797 29.1016 85.9922 28.2578 89.0156 28.2578C93.9609 28.2578 97.8047 29.8867 100.547 33.1445C103.289 36.4023 104.66 41.0664 104.66 47.1367V49.8438H78.8906C78.9844 53.5938 80.0742 56.6289 82.1602 58.9492C84.2695 61.2461 86.9414 62.3945 90.1758 62.3945C92.4727 62.3945 94.418 61.9258 96.0117 60.9883C97.6055 60.0508 99 58.8086 100.195 57.2617L104.168 60.3555C100.98 65.2539 96.1992 67.7031 89.8242 67.7031ZM89.0156 33.6016C86.3906 33.6016 84.1875 34.5625 82.4062 36.4844C80.625 38.3828 79.5234 41.0547 79.1016 44.5H98.1562V44.0078C97.9688 40.7031 97.0781 38.1484 95.4844 36.3438C93.8906 34.5156 91.7344 33.6016 89.0156 33.6016ZM144.352 48.4023C144.352 54.1914 143.027 58.8555 140.379 62.3945C137.73 65.9336 134.145 67.7031 129.621 67.7031C125.004 67.7031 121.371 66.2383 118.723 63.3086V81.625H112.219V28.9609H118.16L118.477 33.1797C121.125 29.8984 124.805 28.2578 129.516 28.2578C134.086 28.2578 137.695 29.9805 140.344 33.4258C143.016 36.8711 144.352 41.6641 144.352 47.8047V48.4023ZM137.848 47.6641C137.848 43.375 136.934 39.9883 135.105 37.5039C133.277 35.0195 130.77 33.7773 127.582 33.7773C123.645 33.7773 120.691 35.5234 118.723 39.0156V57.1914C120.668 60.6602 123.645 62.3945 127.652 62.3945C130.77 62.3945 133.242 61.1641 135.07 58.7031C136.922 56.2188 137.848 52.5391 137.848 47.6641ZM176.133 67C175.758 66.25 175.453 64.9141 175.219 62.9922C172.195 66.1328 168.586 67.7031 164.391 67.7031C160.641 67.7031 157.559 66.6484 155.145 64.5391C152.754 62.4062 151.559 59.7109 151.559 56.4531C151.559 52.4922 153.059 49.4219 156.059 47.2422C159.082 45.0391 163.324 43.9375 168.785 43.9375H175.113V40.9492C175.113 38.6758 174.434 36.8711 173.074 35.5352C171.715 34.1758 169.711 33.4961 167.062 33.4961C164.742 33.4961 162.797 34.082 161.227 35.2539C159.656 36.4258 158.871 37.8438 158.871 39.5078H152.332C152.332 37.6094 153 35.7812 154.336 34.0234C155.695 32.2422 157.523 30.8359 159.82 29.8047C162.141 28.7734 164.684 28.2578 167.449 28.2578C171.832 28.2578 175.266 29.3594 177.75 31.5625C180.234 33.7422 181.523 36.7539 181.617 40.5977V58.1055C181.617 61.5977 182.062 64.375 182.953 66.4375V67H176.133ZM165.34 62.043C167.379 62.043 169.312 61.5156 171.141 60.4609C172.969 59.4062 174.293 58.0352 175.113 56.3477V48.543H170.016C162.047 48.543 158.062 50.875 158.062 55.5391C158.062 57.5781 158.742 59.1719 160.102 60.3203C161.461 61.4688 163.207 62.043 165.34 62.043ZM210.199 34.7969C209.215 34.6328 208.148 34.5508 207 34.5508C202.734 34.5508 199.84 36.3672 198.316 40V67H191.812V28.9609H198.141L198.246 33.3555C200.379 29.957 203.402 28.2578 207.316 28.2578C208.582 28.2578 209.543 28.4219 210.199 28.75V34.7969ZM231.293 67.7031C226.137 67.7031 221.941 66.0156 218.707 62.6406C215.473 59.2422 213.855 54.707 213.855 49.0352V47.8398C213.855 44.0664 214.57 40.7031 216 37.75C217.453 34.7734 219.469 32.4531 222.047 30.7891C224.648 29.1016 227.461 28.2578 230.484 28.2578C235.43 28.2578 239.273 29.8867 242.016 33.1445C244.758 36.4023 246.129 41.0664 246.129 47.1367V49.8438H220.359C220.453 53.5938 221.543 56.6289 223.629 58.9492C225.738 61.2461 228.41 62.3945 231.645 62.3945C233.941 62.3945 235.887 61.9258 237.48 60.9883C239.074 60.0508 240.469 58.8086 241.664 57.2617L245.637 60.3555C242.449 65.2539 237.668 67.7031 231.293 67.7031ZM230.484 33.6016C227.859 33.6016 225.656 34.5625 223.875 36.4844C222.094 38.3828 220.992 41.0547 220.57 44.5H239.625V44.0078C239.438 40.7031 238.547 38.1484 236.953 36.3438C235.359 34.5156 233.203 33.6016 230.484 33.6016Z" fill="white"/>
</svg>
