<svg width="505" height="256" viewBox="0 0 505 256" fill="none" xmlns="http://www.w3.org/2000/svg">
<path d="M5.66016 149.621L5.98828 151.871L6.46875 149.844L9.84375 137.938H11.7422L15.0352 149.844L15.5039 151.906L15.8672 149.609L18.5156 137.938H20.7773L16.6406 155H14.5898L11.0742 142.566L10.8047 141.266L10.5352 142.566L6.89062 155H4.83984L0.714844 137.938H2.96484L5.66016 149.621ZM27.832 155.234C26.1133 155.234 24.7148 154.672 23.6367 153.547C22.5586 152.414 22.0195 150.902 22.0195 149.012V148.613C22.0195 147.355 22.2578 146.234 22.7344 145.25C23.2188 144.258 23.8906 143.484 24.75 142.93C25.6172 142.367 26.5547 142.086 27.5625 142.086C29.2109 142.086 30.4922 142.629 31.4062 143.715C32.3203 144.801 32.7773 146.355 32.7773 148.379V149.281H24.1875C24.2188 150.531 24.582 151.543 25.2773 152.316C25.9805 153.082 26.8711 153.465 27.9492 153.465C28.7148 153.465 29.3633 153.309 29.8945 152.996C30.4258 152.684 30.8906 152.27 31.2891 151.754L32.6133 152.785C31.5508 154.418 29.957 155.234 27.832 155.234ZM27.5625 143.867C26.6875 143.867 25.9531 144.188 25.3594 144.828C24.7656 145.461 24.3984 146.352 24.2578 147.5H30.6094V147.336C30.5469 146.234 30.25 145.383 29.7188 144.781C29.1875 144.172 28.4688 143.867 27.5625 143.867ZM49.0781 155C48.9531 154.75 48.8516 154.305 48.7734 153.664C47.7656 154.711 46.5625 155.234 45.1641 155.234C43.9141 155.234 42.8867 154.883 42.082 154.18C41.2852 153.469 40.8867 152.57 40.8867 151.484C40.8867 150.164 41.3867 149.141 42.3867 148.414C43.3945 147.68 44.8086 147.312 46.6289 147.312H48.7383V146.316C48.7383 145.559 48.5117 144.957 48.0586 144.512C47.6055 144.059 46.9375 143.832 46.0547 143.832C45.2812 143.832 44.6328 144.027 44.1094 144.418C43.5859 144.809 43.3242 145.281 43.3242 145.836H41.1445C41.1445 145.203 41.3672 144.594 41.8125 144.008C42.2656 143.414 42.875 142.945 43.6406 142.602C44.4141 142.258 45.2617 142.086 46.1836 142.086C47.6445 142.086 48.7891 142.453 49.6172 143.188C50.4453 143.914 50.875 144.918 50.9062 146.199V152.035C50.9062 153.199 51.0547 154.125 51.3516 154.812V155H49.0781ZM45.4805 153.348C46.1602 153.348 46.8047 153.172 47.4141 152.82C48.0234 152.469 48.4648 152.012 48.7383 151.449V148.848H47.0391C44.3828 148.848 43.0547 149.625 43.0547 151.18C43.0547 151.859 43.2812 152.391 43.7344 152.773C44.1875 153.156 44.7695 153.348 45.4805 153.348ZM56.6602 155H54.4922V142.32H56.6602V155ZM54.3164 138.957C54.3164 138.605 54.4219 138.309 54.6328 138.066C54.8516 137.824 55.1719 137.703 55.5938 137.703C56.0156 137.703 56.3359 137.824 56.5547 138.066C56.7734 138.309 56.8828 138.605 56.8828 138.957C56.8828 139.309 56.7734 139.602 56.5547 139.836C56.3359 140.07 56.0156 140.188 55.5938 140.188C55.1719 140.188 54.8516 140.07 54.6328 139.836C54.4219 139.602 54.3164 139.309 54.3164 138.957ZM62.1797 142.32L62.2383 143.727C63.168 142.633 64.4219 142.086 66 142.086C67.7734 142.086 68.9805 142.766 69.6211 144.125C70.043 143.516 70.5898 143.023 71.2617 142.648C71.9414 142.273 72.7422 142.086 73.6641 142.086C76.4453 142.086 77.8594 143.559 77.9062 146.504V155H75.7383V146.633C75.7383 145.727 75.5312 145.051 75.1172 144.605C74.7031 144.152 74.0078 143.926 73.0312 143.926C72.2266 143.926 71.5586 144.168 71.0273 144.652C70.4961 145.129 70.1875 145.773 70.1016 146.586V155H67.9219V146.691C67.9219 144.848 67.0195 143.926 65.2148 143.926C63.793 143.926 62.8203 144.531 62.2969 145.742V155H60.1289V142.32H62.1797ZM90.082 139.25V142.32H92.4492V143.996H90.082V151.859C90.082 152.367 90.1875 152.75 90.3984 153.008C90.6094 153.258 90.9688 153.383 91.4766 153.383C91.7266 153.383 92.0703 153.336 92.5078 153.242V155C91.9375 155.156 91.3828 155.234 90.8438 155.234C89.875 155.234 89.1445 154.941 88.6523 154.355C88.1602 153.77 87.9141 152.938 87.9141 151.859V143.996H85.6055V142.32H87.9141V139.25H90.082ZM94.1836 148.543C94.1836 147.301 94.4258 146.184 94.9102 145.191C95.4023 144.199 96.082 143.434 96.9492 142.895C97.8242 142.355 98.8203 142.086 99.9375 142.086C101.664 142.086 103.059 142.684 104.121 143.879C105.191 145.074 105.727 146.664 105.727 148.648V148.801C105.727 150.035 105.488 151.145 105.012 152.129C104.543 153.105 103.867 153.867 102.984 154.414C102.109 154.961 101.102 155.234 99.9609 155.234C98.2422 155.234 96.8477 154.637 95.7773 153.441C94.7148 152.246 94.1836 150.664 94.1836 148.695V148.543ZM96.3633 148.801C96.3633 150.207 96.6875 151.336 97.3359 152.188C97.9922 153.039 98.8672 153.465 99.9609 153.465C101.062 153.465 101.938 153.035 102.586 152.176C103.234 151.309 103.559 150.098 103.559 148.543C103.559 147.152 103.227 146.027 102.562 145.168C101.906 144.301 101.031 143.867 99.9375 143.867C98.8672 143.867 98.0039 144.293 97.3477 145.145C96.6914 145.996 96.3633 147.215 96.3633 148.801ZM125.133 148.801C125.133 150.738 124.688 152.297 123.797 153.477C122.906 154.648 121.711 155.234 120.211 155.234C118.609 155.234 117.371 154.668 116.496 153.535L116.391 155H114.398V137H116.566V143.715C117.441 142.629 118.648 142.086 120.188 142.086C121.727 142.086 122.934 142.668 123.809 143.832C124.691 144.996 125.133 146.59 125.133 148.613V148.801ZM122.965 148.555C122.965 147.078 122.68 145.938 122.109 145.133C121.539 144.328 120.719 143.926 119.648 143.926C118.219 143.926 117.191 144.59 116.566 145.918V151.402C117.23 152.73 118.266 153.395 119.672 153.395C120.711 153.395 121.52 152.992 122.098 152.188C122.676 151.383 122.965 150.172 122.965 148.555ZM134.004 144.266C133.676 144.211 133.32 144.184 132.938 144.184C131.516 144.184 130.551 144.789 130.043 146V155H127.875V142.32H129.984L130.02 143.785C130.73 142.652 131.738 142.086 133.043 142.086C133.465 142.086 133.785 142.141 134.004 142.25V144.266ZM138.363 155H136.195V142.32H138.363V155ZM136.02 138.957C136.02 138.605 136.125 138.309 136.336 138.066C136.555 137.824 136.875 137.703 137.297 137.703C137.719 137.703 138.039 137.824 138.258 138.066C138.477 138.309 138.586 138.605 138.586 138.957C138.586 139.309 138.477 139.602 138.258 139.836C138.039 140.07 137.719 140.188 137.297 140.188C136.875 140.188 136.555 140.07 136.336 139.836C136.125 139.602 136.02 139.309 136.02 138.957ZM143.895 142.32L143.965 143.914C144.934 142.695 146.199 142.086 147.762 142.086C150.441 142.086 151.793 143.598 151.816 146.621V155H149.648V146.609C149.641 145.695 149.43 145.02 149.016 144.582C148.609 144.145 147.973 143.926 147.105 143.926C146.402 143.926 145.785 144.113 145.254 144.488C144.723 144.863 144.309 145.355 144.012 145.965V155H141.844V142.32H143.895ZM154.57 148.555C154.57 146.578 155.027 145.008 155.941 143.844C156.855 142.672 158.066 142.086 159.574 142.086C161.121 142.086 162.328 142.633 163.195 143.727L163.301 142.32H165.281V154.695C165.281 156.336 164.793 157.629 163.816 158.574C162.848 159.52 161.543 159.992 159.902 159.992C158.988 159.992 158.094 159.797 157.219 159.406C156.344 159.016 155.676 158.48 155.215 157.801L156.34 156.5C157.27 157.648 158.406 158.223 159.75 158.223C160.805 158.223 161.625 157.926 162.211 157.332C162.805 156.738 163.102 155.902 163.102 154.824V153.734C162.234 154.734 161.051 155.234 159.551 155.234C158.066 155.234 156.863 154.637 155.941 153.441C155.027 152.246 154.57 150.617 154.57 148.555ZM156.75 148.801C156.75 150.23 157.043 151.355 157.629 152.176C158.215 152.988 159.035 153.395 160.09 153.395C161.457 153.395 162.461 152.773 163.102 151.531V145.742C162.438 144.531 161.441 143.926 160.113 143.926C159.059 143.926 158.234 144.336 157.641 145.156C157.047 145.977 156.75 147.191 156.75 148.801ZM176.871 155H174.703V142.32H176.871V155ZM174.527 138.957C174.527 138.605 174.633 138.309 174.844 138.066C175.062 137.824 175.383 137.703 175.805 137.703C176.227 137.703 176.547 137.824 176.766 138.066C176.984 138.309 177.094 138.605 177.094 138.957C177.094 139.309 176.984 139.602 176.766 139.836C176.547 140.07 176.227 140.188 175.805 140.188C175.383 140.188 175.062 140.07 174.844 139.836C174.633 139.602 174.527 139.309 174.527 138.957ZM182.402 142.32L182.473 143.914C183.441 142.695 184.707 142.086 186.27 142.086C188.949 142.086 190.301 143.598 190.324 146.621V155H188.156V146.609C188.148 145.695 187.938 145.02 187.523 144.582C187.117 144.145 186.48 143.926 185.613 143.926C184.91 143.926 184.293 144.113 183.762 144.488C183.23 144.863 182.816 145.355 182.52 145.965V155H180.352V142.32H182.402ZM200.977 151.637C200.977 151.051 200.754 150.598 200.309 150.277C199.871 149.949 199.102 149.668 198 149.434C196.906 149.199 196.035 148.918 195.387 148.59C194.746 148.262 194.27 147.871 193.957 147.418C193.652 146.965 193.5 146.426 193.5 145.801C193.5 144.762 193.938 143.883 194.812 143.164C195.695 142.445 196.82 142.086 198.188 142.086C199.625 142.086 200.789 142.457 201.68 143.199C202.578 143.941 203.027 144.891 203.027 146.047H200.848C200.848 145.453 200.594 144.941 200.086 144.512C199.586 144.082 198.953 143.867 198.188 143.867C197.398 143.867 196.781 144.039 196.336 144.383C195.891 144.727 195.668 145.176 195.668 145.73C195.668 146.254 195.875 146.648 196.289 146.914C196.703 147.18 197.449 147.434 198.527 147.676C199.613 147.918 200.492 148.207 201.164 148.543C201.836 148.879 202.332 149.285 202.652 149.762C202.98 150.23 203.145 150.805 203.145 151.484C203.145 152.617 202.691 153.527 201.785 154.215C200.879 154.895 199.703 155.234 198.258 155.234C197.242 155.234 196.344 155.055 195.562 154.695C194.781 154.336 194.168 153.836 193.723 153.195C193.285 152.547 193.066 151.848 193.066 151.098H195.234C195.273 151.824 195.562 152.402 196.102 152.832C196.648 153.254 197.367 153.465 198.258 153.465C199.078 153.465 199.734 153.301 200.227 152.973C200.727 152.637 200.977 152.191 200.977 151.637ZM208.324 155H206.156V142.32H208.324V155ZM205.98 138.957C205.98 138.605 206.086 138.309 206.297 138.066C206.516 137.824 206.836 137.703 207.258 137.703C207.68 137.703 208 137.824 208.219 138.066C208.438 138.309 208.547 138.605 208.547 138.957C208.547 139.309 208.438 139.602 208.219 139.836C208 140.07 207.68 140.188 207.258 140.188C206.836 140.188 206.516 140.07 206.297 139.836C206.086 139.602 205.98 139.309 205.98 138.957ZM211.289 148.555C211.289 146.578 211.746 145.008 212.66 143.844C213.574 142.672 214.785 142.086 216.293 142.086C217.84 142.086 219.047 142.633 219.914 143.727L220.02 142.32H222V154.695C222 156.336 221.512 157.629 220.535 158.574C219.566 159.52 218.262 159.992 216.621 159.992C215.707 159.992 214.812 159.797 213.938 159.406C213.062 159.016 212.395 158.48 211.934 157.801L213.059 156.5C213.988 157.648 215.125 158.223 216.469 158.223C217.523 158.223 218.344 157.926 218.93 157.332C219.523 156.738 219.82 155.902 219.82 154.824V153.734C218.953 154.734 217.77 155.234 216.27 155.234C214.785 155.234 213.582 154.637 212.66 153.441C211.746 152.246 211.289 150.617 211.289 148.555ZM213.469 148.801C213.469 150.23 213.762 151.355 214.348 152.176C214.934 152.988 215.754 153.395 216.809 153.395C218.176 153.395 219.18 152.773 219.82 151.531V145.742C219.156 144.531 218.16 143.926 216.832 143.926C215.777 143.926 214.953 144.336 214.359 145.156C213.766 145.977 213.469 147.191 213.469 148.801ZM227.449 143.855C228.41 142.676 229.66 142.086 231.199 142.086C233.879 142.086 235.23 143.598 235.254 146.621V155H233.086V146.609C233.078 145.695 232.867 145.02 232.453 144.582C232.047 144.145 231.41 143.926 230.543 143.926C229.84 143.926 229.223 144.113 228.691 144.488C228.16 144.863 227.746 145.355 227.449 145.965V155H225.281V137H227.449V143.855ZM241.441 139.25V142.32H243.809V143.996H241.441V151.859C241.441 152.367 241.547 152.75 241.758 153.008C241.969 153.258 242.328 153.383 242.836 153.383C243.086 153.383 243.43 153.336 243.867 153.242V155C243.297 155.156 242.742 155.234 242.203 155.234C241.234 155.234 240.504 154.941 240.012 154.355C239.52 153.77 239.273 152.938 239.273 151.859V143.996H236.965V142.32H239.273V139.25H241.441ZM260.133 155C260.008 154.75 259.906 154.305 259.828 153.664C258.82 154.711 257.617 155.234 256.219 155.234C254.969 155.234 253.941 154.883 253.137 154.18C252.34 153.469 251.941 152.57 251.941 151.484C251.941 150.164 252.441 149.141 253.441 148.414C254.449 147.68 255.863 147.312 257.684 147.312H259.793V146.316C259.793 145.559 259.566 144.957 259.113 144.512C258.66 144.059 257.992 143.832 257.109 143.832C256.336 143.832 255.688 144.027 255.164 144.418C254.641 144.809 254.379 145.281 254.379 145.836H252.199C252.199 145.203 252.422 144.594 252.867 144.008C253.32 143.414 253.93 142.945 254.695 142.602C255.469 142.258 256.316 142.086 257.238 142.086C258.699 142.086 259.844 142.453 260.672 143.188C261.5 143.914 261.93 144.918 261.961 146.199V152.035C261.961 153.199 262.109 154.125 262.406 154.812V155H260.133ZM256.535 153.348C257.215 153.348 257.859 153.172 258.469 152.82C259.078 152.469 259.52 152.012 259.793 151.449V148.848H258.094C255.438 148.848 254.109 149.625 254.109 151.18C254.109 151.859 254.336 152.391 254.789 152.773C255.242 153.156 255.824 153.348 256.535 153.348ZM267.41 142.32L267.48 143.914C268.449 142.695 269.715 142.086 271.277 142.086C273.957 142.086 275.309 143.598 275.332 146.621V155H273.164V146.609C273.156 145.695 272.945 145.02 272.531 144.582C272.125 144.145 271.488 143.926 270.621 143.926C269.918 143.926 269.301 144.113 268.77 144.488C268.238 144.863 267.824 145.355 267.527 145.965V155H265.359V142.32H267.41ZM278.074 148.555C278.074 146.609 278.535 145.047 279.457 143.867C280.379 142.68 281.586 142.086 283.078 142.086C284.562 142.086 285.738 142.594 286.605 143.609V137H288.773V155H286.781L286.676 153.641C285.809 154.703 284.602 155.234 283.055 155.234C281.586 155.234 280.387 154.633 279.457 153.43C278.535 152.227 278.074 150.656 278.074 148.719V148.555ZM280.242 148.801C280.242 150.238 280.539 151.363 281.133 152.176C281.727 152.988 282.547 153.395 283.594 153.395C284.969 153.395 285.973 152.777 286.605 151.543V145.719C285.957 144.523 284.961 143.926 283.617 143.926C282.555 143.926 281.727 144.336 281.133 145.156C280.539 145.977 280.242 147.191 280.242 148.801ZM305.93 153.746C305.086 154.738 303.848 155.234 302.215 155.234C300.863 155.234 299.832 154.844 299.121 154.062C298.418 153.273 298.062 152.109 298.055 150.57V142.32H300.223V150.512C300.223 152.434 301.004 153.395 302.566 153.395C304.223 153.395 305.324 152.777 305.871 151.543V142.32H308.039V155H305.977L305.93 153.746ZM313.395 142.32L313.465 143.914C314.434 142.695 315.699 142.086 317.262 142.086C319.941 142.086 321.293 143.598 321.316 146.621V155H319.148V146.609C319.141 145.695 318.93 145.02 318.516 144.582C318.109 144.145 317.473 143.926 316.605 143.926C315.902 143.926 315.285 144.113 314.754 144.488C314.223 144.863 313.809 145.355 313.512 145.965V155H311.344V142.32H313.395ZM324.059 148.555C324.059 146.609 324.52 145.047 325.441 143.867C326.363 142.68 327.57 142.086 329.062 142.086C330.547 142.086 331.723 142.594 332.59 143.609V137H334.758V155H332.766L332.66 153.641C331.793 154.703 330.586 155.234 329.039 155.234C327.57 155.234 326.371 154.633 325.441 153.43C324.52 152.227 324.059 150.656 324.059 148.719V148.555ZM326.227 148.801C326.227 150.238 326.523 151.363 327.117 152.176C327.711 152.988 328.531 153.395 329.578 153.395C330.953 153.395 331.957 152.777 332.59 151.543V145.719C331.941 144.523 330.945 143.926 329.602 143.926C328.539 143.926 327.711 144.336 327.117 145.156C326.523 145.977 326.227 147.191 326.227 148.801ZM343.395 155.234C341.676 155.234 340.277 154.672 339.199 153.547C338.121 152.414 337.582 150.902 337.582 149.012V148.613C337.582 147.355 337.82 146.234 338.297 145.25C338.781 144.258 339.453 143.484 340.312 142.93C341.18 142.367 342.117 142.086 343.125 142.086C344.773 142.086 346.055 142.629 346.969 143.715C347.883 144.801 348.34 146.355 348.34 148.379V149.281H339.75C339.781 150.531 340.145 151.543 340.84 152.316C341.543 153.082 342.434 153.465 343.512 153.465C344.277 153.465 344.926 153.309 345.457 152.996C345.988 152.684 346.453 152.27 346.852 151.754L348.176 152.785C347.113 154.418 345.52 155.234 343.395 155.234ZM343.125 143.867C342.25 143.867 341.516 144.188 340.922 144.828C340.328 145.461 339.961 146.352 339.82 147.5H346.172V147.336C346.109 146.234 345.812 145.383 345.281 144.781C344.75 144.172 344.031 143.867 343.125 143.867ZM356.988 144.266C356.66 144.211 356.305 144.184 355.922 144.184C354.5 144.184 353.535 144.789 353.027 146V155H350.859V142.32H352.969L353.004 143.785C353.715 142.652 354.723 142.086 356.027 142.086C356.449 142.086 356.77 142.141 356.988 142.25V144.266ZM366.375 151.637C366.375 151.051 366.152 150.598 365.707 150.277C365.27 149.949 364.5 149.668 363.398 149.434C362.305 149.199 361.434 148.918 360.785 148.59C360.145 148.262 359.668 147.871 359.355 147.418C359.051 146.965 358.898 146.426 358.898 145.801C358.898 144.762 359.336 143.883 360.211 143.164C361.094 142.445 362.219 142.086 363.586 142.086C365.023 142.086 366.188 142.457 367.078 143.199C367.977 143.941 368.426 144.891 368.426 146.047H366.246C366.246 145.453 365.992 144.941 365.484 144.512C364.984 144.082 364.352 143.867 363.586 143.867C362.797 143.867 362.18 144.039 361.734 144.383C361.289 144.727 361.066 145.176 361.066 145.73C361.066 146.254 361.273 146.648 361.688 146.914C362.102 147.18 362.848 147.434 363.926 147.676C365.012 147.918 365.891 148.207 366.562 148.543C367.234 148.879 367.73 149.285 368.051 149.762C368.379 150.23 368.543 150.805 368.543 151.484C368.543 152.617 368.09 153.527 367.184 154.215C366.277 154.895 365.102 155.234 363.656 155.234C362.641 155.234 361.742 155.055 360.961 154.695C360.18 154.336 359.566 153.836 359.121 153.195C358.684 152.547 358.465 151.848 358.465 151.098H360.633C360.672 151.824 360.961 152.402 361.5 152.832C362.047 153.254 362.766 153.465 363.656 153.465C364.477 153.465 365.133 153.301 365.625 152.973C366.125 152.637 366.375 152.191 366.375 151.637ZM374.309 139.25V142.32H376.676V143.996H374.309V151.859C374.309 152.367 374.414 152.75 374.625 153.008C374.836 153.258 375.195 153.383 375.703 153.383C375.953 153.383 376.297 153.336 376.734 153.242V155C376.164 155.156 375.609 155.234 375.07 155.234C374.102 155.234 373.371 154.941 372.879 154.355C372.387 153.77 372.141 152.938 372.141 151.859V143.996H369.832V142.32H372.141V139.25H374.309ZM387.047 155C386.922 154.75 386.82 154.305 386.742 153.664C385.734 154.711 384.531 155.234 383.133 155.234C381.883 155.234 380.855 154.883 380.051 154.18C379.254 153.469 378.855 152.57 378.855 151.484C378.855 150.164 379.355 149.141 380.355 148.414C381.363 147.68 382.777 147.312 384.598 147.312H386.707V146.316C386.707 145.559 386.48 144.957 386.027 144.512C385.574 144.059 384.906 143.832 384.023 143.832C383.25 143.832 382.602 144.027 382.078 144.418C381.555 144.809 381.293 145.281 381.293 145.836H379.113C379.113 145.203 379.336 144.594 379.781 144.008C380.234 143.414 380.844 142.945 381.609 142.602C382.383 142.258 383.23 142.086 384.152 142.086C385.613 142.086 386.758 142.453 387.586 143.188C388.414 143.914 388.844 144.918 388.875 146.199V152.035C388.875 153.199 389.023 154.125 389.32 154.812V155H387.047ZM383.449 153.348C384.129 153.348 384.773 153.172 385.383 152.82C385.992 152.469 386.434 152.012 386.707 151.449V148.848H385.008C382.352 148.848 381.023 149.625 381.023 151.18C381.023 151.859 381.25 152.391 381.703 152.773C382.156 153.156 382.738 153.348 383.449 153.348ZM394.324 142.32L394.395 143.914C395.363 142.695 396.629 142.086 398.191 142.086C400.871 142.086 402.223 143.598 402.246 146.621V155H400.078V146.609C400.07 145.695 399.859 145.02 399.445 144.582C399.039 144.145 398.402 143.926 397.535 143.926C396.832 143.926 396.215 144.113 395.684 144.488C395.152 144.863 394.738 145.355 394.441 145.965V155H392.273V142.32H394.324ZM404.988 148.555C404.988 146.609 405.449 145.047 406.371 143.867C407.293 142.68 408.5 142.086 409.992 142.086C411.477 142.086 412.652 142.594 413.52 143.609V137H415.688V155H413.695L413.59 153.641C412.723 154.703 411.516 155.234 409.969 155.234C408.5 155.234 407.301 154.633 406.371 153.43C405.449 152.227 404.988 150.656 404.988 148.719V148.555ZM407.156 148.801C407.156 150.238 407.453 151.363 408.047 152.176C408.641 152.988 409.461 153.395 410.508 153.395C411.883 153.395 412.887 152.777 413.52 151.543V145.719C412.871 144.523 411.875 143.926 410.531 143.926C409.469 143.926 408.641 144.336 408.047 145.156C407.453 145.977 407.156 147.191 407.156 148.801ZM421.418 155H419.25V142.32H421.418V155ZM419.074 138.957C419.074 138.605 419.18 138.309 419.391 138.066C419.609 137.824 419.93 137.703 420.352 137.703C420.773 137.703 421.094 137.824 421.312 138.066C421.531 138.309 421.641 138.605 421.641 138.957C421.641 139.309 421.531 139.602 421.312 139.836C421.094 140.07 420.773 140.188 420.352 140.188C419.93 140.188 419.609 140.07 419.391 139.836C419.18 139.602 419.074 139.309 419.074 138.957ZM426.949 142.32L427.02 143.914C427.988 142.695 429.254 142.086 430.816 142.086C433.496 142.086 434.848 143.598 434.871 146.621V155H432.703V146.609C432.695 145.695 432.484 145.02 432.07 144.582C431.664 144.145 431.027 143.926 430.16 143.926C429.457 143.926 428.84 144.113 428.309 144.488C427.777 144.863 427.363 145.355 427.066 145.965V155H424.898V142.32H426.949ZM437.625 148.555C437.625 146.578 438.082 145.008 438.996 143.844C439.91 142.672 441.121 142.086 442.629 142.086C444.176 142.086 445.383 142.633 446.25 143.727L446.355 142.32H448.336V154.695C448.336 156.336 447.848 157.629 446.871 158.574C445.902 159.52 444.598 159.992 442.957 159.992C442.043 159.992 441.148 159.797 440.273 159.406C439.398 159.016 438.73 158.48 438.27 157.801L439.395 156.5C440.324 157.648 441.461 158.223 442.805 158.223C443.859 158.223 444.68 157.926 445.266 157.332C445.859 156.738 446.156 155.902 446.156 154.824V153.734C445.289 154.734 444.105 155.234 442.605 155.234C441.121 155.234 439.918 154.637 438.996 153.441C438.082 152.246 437.625 150.617 437.625 148.555ZM439.805 148.801C439.805 150.23 440.098 151.355 440.684 152.176C441.27 152.988 442.09 153.395 443.145 153.395C444.512 153.395 445.516 152.773 446.156 151.531V145.742C445.492 144.531 444.496 143.926 443.168 143.926C442.113 143.926 441.289 144.336 440.695 145.156C440.102 145.977 439.805 147.191 439.805 148.801ZM9.46875 190C9.34375 189.75 9.24219 189.305 9.16406 188.664C8.15625 189.711 6.95312 190.234 5.55469 190.234C4.30469 190.234 3.27734 189.883 2.47266 189.18C1.67578 188.469 1.27734 187.57 1.27734 186.484C1.27734 185.164 1.77734 184.141 2.77734 183.414C3.78516 182.68 5.19922 182.312 7.01953 182.312H9.12891V181.316C9.12891 180.559 8.90234 179.957 8.44922 179.512C7.99609 179.059 7.32812 178.832 6.44531 178.832C5.67188 178.832 5.02344 179.027 4.5 179.418C3.97656 179.809 3.71484 180.281 3.71484 180.836H1.53516C1.53516 180.203 1.75781 179.594 2.20312 179.008C2.65625 178.414 3.26562 177.945 4.03125 177.602C4.80469 177.258 5.65234 177.086 6.57422 177.086C8.03516 177.086 9.17969 177.453 10.0078 178.188C10.8359 178.914 11.2656 179.918 11.2969 181.199V187.035C11.2969 188.199 11.4453 189.125 11.7422 189.812V190H9.46875ZM5.87109 188.348C6.55078 188.348 7.19531 188.172 7.80469 187.82C8.41406 187.469 8.85547 187.012 9.12891 186.449V183.848H7.42969C4.77344 183.848 3.44531 184.625 3.44531 186.18C3.44531 186.859 3.67188 187.391 4.125 187.773C4.57812 188.156 5.16016 188.348 5.87109 188.348ZM25.4297 183.801C25.4297 185.738 24.9844 187.297 24.0938 188.477C23.2031 189.648 22.0078 190.234 20.5078 190.234C18.9062 190.234 17.668 189.668 16.793 188.535L16.6875 190H14.6953V172H16.8633V178.715C17.7383 177.629 18.9453 177.086 20.4844 177.086C22.0234 177.086 23.2305 177.668 24.1055 178.832C24.9883 179.996 25.4297 181.59 25.4297 183.613V183.801ZM23.2617 183.555C23.2617 182.078 22.9766 180.938 22.4062 180.133C21.8359 179.328 21.0156 178.926 19.9453 178.926C18.5156 178.926 17.4883 179.59 16.8633 180.918V186.402C17.5273 187.73 18.5625 188.395 19.9688 188.395C21.0078 188.395 21.8164 187.992 22.3945 187.188C22.9727 186.383 23.2617 185.172 23.2617 183.555ZM27.5977 183.543C27.5977 182.301 27.8398 181.184 28.3242 180.191C28.8164 179.199 29.4961 178.434 30.3633 177.895C31.2383 177.355 32.2344 177.086 33.3516 177.086C35.0781 177.086 36.4727 177.684 37.5352 178.879C38.6055 180.074 39.1406 181.664 39.1406 183.648V183.801C39.1406 185.035 38.9023 186.145 38.4258 187.129C37.957 188.105 37.2812 188.867 36.3984 189.414C35.5234 189.961 34.5156 190.234 33.375 190.234C31.6562 190.234 30.2617 189.637 29.1914 188.441C28.1289 187.246 27.5977 185.664 27.5977 183.695V183.543ZM29.7773 183.801C29.7773 185.207 30.1016 186.336 30.75 187.188C31.4062 188.039 32.2812 188.465 33.375 188.465C34.4766 188.465 35.3516 188.035 36 187.176C36.6484 186.309 36.9727 185.098 36.9727 183.543C36.9727 182.152 36.6406 181.027 35.9766 180.168C35.3203 179.301 34.4453 178.867 33.3516 178.867C32.2812 178.867 31.418 179.293 30.7617 180.145C30.1055 180.996 29.7773 182.215 29.7773 183.801ZM49.6875 188.746C48.8438 189.738 47.6055 190.234 45.9727 190.234C44.6211 190.234 43.5898 189.844 42.8789 189.062C42.1758 188.273 41.8203 187.109 41.8125 185.57V177.32H43.9805V185.512C43.9805 187.434 44.7617 188.395 46.3242 188.395C47.9805 188.395 49.082 187.777 49.6289 186.543V177.32H51.7969V190H49.7344L49.6875 188.746ZM58.043 174.25V177.32H60.4102V178.996H58.043V186.859C58.043 187.367 58.1484 187.75 58.3594 188.008C58.5703 188.258 58.9297 188.383 59.4375 188.383C59.6875 188.383 60.0312 188.336 60.4688 188.242V190C59.8984 190.156 59.3438 190.234 58.8047 190.234C57.8359 190.234 57.1055 189.941 56.6133 189.355C56.1211 188.77 55.875 187.938 55.875 186.859V178.996H53.5664V177.32H55.875V174.25H58.043ZM71.8477 174.25V177.32H74.2148V178.996H71.8477V186.859C71.8477 187.367 71.9531 187.75 72.1641 188.008C72.375 188.258 72.7344 188.383 73.2422 188.383C73.4922 188.383 73.8359 188.336 74.2734 188.242V190C73.7031 190.156 73.1484 190.234 72.6094 190.234C71.6406 190.234 70.9102 189.941 70.418 189.355C69.9258 188.77 69.6797 187.938 69.6797 186.859V178.996H67.3711V177.32H69.6797V174.25H71.8477ZM78.9258 178.855C79.8867 177.676 81.1367 177.086 82.6758 177.086C85.3555 177.086 86.707 178.598 86.7305 181.621V190H84.5625V181.609C84.5547 180.695 84.3438 180.02 83.9297 179.582C83.5234 179.145 82.8867 178.926 82.0195 178.926C81.3164 178.926 80.6992 179.113 80.168 179.488C79.6367 179.863 79.2227 180.355 78.9258 180.965V190H76.7578V172H78.9258V178.855ZM95.2383 190.234C93.5195 190.234 92.1211 189.672 91.043 188.547C89.9648 187.414 89.4258 185.902 89.4258 184.012V183.613C89.4258 182.355 89.6641 181.234 90.1406 180.25C90.625 179.258 91.2969 178.484 92.1562 177.93C93.0234 177.367 93.9609 177.086 94.9688 177.086C96.6172 177.086 97.8984 177.629 98.8125 178.715C99.7266 179.801 100.184 181.355 100.184 183.379V184.281H91.5938C91.625 185.531 91.9883 186.543 92.6836 187.316C93.3867 188.082 94.2773 188.465 95.3555 188.465C96.1211 188.465 96.7695 188.309 97.3008 187.996C97.832 187.684 98.2969 187.27 98.6953 186.754L100.02 187.785C98.957 189.418 97.3633 190.234 95.2383 190.234ZM94.9688 178.867C94.0938 178.867 93.3594 179.188 92.7656 179.828C92.1719 180.461 91.8047 181.352 91.6641 182.5H98.0156V182.336C97.9531 181.234 97.6562 180.383 97.125 179.781C96.5938 179.172 95.875 178.867 94.9688 178.867ZM116.039 186.637C116.039 186.051 115.816 185.598 115.371 185.277C114.934 184.949 114.164 184.668 113.062 184.434C111.969 184.199 111.098 183.918 110.449 183.59C109.809 183.262 109.332 182.871 109.02 182.418C108.715 181.965 108.562 181.426 108.562 180.801C108.562 179.762 109 178.883 109.875 178.164C110.758 177.445 111.883 177.086 113.25 177.086C114.688 177.086 115.852 177.457 116.742 178.199C117.641 178.941 118.09 179.891 118.09 181.047H115.91C115.91 180.453 115.656 179.941 115.148 179.512C114.648 179.082 114.016 178.867 113.25 178.867C112.461 178.867 111.844 179.039 111.398 179.383C110.953 179.727 110.73 180.176 110.73 180.73C110.73 181.254 110.938 181.648 111.352 181.914C111.766 182.18 112.512 182.434 113.59 182.676C114.676 182.918 115.555 183.207 116.227 183.543C116.898 183.879 117.395 184.285 117.715 184.762C118.043 185.23 118.207 185.805 118.207 186.484C118.207 187.617 117.754 188.527 116.848 189.215C115.941 189.895 114.766 190.234 113.32 190.234C112.305 190.234 111.406 190.055 110.625 189.695C109.844 189.336 109.23 188.836 108.785 188.195C108.348 187.547 108.129 186.848 108.129 186.098H110.297C110.336 186.824 110.625 187.402 111.164 187.832C111.711 188.254 112.43 188.465 113.32 188.465C114.141 188.465 114.797 188.301 115.289 187.973C115.789 187.637 116.039 187.191 116.039 186.637ZM123.387 190H121.219V177.32H123.387V190ZM121.043 173.957C121.043 173.605 121.148 173.309 121.359 173.066C121.578 172.824 121.898 172.703 122.32 172.703C122.742 172.703 123.062 172.824 123.281 173.066C123.5 173.309 123.609 173.605 123.609 173.957C123.609 174.309 123.5 174.602 123.281 174.836C123.062 175.07 122.742 175.188 122.32 175.188C121.898 175.188 121.578 175.07 121.359 174.836C121.148 174.602 121.043 174.309 121.043 173.957ZM126.352 183.555C126.352 181.578 126.809 180.008 127.723 178.844C128.637 177.672 129.848 177.086 131.355 177.086C132.902 177.086 134.109 177.633 134.977 178.727L135.082 177.32H137.062V189.695C137.062 191.336 136.574 192.629 135.598 193.574C134.629 194.52 133.324 194.992 131.684 194.992C130.77 194.992 129.875 194.797 129 194.406C128.125 194.016 127.457 193.48 126.996 192.801L128.121 191.5C129.051 192.648 130.188 193.223 131.531 193.223C132.586 193.223 133.406 192.926 133.992 192.332C134.586 191.738 134.883 190.902 134.883 189.824V188.734C134.016 189.734 132.832 190.234 131.332 190.234C129.848 190.234 128.645 189.637 127.723 188.441C126.809 187.246 126.352 185.617 126.352 183.555ZM128.531 183.801C128.531 185.23 128.824 186.355 129.41 187.176C129.996 187.988 130.816 188.395 131.871 188.395C133.238 188.395 134.242 187.773 134.883 186.531V180.742C134.219 179.531 133.223 178.926 131.895 178.926C130.84 178.926 130.016 179.336 129.422 180.156C128.828 180.977 128.531 182.191 128.531 183.801ZM142.395 177.32L142.465 178.914C143.434 177.695 144.699 177.086 146.262 177.086C148.941 177.086 150.293 178.598 150.316 181.621V190H148.148V181.609C148.141 180.695 147.93 180.02 147.516 179.582C147.109 179.145 146.473 178.926 145.605 178.926C144.902 178.926 144.285 179.113 143.754 179.488C143.223 179.863 142.809 180.355 142.512 180.965V190H140.344V177.32H142.395ZM160.969 186.637C160.969 186.051 160.746 185.598 160.301 185.277C159.863 184.949 159.094 184.668 157.992 184.434C156.898 184.199 156.027 183.918 155.379 183.59C154.738 183.262 154.262 182.871 153.949 182.418C153.645 181.965 153.492 181.426 153.492 180.801C153.492 179.762 153.93 178.883 154.805 178.164C155.688 177.445 156.812 177.086 158.18 177.086C159.617 177.086 160.781 177.457 161.672 178.199C162.57 178.941 163.02 179.891 163.02 181.047H160.84C160.84 180.453 160.586 179.941 160.078 179.512C159.578 179.082 158.945 178.867 158.18 178.867C157.391 178.867 156.773 179.039 156.328 179.383C155.883 179.727 155.66 180.176 155.66 180.73C155.66 181.254 155.867 181.648 156.281 181.914C156.695 182.18 157.441 182.434 158.52 182.676C159.605 182.918 160.484 183.207 161.156 183.543C161.828 183.879 162.324 184.285 162.645 184.762C162.973 185.23 163.137 185.805 163.137 186.484C163.137 187.617 162.684 188.527 161.777 189.215C160.871 189.895 159.695 190.234 158.25 190.234C157.234 190.234 156.336 190.055 155.555 189.695C154.773 189.336 154.16 188.836 153.715 188.195C153.277 187.547 153.059 186.848 153.059 186.098H155.227C155.266 186.824 155.555 187.402 156.094 187.832C156.641 188.254 157.359 188.465 158.25 188.465C159.07 188.465 159.727 188.301 160.219 187.973C160.719 187.637 160.969 187.191 160.969 186.637ZM179.742 190C179.617 189.75 179.516 189.305 179.438 188.664C178.43 189.711 177.227 190.234 175.828 190.234C174.578 190.234 173.551 189.883 172.746 189.18C171.949 188.469 171.551 187.57 171.551 186.484C171.551 185.164 172.051 184.141 173.051 183.414C174.059 182.68 175.473 182.312 177.293 182.312H179.402V181.316C179.402 180.559 179.176 179.957 178.723 179.512C178.27 179.059 177.602 178.832 176.719 178.832C175.945 178.832 175.297 179.027 174.773 179.418C174.25 179.809 173.988 180.281 173.988 180.836H171.809C171.809 180.203 172.031 179.594 172.477 179.008C172.93 178.414 173.539 177.945 174.305 177.602C175.078 177.258 175.926 177.086 176.848 177.086C178.309 177.086 179.453 177.453 180.281 178.188C181.109 178.914 181.539 179.918 181.57 181.199V187.035C181.57 188.199 181.719 189.125 182.016 189.812V190H179.742ZM176.145 188.348C176.824 188.348 177.469 188.172 178.078 187.82C178.688 187.469 179.129 187.012 179.402 186.449V183.848H177.703C175.047 183.848 173.719 184.625 173.719 186.18C173.719 186.859 173.945 187.391 174.398 187.773C174.852 188.156 175.434 188.348 176.145 188.348ZM187.02 177.32L187.09 178.914C188.059 177.695 189.324 177.086 190.887 177.086C193.566 177.086 194.918 178.598 194.941 181.621V190H192.773V181.609C192.766 180.695 192.555 180.02 192.141 179.582C191.734 179.145 191.098 178.926 190.23 178.926C189.527 178.926 188.91 179.113 188.379 179.488C187.848 179.863 187.434 180.355 187.137 180.965V190H184.969V177.32H187.02ZM197.684 183.555C197.684 181.609 198.145 180.047 199.066 178.867C199.988 177.68 201.195 177.086 202.688 177.086C204.172 177.086 205.348 177.594 206.215 178.609V172H208.383V190H206.391L206.285 188.641C205.418 189.703 204.211 190.234 202.664 190.234C201.195 190.234 199.996 189.633 199.066 188.43C198.145 187.227 197.684 185.656 197.684 183.719V183.555ZM199.852 183.801C199.852 185.238 200.148 186.363 200.742 187.176C201.336 187.988 202.156 188.395 203.203 188.395C204.578 188.395 205.582 187.777 206.215 186.543V180.719C205.566 179.523 204.57 178.926 203.227 178.926C202.164 178.926 201.336 179.336 200.742 180.156C200.148 180.977 199.852 182.191 199.852 183.801ZM225.094 186.637C225.094 186.051 224.871 185.598 224.426 185.277C223.988 184.949 223.219 184.668 222.117 184.434C221.023 184.199 220.152 183.918 219.504 183.59C218.863 183.262 218.387 182.871 218.074 182.418C217.77 181.965 217.617 181.426 217.617 180.801C217.617 179.762 218.055 178.883 218.93 178.164C219.812 177.445 220.938 177.086 222.305 177.086C223.742 177.086 224.906 177.457 225.797 178.199C226.695 178.941 227.145 179.891 227.145 181.047H224.965C224.965 180.453 224.711 179.941 224.203 179.512C223.703 179.082 223.07 178.867 222.305 178.867C221.516 178.867 220.898 179.039 220.453 179.383C220.008 179.727 219.785 180.176 219.785 180.73C219.785 181.254 219.992 181.648 220.406 181.914C220.82 182.18 221.566 182.434 222.645 182.676C223.73 182.918 224.609 183.207 225.281 183.543C225.953 183.879 226.449 184.285 226.77 184.762C227.098 185.23 227.262 185.805 227.262 186.484C227.262 187.617 226.809 188.527 225.902 189.215C224.996 189.895 223.82 190.234 222.375 190.234C221.359 190.234 220.461 190.055 219.68 189.695C218.898 189.336 218.285 188.836 217.84 188.195C217.402 187.547 217.184 186.848 217.184 186.098H219.352C219.391 186.824 219.68 187.402 220.219 187.832C220.766 188.254 221.484 188.465 222.375 188.465C223.195 188.465 223.852 188.301 224.344 187.973C224.844 187.637 225.094 187.191 225.094 186.637ZM232.441 190H230.273V177.32H232.441V190ZM230.098 173.957C230.098 173.605 230.203 173.309 230.414 173.066C230.633 172.824 230.953 172.703 231.375 172.703C231.797 172.703 232.117 172.824 232.336 173.066C232.555 173.309 232.664 173.605 232.664 173.957C232.664 174.309 232.555 174.602 232.336 174.836C232.117 175.07 231.797 175.188 231.375 175.188C230.953 175.188 230.633 175.07 230.414 174.836C230.203 174.602 230.098 174.309 230.098 173.957ZM235.406 183.555C235.406 181.578 235.863 180.008 236.777 178.844C237.691 177.672 238.902 177.086 240.41 177.086C241.957 177.086 243.164 177.633 244.031 178.727L244.137 177.32H246.117V189.695C246.117 191.336 245.629 192.629 244.652 193.574C243.684 194.52 242.379 194.992 240.738 194.992C239.824 194.992 238.93 194.797 238.055 194.406C237.18 194.016 236.512 193.48 236.051 192.801L237.176 191.5C238.105 192.648 239.242 193.223 240.586 193.223C241.641 193.223 242.461 192.926 243.047 192.332C243.641 191.738 243.938 190.902 243.938 189.824V188.734C243.07 189.734 241.887 190.234 240.387 190.234C238.902 190.234 237.699 189.637 236.777 188.441C235.863 187.246 235.406 185.617 235.406 183.555ZM237.586 183.801C237.586 185.23 237.879 186.355 238.465 187.176C239.051 187.988 239.871 188.395 240.926 188.395C242.293 188.395 243.297 187.773 243.938 186.531V180.742C243.273 179.531 242.277 178.926 240.949 178.926C239.895 178.926 239.07 179.336 238.477 180.156C237.883 180.977 237.586 182.191 237.586 183.801ZM251.449 177.32L251.52 178.914C252.488 177.695 253.754 177.086 255.316 177.086C257.996 177.086 259.348 178.598 259.371 181.621V190H257.203V181.609C257.195 180.695 256.984 180.02 256.57 179.582C256.164 179.145 255.527 178.926 254.66 178.926C253.957 178.926 253.34 179.113 252.809 179.488C252.277 179.863 251.863 180.355 251.566 180.965V190H249.398V177.32H251.449ZM270.469 190C270.344 189.75 270.242 189.305 270.164 188.664C269.156 189.711 267.953 190.234 266.555 190.234C265.305 190.234 264.277 189.883 263.473 189.18C262.676 188.469 262.277 187.57 262.277 186.484C262.277 185.164 262.777 184.141 263.777 183.414C264.785 182.68 266.199 182.312 268.02 182.312H270.129V181.316C270.129 180.559 269.902 179.957 269.449 179.512C268.996 179.059 268.328 178.832 267.445 178.832C266.672 178.832 266.023 179.027 265.5 179.418C264.977 179.809 264.715 180.281 264.715 180.836H262.535C262.535 180.203 262.758 179.594 263.203 179.008C263.656 178.414 264.266 177.945 265.031 177.602C265.805 177.258 266.652 177.086 267.574 177.086C269.035 177.086 270.18 177.453 271.008 178.188C271.836 178.914 272.266 179.918 272.297 181.199V187.035C272.297 188.199 272.445 189.125 272.742 189.812V190H270.469ZM266.871 188.348C267.551 188.348 268.195 188.172 268.805 187.82C269.414 187.469 269.855 187.012 270.129 186.449V183.848H268.43C265.773 183.848 264.445 184.625 264.445 186.18C264.445 186.859 264.672 187.391 265.125 187.773C265.578 188.156 266.16 188.348 266.871 188.348ZM278.051 190H275.883V172H278.051V190ZM288.914 186.637C288.914 186.051 288.691 185.598 288.246 185.277C287.809 184.949 287.039 184.668 285.938 184.434C284.844 184.199 283.973 183.918 283.324 183.59C282.684 183.262 282.207 182.871 281.895 182.418C281.59 181.965 281.438 181.426 281.438 180.801C281.438 179.762 281.875 178.883 282.75 178.164C283.633 177.445 284.758 177.086 286.125 177.086C287.562 177.086 288.727 177.457 289.617 178.199C290.516 178.941 290.965 179.891 290.965 181.047H288.785C288.785 180.453 288.531 179.941 288.023 179.512C287.523 179.082 286.891 178.867 286.125 178.867C285.336 178.867 284.719 179.039 284.273 179.383C283.828 179.727 283.605 180.176 283.605 180.73C283.605 181.254 283.812 181.648 284.227 181.914C284.641 182.18 285.387 182.434 286.465 182.676C287.551 182.918 288.43 183.207 289.102 183.543C289.773 183.879 290.27 184.285 290.59 184.762C290.918 185.23 291.082 185.805 291.082 186.484C291.082 187.617 290.629 188.527 289.723 189.215C288.816 189.895 287.641 190.234 286.195 190.234C285.18 190.234 284.281 190.055 283.5 189.695C282.719 189.336 282.105 188.836 281.66 188.195C281.223 187.547 281.004 186.848 281.004 186.098H283.172C283.211 186.824 283.5 187.402 284.039 187.832C284.586 188.254 285.305 188.465 286.195 188.465C287.016 188.465 287.672 188.301 288.164 187.973C288.664 187.637 288.914 187.191 288.914 186.637ZM299.285 183.543C299.285 182.301 299.527 181.184 300.012 180.191C300.504 179.199 301.184 178.434 302.051 177.895C302.926 177.355 303.922 177.086 305.039 177.086C306.766 177.086 308.16 177.684 309.223 178.879C310.293 180.074 310.828 181.664 310.828 183.648V183.801C310.828 185.035 310.59 186.145 310.113 187.129C309.645 188.105 308.969 188.867 308.086 189.414C307.211 189.961 306.203 190.234 305.062 190.234C303.344 190.234 301.949 189.637 300.879 188.441C299.816 187.246 299.285 185.664 299.285 183.695V183.543ZM301.465 183.801C301.465 185.207 301.789 186.336 302.438 187.188C303.094 188.039 303.969 188.465 305.062 188.465C306.164 188.465 307.039 188.035 307.688 187.176C308.336 186.309 308.66 185.098 308.66 183.543C308.66 182.152 308.328 181.027 307.664 180.168C307.008 179.301 306.133 178.867 305.039 178.867C303.969 178.867 303.105 179.293 302.449 180.145C301.793 180.996 301.465 182.215 301.465 183.801ZM314.613 190V178.996H312.609V177.32H314.613V176.02C314.613 174.66 314.977 173.609 315.703 172.867C316.43 172.125 317.457 171.754 318.785 171.754C319.285 171.754 319.781 171.82 320.273 171.953L320.156 173.711C319.789 173.641 319.398 173.605 318.984 173.605C318.281 173.605 317.738 173.812 317.355 174.227C316.973 174.633 316.781 175.219 316.781 175.984V177.32H319.488V178.996H316.781V190H314.613ZM330.199 190H328.031V172H330.199V190ZM341.508 190C341.383 189.75 341.281 189.305 341.203 188.664C340.195 189.711 338.992 190.234 337.594 190.234C336.344 190.234 335.316 189.883 334.512 189.18C333.715 188.469 333.316 187.57 333.316 186.484C333.316 185.164 333.816 184.141 334.816 183.414C335.824 182.68 337.238 182.312 339.059 182.312H341.168V181.316C341.168 180.559 340.941 179.957 340.488 179.512C340.035 179.059 339.367 178.832 338.484 178.832C337.711 178.832 337.062 179.027 336.539 179.418C336.016 179.809 335.754 180.281 335.754 180.836H333.574C333.574 180.203 333.797 179.594 334.242 179.008C334.695 178.414 335.305 177.945 336.07 177.602C336.844 177.258 337.691 177.086 338.613 177.086C340.074 177.086 341.219 177.453 342.047 178.188C342.875 178.914 343.305 179.918 343.336 181.199V187.035C343.336 188.199 343.484 189.125 343.781 189.812V190H341.508ZM337.91 188.348C338.59 188.348 339.234 188.172 339.844 187.82C340.453 187.469 340.895 187.012 341.168 186.449V183.848H339.469C336.812 183.848 335.484 184.625 335.484 186.18C335.484 186.859 335.711 187.391 336.164 187.773C336.617 188.156 337.199 188.348 337.91 188.348ZM357.469 183.801C357.469 185.738 357.023 187.297 356.133 188.477C355.242 189.648 354.047 190.234 352.547 190.234C350.945 190.234 349.707 189.668 348.832 188.535L348.727 190H346.734V172H348.902V178.715C349.777 177.629 350.984 177.086 352.523 177.086C354.062 177.086 355.27 177.668 356.145 178.832C357.027 179.996 357.469 181.59 357.469 183.613V183.801ZM355.301 183.555C355.301 182.078 355.016 180.938 354.445 180.133C353.875 179.328 353.055 178.926 351.984 178.926C350.555 178.926 349.527 179.59 348.902 180.918V186.402C349.566 187.73 350.602 188.395 352.008 188.395C353.047 188.395 353.855 187.992 354.434 187.188C355.012 186.383 355.301 185.172 355.301 183.555ZM359.637 183.543C359.637 182.301 359.879 181.184 360.363 180.191C360.855 179.199 361.535 178.434 362.402 177.895C363.277 177.355 364.273 177.086 365.391 177.086C367.117 177.086 368.512 177.684 369.574 178.879C370.645 180.074 371.18 181.664 371.18 183.648V183.801C371.18 185.035 370.941 186.145 370.465 187.129C369.996 188.105 369.32 188.867 368.438 189.414C367.562 189.961 366.555 190.234 365.414 190.234C363.695 190.234 362.301 189.637 361.23 188.441C360.168 187.246 359.637 185.664 359.637 183.695V183.543ZM361.816 183.801C361.816 185.207 362.141 186.336 362.789 187.188C363.445 188.039 364.32 188.465 365.414 188.465C366.516 188.465 367.391 188.035 368.039 187.176C368.688 186.309 369.012 185.098 369.012 183.543C369.012 182.152 368.68 181.027 368.016 180.168C367.359 179.301 366.484 178.867 365.391 178.867C364.32 178.867 363.457 179.293 362.801 180.145C362.145 180.996 361.816 182.215 361.816 183.801ZM380.027 179.266C379.699 179.211 379.344 179.184 378.961 179.184C377.539 179.184 376.574 179.789 376.066 181V190H373.898V177.32H376.008L376.043 178.785C376.754 177.652 377.762 177.086 379.066 177.086C379.488 177.086 379.809 177.141 380.027 177.25V179.266ZM390.926 174.25V177.32H393.293V178.996H390.926V186.859C390.926 187.367 391.031 187.75 391.242 188.008C391.453 188.258 391.812 188.383 392.32 188.383C392.57 188.383 392.914 188.336 393.352 188.242V190C392.781 190.156 392.227 190.234 391.688 190.234C390.719 190.234 389.988 189.941 389.496 189.355C389.004 188.77 388.758 187.938 388.758 186.859V178.996H386.449V177.32H388.758V174.25H390.926ZM401.965 179.266C401.637 179.211 401.281 179.184 400.898 179.184C399.477 179.184 398.512 179.789 398.004 181V190H395.836V177.32H397.945L397.98 178.785C398.691 177.652 399.699 177.086 401.004 177.086C401.426 177.086 401.746 177.141 401.965 177.25V179.266ZM411.328 190C411.203 189.75 411.102 189.305 411.023 188.664C410.016 189.711 408.812 190.234 407.414 190.234C406.164 190.234 405.137 189.883 404.332 189.18C403.535 188.469 403.137 187.57 403.137 186.484C403.137 185.164 403.637 184.141 404.637 183.414C405.645 182.68 407.059 182.312 408.879 182.312H410.988V181.316C410.988 180.559 410.762 179.957 410.309 179.512C409.855 179.059 409.188 178.832 408.305 178.832C407.531 178.832 406.883 179.027 406.359 179.418C405.836 179.809 405.574 180.281 405.574 180.836H403.395C403.395 180.203 403.617 179.594 404.062 179.008C404.516 178.414 405.125 177.945 405.891 177.602C406.664 177.258 407.512 177.086 408.434 177.086C409.895 177.086 411.039 177.453 411.867 178.188C412.695 178.914 413.125 179.918 413.156 181.199V187.035C413.156 188.199 413.305 189.125 413.602 189.812V190H411.328ZM407.73 188.348C408.41 188.348 409.055 188.172 409.664 187.82C410.273 187.469 410.715 187.012 410.988 186.449V183.848H409.289C406.633 183.848 405.305 184.625 405.305 186.18C405.305 186.859 405.531 187.391 405.984 187.773C406.438 188.156 407.02 188.348 407.73 188.348ZM417.621 190V178.996H415.617V177.32H417.621V176.02C417.621 174.66 417.984 173.609 418.711 172.867C419.438 172.125 420.465 171.754 421.793 171.754C422.293 171.754 422.789 171.82 423.281 171.953L423.164 173.711C422.797 173.641 422.406 173.605 421.992 173.605C421.289 173.605 420.746 173.812 420.363 174.227C419.98 174.633 419.789 175.219 419.789 175.984V177.32H424.477V176.242C424.477 174.828 424.879 173.727 425.684 172.938C426.496 172.148 427.641 171.754 429.117 171.754C429.992 171.754 431.098 171.992 432.434 172.469L432.07 174.297C431.094 173.906 430.16 173.711 429.27 173.711C428.34 173.711 427.668 173.918 427.254 174.332C426.848 174.746 426.645 175.375 426.645 176.219V177.32H429.246V178.996H426.645V190H424.477V178.996H419.789V190H417.621ZM433.5 190H431.332V177.32H433.5V190ZM442.125 188.465C442.898 188.465 443.574 188.23 444.152 187.762C444.73 187.293 445.051 186.707 445.113 186.004H447.164C447.125 186.73 446.875 187.422 446.414 188.078C445.953 188.734 445.336 189.258 444.562 189.648C443.797 190.039 442.984 190.234 442.125 190.234C440.398 190.234 439.023 189.66 438 188.512C436.984 187.355 436.477 185.777 436.477 183.777V183.414C436.477 182.18 436.703 181.082 437.156 180.121C437.609 179.16 438.258 178.414 439.102 177.883C439.953 177.352 440.957 177.086 442.113 177.086C443.535 177.086 444.715 177.512 445.652 178.363C446.598 179.215 447.102 180.32 447.164 181.68H445.113C445.051 180.859 444.738 180.188 444.176 179.664C443.621 179.133 442.934 178.867 442.113 178.867C441.012 178.867 440.156 179.266 439.547 180.062C438.945 180.852 438.645 181.996 438.645 183.496V183.906C438.645 185.367 438.945 186.492 439.547 187.281C440.148 188.07 441.008 188.465 442.125 188.465ZM453.141 184.129L451.781 185.547V190H449.613V172H451.781V182.887L452.941 181.492L456.891 177.32H459.527L454.594 182.617L460.102 190H457.559L453.141 184.129ZM464.121 190H461.953V177.32H464.121V190ZM461.777 173.957C461.777 173.605 461.883 173.309 462.094 173.066C462.312 172.824 462.633 172.703 463.055 172.703C463.477 172.703 463.797 172.824 464.016 173.066C464.234 173.309 464.344 173.605 464.344 173.957C464.344 174.309 464.234 174.602 464.016 174.836C463.797 175.07 463.477 175.188 463.055 175.188C462.633 175.188 462.312 175.07 462.094 174.836C461.883 174.602 461.777 174.309 461.777 173.957ZM469.652 177.32L469.723 178.914C470.691 177.695 471.957 177.086 473.52 177.086C476.199 177.086 477.551 178.598 477.574 181.621V190H475.406V181.609C475.398 180.695 475.188 180.02 474.773 179.582C474.367 179.145 473.73 178.926 472.863 178.926C472.16 178.926 471.543 179.113 471.012 179.488C470.48 179.863 470.066 180.355 469.77 180.965V190H467.602V177.32H469.652ZM480.328 183.555C480.328 181.578 480.785 180.008 481.699 178.844C482.613 177.672 483.824 177.086 485.332 177.086C486.879 177.086 488.086 177.633 488.953 178.727L489.059 177.32H491.039V189.695C491.039 191.336 490.551 192.629 489.574 193.574C488.605 194.52 487.301 194.992 485.66 194.992C484.746 194.992 483.852 194.797 482.977 194.406C482.102 194.016 481.434 193.48 480.973 192.801L482.098 191.5C483.027 192.648 484.164 193.223 485.508 193.223C486.562 193.223 487.383 192.926 487.969 192.332C488.562 191.738 488.859 190.902 488.859 189.824V188.734C487.992 189.734 486.809 190.234 485.309 190.234C483.824 190.234 482.621 189.637 481.699 188.441C480.785 187.246 480.328 185.617 480.328 183.555ZM482.508 183.801C482.508 185.23 482.801 186.355 483.387 187.176C483.973 187.988 484.793 188.395 485.848 188.395C487.215 188.395 488.219 187.773 488.859 186.531V180.742C488.195 179.531 487.199 178.926 485.871 178.926C484.816 178.926 483.992 179.336 483.398 180.156C482.805 180.977 482.508 182.191 482.508 183.801ZM4.58203 209.25V212.32H6.94922V213.996H4.58203V221.859C4.58203 222.367 4.6875 222.75 4.89844 223.008C5.10938 223.258 5.46875 223.383 5.97656 223.383C6.22656 223.383 6.57031 223.336 7.00781 223.242V225C6.4375 225.156 5.88281 225.234 5.34375 225.234C4.375 225.234 3.64453 224.941 3.15234 224.355C2.66016 223.77 2.41406 222.938 2.41406 221.859V213.996H0.105469V212.32H2.41406V209.25H4.58203ZM8.68359 218.543C8.68359 217.301 8.92578 216.184 9.41016 215.191C9.90234 214.199 10.582 213.434 11.4492 212.895C12.3242 212.355 13.3203 212.086 14.4375 212.086C16.1641 212.086 17.5586 212.684 18.6211 213.879C19.6914 215.074 20.2266 216.664 20.2266 218.648V218.801C20.2266 220.035 19.9883 221.145 19.5117 222.129C19.043 223.105 18.3672 223.867 17.4844 224.414C16.6094 224.961 15.6016 225.234 14.4609 225.234C12.7422 225.234 11.3477 224.637 10.2773 223.441C9.21484 222.246 8.68359 220.664 8.68359 218.695V218.543ZM10.8633 218.801C10.8633 220.207 11.1875 221.336 11.8359 222.188C12.4922 223.039 13.3672 223.465 14.4609 223.465C15.5625 223.465 16.4375 223.035 17.0859 222.176C17.7344 221.309 18.0586 220.098 18.0586 218.543C18.0586 217.152 17.7266 216.027 17.0625 215.168C16.4062 214.301 15.5312 213.867 14.4375 213.867C13.3672 213.867 12.5039 214.293 11.8477 215.145C11.1914 215.996 10.8633 217.215 10.8633 218.801ZM33.0469 221.824L36 212.32H38.3203L33.2227 226.957C32.4336 229.066 31.1797 230.121 29.4609 230.121L29.0508 230.086L28.2422 229.934V228.176L28.8281 228.223C29.5625 228.223 30.1328 228.074 30.5391 227.777C30.9531 227.48 31.293 226.938 31.5586 226.148L32.0391 224.859L27.5156 212.32H29.8828L33.0469 221.824ZM39.5039 218.543C39.5039 217.301 39.7461 216.184 40.2305 215.191C40.7227 214.199 41.4023 213.434 42.2695 212.895C43.1445 212.355 44.1406 212.086 45.2578 212.086C46.9844 212.086 48.3789 212.684 49.4414 213.879C50.5117 215.074 51.0469 216.664 51.0469 218.648V218.801C51.0469 220.035 50.8086 221.145 50.332 222.129C49.8633 223.105 49.1875 223.867 48.3047 224.414C47.4297 224.961 46.4219 225.234 45.2812 225.234C43.5625 225.234 42.168 224.637 41.0977 223.441C40.0352 222.246 39.5039 220.664 39.5039 218.695V218.543ZM41.6836 218.801C41.6836 220.207 42.0078 221.336 42.6562 222.188C43.3125 223.039 44.1875 223.465 45.2812 223.465C46.3828 223.465 47.2578 223.035 47.9062 222.176C48.5547 221.309 48.8789 220.098 48.8789 218.543C48.8789 217.152 48.5469 216.027 47.8828 215.168C47.2266 214.301 46.3516 213.867 45.2578 213.867C44.1875 213.867 43.3242 214.293 42.668 215.145C42.0117 215.996 41.6836 217.215 41.6836 218.801ZM61.5938 223.746C60.75 224.738 59.5117 225.234 57.8789 225.234C56.5273 225.234 55.4961 224.844 54.7852 224.062C54.082 223.273 53.7266 222.109 53.7188 220.57V212.32H55.8867V220.512C55.8867 222.434 56.668 223.395 58.2305 223.395C59.8867 223.395 60.9883 222.777 61.5352 221.543V212.32H63.7031V225H61.6406L61.5938 223.746ZM73.1367 214.266C72.8086 214.211 72.4531 214.184 72.0703 214.184C70.6484 214.184 69.6836 214.789 69.1758 216V225H67.0078V212.32H69.1172L69.1523 213.785C69.8633 212.652 70.8711 212.086 72.1758 212.086C72.5977 212.086 72.918 212.141 73.1367 212.25V214.266ZM81.8203 225V213.996H79.8164V212.32H81.8203V211.242C81.8203 209.828 82.2227 208.727 83.0273 207.938C83.8398 207.148 84.9844 206.754 86.4609 206.754C87.3359 206.754 88.4414 206.992 89.7773 207.469L89.4141 209.297C88.4375 208.906 87.5078 208.711 86.625 208.711C85.6953 208.711 85.0234 208.922 84.6094 209.344C84.2031 209.758 84 210.383 84 211.219V212.32H86.5898V213.996H84V225H81.8203ZM90.8555 225H88.6758V212.32H90.8555V225ZM96.4336 212.32L96.5039 213.914C97.4727 212.695 98.7383 212.086 100.301 212.086C102.98 212.086 104.332 213.598 104.355 216.621V225H102.188V216.609C102.18 215.695 101.969 215.02 101.555 214.582C101.148 214.145 100.512 213.926 99.6445 213.926C98.9414 213.926 98.3242 214.113 97.793 214.488C97.2617 214.863 96.8477 215.355 96.5508 215.965V225H94.3828V212.32H96.4336ZM107.109 218.555C107.109 216.578 107.566 215.008 108.48 213.844C109.395 212.672 110.605 212.086 112.113 212.086C113.66 212.086 114.867 212.633 115.734 213.727L115.84 212.32H117.82V224.695C117.82 226.336 117.332 227.629 116.355 228.574C115.387 229.52 114.082 229.992 112.441 229.992C111.527 229.992 110.633 229.797 109.758 229.406C108.883 229.016 108.215 228.48 107.754 227.801L108.879 226.5C109.809 227.648 110.945 228.223 112.289 228.223C113.344 228.223 114.164 227.926 114.75 227.332C115.344 226.738 115.641 225.902 115.641 224.824V223.734C114.773 224.734 113.59 225.234 112.09 225.234C110.605 225.234 109.402 224.637 108.48 223.441C107.566 222.246 107.109 220.617 107.109 218.555ZM109.289 218.801C109.289 220.23 109.582 221.355 110.168 222.176C110.754 222.988 111.574 223.395 112.629 223.395C113.996 223.395 115 222.773 115.641 221.531V215.742C114.977 214.531 113.98 213.926 112.652 213.926C111.598 213.926 110.773 214.336 110.18 215.156C109.586 215.977 109.289 217.191 109.289 218.801ZM126.363 225.234C124.645 225.234 123.246 224.672 122.168 223.547C121.09 222.414 120.551 220.902 120.551 219.012V218.613C120.551 217.355 120.789 216.234 121.266 215.25C121.75 214.258 122.422 213.484 123.281 212.93C124.148 212.367 125.086 212.086 126.094 212.086C127.742 212.086 129.023 212.629 129.938 213.715C130.852 214.801 131.309 216.355 131.309 218.379V219.281H122.719C122.75 220.531 123.113 221.543 123.809 222.316C124.512 223.082 125.402 223.465 126.48 223.465C127.246 223.465 127.895 223.309 128.426 222.996C128.957 222.684 129.422 222.27 129.82 221.754L131.145 222.785C130.082 224.418 128.488 225.234 126.363 225.234ZM126.094 213.867C125.219 213.867 124.484 214.188 123.891 214.828C123.297 215.461 122.93 216.352 122.789 217.5H129.141V217.336C129.078 216.234 128.781 215.383 128.25 214.781C127.719 214.172 127 213.867 126.094 213.867ZM139.957 214.266C139.629 214.211 139.273 214.184 138.891 214.184C137.469 214.184 136.504 214.789 135.996 216V225H133.828V212.32H135.938L135.973 213.785C136.684 212.652 137.691 212.086 138.996 212.086C139.418 212.086 139.738 212.141 139.957 212.25V214.266ZM145.488 209.25V212.32H147.855V213.996H145.488V221.859C145.488 222.367 145.594 222.75 145.805 223.008C146.016 223.258 146.375 223.383 146.883 223.383C147.133 223.383 147.477 223.336 147.914 223.242V225C147.344 225.156 146.789 225.234 146.25 225.234C145.281 225.234 144.551 224.941 144.059 224.355C143.566 223.77 143.32 222.938 143.32 221.859V213.996H141.012V212.32H143.32V209.25H145.488ZM152.754 225H150.586V212.32H152.754V225ZM150.41 208.957C150.41 208.605 150.516 208.309 150.727 208.066C150.945 207.824 151.266 207.703 151.688 207.703C152.109 207.703 152.43 207.824 152.648 208.066C152.867 208.309 152.977 208.605 152.977 208.957C152.977 209.309 152.867 209.602 152.648 209.836C152.43 210.07 152.109 210.188 151.688 210.188C151.266 210.188 150.945 210.07 150.727 209.836C150.516 209.602 150.41 209.309 150.41 208.957ZM166.945 218.801C166.945 220.73 166.504 222.285 165.621 223.465C164.738 224.645 163.543 225.234 162.035 225.234C160.496 225.234 159.285 224.746 158.402 223.77V229.875H156.234V212.32H158.215L158.32 213.727C159.203 212.633 160.43 212.086 162 212.086C163.523 212.086 164.727 212.66 165.609 213.809C166.5 214.957 166.945 216.555 166.945 218.602V218.801ZM164.777 218.555C164.777 217.125 164.473 215.996 163.863 215.168C163.254 214.34 162.418 213.926 161.355 213.926C160.043 213.926 159.059 214.508 158.402 215.672V221.73C159.051 222.887 160.043 223.465 161.379 223.465C162.418 223.465 163.242 223.055 163.852 222.234C164.469 221.406 164.777 220.18 164.777 218.555ZM177.094 221.637C177.094 221.051 176.871 220.598 176.426 220.277C175.988 219.949 175.219 219.668 174.117 219.434C173.023 219.199 172.152 218.918 171.504 218.59C170.863 218.262 170.387 217.871 170.074 217.418C169.77 216.965 169.617 216.426 169.617 215.801C169.617 214.762 170.055 213.883 170.93 213.164C171.812 212.445 172.938 212.086 174.305 212.086C175.742 212.086 176.906 212.457 177.797 213.199C178.695 213.941 179.145 214.891 179.145 216.047H176.965C176.965 215.453 176.711 214.941 176.203 214.512C175.703 214.082 175.07 213.867 174.305 213.867C173.516 213.867 172.898 214.039 172.453 214.383C172.008 214.727 171.785 215.176 171.785 215.73C171.785 216.254 171.992 216.648 172.406 216.914C172.82 217.18 173.566 217.434 174.645 217.676C175.73 217.918 176.609 218.207 177.281 218.543C177.953 218.879 178.449 219.285 178.77 219.762C179.098 220.23 179.262 220.805 179.262 221.484C179.262 222.617 178.809 223.527 177.902 224.215C176.996 224.895 175.82 225.234 174.375 225.234C173.359 225.234 172.461 225.055 171.68 224.695C170.898 224.336 170.285 223.836 169.84 223.195C169.402 222.547 169.184 221.848 169.184 221.098H171.352C171.391 221.824 171.68 222.402 172.219 222.832C172.766 223.254 173.484 223.465 174.375 223.465C175.195 223.465 175.852 223.301 176.344 222.973C176.844 222.637 177.094 222.191 177.094 221.637ZM182.133 223.863C182.133 223.488 182.242 223.176 182.461 222.926C182.688 222.676 183.023 222.551 183.469 222.551C183.914 222.551 184.25 222.676 184.477 222.926C184.711 223.176 184.828 223.488 184.828 223.863C184.828 224.223 184.711 224.523 184.477 224.766C184.25 225.008 183.914 225.129 183.469 225.129C183.023 225.129 182.688 225.008 182.461 224.766C182.242 224.523 182.133 224.223 182.133 223.863Z" fill="white" fill-opacity="0.8"/>
<line y1="102" x2="150" y2="102" stroke="#F4C346" stroke-width="8"/>
<path d="M34.207 53.6406H12.7617L7.94531 67H0.984375L20.5312 15.8125H26.4375L46.0195 67H39.0938L34.207 53.6406ZM14.8008 48.0859H32.2031L23.4844 24.1445L14.8008 48.0859ZM84.0938 48.4023C84.0938 54.2148 82.7578 58.8906 80.0859 62.4297C77.4141 65.9453 73.8281 67.7031 69.3281 67.7031C64.5234 67.7031 60.8086 66.0039 58.1836 62.6055L57.8672 67H51.8906V13H58.3945V33.1445C61.0195 29.8867 64.6406 28.2578 69.2578 28.2578C73.875 28.2578 77.4961 30.0039 80.1211 33.4961C82.7695 36.9883 84.0938 41.7695 84.0938 47.8398V48.4023ZM77.5898 47.6641C77.5898 43.2344 76.7344 39.8125 75.0234 37.3984C73.3125 34.9844 70.8516 33.7773 67.6406 33.7773C63.3516 33.7773 60.2695 35.7695 58.3945 39.7539V56.207C60.3867 60.1914 63.4922 62.1836 67.7109 62.1836C70.8281 62.1836 73.2539 60.9766 74.9883 58.5625C76.7227 56.1484 77.5898 52.5156 77.5898 47.6641ZM90.5977 47.6289C90.5977 43.9023 91.3242 40.5508 92.7773 37.5742C94.2539 34.5977 96.293 32.3008 98.8945 30.6836C101.52 29.0664 104.508 28.2578 107.859 28.2578C113.039 28.2578 117.223 30.0508 120.41 33.6367C123.621 37.2227 125.227 41.9922 125.227 47.9453V48.4023C125.227 52.1055 124.512 55.4336 123.082 58.3867C121.676 61.3164 119.648 63.6016 117 65.2422C114.375 66.8828 111.352 67.7031 107.93 67.7031C102.773 67.7031 98.5898 65.9102 95.3789 62.3242C92.1914 58.7383 90.5977 53.9922 90.5977 48.0859V47.6289ZM97.1367 48.4023C97.1367 52.6211 98.1094 56.0078 100.055 58.5625C102.023 61.1172 104.648 62.3945 107.93 62.3945C111.234 62.3945 113.859 61.1055 115.805 58.5273C117.75 55.9258 118.723 52.293 118.723 47.6289C118.723 43.457 117.727 40.082 115.734 37.5039C113.766 34.9023 111.141 33.6016 107.859 33.6016C104.648 33.6016 102.059 34.8789 100.09 37.4336C98.1211 39.9883 97.1367 43.6445 97.1367 48.4023ZM156.867 63.2383C154.336 66.2148 150.621 67.7031 145.723 67.7031C141.668 67.7031 138.574 66.5312 136.441 64.1875C134.332 61.8203 133.266 58.3281 133.242 53.7109V28.9609H139.746V53.5352C139.746 59.3008 142.09 62.1836 146.777 62.1836C151.746 62.1836 155.051 60.332 156.691 56.6289V28.9609H163.195V67H157.008L156.867 63.2383ZM181.934 19.75V28.9609H189.035V33.9883H181.934V57.5781C181.934 59.1016 182.25 60.25 182.883 61.0234C183.516 61.7734 184.594 62.1484 186.117 62.1484C186.867 62.1484 187.898 62.0078 189.211 61.7266V67C187.5 67.4688 185.836 67.7031 184.219 67.7031C181.312 67.7031 179.121 66.8242 177.645 65.0664C176.168 63.3086 175.43 60.8125 175.43 57.5781V33.9883H168.504V28.9609H175.43V19.75H181.934ZM251.578 15.8125V50.6172C251.555 55.4453 250.031 59.3945 247.008 62.4648C244.008 65.5352 239.93 67.2578 234.773 67.6328L232.98 67.7031C227.379 67.7031 222.914 66.1914 219.586 63.168C216.258 60.1445 214.57 55.9844 214.523 50.6875V15.8125H221.203V50.4766C221.203 54.1797 222.223 57.0625 224.262 59.125C226.301 61.1641 229.207 62.1836 232.98 62.1836C236.801 62.1836 239.719 61.1641 241.734 59.125C243.773 57.0859 244.793 54.2148 244.793 50.5117V15.8125H251.578ZM283.359 56.9102C283.359 55.1523 282.691 53.793 281.355 52.832C280.043 51.8477 277.734 51.0039 274.43 50.3008C271.148 49.5977 268.535 48.7539 266.59 47.7695C264.668 46.7852 263.238 45.6133 262.301 44.2539C261.387 42.8945 260.93 41.2773 260.93 39.4023C260.93 36.2852 262.242 33.6484 264.867 31.4922C267.516 29.3359 270.891 28.2578 274.992 28.2578C279.305 28.2578 282.797 29.3711 285.469 31.5977C288.164 33.8242 289.512 36.6719 289.512 40.1406H282.973C282.973 38.3594 282.211 36.8242 280.688 35.5352C279.188 34.2461 277.289 33.6016 274.992 33.6016C272.625 33.6016 270.773 34.1172 269.438 35.1484C268.102 36.1797 267.434 37.5273 267.434 39.1914C267.434 40.7617 268.055 41.9453 269.297 42.7422C270.539 43.5391 272.777 44.3008 276.012 45.0273C279.27 45.7539 281.906 46.6211 283.922 47.6289C285.938 48.6367 287.426 49.8555 288.387 51.2852C289.371 52.6914 289.863 54.4141 289.863 56.4531C289.863 59.8516 288.504 62.582 285.785 64.6445C283.066 66.6836 279.539 67.7031 275.203 67.7031C272.156 67.7031 269.461 67.1641 267.117 66.0859C264.773 65.0078 262.934 63.5078 261.598 61.5859C260.285 59.6406 259.629 57.543 259.629 55.293H266.133C266.25 57.4727 267.117 59.207 268.734 60.4961C270.375 61.7617 272.531 62.3945 275.203 62.3945C277.664 62.3945 279.633 61.9023 281.109 60.918C282.609 59.9102 283.359 58.5742 283.359 56.9102Z" fill="white"/>
</svg>
