<svg width="313" height="35" viewBox="0 0 313 35" fill="none" xmlns="http://www.w3.org/2000/svg">
<path d="M6.09375 27.0024H0.820312V1.40869H6.09375V27.0024ZM9.87305 17.3521C9.87305 14.3872 10.5352 12.0259 11.8594 10.2681C13.1953 8.51025 15.0176 7.63135 17.3262 7.63135C19.1777 7.63135 20.707 8.32275 21.9141 9.70557V0.00244141H27.0117V27.0024H22.4238L22.1777 24.981C20.9121 26.563 19.2832 27.354 17.291 27.354C15.0527 27.354 13.2539 26.4751 11.8945 24.7173C10.5469 22.9478 9.87305 20.4927 9.87305 17.3521ZM14.9531 17.7212C14.9531 19.5024 15.2637 20.8677 15.8848 21.8169C16.5059 22.7661 17.4082 23.2407 18.5918 23.2407C20.1621 23.2407 21.2695 22.5786 21.9141 21.2544V13.7485C21.2812 12.4243 20.1855 11.7622 18.627 11.7622C16.1777 11.7622 14.9531 13.7485 14.9531 17.7212ZM39.7031 27.354C36.9141 27.354 34.6406 26.4985 32.8828 24.7876C31.1367 23.0767 30.2637 20.7974 30.2637 17.9497V17.4575C30.2637 15.5474 30.6328 13.8423 31.3711 12.3423C32.1094 10.8306 33.1523 9.67041 34.5 8.86182C35.8594 8.0415 37.4062 7.63135 39.1406 7.63135C41.7422 7.63135 43.7871 8.45166 45.2754 10.0923C46.7754 11.7329 47.5254 14.0591 47.5254 17.0708V19.145H35.4141C35.5781 20.3872 36.0703 21.3833 36.8906 22.1333C37.7227 22.8833 38.7715 23.2583 40.0371 23.2583C41.9941 23.2583 43.5234 22.5493 44.625 21.1313L47.1211 23.9263C46.3594 25.0044 45.3281 25.8481 44.0273 26.4575C42.7266 27.0552 41.2852 27.354 39.7031 27.354ZM39.123 11.7446C38.1152 11.7446 37.2949 12.0845 36.6621 12.7642C36.041 13.4438 35.6426 14.4165 35.4668 15.6821H42.5332V15.2778C42.5098 14.1528 42.2051 13.2856 41.6191 12.6763C41.0332 12.0552 40.2012 11.7446 39.123 11.7446ZM55.1016 7.98291L55.2598 10.1802C56.6191 8.48096 58.4414 7.63135 60.7266 7.63135C62.7422 7.63135 64.2422 8.22314 65.2266 9.40674C66.2109 10.5903 66.7148 12.3599 66.7383 14.7153V27.0024H61.6582V14.8384C61.6582 13.7603 61.4238 12.981 60.9551 12.5005C60.4863 12.0083 59.707 11.7622 58.6172 11.7622C57.1875 11.7622 56.1152 12.3716 55.4004 13.5903V27.0024H50.3203V7.98291H55.1016ZM76.6875 3.30713V7.98291H79.9395V11.7095H76.6875V21.2017C76.6875 21.9048 76.8223 22.4087 77.0918 22.7134C77.3613 23.0181 77.877 23.1704 78.6387 23.1704C79.2012 23.1704 79.6992 23.1294 80.1328 23.0474V26.897C79.1367 27.2017 78.1113 27.354 77.0566 27.354C73.4941 27.354 71.6777 25.5552 71.6074 21.9575V11.7095H68.8301V7.98291H71.6074V3.30713H76.6875ZM88.1309 27.0024H83.0332V7.98291H88.1309V27.0024ZM82.7344 3.06104C82.7344 2.29932 82.9863 1.67236 83.4902 1.18018C84.0059 0.687988 84.7031 0.441895 85.582 0.441895C86.4492 0.441895 87.1406 0.687988 87.6562 1.18018C88.1719 1.67236 88.4297 2.29932 88.4297 3.06104C88.4297 3.83447 88.166 4.46729 87.6387 4.95947C87.123 5.45166 86.4375 5.69775 85.582 5.69775C84.7266 5.69775 84.0352 5.45166 83.5078 4.95947C82.9922 4.46729 82.7344 3.83447 82.7344 3.06104ZM98.4141 3.30713V7.98291H101.666V11.7095H98.4141V21.2017C98.4141 21.9048 98.5488 22.4087 98.8184 22.7134C99.0879 23.0181 99.6035 23.1704 100.365 23.1704C100.928 23.1704 101.426 23.1294 101.859 23.0474V26.897C100.863 27.2017 99.8379 27.354 98.7832 27.354C95.2207 27.354 93.4043 25.5552 93.334 21.9575V11.7095H90.5566V7.98291H93.334V3.30713H98.4141ZM111.598 19.813L115.113 7.98291H120.562L112.916 29.9556L112.494 30.9575C111.357 33.4419 109.482 34.6841 106.869 34.6841C106.131 34.6841 105.381 34.5728 104.619 34.3501V30.5005L105.393 30.5181C106.354 30.5181 107.068 30.3716 107.537 30.0786C108.018 29.7856 108.393 29.2993 108.662 28.6196L109.26 27.0552L102.598 7.98291H108.064L111.598 19.813ZM131.865 27.0024V1.40869H139.74C141.99 1.40869 144 1.91846 145.77 2.93799C147.551 3.9458 148.939 5.38721 149.936 7.26221C150.932 9.12549 151.43 11.2466 151.43 13.6255V14.8032C151.43 17.1821 150.938 19.2974 149.953 21.1489C148.98 23.0005 147.604 24.436 145.822 25.4556C144.041 26.4751 142.031 26.9907 139.793 27.0024H131.865ZM137.139 5.68018V22.7661H139.688C141.75 22.7661 143.326 22.0923 144.416 20.7446C145.506 19.397 146.062 17.4692 146.086 14.9614V13.6079C146.086 11.0063 145.547 9.0376 144.469 7.70166C143.391 6.354 141.814 5.68018 139.74 5.68018H137.139ZM154.154 17.3169C154.154 15.4302 154.518 13.7485 155.244 12.272C155.971 10.7954 157.014 9.65283 158.373 8.84424C159.744 8.03564 161.332 7.63135 163.137 7.63135C165.703 7.63135 167.795 8.4165 169.412 9.98682C171.041 11.5571 171.949 13.6899 172.137 16.3853L172.172 17.686C172.172 20.604 171.357 22.9478 169.729 24.7173C168.1 26.4751 165.914 27.354 163.172 27.354C160.43 27.354 158.238 26.4751 156.598 24.7173C154.969 22.9595 154.154 20.5688 154.154 17.5454V17.3169ZM159.234 17.686C159.234 19.4907 159.574 20.8735 160.254 21.8345C160.934 22.7837 161.906 23.2583 163.172 23.2583C164.402 23.2583 165.363 22.7896 166.055 21.8521C166.746 20.9028 167.092 19.3911 167.092 17.3169C167.092 15.5474 166.746 14.1763 166.055 13.2036C165.363 12.231 164.391 11.7446 163.137 11.7446C161.895 11.7446 160.934 12.231 160.254 13.2036C159.574 14.1646 159.234 15.6587 159.234 17.686ZM183.211 23.2583C184.148 23.2583 184.91 23.0005 185.496 22.4849C186.082 21.9692 186.387 21.2837 186.41 20.4282H191.174C191.162 21.7173 190.811 22.9009 190.119 23.979C189.428 25.0454 188.479 25.8774 187.271 26.4751C186.076 27.061 184.752 27.354 183.299 27.354C180.58 27.354 178.436 26.4927 176.865 24.77C175.295 23.0356 174.51 20.645 174.51 17.5981V17.2642C174.51 14.3345 175.289 11.9966 176.848 10.2505C178.406 8.50439 180.545 7.63135 183.264 7.63135C185.643 7.63135 187.547 8.31104 188.977 9.67041C190.418 11.0181 191.15 12.8169 191.174 15.0669H186.41C186.387 14.0825 186.082 13.2856 185.496 12.6763C184.91 12.0552 184.137 11.7446 183.176 11.7446C181.992 11.7446 181.096 12.1782 180.486 13.0454C179.889 13.9009 179.59 15.2954 179.59 17.229V17.7563C179.59 19.7134 179.889 21.1196 180.486 21.9751C181.084 22.8306 181.992 23.2583 183.211 23.2583ZM205.465 25.0688C204.211 26.5923 202.477 27.354 200.262 27.354C198.223 27.354 196.664 26.7681 195.586 25.5962C194.52 24.4243 193.975 22.7075 193.951 20.4458V7.98291H199.031V20.27C199.031 22.2505 199.934 23.2407 201.738 23.2407C203.461 23.2407 204.645 22.6431 205.289 21.4478V7.98291H210.387V27.0024H205.605L205.465 25.0688ZM218.982 7.98291L219.141 10.1099C220.488 8.45752 222.311 7.63135 224.607 7.63135C227.057 7.63135 228.738 8.59814 229.652 10.5317C230.988 8.59814 232.893 7.63135 235.365 7.63135C237.428 7.63135 238.963 8.23486 239.971 9.44189C240.979 10.6372 241.482 12.4419 241.482 14.856V27.0024H236.385V14.8735C236.385 13.7954 236.174 13.0103 235.752 12.5181C235.33 12.0142 234.586 11.7622 233.52 11.7622C231.996 11.7622 230.941 12.4888 230.355 13.9419L230.373 27.0024H225.293V14.8911C225.293 13.7896 225.076 12.9927 224.643 12.5005C224.209 12.0083 223.471 11.7622 222.428 11.7622C220.986 11.7622 219.943 12.3599 219.299 13.5552V27.0024H214.219V7.98291H218.982ZM254.156 27.354C251.367 27.354 249.094 26.4985 247.336 24.7876C245.59 23.0767 244.717 20.7974 244.717 17.9497V17.4575C244.717 15.5474 245.086 13.8423 245.824 12.3423C246.562 10.8306 247.605 9.67041 248.953 8.86182C250.312 8.0415 251.859 7.63135 253.594 7.63135C256.195 7.63135 258.24 8.45166 259.729 10.0923C261.229 11.7329 261.979 14.0591 261.979 17.0708V19.145H249.867C250.031 20.3872 250.523 21.3833 251.344 22.1333C252.176 22.8833 253.225 23.2583 254.49 23.2583C256.447 23.2583 257.977 22.5493 259.078 21.1313L261.574 23.9263C260.812 25.0044 259.781 25.8481 258.48 26.4575C257.18 27.0552 255.738 27.354 254.156 27.354ZM253.576 11.7446C252.568 11.7446 251.748 12.0845 251.115 12.7642C250.494 13.4438 250.096 14.4165 249.92 15.6821H256.986V15.2778C256.963 14.1528 256.658 13.2856 256.072 12.6763C255.486 12.0552 254.654 11.7446 253.576 11.7446ZM269.555 7.98291L269.713 10.1802C271.072 8.48096 272.895 7.63135 275.18 7.63135C277.195 7.63135 278.695 8.22314 279.68 9.40674C280.664 10.5903 281.168 12.3599 281.191 14.7153V27.0024H276.111V14.8384C276.111 13.7603 275.877 12.981 275.408 12.5005C274.939 12.0083 274.16 11.7622 273.07 11.7622C271.641 11.7622 270.568 12.3716 269.854 13.5903V27.0024H264.773V7.98291H269.555ZM291.141 3.30713V7.98291H294.393V11.7095H291.141V21.2017C291.141 21.9048 291.275 22.4087 291.545 22.7134C291.814 23.0181 292.33 23.1704 293.092 23.1704C293.654 23.1704 294.152 23.1294 294.586 23.0474V26.897C293.59 27.2017 292.564 27.354 291.51 27.354C287.947 27.354 286.131 25.5552 286.061 21.9575V11.7095H283.283V7.98291H286.061V3.30713H291.141ZM307.523 21.7466C307.523 21.1255 307.213 20.6392 306.592 20.2876C305.982 19.9243 304.998 19.6021 303.639 19.3208C299.115 18.3716 296.854 16.4497 296.854 13.5552C296.854 11.8677 297.551 10.4614 298.945 9.33643C300.352 8.19971 302.186 7.63135 304.447 7.63135C306.861 7.63135 308.789 8.19971 310.23 9.33643C311.684 10.4731 312.41 11.9497 312.41 13.7661H307.33C307.33 13.0396 307.096 12.4419 306.627 11.9731C306.158 11.4927 305.426 11.2524 304.43 11.2524C303.574 11.2524 302.912 11.4458 302.443 11.8325C301.975 12.2192 301.74 12.7114 301.74 13.3091C301.74 13.8716 302.004 14.3286 302.531 14.6802C303.07 15.02 303.973 15.3188 305.238 15.5767C306.504 15.8228 307.57 16.104 308.438 16.4204C311.121 17.4048 312.463 19.1099 312.463 21.5356C312.463 23.27 311.719 24.6763 310.23 25.7544C308.742 26.8208 306.82 27.354 304.465 27.354C302.871 27.354 301.453 27.0728 300.211 26.5103C298.98 25.936 298.014 25.1567 297.311 24.1724C296.607 23.1763 296.256 22.104 296.256 20.9556H301.072C301.119 21.8579 301.453 22.5493 302.074 23.0298C302.695 23.5103 303.527 23.7505 304.57 23.7505C305.543 23.7505 306.275 23.5688 306.768 23.2056C307.271 22.8306 307.523 22.3442 307.523 21.7466Z" fill="#19578D"/>
</svg>
