<svg width="64" height="63" viewBox="0 0 64 63" fill="none" xmlns="http://www.w3.org/2000/svg">
<path d="M62.875 61.234C62.125 61.984 61.2292 62.359 60.1875 62.359C59.1458 62.359 58.25 61.984 57.5 61.234L29.4375 33.1715L22.875 39.734V39.7965C23.625 40.5465 24 41.4528 24 42.5153C24 43.5778 23.625 44.484 22.875 45.234C22.125 45.984 21.2188 46.359 20.1562 46.359C19.0938 46.359 18.1875 45.984 17.4375 45.234L1.125 28.9215C0.375 28.1715 0 27.2653 0 26.2028C0 25.1403 0.375 24.234 1.125 23.484C1.875 22.734 2.78125 22.359 3.84375 22.359C4.90625 22.359 5.8125 22.734 6.5625 23.484L6.625 23.5465L25.1875 4.98401L25.125 4.92151C24.375 4.17151 24 3.26526 24 2.20276C24 1.14026 24.375 0.234009 25.125 -0.515991C25.875 -1.26599 26.7812 -1.64099 27.8438 -1.64099C28.9062 -1.64099 29.8125 -1.26599 30.5625 -0.515991L46.875 15.7965C47.625 16.5465 48 17.4528 48 18.5153C48 19.5778 47.625 20.484 46.875 21.234C46.125 21.984 45.2188 22.359 44.1562 22.359C43.0938 22.359 42.1875 21.984 41.4375 21.234L41.375 21.1715L34.8125 27.734L62.875 55.859C63.625 56.609 64 57.5048 64 58.5465C64 59.5882 63.625 60.484 62.875 61.234ZM21.0625 13.984L15.6875 19.4215L27 30.734L32.375 25.359L21.0625 13.984Z" fill="white"/>
</svg>
