<svg width="120" height="25" viewBox="0 0 120 25" fill="none" xmlns="http://www.w3.org/2000/svg">
<g clip-path="url(#clip0)">
<path d="M22.0417 22.0421C22.0417 22.862 22.2829 23.489 22.7652 23.9713C23.2475 24.4054 23.8745 24.6466 24.6945 24.6466H39.1157V21.7527H25.3697V13.6498H38.1028V10.8041H25.3697V3.23178H39.1157V0.337891H22.0417V22.0421Z" fill="#19578D"/>
<path d="M58.7942 13.2154C57.7331 12.299 56.2862 11.672 54.3569 11.3344L48.0868 10.2733C47.1222 10.0804 46.3987 9.74276 45.8682 9.26045C45.3376 8.77813 45.0965 8.15112 45.0965 7.42765V5.88424C45.0965 5.01608 45.4823 4.2926 46.2058 3.76206C46.9293 3.23151 47.8939 2.99035 49.0515 2.99035H52.9582C54.0675 2.99035 54.9357 3.32797 55.6109 4.05145C56.2862 4.77492 56.6238 5.69132 56.6238 6.84887H59.9035C59.9035 5.49839 59.6142 4.2926 59.0354 3.27974C58.4566 2.21865 57.6367 1.44695 56.5756 0.868167C55.5145 0.289389 54.3087 0 52.9582 0H49.0515C46.881 0 45.1447 0.530547 43.7942 1.59164C42.492 2.65273 41.8167 4.05145 41.8167 5.78778V7.71704C41.8167 9.21222 42.299 10.418 43.3119 11.3826C44.3248 12.3955 45.7717 13.0225 47.6045 13.3119L53.9228 14.373C54.9357 14.5177 55.7074 14.8553 56.238 15.3376C56.7685 15.8199 57.0579 16.3987 57.0579 17.1222V19.0032C57.0579 19.9196 56.672 20.6431 55.9003 21.1736C55.1769 21.7042 54.1158 21.9936 52.8617 21.9936H49.0032C47.701 21.9936 46.6881 21.6077 45.9164 20.7878C45.1447 19.9678 44.7589 18.8585 44.7589 17.508H41.5273C41.5273 19.7749 42.2026 21.5595 43.5531 22.91C44.9036 24.2604 46.6881 24.9357 48.955 24.8392H52.91C55.1769 24.8392 56.9614 24.3087 58.3119 23.2476C59.6624 22.1865 60.3376 20.7395 60.3376 19.0032V16.7363C60.3376 15.3376 59.8071 14.1318 58.7942 13.2154Z" fill="#19578D"/>
<path d="M79.6784 16.7362C79.6784 18.2796 79.2926 19.5819 78.4244 20.5465C77.5562 21.5111 76.4469 21.9935 75.0964 21.9935H71.3826C69.9839 21.9935 68.9228 21.5111 68.0546 20.5465C67.2347 19.5819 66.8006 18.3279 66.8006 16.7362V0.385742H63.5209V16.7362C63.5209 18.3279 63.8585 19.7748 64.4855 21.0288C65.1125 22.2828 66.0289 23.2475 67.2347 23.9227C68.4405 24.598 69.8392 24.9356 71.3826 24.9356H75.0964C76.6881 24.9356 78.0386 24.598 79.2444 23.9227C80.4019 23.2475 81.3665 22.2828 81.9935 21.0288C82.6206 19.7748 82.9582 18.3761 82.9582 16.7362V0.385742H79.6784V16.7362Z" fill="#19578D"/>
<path d="M90.2893 0.337891H87.0096V22.0903C87.0096 22.862 87.2507 23.489 87.7331 23.9713C88.2154 24.4054 88.8906 24.6466 89.6623 24.6466H103.505V21.7527H90.2893V0.337891Z" fill="#19578D"/>
<path d="M101.286 0.337891V3.23178H109.003V24.6466H112.283V3.23178H120V0.337891H101.286Z" fill="#19578D"/>
<path d="M14.3248 13.8427C15.627 13.3604 16.6399 12.6852 17.4116 11.7688C18.1833 10.8524 18.5209 9.79127 18.5209 8.58548V6.07744C18.5209 4.34111 17.9421 2.99062 16.7846 1.92953C15.627 0.868437 14.1318 0.337891 12.2508 0.337891H7.47588H0.0482315V3.23178V7.76554L4.58199 3.23178H7.13826H12.1543C13.0707 3.23178 13.7942 3.47294 14.3248 4.00349C14.9035 4.53403 15.1447 5.16104 15.1447 6.02921V8.58548C15.1447 9.59834 14.8071 10.4183 14.0836 11.0453C13.3601 11.6723 12.4437 11.9617 11.2862 11.9617H7.09003H3.27974H0V24.6466H3.27974V14.9038H9.93569C10.8521 14.9038 11.6238 15.1932 12.3473 15.8202C13.0707 16.4472 13.5531 17.3154 13.8907 18.3765L15.7717 24.6466H19.1961L17.3633 18.28C16.6881 16.1096 15.6752 14.6626 14.3248 13.8427Z" fill="#19578D"/>
</g>
<defs>
<clipPath id="clip0">
<rect width="120" height="24.9357" fill="white"/>
</clipPath>
</defs>
</svg>
