<svg width="28" height="28" viewBox="0 0 28 28" fill="none" xmlns="http://www.w3.org/2000/svg">
<circle cx="14" cy="14" r="14" fill="white"/>
<path d="M16.3333 6.66666H11C10.08 6.66666 9.33333 7.41332 9.33333 8.33332V19.6667C9.33333 20.5867 10.08 21.3333 11 21.3333H16.3333C17.2533 21.3333 18 20.5867 18 19.6667V8.33332C18 7.41332 17.2533 6.66666 16.3333 6.66666ZM13.6667 20.6667C13.1133 20.6667 12.6667 20.22 12.6667 19.6667C12.6667 19.1133 13.1133 18.6667 13.6667 18.6667C14.22 18.6667 14.6667 19.1133 14.6667 19.6667C14.6667 20.22 14.22 20.6667 13.6667 20.6667ZM16.6667 18H10.6667V8.66666H16.6667V18Z" fill="#19578D"/>
</svg>
