<svg width="93" height="129" viewBox="0 0 93 129" fill="none" xmlns="http://www.w3.org/2000/svg">
<path fill-rule="evenodd" clip-rule="evenodd" d="M9.74999 53.2381C12.475 52.69 15.3047 53.1195 17.7478 54.452C20.1909 55.7844 22.0929 57.9357 23.1238 60.5322L27.2143 70.8095V23.9524C27.2143 21.8812 28.032 19.8948 29.4877 18.4302C30.9433 16.9656 32.9176 16.1429 34.9762 16.1429C37.0348 16.1429 39.009 16.9656 40.4647 18.4302C41.9203 19.8948 42.7381 21.8812 42.7381 23.9524V12.2381C42.7381 10.1669 43.5559 8.1805 45.0115 6.71593C46.4671 5.25136 48.4414 4.42857 50.5 4.42857C52.5586 4.42857 54.5328 5.25136 55.9885 6.71593C57.4441 8.1805 58.2619 10.1669 58.2619 12.2381V20.0476C58.2619 17.9764 59.0797 15.99 60.5353 14.5255C61.9909 13.0609 63.9652 12.2381 66.0238 12.2381C68.0824 12.2381 70.0567 13.0609 71.5123 14.5255C72.9679 15.99 73.7857 17.9764 73.7857 20.0476V31.7619C73.7857 29.6907 74.6035 27.7043 76.0591 26.2397C77.5148 24.7752 79.489 23.9524 81.5476 23.9524C83.6062 23.9524 85.5805 24.7752 87.0361 26.2397C88.4917 27.7043 89.3095 29.6907 89.3095 31.7619V94.2381C89.3095 102.523 86.0384 110.468 80.2159 116.327C74.3933 122.185 66.4962 125.476 58.2619 125.476C40.0214 125.476 24.1095 112.981 19.6852 95.1752L19.4524 94.2381L4.4719 64.0933C3.95304 63.0475 3.68072 61.8954 3.67607 60.7266C3.67142 59.5577 3.93457 58.4035 4.44509 57.3535C4.95561 56.3036 5.69976 55.3861 6.61978 54.6724C7.53979 53.9587 8.61091 53.4679 9.74999 53.2381V53.2381Z" stroke="#19578D" stroke-width="7" stroke-linecap="round" stroke-linejoin="round"/>
<path d="M42.7381 16.1429V63" stroke="#19578D" stroke-width="7" stroke-linecap="round" stroke-linejoin="round"/>
<path d="M58.2619 16.1429V55.1905" stroke="#19578D" stroke-width="7" stroke-linecap="round" stroke-linejoin="round"/>
<path d="M73.7857 31.7619V63" stroke="#19578D" stroke-width="7" stroke-linecap="round" stroke-linejoin="round"/>
</svg>
