<svg width="28" height="28" viewBox="0 0 28 28" fill="none" xmlns="http://www.w3.org/2000/svg">
<rect width="28" height="28" rx="14" fill="white"/>
<path d="M9.7994 13.3265C11.0174 15.7202 12.9797 17.6741 15.3734 18.9006L17.2343 17.0397C17.4627 16.8114 17.801 16.7352 18.097 16.8367C19.0444 17.1497 20.0678 17.3189 21.1167 17.3189C21.5819 17.3189 21.9625 17.6995 21.9625 18.1647V21.1167C21.9625 21.5819 21.5819 21.9625 21.1167 21.9625C13.1743 21.9625 6.73749 15.5257 6.73749 7.58332C6.73749 7.11811 7.11811 6.73749 7.58332 6.73749H10.5437C11.0089 6.73749 11.3896 7.11811 11.3896 7.58332C11.3896 8.64061 11.5587 9.65561 11.8717 10.6029C11.9647 10.899 11.8971 11.2289 11.6602 11.4657L9.7994 13.3265Z" fill="#19578D"/>
</svg>
