<svg width="291" height="35" viewBox="0 0 291 35" fill="none" xmlns="http://www.w3.org/2000/svg">
<path d="M5.99219 17.9849V27.0024H0.71875V1.40869H10.7031C12.625 1.40869 14.3125 1.76025 15.7656 2.46338C17.2305 3.1665 18.3555 4.16846 19.1406 5.46924C19.9258 6.7583 20.3184 8.229 20.3184 9.88135C20.3184 12.3892 19.457 14.3696 17.7344 15.8228C16.0234 17.2642 13.6504 17.9849 10.6152 17.9849H5.99219ZM5.99219 13.7134H10.7031C12.0977 13.7134 13.1582 13.3853 13.8848 12.729C14.623 12.0728 14.9922 11.1353 14.9922 9.9165C14.9922 8.6626 14.623 7.64893 13.8848 6.87549C13.1465 6.10205 12.127 5.70361 10.8262 5.68018H5.99219V13.7134ZM28.5801 10.0571C29.9277 8.43994 31.6211 7.63135 33.6602 7.63135C37.7852 7.63135 39.877 10.0278 39.9355 14.8208V27.0024H34.8555V14.9614C34.8555 13.8716 34.6211 13.0688 34.1523 12.5532C33.6836 12.0259 32.9043 11.7622 31.8145 11.7622C30.3262 11.7622 29.248 12.3364 28.5801 13.4849V27.0024H23.5V0.00244141H28.5801V10.0571ZM50.8691 19.813L54.3848 7.98291H59.834L52.1875 29.9556L51.7656 30.9575C50.6289 33.4419 48.7539 34.6841 46.1406 34.6841C45.4023 34.6841 44.6523 34.5728 43.8906 34.3501V30.5005L44.6641 30.5181C45.625 30.5181 46.3398 30.3716 46.8086 30.0786C47.2891 29.7856 47.6641 29.2993 47.9336 28.6196L48.5312 27.0552L41.8691 7.98291H47.3359L50.8691 19.813ZM72.1387 21.7466C72.1387 21.1255 71.8281 20.6392 71.207 20.2876C70.5977 19.9243 69.6133 19.6021 68.2539 19.3208C63.7305 18.3716 61.4688 16.4497 61.4688 13.5552C61.4688 11.8677 62.166 10.4614 63.5605 9.33643C64.9668 8.19971 66.8008 7.63135 69.0625 7.63135C71.4766 7.63135 73.4043 8.19971 74.8457 9.33643C76.2988 10.4731 77.0254 11.9497 77.0254 13.7661H71.9453C71.9453 13.0396 71.7109 12.4419 71.2422 11.9731C70.7734 11.4927 70.041 11.2524 69.0449 11.2524C68.1895 11.2524 67.5273 11.4458 67.0586 11.8325C66.5898 12.2192 66.3555 12.7114 66.3555 13.3091C66.3555 13.8716 66.6191 14.3286 67.1465 14.6802C67.6855 15.02 68.5879 15.3188 69.8535 15.5767C71.1191 15.8228 72.1855 16.104 73.0527 16.4204C75.7363 17.4048 77.0781 19.1099 77.0781 21.5356C77.0781 23.27 76.334 24.6763 74.8457 25.7544C73.3574 26.8208 71.4355 27.354 69.0801 27.354C67.4863 27.354 66.0684 27.0728 64.8262 26.5103C63.5957 25.936 62.6289 25.1567 61.9258 24.1724C61.2227 23.1763 60.8711 22.104 60.8711 20.9556H65.6875C65.7344 21.8579 66.0684 22.5493 66.6895 23.0298C67.3105 23.5103 68.1426 23.7505 69.1855 23.7505C70.1582 23.7505 70.8906 23.5688 71.3828 23.2056C71.8867 22.8306 72.1387 22.3442 72.1387 21.7466ZM85.7266 27.0024H80.6289V7.98291H85.7266V27.0024ZM80.3301 3.06104C80.3301 2.29932 80.582 1.67236 81.0859 1.18018C81.6016 0.687988 82.2988 0.441895 83.1777 0.441895C84.0449 0.441895 84.7363 0.687988 85.252 1.18018C85.7676 1.67236 86.0254 2.29932 86.0254 3.06104C86.0254 3.83447 85.7617 4.46729 85.2344 4.95947C84.7188 5.45166 84.0332 5.69775 83.1777 5.69775C82.3223 5.69775 81.6309 5.45166 81.1035 4.95947C80.5879 4.46729 80.3301 3.83447 80.3301 3.06104ZM97.8379 23.2583C98.7754 23.2583 99.5371 23.0005 100.123 22.4849C100.709 21.9692 101.014 21.2837 101.037 20.4282H105.801C105.789 21.7173 105.438 22.9009 104.746 23.979C104.055 25.0454 103.105 25.8774 101.898 26.4751C100.703 27.061 99.3789 27.354 97.9258 27.354C95.207 27.354 93.0625 26.4927 91.4922 24.77C89.9219 23.0356 89.1367 20.645 89.1367 17.5981V17.2642C89.1367 14.3345 89.916 11.9966 91.4746 10.2505C93.0332 8.50439 95.1719 7.63135 97.8906 7.63135C100.27 7.63135 102.174 8.31104 103.604 9.67041C105.045 11.0181 105.777 12.8169 105.801 15.0669H101.037C101.014 14.0825 100.709 13.2856 100.123 12.6763C99.5371 12.0552 98.7637 11.7446 97.8027 11.7446C96.6191 11.7446 95.7227 12.1782 95.1133 13.0454C94.5156 13.9009 94.2168 15.2954 94.2168 17.229V17.7563C94.2168 19.7134 94.5156 21.1196 95.1133 21.9751C95.7109 22.8306 96.6191 23.2583 97.8379 23.2583ZM119.723 27.0024C119.488 26.5454 119.318 25.9771 119.213 25.2974C117.982 26.6685 116.383 27.354 114.414 27.354C112.551 27.354 111.004 26.8149 109.773 25.7368C108.555 24.6587 107.945 23.2993 107.945 21.6587C107.945 19.6431 108.689 18.0962 110.178 17.0181C111.678 15.9399 113.84 15.395 116.664 15.3833H119.002V14.2935C119.002 13.4146 118.773 12.7114 118.316 12.1841C117.871 11.6567 117.162 11.3931 116.189 11.3931C115.334 11.3931 114.66 11.5981 114.168 12.0083C113.688 12.4185 113.447 12.981 113.447 13.6958H108.367C108.367 12.5942 108.707 11.5747 109.387 10.6372C110.066 9.69971 111.027 8.96729 112.27 8.43994C113.512 7.90088 114.906 7.63135 116.453 7.63135C118.797 7.63135 120.654 8.22314 122.025 9.40674C123.408 10.5786 124.1 12.231 124.1 14.3638V22.6079C124.111 24.4126 124.363 25.7778 124.855 26.7036V27.0024H119.723ZM115.521 23.4692C116.271 23.4692 116.963 23.3052 117.596 22.9771C118.229 22.6372 118.697 22.186 119.002 21.6235V18.354H117.104C114.561 18.354 113.207 19.2329 113.043 20.9907L113.025 21.2896C113.025 21.9224 113.248 22.4438 113.693 22.854C114.139 23.2642 114.748 23.4692 115.521 23.4692ZM133.363 27.0024H128.266V0.00244141H133.363V27.0024ZM156.338 17.6333H152.137V27.0024H146.863V1.40869H156.373C159.396 1.40869 161.729 2.08252 163.369 3.43018C165.01 4.77783 165.83 6.68213 165.83 9.14307C165.83 10.8892 165.449 12.3481 164.688 13.52C163.938 14.6802 162.795 15.606 161.26 16.2974L166.797 26.7563V27.0024H161.137L156.338 17.6333ZM152.137 13.3618H156.391C157.715 13.3618 158.74 13.0278 159.467 12.3599C160.193 11.6802 160.557 10.7485 160.557 9.56494C160.557 8.35791 160.211 7.40869 159.52 6.71729C158.84 6.02588 157.791 5.68018 156.373 5.68018H152.137V13.3618ZM178.275 27.354C175.486 27.354 173.213 26.4985 171.455 24.7876C169.709 23.0767 168.836 20.7974 168.836 17.9497V17.4575C168.836 15.5474 169.205 13.8423 169.943 12.3423C170.682 10.8306 171.725 9.67041 173.072 8.86182C174.432 8.0415 175.979 7.63135 177.713 7.63135C180.314 7.63135 182.359 8.45166 183.848 10.0923C185.348 11.7329 186.098 14.0591 186.098 17.0708V19.145H173.986C174.15 20.3872 174.643 21.3833 175.463 22.1333C176.295 22.8833 177.344 23.2583 178.609 23.2583C180.566 23.2583 182.096 22.5493 183.197 21.1313L185.693 23.9263C184.932 25.0044 183.9 25.8481 182.6 26.4575C181.299 27.0552 179.857 27.354 178.275 27.354ZM177.695 11.7446C176.688 11.7446 175.867 12.0845 175.234 12.7642C174.613 13.4438 174.215 14.4165 174.039 15.6821H181.105V15.2778C181.082 14.1528 180.777 13.2856 180.191 12.6763C179.605 12.0552 178.773 11.7446 177.695 11.7446ZM199.299 21.7466C199.299 21.1255 198.988 20.6392 198.367 20.2876C197.758 19.9243 196.773 19.6021 195.414 19.3208C190.891 18.3716 188.629 16.4497 188.629 13.5552C188.629 11.8677 189.326 10.4614 190.721 9.33643C192.127 8.19971 193.961 7.63135 196.223 7.63135C198.637 7.63135 200.564 8.19971 202.006 9.33643C203.459 10.4731 204.186 11.9497 204.186 13.7661H199.105C199.105 13.0396 198.871 12.4419 198.402 11.9731C197.934 11.4927 197.201 11.2524 196.205 11.2524C195.35 11.2524 194.688 11.4458 194.219 11.8325C193.75 12.2192 193.516 12.7114 193.516 13.3091C193.516 13.8716 193.779 14.3286 194.307 14.6802C194.846 15.02 195.748 15.3188 197.014 15.5767C198.279 15.8228 199.346 16.104 200.213 16.4204C202.896 17.4048 204.238 19.1099 204.238 21.5356C204.238 23.27 203.494 24.6763 202.006 25.7544C200.518 26.8208 198.596 27.354 196.24 27.354C194.646 27.354 193.229 27.0728 191.986 26.5103C190.756 25.936 189.789 25.1567 189.086 24.1724C188.383 23.1763 188.031 22.104 188.031 20.9556H192.848C192.895 21.8579 193.229 22.5493 193.85 23.0298C194.471 23.5103 195.303 23.7505 196.346 23.7505C197.318 23.7505 198.051 23.5688 198.543 23.2056C199.047 22.8306 199.299 22.3442 199.299 21.7466ZM213.607 3.30713V7.98291H216.859V11.7095H213.607V21.2017C213.607 21.9048 213.742 22.4087 214.012 22.7134C214.281 23.0181 214.797 23.1704 215.559 23.1704C216.121 23.1704 216.619 23.1294 217.053 23.0474V26.897C216.057 27.2017 215.031 27.354 213.977 27.354C210.414 27.354 208.598 25.5552 208.527 21.9575V11.7095H205.75V7.98291H208.527V3.30713H213.607ZM230.377 12.7466C229.686 12.6528 229.076 12.606 228.549 12.606C226.627 12.606 225.367 13.2563 224.77 14.5571V27.0024H219.689V7.98291H224.488L224.629 10.2505C225.648 8.50439 227.061 7.63135 228.865 7.63135C229.428 7.63135 229.955 7.70752 230.447 7.85986L230.377 12.7466ZM243.332 27.0024C243.098 26.5454 242.928 25.9771 242.822 25.2974C241.592 26.6685 239.992 27.354 238.023 27.354C236.16 27.354 234.613 26.8149 233.383 25.7368C232.164 24.6587 231.555 23.2993 231.555 21.6587C231.555 19.6431 232.299 18.0962 233.787 17.0181C235.287 15.9399 237.449 15.395 240.273 15.3833H242.611V14.2935C242.611 13.4146 242.383 12.7114 241.926 12.1841C241.48 11.6567 240.771 11.3931 239.799 11.3931C238.943 11.3931 238.27 11.5981 237.777 12.0083C237.297 12.4185 237.057 12.981 237.057 13.6958H231.977C231.977 12.5942 232.316 11.5747 232.996 10.6372C233.676 9.69971 234.637 8.96729 235.879 8.43994C237.121 7.90088 238.516 7.63135 240.062 7.63135C242.406 7.63135 244.264 8.22314 245.635 9.40674C247.018 10.5786 247.709 12.231 247.709 14.3638V22.6079C247.721 24.4126 247.973 25.7778 248.465 26.7036V27.0024H243.332ZM239.131 23.4692C239.881 23.4692 240.572 23.3052 241.205 22.9771C241.838 22.6372 242.307 22.186 242.611 21.6235V18.354H240.713C238.17 18.354 236.816 19.2329 236.652 20.9907L236.635 21.2896C236.635 21.9224 236.857 22.4438 237.303 22.854C237.748 23.2642 238.357 23.4692 239.131 23.4692ZM256.973 27.0024H251.875V7.98291H256.973V27.0024ZM251.576 3.06104C251.576 2.29932 251.828 1.67236 252.332 1.18018C252.848 0.687988 253.545 0.441895 254.424 0.441895C255.291 0.441895 255.982 0.687988 256.498 1.18018C257.014 1.67236 257.271 2.29932 257.271 3.06104C257.271 3.83447 257.008 4.46729 256.48 4.95947C255.965 5.45166 255.279 5.69775 254.424 5.69775C253.568 5.69775 252.877 5.45166 252.35 4.95947C251.834 4.46729 251.576 3.83447 251.576 3.06104ZM265.85 7.98291L266.008 10.1802C267.367 8.48096 269.189 7.63135 271.475 7.63135C273.49 7.63135 274.99 8.22314 275.975 9.40674C276.959 10.5903 277.463 12.3599 277.486 14.7153V27.0024H272.406V14.8384C272.406 13.7603 272.172 12.981 271.703 12.5005C271.234 12.0083 270.455 11.7622 269.365 11.7622C267.936 11.7622 266.863 12.3716 266.148 13.5903V27.0024H261.068V7.98291H265.85ZM287.436 3.30713V7.98291H290.688V11.7095H287.436V21.2017C287.436 21.9048 287.57 22.4087 287.84 22.7134C288.109 23.0181 288.625 23.1704 289.387 23.1704C289.949 23.1704 290.447 23.1294 290.881 23.0474V26.897C289.885 27.2017 288.859 27.354 287.805 27.354C284.242 27.354 282.426 25.5552 282.355 21.9575V11.7095H279.578V7.98291H282.355V3.30713H287.436Z" fill="#19578D"/>
</svg>
