<svg width="250" height="52" viewBox="0 0 250 52" fill="none" xmlns="http://www.w3.org/2000/svg">
<g clip-path="url(#clip0)">
<path d="M45.9204 45.9202C45.9204 47.6284 46.4228 48.9346 47.4276 49.9394C48.4325 50.8438 49.7387 51.3462 51.4469 51.3462H81.4911V45.3173H52.8537V28.4362H79.381V22.5078H52.8537V6.73206H81.4911V0.703125H45.9204V45.9202Z" fill="white"/>
<path d="M122.488 27.5321C120.277 25.623 117.263 24.3167 113.244 23.6133L100.181 21.4027C98.1713 21.0008 96.664 20.2974 95.5587 19.2926C94.4534 18.2878 93.951 16.9815 93.951 15.4743V12.2588C93.951 10.4502 94.7549 8.94292 96.2621 7.83762C97.7693 6.73231 99.779 6.2299 102.191 6.2299H110.33C112.641 6.2299 114.449 6.93328 115.856 8.44051C117.263 9.94775 117.966 11.8569 117.966 14.2685H124.799C124.799 11.455 124.196 8.94292 122.99 6.8328C121.785 4.62219 120.076 3.01447 117.866 1.80868C115.655 0.602894 113.143 0 110.33 0H102.191C97.6689 0 94.0515 1.10531 91.238 3.31592C88.525 5.52653 87.1182 8.44051 87.1182 12.0579V16.0772C87.1182 19.1921 88.123 21.7042 90.2332 23.7138C92.3433 25.8239 95.3578 27.1302 99.1761 27.7331L112.339 29.9437C114.449 30.2452 116.057 30.9485 117.162 31.9534C118.268 32.9582 118.871 34.164 118.871 35.6712V39.59C118.871 41.4992 118.067 43.0064 116.459 44.1117C114.952 45.217 112.741 45.8199 110.129 45.8199H102.09C99.3771 45.8199 97.2669 45.0161 95.6592 43.3079C94.0515 41.5997 93.2476 39.2886 93.2476 36.4751H86.5153C86.5153 41.1977 87.9221 44.9156 90.7356 47.7291C93.5491 50.5426 97.2669 51.9493 101.99 51.7484H110.229C114.952 51.7484 118.67 50.6431 121.483 48.4325C124.297 46.2219 125.703 43.2074 125.703 39.59V34.8674C125.703 31.9534 124.598 29.4413 122.488 27.5321Z" fill="white"/>
<path d="M165.997 34.8672C165.997 38.0826 165.193 40.7957 163.384 42.8053C161.575 44.815 159.264 45.8198 156.451 45.8198H148.714C145.8 45.8198 143.589 44.815 141.78 42.8053C140.072 40.7957 139.168 38.1831 139.168 34.8672V0.803711H132.335V34.8672C132.335 38.1831 133.038 41.1976 134.345 43.8101C135.651 46.4227 137.56 48.4323 140.072 49.8391C142.584 51.2458 145.498 51.9492 148.714 51.9492H156.451C159.767 51.9492 162.58 51.2458 165.092 49.8391C167.504 48.4323 169.514 46.4227 170.82 43.8101C172.126 41.1976 172.829 38.2836 172.829 34.8672V0.803711H165.997V34.8672Z" fill="white"/>
<path d="M188.103 0.703125H181.27V46.0206C181.27 47.6284 181.772 48.9346 182.777 49.9394C183.782 50.8438 185.189 51.3462 186.796 51.3462H215.635V45.3173H188.103V0.703125Z" fill="white"/>
<path d="M211.013 0.703125V6.73206H227.09V51.3462H233.923V6.73206H250V0.703125H211.013Z" fill="white"/>
<path d="M29.8432 28.8382C32.5563 27.8333 34.6664 26.4266 36.2741 24.5174C37.8818 22.6083 38.5852 20.3977 38.5852 17.8856V12.6605C38.5852 9.04316 37.3794 6.22965 34.9678 4.01904C32.5563 1.80843 29.4413 0.703125 25.5225 0.703125H15.5748H0.100482V6.73206V16.1774L9.54582 6.73206H14.8714H25.3215C27.2307 6.73206 28.7379 7.23447 29.8432 8.33978C31.049 9.44509 31.5514 10.7514 31.5514 12.56V17.8856C31.5514 19.9957 30.8481 21.7039 29.3408 23.0102C27.8336 24.3165 25.9244 24.9194 23.5129 24.9194H14.7709H6.8328H0V51.3462H6.8328V31.0488H20.6994C22.6085 31.0488 24.2162 31.6517 25.7235 32.9579C27.2307 34.2642 28.2355 36.0729 28.9389 38.2835L32.8577 51.3462H39.992L36.1736 38.0825C34.7669 33.5608 32.6567 30.5464 29.8432 28.8382Z" fill="white"/>
</g>
<defs>
<clipPath id="clip0">
<rect width="250" height="51.9494" fill="white"/>
</clipPath>
</defs>
</svg>
