<svg width="219" height="28" viewBox="0 0 219 28" fill="none" xmlns="http://www.w3.org/2000/svg">
<path d="M14.8496 20.2876C14.8496 19.2915 14.498 18.5298 13.7949 18.0024C13.0918 17.4634 11.8262 16.9009 9.99805 16.3149C8.16992 15.7173 6.72266 15.1313 5.65625 14.5571C2.75 12.9868 1.29688 10.8716 1.29688 8.21143C1.29688 6.82861 1.68359 5.59814 2.45703 4.52002C3.24219 3.43018 4.36133 2.58057 5.81445 1.97119C7.2793 1.36182 8.91992 1.05713 10.7363 1.05713C12.5645 1.05713 14.1934 1.39111 15.623 2.05908C17.0527 2.71533 18.1602 3.64697 18.9453 4.854C19.7422 6.06104 20.1406 7.43213 20.1406 8.96729H14.8672C14.8672 7.79541 14.498 6.88721 13.7598 6.24268C13.0215 5.58643 11.9844 5.2583 10.6484 5.2583C9.35938 5.2583 8.35742 5.53369 7.64258 6.08447C6.92773 6.62354 6.57031 7.33838 6.57031 8.229C6.57031 9.06104 6.98633 9.7583 7.81836 10.3208C8.66211 10.8833 9.89844 11.4106 11.5273 11.9028C14.5273 12.8052 16.7129 13.9243 18.084 15.2603C19.4551 16.5962 20.1406 18.2603 20.1406 20.2524C20.1406 22.4673 19.3027 24.2075 17.627 25.4731C15.9512 26.7271 13.6953 27.354 10.8594 27.354C8.89062 27.354 7.09766 26.9966 5.48047 26.2817C3.86328 25.5552 2.62695 24.5649 1.77148 23.311C0.927734 22.0571 0.505859 20.604 0.505859 18.9517H5.79688C5.79688 21.7759 7.48438 23.188 10.8594 23.188C12.1133 23.188 13.0918 22.936 13.7949 22.4321C14.498 21.9165 14.8496 21.2017 14.8496 20.2876ZM32.1465 27.354C29.3574 27.354 27.084 26.4985 25.3262 24.7876C23.5801 23.0767 22.707 20.7974 22.707 17.9497V17.4575C22.707 15.5474 23.0762 13.8423 23.8145 12.3423C24.5527 10.8306 25.5957 9.67041 26.9434 8.86182C28.3027 8.0415 29.8496 7.63135 31.584 7.63135C34.1855 7.63135 36.2305 8.45166 37.7188 10.0923C39.2188 11.7329 39.9688 14.0591 39.9688 17.0708V19.145H27.8574C28.0215 20.3872 28.5137 21.3833 29.334 22.1333C30.166 22.8833 31.2148 23.2583 32.4805 23.2583C34.4375 23.2583 35.9668 22.5493 37.0684 21.1313L39.5645 23.9263C38.8027 25.0044 37.7715 25.8481 36.4707 26.4575C35.1699 27.0552 33.7285 27.354 32.1465 27.354ZM31.5664 11.7446C30.5586 11.7446 29.7383 12.0845 29.1055 12.7642C28.4844 13.4438 28.0859 14.4165 27.9102 15.6821H34.9766V15.2778C34.9531 14.1528 34.6484 13.2856 34.0625 12.6763C33.4766 12.0552 32.6445 11.7446 31.5664 11.7446ZM53.5566 12.7466C52.8652 12.6528 52.2559 12.606 51.7285 12.606C49.8066 12.606 48.5469 13.2563 47.9492 14.5571V27.0024H42.8691V7.98291H47.668L47.8086 10.2505C48.8281 8.50439 50.2402 7.63135 52.0449 7.63135C52.6074 7.63135 53.1348 7.70752 53.627 7.85986L53.5566 12.7466ZM61.3789 27.0024H56.2812V7.98291H61.3789V27.0024ZM55.9824 3.06104C55.9824 2.29932 56.2344 1.67236 56.7383 1.18018C57.2539 0.687988 57.9512 0.441895 58.8301 0.441895C59.6973 0.441895 60.3887 0.687988 60.9043 1.18018C61.4199 1.67236 61.6777 2.29932 61.6777 3.06104C61.6777 3.83447 61.4141 4.46729 60.8867 4.95947C60.3711 5.45166 59.6855 5.69775 58.8301 5.69775C57.9746 5.69775 57.2832 5.45166 56.7559 4.95947C56.2402 4.46729 55.9824 3.83447 55.9824 3.06104ZM64.7891 17.3169C64.7891 15.4302 65.1523 13.7485 65.8789 12.272C66.6055 10.7954 67.6484 9.65283 69.0078 8.84424C70.3789 8.03564 71.9668 7.63135 73.7715 7.63135C76.3379 7.63135 78.4297 8.4165 80.0469 9.98682C81.6758 11.5571 82.584 13.6899 82.7715 16.3853L82.8066 17.686C82.8066 20.604 81.9922 22.9478 80.3633 24.7173C78.7344 26.4751 76.5488 27.354 73.8066 27.354C71.0645 27.354 68.873 26.4751 67.2324 24.7173C65.6035 22.9595 64.7891 20.5688 64.7891 17.5454V17.3169ZM69.8691 17.686C69.8691 19.4907 70.209 20.8735 70.8887 21.8345C71.5684 22.7837 72.541 23.2583 73.8066 23.2583C75.0371 23.2583 75.998 22.7896 76.6895 21.8521C77.3809 20.9028 77.7266 19.3911 77.7266 17.3169C77.7266 15.5474 77.3809 14.1763 76.6895 13.2036C75.998 12.231 75.0254 11.7446 73.7715 11.7446C72.5293 11.7446 71.5684 12.231 70.8887 13.2036C70.209 14.1646 69.8691 15.6587 69.8691 17.686ZM97.3262 25.0688C96.0723 26.5923 94.3379 27.354 92.123 27.354C90.084 27.354 88.5254 26.7681 87.4473 25.5962C86.3809 24.4243 85.8359 22.7075 85.8125 20.4458V7.98291H90.8926V20.27C90.8926 22.2505 91.7949 23.2407 93.5996 23.2407C95.3223 23.2407 96.5059 22.6431 97.1504 21.4478V7.98291H102.248V27.0024H97.4668L97.3262 25.0688ZM116.381 21.7466C116.381 21.1255 116.07 20.6392 115.449 20.2876C114.84 19.9243 113.855 19.6021 112.496 19.3208C107.973 18.3716 105.711 16.4497 105.711 13.5552C105.711 11.8677 106.408 10.4614 107.803 9.33643C109.209 8.19971 111.043 7.63135 113.305 7.63135C115.719 7.63135 117.646 8.19971 119.088 9.33643C120.541 10.4731 121.268 11.9497 121.268 13.7661H116.188C116.188 13.0396 115.953 12.4419 115.484 11.9731C115.016 11.4927 114.283 11.2524 113.287 11.2524C112.432 11.2524 111.77 11.4458 111.301 11.8325C110.832 12.2192 110.598 12.7114 110.598 13.3091C110.598 13.8716 110.861 14.3286 111.389 14.6802C111.928 15.02 112.83 15.3188 114.096 15.5767C115.361 15.8228 116.428 16.104 117.295 16.4204C119.979 17.4048 121.32 19.1099 121.32 21.5356C121.32 23.27 120.576 24.6763 119.088 25.7544C117.6 26.8208 115.678 27.354 113.322 27.354C111.729 27.354 110.311 27.0728 109.068 26.5103C107.838 25.936 106.871 25.1567 106.168 24.1724C105.465 23.1763 105.113 22.104 105.113 20.9556H109.93C109.977 21.8579 110.311 22.5493 110.932 23.0298C111.553 23.5103 112.385 23.7505 113.428 23.7505C114.4 23.7505 115.133 23.5688 115.625 23.2056C116.129 22.8306 116.381 22.3442 116.381 21.7466ZM154.736 27.0024H149.463V16.0337H139.18V27.0024H133.906V1.40869H139.18V11.7798H149.463V1.40869H154.736V27.0024ZM170.047 27.0024C169.812 26.5454 169.643 25.9771 169.537 25.2974C168.307 26.6685 166.707 27.354 164.738 27.354C162.875 27.354 161.328 26.8149 160.098 25.7368C158.879 24.6587 158.27 23.2993 158.27 21.6587C158.27 19.6431 159.014 18.0962 160.502 17.0181C162.002 15.9399 164.164 15.395 166.988 15.3833H169.326V14.2935C169.326 13.4146 169.098 12.7114 168.641 12.1841C168.195 11.6567 167.486 11.3931 166.514 11.3931C165.658 11.3931 164.984 11.5981 164.492 12.0083C164.012 12.4185 163.771 12.981 163.771 13.6958H158.691C158.691 12.5942 159.031 11.5747 159.711 10.6372C160.391 9.69971 161.352 8.96729 162.594 8.43994C163.836 7.90088 165.23 7.63135 166.777 7.63135C169.121 7.63135 170.979 8.22314 172.35 9.40674C173.732 10.5786 174.424 12.231 174.424 14.3638V22.6079C174.436 24.4126 174.688 25.7778 175.18 26.7036V27.0024H170.047ZM165.846 23.4692C166.596 23.4692 167.287 23.3052 167.92 22.9771C168.553 22.6372 169.021 22.186 169.326 21.6235V18.354H167.428C164.885 18.354 163.531 19.2329 163.367 20.9907L163.35 21.2896C163.35 21.9224 163.572 22.4438 164.018 22.854C164.463 23.2642 165.072 23.4692 165.846 23.4692ZM189.014 12.7466C188.322 12.6528 187.713 12.606 187.186 12.606C185.264 12.606 184.004 13.2563 183.406 14.5571V27.0024H178.326V7.98291H183.125L183.266 10.2505C184.285 8.50439 185.697 7.63135 187.502 7.63135C188.064 7.63135 188.592 7.70752 189.084 7.85986L189.014 12.7466ZM196.238 7.98291L196.396 10.1099C197.744 8.45752 199.566 7.63135 201.863 7.63135C204.312 7.63135 205.994 8.59814 206.908 10.5317C208.244 8.59814 210.148 7.63135 212.621 7.63135C214.684 7.63135 216.219 8.23486 217.227 9.44189C218.234 10.6372 218.738 12.4419 218.738 14.856V27.0024H213.641V14.8735C213.641 13.7954 213.43 13.0103 213.008 12.5181C212.586 12.0142 211.842 11.7622 210.775 11.7622C209.252 11.7622 208.197 12.4888 207.611 13.9419L207.629 27.0024H202.549V14.8911C202.549 13.7896 202.332 12.9927 201.898 12.5005C201.465 12.0083 200.727 11.7622 199.684 11.7622C198.242 11.7622 197.199 12.3599 196.555 13.5552V27.0024H191.475V7.98291H196.238Z" fill="#19578D"/>
</svg>
