<svg width="56" height="64" viewBox="0 0 56 64" fill="none" xmlns="http://www.w3.org/2000/svg">
<path d="M28 0.5L0 21.5V63.5H56V21.5L28 0.5ZM20.125 33.75C21.2853 33.75 22.3981 34.2109 23.2186 35.0314C24.0391 35.8519 24.5 36.9647 24.5 38.125C24.5 39.2853 24.0391 40.3981 23.2186 41.2186C22.3981 42.0391 21.2853 42.5 20.125 42.5C18.9647 42.5 17.8519 42.0391 17.0314 41.2186C16.2109 40.3981 15.75 39.2853 15.75 38.125C15.75 36.9647 16.2109 35.8519 17.0314 35.0314C17.8519 34.2109 18.9647 33.75 20.125 33.75ZM45.5 53H42V47.75H14V53H10.5V28.5H14V44.25H26.25V32H38.5C42.35 32 45.5 35.15 45.5 39V53Z" fill="white"/>
</svg>
