<svg width="67" height="63" viewBox="0 0 67 63" fill="none" xmlns="http://www.w3.org/2000/svg">
<path d="M59.9667 0.599976H26.1889V11.1555H34.6333V15.3778H7.18889C3.6 15.3778 0.855553 18.1222 0.855553 21.7111V44.9333C0.855553 48.5222 3.6 51.2666 7.18889 51.2666H9.3V62.0333L22.6 51.2666H36.7444V36.4889H59.9667C63.5556 36.4889 66.3 33.7444 66.3 30.1555V6.93331C66.3 3.34442 63.5556 0.599976 59.9667 0.599976ZM23.6556 42.6111L22.6 39.2333H16.0556L14.7889 42.6111H9.72222L16.6889 23.8222H21.7556L28.7222 42.6111H23.6556ZM55.7444 25.9333V30.1555C53 30.1555 50.0444 29.3111 47.5111 28.0444C44.9778 29.3111 42.0222 29.9444 39.0667 30.1555L38.8556 25.9333C40.3333 25.9333 41.8111 25.7222 43.2889 25.3C41.3889 23.4 40.1222 21.0778 39.4889 18.5444H43.9222C44.5556 20.4444 45.8222 21.9222 47.3 23.1889C49.6222 21.2889 51.1 18.5444 51.3111 15.3778H38.6445V11.1555H44.9778V6.93331H49.2V11.1555H56.1667L56.3778 13.2666C56.5889 17.7 54.9 22.1333 51.7333 25.3C53.2111 25.7222 54.4778 25.9333 55.7444 25.9333Z" fill="white"/>
</svg>
