<svg width="50" height="45" viewBox="0 0 50 45" fill="none" xmlns="http://www.w3.org/2000/svg">
<path d="M46.93 15.3875L43.51 5.1275C43.0139 3.63371 42.0596 2.33425 40.7828 1.41377C39.506 0.49329 37.9715 -0.00139551 36.3975 2.95694e-06H13.6025C12.0285 -0.00139551 10.494 0.49329 9.21721 1.41377C7.94039 2.33425 6.98612 3.63371 6.49 5.1275L3.07 15.3875C2.16056 15.768 1.3839 16.4089 0.837667 17.2296C0.291433 18.0503 -1.20225e-06 19.0142 0 20V32.5C0 34.345 1.01 35.94 2.5 36.8075V42.5C2.5 43.1631 2.76339 43.7989 3.23223 44.2678C3.70107 44.7366 4.33696 45 5 45H7.5C8.16304 45 8.79893 44.7366 9.26777 44.2678C9.73661 43.7989 10 43.1631 10 42.5V37.5H40V42.5C40 43.1631 40.2634 43.7989 40.7322 44.2678C41.2011 44.7366 41.837 45 42.5 45H45C45.663 45 46.2989 44.7366 46.7678 44.2678C47.2366 43.7989 47.5 43.1631 47.5 42.5V36.8075C48.2585 36.3725 48.8889 35.7453 49.3278 34.9891C49.7667 34.2329 49.9986 33.3744 50 32.5V20C50 19.0142 49.7086 18.0503 49.1623 17.2296C48.6161 16.4089 47.8394 15.768 46.93 15.3875ZM13.6025 5H36.395C37.4725 5 38.4275 5.685 38.7675 6.71L41.5325 15H8.4675L11.23 6.71C11.3959 6.21199 11.7143 5.77882 12.1401 5.4719C12.566 5.16498 13.0776 4.99988 13.6025 5ZM8.75 30C8.25738 29.9998 7.76961 29.9027 7.31455 29.714C6.85949 29.5253 6.44605 29.2489 6.09783 28.9004C5.74961 28.552 5.47343 28.1383 5.28507 27.6831C5.0967 27.228 4.99984 26.7401 5 26.2475C5.00016 25.7549 5.09736 25.2671 5.28603 24.8121C5.47469 24.357 5.75115 23.9436 6.0996 23.5953C6.44805 23.2471 6.86168 22.9709 7.31686 22.7826C7.77205 22.5942 8.25988 22.4973 8.7525 22.4975C9.74739 22.4978 10.7014 22.8934 11.4047 23.5971C12.1079 24.3008 12.5028 25.2551 12.5025 26.25C12.5022 27.2449 12.1066 28.1989 11.4029 28.9022C10.6992 29.6054 9.74489 30.0003 8.75 30ZM41.25 30C40.7574 29.9998 40.2696 29.9027 39.8146 29.714C39.3595 29.5253 38.9461 29.2489 38.5978 28.9004C38.2496 28.552 37.9734 28.1383 37.7851 27.6831C37.5967 27.228 37.4998 26.7401 37.5 26.2475C37.5002 25.7549 37.5974 25.2671 37.786 24.8121C37.9747 24.357 38.2511 23.9436 38.5996 23.5953C38.9481 23.2471 39.3617 22.9709 39.8169 22.7826C40.2721 22.5942 40.7599 22.4973 41.2525 22.4975C42.2474 22.4978 43.2014 22.8934 43.9047 23.5971C44.6079 24.3008 45.0028 25.2551 45.0025 26.25C45.0022 27.2449 44.6066 28.1989 43.9029 28.9022C43.1992 29.6054 42.2449 30.0003 41.25 30Z" fill="white"/>
</svg>
