<svg width="150" height="150" viewBox="0 0 150 150" fill="none" xmlns="http://www.w3.org/2000/svg">
<path d="M145.621 124.61L126.479 105.468C127.27 102.751 127.714 99.8859 127.714 96.9466C127.714 80.2247 114.351 66.6645 97.7283 66.2446V33.3693C97.7283 32.2827 97.2835 31.2205 96.5179 30.4052L67.3231 1.21041C66.5574 0.444735 65.4953 0 64.359 0H4.215C1.91797 0 0.0408325 1.8523 0.0408325 4.17417V123.548C0.0408325 125.845 1.89313 127.722 4.215 127.722C4.215 127.722 96.0983 127.747 97.0123 127.747C100.001 127.747 102.866 127.302 105.583 126.512L124.676 145.605C131.073 151.83 140.286 151.089 145.646 145.605C151.401 139.826 151.401 130.415 145.621 124.61ZM68.558 14.2269L83.5262 29.1951H68.558V14.2269ZM8.36472 119.374V8.34872H60.2341V33.3448C60.2341 35.6419 62.0864 37.519 64.4083 37.519H89.454V67.2082C76.1655 70.5922 66.3102 82.6207 66.3102 96.9714C66.3102 105.789 70.0645 113.743 76.0172 119.35H8.36472V119.374ZM97.0367 119.621C84.5387 119.621 74.3869 109.494 74.3869 96.9714C74.3869 84.4485 84.5138 74.3216 97.0367 74.3216C109.56 74.3216 119.687 84.4485 119.687 96.9714C119.687 109.494 109.51 119.621 97.0367 119.621ZM139.743 139.702C137.298 142.147 133 142.147 130.555 139.702L113.635 122.782C117.291 120.411 120.428 117.299 122.823 113.594L139.743 130.514C142.262 133.058 142.262 137.158 139.743 139.702Z" fill="#19578D"/>
</svg>
